<svg xmlns="http://www.w3.org/2000/svg" viewBox="0 0 642 569" width="152" height="135">
	<style>
		tspan { white-space:pre }
		.shp0 { fill: #ff7234 } 
		.shp1 { fill: #007cc6 } 
		.shp2 { fill: #00ab8d } 
		.shp3 { fill: #ffffff } 
		.shp4 { fill: #009772 } 
	</style>
	<g id="Layer 1">
		<g id="&lt;Group&gt;">
			<path id="&lt;Path&gt;" class="shp0" d="M-174.57 506.51L-165.2 694.69L-108 510.7L-146.78 697.02L-43.58 523.15L-129.26 701.63L16.63 543.45L-113.2 708.35L70.71 570.95L-99.1 716.97L116.9 604.76L-87.44 727.21L153.72 643.81L-78.56 738.75L179.98 686.82L-72.78 751.22L194.86 732.44L-70.27 764.2L197.85 779.18L-71.11 777.29L-60.94 779.18L-288.28 779.18L-278.03 777.27L-547 779.18L-278.87 764.19L-544 732.44L-276.36 751.2L-529.13 686.82L-270.57 738.74L-502.87 643.81L-261.7 727.2L-466.05 604.76L-250.02 716.96L-419.85 570.95L-235.93 708.34L-365.78 543.45L-219.87 701.62L-305.57 523.15L-202.33 697.02L-241.14 510.7L-183.92 694.68L-174.57 506.51Z" />
			<path id="&lt;Path&gt;" class="shp1" d="M-462.6 895.23C-480.11 1029.16 -421.86 1115.47 -287.83 1154.16C-72.43 1091.04 57.08 969.39 100.68 789.19L-460.25 789C-457.5 779.83 -455.81 771.02 -452.96 762.41L133.25 762.41C102.86 967.55 -38.2 1107.55 -289.91 1182.4C-395.57 1156.48 -460.18 1092.87 -483.76 991.58C-491.43 961.82 -492.12 928.03 -488.81 895.24L-462.6 895.23Z" />
			<path id="&lt;Path&gt;" class="shp2" d="M-487.51 878.8L-466.98 804.95L76.84 804.95C48.05 886.32 2.92 953.91 -58.55 1007.7C-138.84 1077.98 -213.63 1120.05 -282.94 1133.92C-332.32 1106.17 -353.25 1062.31 -345.74 1002.33C-338.93 947.94 -319.76 915.71 -288.21 905.65L-190.19 905.65C-226.88 923.87 -250.57 945.58 -261.28 970.78C-274.4 1001.66 -272.25 1026.95 -254.8 1046.64C-206.92 1027.65 -166.03 1003.92 -132.13 975.48C-105.47 953.1 -78.12 920.87 -50.1 878.8L-487.51 878.8Z" />
			<path id="&lt;Path&gt;" class="shp3" d="M-381.13 911.99L-385.24 912.08L-393.64 906.21L-404.6 898.99L-406.01 887.11L-407.78 885.34L-407.22 880.23L-413.45 879.57L-412.57 871.31L-420.61 871.87L-428.98 868.14L-441.7 868.04L-447.76 870.02L-457.73 870.53L-462.11 871.97L-468.95 871.35L-471.34 873.19L-498.01 875.94L-521.94 875.14L-510.36 846.01L-510.47 845.95L-517.93 836.69L-516.79 825.98L-516.34 821.76L-515.26 819.05L-513.64 803.62L-399.04 804.96L-383.13 805.14L-361.22 805.4L-344.87 805.54L-337.63 813.01L-334.45 816.25L-328.93 823.75L-214.66 821.77L-214.64 821.64L-214.27 818.26L-207.33 803.01L-196.86 804.12L-185.04 797.76L-177.6 807.75L-177.03 808.01L-173.35 810.71L-170.53 811.01L-164.9 811.45L-151.69 812.87L-144.87 836.39L-138.89 849.16L-123.58 888.56L-113.06 906.78L-108.36 913.76L-97.66 929.54L-97.25 937.88L-94.72 950.03L-91.97 959.54L-85.33 972.8L-80.38 988.3L-52.55 1028.23L-50.99 1041.7L-43.04 1087.28L-44.63 1119.43L-50.33 1134L-56.81 1147.91L-62.76 1154.79L-70.82 1170.44L-79.13 1171.01L-101.17 1182.89L-109.88 1181.97L-114.66 1185L-133.65 1183.25L-152.48 1163.12L-140.39 1140.91L-140.27 1139.78L-151.1 1137.27L-179.75 1117.53L-191.02 1092.93L-190.34 1089.27L-193.02 1088.28L-222.09 1057.79L-229.27 1038.78L-233.08 1033.86L-248.66 1022.82L-242.82 1015.38L-249.58 989.31L-246.49 972.68L-244.98 954.49L-245.9 937.53L-250.01 931.36L-268.59 916.82L-276.28 912.54L-289.12 907.63L-288.06 897.75L-288.57 897.66L-293.17 893.57L-297.4 892.37L-306.85 886.08L-309.06 881.04L-309.66 881.48L-326.73 896.51L-333.78 897.06L-343.45 905.14L-353.84 906.5L-365.72 911.65L-370.44 911.75L-381.13 911.99Z" />
			<path id="&lt;Path&gt;" class="shp4" d="M-500.77 859.63L-496.83 855.18L-491.93 850.5L-489.65 846.81L-489.35 844.01L-489.88 841.59L-493.16 838.41L-497.03 834.85L-499.85 833.29L-501.1 831.74L-500.67 827.7L-500.46 825.68L-499.38 822.96L-499.07 820L-361.38 821.61L-351.79 821.69L-349.24 824.32L-346.82 826.78L-342.42 832.76L-342.27 835.77L-342.11 840.19L-216.3 838.01L-212.82 842.32L-212.91 846.09L-211.4 846.72L-212.27 850.4L-211.7 852.51L-208.31 854.6L-204.57 856.42L-199.11 856.84L-198.18 855.52L-195.26 850.33L-192.96 847.9L-193.22 844.41L-195.5 836.3L-196.03 833.88L-198.92 829.95L-198.83 826.18L-198.53 823.38L-198.45 822.61L-197.42 820.35L-194.93 820.62L-192.96 821.3L-192.86 820.37L-189.69 818.66L-188.03 820.88L-185.18 822.13L-179.92 826L-177.31 826.59L-172.02 827.15L-166.4 827.59L-164.22 827.82L-160.08 842.11L-153.8 855.53L-138.24 895.59L-126.81 915.38L-121.79 922.84L-113.63 934.88L-113.38 939.94L-110.46 953.95L-107.13 965.47L-100.38 978.94L-95.07 995.55L-68.18 1034.14L-67.03 1044.02L-59.31 1088.28L-60.69 1115.99L-63.54 1111.75L-65.24 1127.63L-70.54 1139.02L-76.28 1145.64L-81.05 1154.89L-83.74 1155.08L-104.45 1166.25L-113.78 1165.26L-118.68 1168.36L-129.43 1167.37L-137.98 1163.46L-134.95 1158.59L-130.33 1159.56L-124.79 1162.2L-121.62 1160.49L-127.18 1152.18L-124.83 1147.87L-120.21 1145.84L-118.14 1141.18L-124.05 1140.55L-123.64 1136.66L-121.38 1131.71L-124.32 1126.84L-144.44 1122.17L-166.87 1106.72L-174.15 1090.84L-170.42 1070.62L-170.17 1065.3L-176.61 1071.06L-181.46 1075.27L-183.89 1074.38L-185.27 1051.88L-181.85 1047.84L-181.4 1043.64L-180.67 1036.79L-183.32 1042.49L-185.63 1044.92L-189.49 1045.77L-195.18 1044.53L-196.22 1043.95L-193.45 1053.37L-197.18 1054.39L-200.14 1052.66L-207.8 1043.34L-208.09 1048.98L-214.96 1030.78L-221.74 1022.03L-225.4 1019.44L-223.58 1017.11L-216.79 1012.49L-209.45 1004.14L-208.98 998.21L-206.79 995.45L-206.33 991.1L-212.78 985.21L-215.16 995.66L-220.04 989.79L-222.83 990.91L-222.98 992.31L-219.81 999.42L-219.24 1002.94L-222.38 1004.34L-224.94 1006.27L-228.75 1005.07L-232.99 988.73L-230.41 974.84L-228.73 954.72L-229.96 932.24L-237.96 920.21L-259.61 903.27L-269.41 897.82L-271.68 896.95L-270.73 888.08L-271.6 884.37L-281.16 882.56L-285.19 878.99L-290.53 877.47L-293.91 875.22L-296.45 869.45L-305.21 864.58L-310.04 864.06L-314.03 864.58L-319.83 868.84L-333.38 880.78L-340.2 881.31L-350.22 889.68L-358.2 890.72L-369.25 895.52L-380.3 895.76L-384.54 892.79L-389.4 889.6L-390.73 878.44L-390.83 879.37L-388.55 881.66L-387.84 886.77L-384.11 890.16L-379.74 889.05L-378.48 877.23L-379.65 870.5L-383.56 865.83L-391.72 865.59L-395.61 865.18L-395.36 862.84L-395.23 861.59L-382.93 859.91L-386.54 856.86L-404.96 855.52L-410.57 854.93L-411.71 853.86L-411.36 850.59L-407.76 849.24L-407.53 847.07L-413.28 846.45L-416.99 848.73L-420.44 850.09L-417.7 855.42L-423.26 852.94L-425.04 851.96L-444.23 851.81L-450.75 853.95L-460.72 854.46L-463.98 855.53L-463.76 853.5L-462.17 850.37L-463.1 847.28L-465.34 844.68L-474.77 847.45L-474.96 849.32L-473.59 852.62L-473.8 854.64L-477.57 857.54L-498.58 859.71L-500.77 859.63Z" />
			<path id="&lt;Path&gt;" class="shp3" d="M-381.13 911.99L-385.24 912.08L-393.64 906.21L-404.6 898.99L-406.01 887.11L-407.78 885.34L-407.22 880.23L-413.45 879.57L-412.57 871.31L-420.61 871.87L-428.98 868.14L-441.7 868.04L-447.76 870.02L-457.73 870.53L-462.11 871.97L-468.95 871.35L-471.34 873.19L-498.01 875.94L-521.94 875.14L-510.36 846.01L-510.47 845.95L-517.93 836.69L-516.79 825.98L-516.34 821.76L-515.26 819.05L-513.64 803.62L-399.04 804.96L-383.13 805.14L-361.22 805.4L-344.87 805.54L-337.63 813.01L-334.45 816.25L-328.93 823.75L-214.66 821.77L-214.64 821.64L-214.27 818.26L-207.33 803.01L-196.86 804.12L-185.04 797.76L-177.6 807.75L-177.03 808.01L-173.35 810.71L-170.53 811.01L-164.9 811.45L-151.69 812.87L-144.87 836.39L-138.89 849.16L-123.58 888.56L-113.06 906.78L-108.36 913.76L-97.66 929.54L-97.25 937.88L-94.72 950.03L-91.97 959.54L-85.33 972.8L-80.38 988.3L-52.55 1028.23L-50.99 1041.7L-43.04 1087.28L-44.63 1119.43L-50.33 1134L-56.81 1147.91L-62.76 1154.79L-70.82 1170.44L-79.13 1171.01L-101.17 1182.89L-109.88 1181.97L-114.66 1185L-133.65 1183.25L-152.48 1163.12L-140.39 1140.91L-140.27 1139.78L-151.1 1137.27L-179.75 1117.53L-191.02 1092.93L-190.34 1089.27L-193.02 1088.28L-222.09 1057.79L-229.27 1038.78L-233.08 1033.86L-248.66 1022.82L-242.82 1015.38L-249.58 989.31L-246.49 972.68L-244.98 954.49L-245.9 937.53L-250.01 931.36L-268.59 916.82L-276.28 912.54L-289.12 907.63L-288.06 897.75L-288.57 897.66L-293.17 893.57L-297.4 892.37L-306.85 886.08L-309.06 881.04L-309.66 881.48L-326.73 896.51L-333.78 897.06L-343.45 905.14L-353.84 906.5L-365.72 911.65L-370.44 911.75L-381.13 911.99Z" />
			<path id="&lt;Path&gt;" class="shp0" d="M-500.77 859.63L-496.83 855.18L-491.93 850.5L-489.65 846.81L-489.35 844.01L-489.88 841.59L-493.16 838.41L-497.03 834.85L-499.85 833.29L-501.1 831.74L-500.67 827.7L-500.46 825.68L-499.38 822.96L-499.07 820L-361.38 821.61L-351.79 821.69L-349.24 824.32L-346.82 826.78L-342.42 832.76L-342.27 835.77L-342.11 840.19L-216.3 838.01L-212.82 842.32L-212.91 846.09L-211.4 846.72L-212.27 850.4L-211.7 852.51L-208.31 854.6L-204.57 856.42L-199.11 856.84L-198.18 855.52L-195.26 850.33L-192.96 847.9L-193.22 844.41L-195.5 836.3L-196.03 833.88L-198.92 829.95L-198.83 826.18L-198.53 823.38L-198.45 822.61L-197.42 820.35L-194.93 820.62L-192.96 821.3L-192.86 820.37L-189.69 818.66L-188.03 820.88L-185.18 822.13L-179.92 826L-177.31 826.59L-172.02 827.15L-166.4 827.59L-164.22 827.82L-160.08 842.11L-153.8 855.53L-138.24 895.59L-126.81 915.38L-121.79 922.84L-113.63 934.88L-113.38 939.94L-110.46 953.95L-107.13 965.47L-100.38 978.94L-95.07 995.55L-68.18 1034.14L-67.03 1044.02L-59.31 1088.28L-60.69 1115.99L-63.54 1111.75L-65.24 1127.63L-70.54 1139.02L-76.28 1145.64L-81.05 1154.89L-83.74 1155.08L-104.45 1166.25L-113.78 1165.26L-118.68 1168.36L-129.43 1167.37L-137.98 1163.46L-134.95 1158.59L-130.33 1159.56L-124.79 1162.2L-121.62 1160.49L-127.18 1152.18L-124.83 1147.87L-120.21 1145.84L-118.14 1141.18L-124.05 1140.55L-123.64 1136.66L-121.38 1131.71L-124.32 1126.84L-144.44 1122.17L-166.87 1106.72L-174.15 1090.84L-170.42 1070.62L-170.17 1065.3L-176.61 1071.06L-181.46 1075.27L-183.89 1074.38L-185.27 1051.88L-181.85 1047.84L-181.4 1043.64L-180.67 1036.79L-183.32 1042.49L-185.63 1044.92L-189.49 1045.77L-195.18 1044.53L-196.22 1043.95L-193.45 1053.37L-197.18 1054.39L-200.14 1052.66L-207.8 1043.34L-208.09 1048.98L-214.96 1030.78L-221.74 1022.03L-225.4 1019.44L-223.58 1017.11L-216.79 1012.49L-209.45 1004.14L-208.98 998.21L-206.79 995.45L-206.33 991.1L-212.78 985.21L-215.16 995.66L-220.04 989.79L-222.83 990.91L-222.98 992.31L-219.81 999.42L-219.24 1002.94L-222.38 1004.34L-224.94 1006.27L-228.75 1005.07L-232.99 988.73L-230.41 974.84L-228.73 954.72L-229.96 932.24L-237.96 920.21L-259.61 903.27L-269.41 897.82L-271.68 896.95L-270.73 888.08L-271.6 884.37L-281.16 882.56L-285.19 878.99L-290.53 877.47L-293.91 875.22L-296.45 869.45L-305.21 864.58L-310.04 864.06L-314.03 864.58L-319.83 868.84L-333.38 880.78L-340.2 881.31L-350.22 889.68L-358.2 890.72L-369.25 895.52L-380.3 895.76L-384.54 892.79L-389.4 889.6L-390.73 878.44L-390.83 879.37L-388.55 881.66L-387.84 886.77L-384.11 890.16L-379.74 889.05L-378.48 877.23L-379.65 870.5L-383.56 865.83L-391.72 865.59L-395.61 865.18L-395.36 862.84L-395.23 861.59L-382.93 859.91L-386.54 856.86L-404.96 855.52L-410.57 854.93L-411.71 853.86L-411.36 850.59L-407.76 849.24L-407.53 847.07L-413.28 846.45L-416.99 848.73L-420.44 850.09L-417.7 855.42L-423.26 852.94L-425.04 851.96L-444.23 851.81L-450.75 853.95L-460.72 854.46L-463.98 855.53L-463.76 853.5L-462.17 850.37L-463.1 847.28L-465.34 844.68L-474.77 847.45L-474.96 849.32L-473.59 852.62L-473.8 854.64L-477.57 857.54L-498.58 859.71L-500.77 859.63Z" />
			<path id="&lt;Compound Path&gt;" fill-rule="evenodd" class="shp2" d="M126.87 1130.39L137.84 1081.01L147.58 1081.01L143.53 1099.27L154.54 1099.27L158.6 1081.01L168.45 1081.01L157.48 1130.39L147.63 1130.39L152.4 1108.91L141.39 1108.91L136.62 1130.39L126.87 1130.39ZM169.41 1130.39L180.37 1081.01L190.42 1081.01L179.45 1130.39L169.41 1130.39ZM211.69 1102.48L230.04 1102.48C229.99 1102.73 229.92 1103.11 229.83 1103.61C229.74 1104.12 229.66 1104.5 229.61 1104.75C227.78 1113 224.83 1119.44 220.77 1124.06C216.71 1128.69 212.01 1131 206.67 1131C201.46 1131 197.83 1128.73 195.79 1124.22C193.76 1119.7 193.6 1113.53 195.33 1105.73C197.08 1097.86 200.04 1091.66 204.2 1087.14C208.36 1082.63 213.17 1080.36 218.62 1080.36C222.33 1080.36 225.22 1081.45 227.32 1083.61C229.42 1085.78 230.61 1088.92 230.89 1093.04L221.12 1097.14C221.28 1094.68 220.96 1092.84 220.16 1091.62C219.37 1090.41 218.08 1089.79 216.33 1089.79C213.68 1089.79 211.47 1091.07 209.68 1093.64C207.88 1096.19 206.37 1100.22 205.15 1105.73C203.98 1110.98 203.74 1114.96 204.44 1117.66C205.14 1120.38 206.73 1121.73 209.24 1121.73C211.42 1121.73 213.33 1120.8 214.96 1118.97C216.61 1117.13 217.79 1114.55 218.54 1111.21L209.75 1111.21L211.69 1102.48ZM233.86 1130.39L244.82 1081.01L254.57 1081.01L250.51 1099.27L261.53 1099.27L265.58 1081.01L275.43 1081.01L264.46 1130.39L254.62 1130.39L259.39 1108.91L248.37 1108.91L243.6 1130.39L233.86 1130.39ZM290.1 1128.67L292.38 1118.41C293.37 1119.5 294.41 1120.31 295.48 1120.85C296.56 1121.39 297.72 1121.66 298.93 1121.66C300.6 1121.66 302.01 1121.22 303.16 1120.34C304.31 1119.46 305.06 1118.27 305.4 1116.75C305.81 1114.88 304.97 1112.85 302.86 1110.67C302.27 1110.05 301.83 1109.58 301.55 1109.25C299.14 1106.53 297.6 1104.11 296.94 1101.95C296.3 1099.8 296.28 1097.37 296.88 1094.63C297.83 1090.37 299.79 1086.93 302.78 1084.3C305.76 1081.68 309.2 1080.36 313.08 1080.36C314.45 1080.36 315.76 1080.56 317.01 1080.95C318.27 1081.34 319.54 1081.97 320.85 1082.8L318.91 1091.52C317.37 1090.68 316.14 1090.11 315.25 1089.79C314.36 1089.48 313.54 1089.32 312.81 1089.32C311.39 1089.32 310.12 1089.77 309.02 1090.66C307.92 1091.55 307.22 1092.71 306.9 1094.16C306.62 1095.42 306.69 1096.59 307.13 1097.69C307.56 1098.79 308.78 1100.41 310.78 1102.54C313.46 1105.39 315.08 1107.75 315.61 1109.63C316.13 1111.52 316.1 1113.78 315.51 1116.45C314.51 1120.94 312.46 1124.49 309.34 1127.1C306.23 1129.7 302.48 1131 298.1 1131C296.44 1131 294.94 1130.8 293.61 1130.42C292.29 1130.04 291.13 1129.45 290.1 1128.67ZM347.16 1129.84C346.13 1130.24 345.11 1130.53 344.11 1130.71C343.1 1130.91 342.13 1131 341.16 1131C334.86 1131 330.26 1128.71 327.34 1124.13C324.42 1119.56 323.79 1113.55 325.43 1106.14C327.15 1098.43 330.46 1092.2 335.35 1087.46C340.25 1082.73 345.8 1080.36 352 1080.36C353.14 1080.36 354.21 1080.45 355.18 1080.65C356.15 1080.85 357.06 1081.14 357.89 1081.55L355.84 1090.79C354.97 1090.41 354.12 1090.12 353.26 1089.95C352.42 1089.76 351.56 1089.67 350.71 1089.67C347.41 1089.67 344.41 1091.12 341.72 1094.03C339.02 1096.94 337.14 1100.8 336.07 1105.6C335.04 1110.23 335.26 1113.97 336.74 1116.83C338.22 1119.7 340.61 1121.13 343.93 1121.13C344.76 1121.13 345.63 1121.02 346.54 1120.83C347.46 1120.62 348.4 1120.32 349.36 1119.94L347.16 1129.84ZM356.97 1130.39L367.94 1081.01L377.68 1081.01L373.63 1099.27L384.64 1099.27L388.7 1081.01L398.54 1081.01L387.58 1130.39L377.73 1130.39L382.5 1108.91L371.49 1108.91L366.72 1130.39L356.97 1130.39ZM437.47 1106.41C435.8 1113.94 432.89 1119.91 428.75 1124.35C424.61 1128.78 419.9 1131 414.62 1131C409.16 1131 405.41 1128.77 403.36 1124.32C401.3 1119.87 401.15 1113.67 402.92 1105.73C404.67 1097.82 407.59 1091.61 411.67 1087.12C415.75 1082.61 420.48 1080.36 425.87 1080.36C431.28 1080.36 435.02 1082.66 437.09 1087.27C439.15 1091.86 439.29 1098.25 437.47 1106.41ZM416.71 1121.6C419.24 1121.6 421.41 1120.28 423.25 1117.64C425.09 1115 426.6 1111.04 427.78 1105.73C428.96 1100.38 429.22 1096.4 428.55 1093.75C427.89 1091.11 426.3 1089.79 423.77 1089.79C421.25 1089.79 419.07 1091.11 417.25 1093.73C415.43 1096.36 413.92 1100.36 412.73 1105.73C411.54 1111.08 411.28 1115.05 411.94 1117.68C412.59 1120.3 414.18 1121.6 416.71 1121.6ZM480.42 1106.41C478.75 1113.94 475.84 1119.91 471.7 1124.35C467.56 1128.78 462.85 1131 457.57 1131C452.11 1131 448.36 1128.77 446.31 1124.32C444.25 1119.87 444.1 1113.67 445.87 1105.73C447.63 1097.82 450.54 1091.61 454.62 1087.12C458.7 1082.61 463.43 1080.36 468.82 1080.36C474.23 1080.36 477.97 1082.66 480.04 1087.27C482.11 1091.86 482.23 1098.25 480.42 1106.41ZM459.66 1121.6C462.19 1121.6 464.36 1120.28 466.2 1117.64C468.04 1115 469.55 1111.04 470.72 1105.73C471.91 1100.38 472.17 1096.4 471.5 1093.75C470.84 1091.11 469.25 1089.79 466.72 1089.79C464.2 1089.79 462.02 1091.11 460.21 1093.73C458.38 1096.36 456.88 1100.36 455.68 1105.73C454.49 1111.08 454.23 1115.05 454.89 1117.68C455.54 1120.3 457.13 1121.6 459.66 1121.6ZM485 1130.39L495.97 1081.01L505.71 1081.01L496.89 1120.75L508.11 1120.75L505.97 1130.39L485 1130.39ZM524.77 1130.39L547.23 1081.01L557.56 1081.01L557.55 1130.39L547.7 1130.39L547.97 1121.73L538.05 1121.73L534.61 1130.39L524.77 1130.39ZM541.55 1114.05L548.12 1114.05C548.2 1110.6 548.4 1106.98 548.7 1103.21C549 1099.43 549.41 1095.45 549.93 1091.26C548.62 1094.96 547.25 1098.71 545.86 1102.51C544.46 1106.3 543.03 1110.15 541.55 1114.05ZM567.71 1130.39L576.65 1090.14L569.11 1090.14L571.13 1081.01L596.12 1081.01L594.09 1090.14L586.55 1090.14L577.61 1130.39L567.71 1130.39ZM593.85 1130.39L604.81 1081.01L614.56 1081.01L610.5 1099.27L621.52 1099.27L625.57 1081.01L635.42 1081.01L624.45 1130.39L614.61 1130.39L619.38 1108.91L608.36 1108.91L603.59 1130.39L593.85 1130.39ZM635.98 1130.39L646.95 1081.01L656.69 1081.01L647.87 1120.75L659.09 1120.75L656.95 1130.39L635.98 1130.39ZM664.65 1130.39L675.62 1081.01L696.38 1081.01L694.36 1090.14L683.13 1090.14L680.91 1100.12L691.09 1100.12L689.08 1109.18L678.9 1109.18L676.33 1120.75L687.56 1120.75L685.42 1130.39L664.65 1130.39ZM700.52 1130.39L709.46 1090.14L701.92 1090.14L703.95 1081.01L728.93 1081.01L726.91 1090.14L719.37 1090.14L710.43 1130.39L700.52 1130.39ZM727.07 1130.39L738.04 1081.01L748.08 1081.01L737.11 1130.39L727.07 1130.39ZM774.7 1129.84C773.67 1130.24 772.64 1130.53 771.64 1130.71C770.64 1130.91 769.66 1131 768.69 1131C762.4 1131 757.8 1128.71 754.88 1124.13C751.95 1119.56 751.33 1113.55 752.97 1106.14C754.68 1098.43 758 1092.2 762.89 1087.46C767.79 1082.73 773.34 1080.36 779.54 1080.36C780.68 1080.36 781.74 1080.45 782.72 1080.65C783.69 1080.85 784.59 1081.14 785.43 1081.55L783.37 1090.79C782.51 1090.41 781.65 1090.12 780.8 1089.95C779.95 1089.76 779.1 1089.67 778.24 1089.67C774.95 1089.67 771.95 1091.12 769.26 1094.03C766.56 1096.94 764.68 1100.8 763.61 1105.6C762.58 1110.23 762.8 1113.97 764.28 1116.83C765.75 1119.7 768.15 1121.13 771.46 1121.13C772.3 1121.13 773.17 1121.02 774.08 1120.83C774.99 1120.62 775.94 1120.32 776.9 1119.94L774.7 1129.84ZM795.61 1130.39L818.07 1081.01L828.39 1081.01L828.38 1130.39L818.53 1130.39L818.81 1121.73L808.89 1121.73L805.44 1130.39L795.61 1130.39ZM812.38 1114.05L818.95 1114.05C819.04 1110.6 819.24 1106.98 819.54 1103.21C819.83 1099.43 820.24 1095.45 820.77 1091.26C819.45 1094.96 818.09 1098.71 816.69 1102.51C815.29 1106.3 813.86 1110.15 812.38 1114.05ZM834.63 1128.67L836.91 1118.41C837.9 1119.5 838.95 1120.31 840.02 1120.85C841.1 1121.39 842.25 1121.66 843.46 1121.66C845.13 1121.66 846.54 1121.22 847.69 1120.34C848.84 1119.46 849.6 1118.27 849.93 1116.75C850.35 1114.88 849.51 1112.85 847.39 1110.67C846.8 1110.05 846.36 1109.58 846.08 1109.25C843.67 1106.53 842.13 1104.11 841.48 1101.95C840.83 1099.8 840.81 1097.37 841.42 1094.63C842.36 1090.37 844.33 1086.93 847.31 1084.3C850.3 1081.68 853.73 1080.36 857.61 1080.36C858.98 1080.36 860.29 1080.56 861.54 1080.95C862.81 1081.34 864.08 1081.97 865.38 1082.8L863.45 1091.52C861.9 1090.68 860.68 1090.11 859.79 1089.79C858.9 1089.48 858.08 1089.32 857.34 1089.32C855.92 1089.32 854.65 1089.77 853.56 1090.66C852.46 1091.55 851.75 1092.71 851.43 1094.16C851.15 1095.42 851.22 1096.59 851.66 1097.69C852.1 1098.79 853.31 1100.41 855.32 1102.54C858 1105.39 859.61 1107.75 860.14 1109.63C860.66 1111.52 860.63 1113.78 860.04 1116.45C859.05 1120.94 856.99 1124.49 853.87 1127.1C850.76 1129.7 847.01 1131 842.63 1131C840.97 1131 839.47 1130.8 838.14 1130.42C836.82 1130.04 835.66 1129.45 834.63 1128.67ZM865.03 1128.67L867.31 1118.41C868.3 1119.5 869.35 1120.31 870.42 1120.85C871.5 1121.39 872.65 1121.66 873.86 1121.66C875.54 1121.66 876.94 1121.22 878.09 1120.34C879.24 1119.46 880 1118.27 880.33 1116.75C880.75 1114.88 879.91 1112.85 877.79 1110.67C877.2 1110.05 876.76 1109.58 876.48 1109.25C874.07 1106.53 872.53 1104.11 871.88 1101.95C871.23 1099.8 871.21 1097.37 871.82 1094.63C872.76 1090.37 874.73 1086.93 877.71 1084.3C880.7 1081.68 884.13 1080.36 888.01 1080.36C889.38 1080.36 890.69 1080.56 891.94 1080.95C893.21 1081.34 894.48 1081.97 895.78 1082.8L893.85 1091.52C892.3 1090.68 891.08 1090.11 890.19 1089.79C889.3 1089.48 888.48 1089.32 887.74 1089.32C886.32 1089.32 885.05 1089.77 883.96 1090.66C882.86 1091.55 882.15 1092.71 881.83 1094.16C881.55 1095.42 881.62 1096.59 882.06 1097.69C882.5 1098.79 883.71 1100.41 885.72 1102.54C888.4 1105.39 890.01 1107.75 890.54 1109.63C891.06 1111.52 891.04 1113.78 890.44 1116.45C889.45 1120.94 887.39 1124.49 884.27 1127.1C881.16 1129.7 877.41 1131 873.04 1131C871.37 1131 869.87 1130.8 868.55 1130.42C867.22 1130.04 866.06 1129.45 865.03 1128.67ZM934.94 1106.41C933.27 1113.94 930.36 1119.91 926.22 1124.35C922.08 1128.78 917.37 1131 912.1 1131C906.63 1131 902.88 1128.77 900.83 1124.32C898.77 1119.87 898.63 1113.67 900.39 1105.73C902.15 1097.82 905.06 1091.61 909.14 1087.12C913.22 1082.61 917.95 1080.36 923.34 1080.36C928.76 1080.36 932.49 1082.66 934.56 1087.27C936.63 1091.86 936.76 1098.25 934.94 1106.41ZM914.18 1121.6C916.71 1121.6 918.88 1120.28 920.72 1117.64C922.56 1115 924.07 1111.04 925.25 1105.73C926.43 1100.38 926.7 1096.4 926.02 1093.75C925.37 1091.11 923.78 1089.79 921.25 1089.79C918.72 1089.79 916.55 1091.11 914.73 1093.73C912.91 1096.36 911.4 1100.36 910.2 1105.73C909.01 1111.08 908.76 1115.05 909.41 1117.68C910.06 1120.3 911.65 1121.6 914.18 1121.6ZM965.05 1129.84C964.01 1130.24 962.99 1130.53 961.99 1130.71C960.99 1130.91 960.01 1131 959.04 1131C952.75 1131 948.14 1128.71 945.22 1124.13C942.3 1119.56 941.67 1113.55 943.32 1106.14C945.03 1098.43 948.34 1092.2 953.24 1087.46C958.13 1082.73 963.68 1080.36 969.88 1080.36C971.03 1080.36 972.09 1080.45 973.06 1080.65C974.04 1080.85 974.94 1081.14 975.77 1081.55L973.72 1090.79C972.86 1090.41 972 1090.12 971.15 1089.95C970.3 1089.76 969.44 1089.67 968.59 1089.67C965.3 1089.67 962.3 1091.12 959.61 1094.03C956.91 1096.94 955.02 1100.8 953.95 1105.6C952.93 1110.23 953.15 1113.97 954.63 1116.83C956.1 1119.7 958.5 1121.13 961.81 1121.13C962.64 1121.13 963.52 1121.02 964.43 1120.83C965.34 1120.62 966.29 1120.32 967.25 1119.94L965.05 1129.84ZM975.26 1130.39L986.23 1081.01L996.27 1081.01L985.3 1130.39L975.26 1130.39ZM993.22 1130.39L1015.68 1081.01L1026 1081.01L1025.99 1130.39L1016.14 1130.39L1016.42 1121.73L1006.5 1121.73L1003.05 1130.39L993.22 1130.39ZM1009.99 1114.05L1016.56 1114.05C1016.65 1110.6 1016.85 1106.98 1017.15 1103.21C1017.44 1099.43 1017.85 1095.45 1018.38 1091.26C1017.06 1094.96 1015.7 1098.71 1014.3 1102.51C1012.9 1106.3 1011.47 1110.15 1009.99 1114.05ZM1036.16 1130.39L1045.09 1090.14L1037.55 1090.14L1039.58 1081.01L1064.57 1081.01L1062.54 1090.14L1055 1090.14L1046.06 1130.39L1036.16 1130.39ZM1062.7 1130.39L1073.67 1081.01L1083.71 1081.01L1072.74 1130.39L1062.7 1130.39ZM1123.18 1106.41C1121.51 1113.94 1118.6 1119.91 1114.46 1124.35C1110.31 1128.78 1105.61 1131 1100.33 1131C1094.87 1131 1091.12 1128.77 1089.07 1124.32C1087.01 1119.87 1086.86 1113.67 1088.63 1105.73C1090.38 1097.82 1093.3 1091.61 1097.38 1087.12C1101.46 1082.61 1106.19 1080.36 1111.58 1080.36C1116.99 1080.36 1120.73 1082.66 1122.8 1087.27C1124.86 1091.86 1124.99 1098.25 1123.18 1106.41ZM1102.42 1121.6C1104.95 1121.6 1107.12 1120.28 1108.95 1117.64C1110.8 1115 1112.3 1111.04 1113.48 1105.73C1114.67 1100.38 1114.93 1096.4 1114.26 1093.75C1113.6 1091.11 1112.01 1089.79 1109.48 1089.79C1106.95 1089.79 1104.78 1091.11 1102.96 1093.73C1101.14 1096.36 1099.63 1100.36 1098.44 1105.73C1097.25 1111.08 1096.99 1115.05 1097.64 1117.68C1098.3 1120.3 1099.89 1121.6 1102.42 1121.6ZM1127.76 1130.39L1138.73 1081.01L1148.7 1081.01L1152.78 1107.6C1152.88 1108.45 1153 1109.77 1153.13 1111.53C1153.28 1113.3 1153.41 1115.38 1153.56 1117.77C1153.82 1114.28 1154.15 1111.07 1154.55 1108.15C1154.95 1105.23 1155.43 1102.51 1155.99 1099.98L1160.2 1081.01L1169.34 1081.01L1158.37 1130.39L1149.24 1130.39L1144.55 1102.76C1144.46 1102.34 1144.36 1100.67 1144.26 1097.71C1144.19 1096.36 1144.14 1095.3 1144.11 1094.54C1143.91 1096.46 1143.61 1098.62 1143.18 1101.02C1142.76 1103.42 1142.18 1106.28 1141.44 1109.62L1136.83 1130.39L1127.76 1130.39Z" />
			<path id="&lt;Path&gt;" class="shp0" d="M143.38 1026.86L1187.85 1026.86L1180.53 1059.82L136.06 1059.82L143.38 1026.86Z" />
			<path id="&lt;Compound Path&gt;" fill-rule="evenodd" class="shp1" d="M149.17 1000.74L194.86 795L296.75 795L285.67 844.88L241.12 844.88L234.52 874.61L273.58 874.61L262.81 923.1L223.75 923.1L206.51 1000.74L149.17 1000.74ZM284.12 1000.74L329.82 795L387.59 795L353.23 949.7L395.37 949.7L384.04 1000.74L284.12 1000.74ZM434.4 897.99C441.95 863.98 454.53 837.66 472.15 818.95C489.83 800.24 510.85 790.91 535.24 790.91C559.58 790.91 576.37 800.24 585.64 818.91C594.88 837.52 595.71 863.88 588.14 897.99C580.59 932 568.06 958.31 550.6 976.93C533.14 995.55 512.17 1004.83 487.73 1004.83C463.25 1004.83 446.32 995.5 437.04 976.83C427.76 958.21 426.87 931.9 434.4 897.99ZM492.77 896.59C488.02 918 486.16 932.63 487.26 940.46C488.31 948.3 492.39 952.25 499.41 952.25C506.38 952.25 512.11 948.36 516.62 940.61C521.08 932.86 525.73 918.19 530.53 896.59C535.33 875 537.2 860.28 536.19 852.48C535.13 844.69 531.14 840.79 524.16 840.79C517.14 840.79 511.31 844.74 506.77 852.62C502.18 860.52 497.52 875.19 492.77 896.59ZM600.22 1000.74L645.91 795L712.01 795C734.38 795 750.72 800.67 761.09 812.03C771.41 823.43 774.42 838.87 770.09 858.4C767.41 870.43 762.24 880.72 754.59 889.18C746.93 897.7 736.71 904.48 724.04 909.58L744.53 1000.74L683.63 1000.74L675.39 921.13L657.7 1000.74L600.22 1000.74ZM693.91 837.71L683.03 886.73C690.86 886.54 696.99 884.52 701.46 880.62C705.88 876.73 709.03 870.57 710.89 862.2C712.7 854.07 712.38 847.91 709.87 843.82C707.41 839.73 702.86 837.71 696.17 837.71L693.91 837.71ZM777.03 1000.74L822.72 795L880.21 795L834.51 1000.74L777.03 1000.74ZM924.01 795L966.68 795C987.46 795 1002.86 796.92 1012.84 800.72C1022.86 804.52 1031.15 810.97 1037.64 820.06C1043.36 828.33 1046.65 839.06 1047.58 852.19C1048.51 865.37 1047.04 880.62 1043.19 897.99C1035.63 932 1022.68 957.64 1004.28 974.86C985.86 992.13 962.35 1000.74 933.68 1000.74L878.31 1000.74L924.01 795ZM970.54 844.3L947.35 948.74L949.9 948.74C958.6 948.74 965.64 944.99 970.92 937.48C976.2 929.93 981.03 916.41 985.37 896.88C989.84 876.77 991.07 862.97 989.07 855.51C987.03 848.05 981.56 844.3 972.51 844.3L970.54 844.3ZM1038.91 1000.74L1129.68 795L1194.38 795L1193.66 1000.74L1137.72 1000.74L1140.07 970.43L1106.11 970.43L1095 1000.74L1038.91 1000.74ZM1120.97 928.87L1143.82 928.87L1149.16 852.62L1120.97 928.87Z" />
			<path id="&lt;Path&gt;" class="shp1" d="M38.24 269.08C21.57 396.48 76.99 478.59 204.48 515.39C409.39 455.35 532.58 339.62 574.05 168.21L40.47 168.03C43.08 159.31 82.11 34.24 84.82 26.05L635.87 26.05C618.69 297.52 474.24 469.58 202.5 542.25C102 517.59 40.53 457.09 18.11 360.74C10.81 332.42 10.15 300.28 13.3 269.09L38.24 269.08Z" />
			<path id="&lt;Path&gt;" class="shp2" d="M14.54 253.45L34.07 183.2L551.38 183.2C523.99 260.61 481.06 324.9 422.59 376.07C346.21 442.92 275.06 482.94 209.14 496.14C162.16 469.74 142.25 428.02 149.39 370.96C155.87 319.22 174.11 288.56 204.12 278.99L297.36 278.99C262.46 296.33 239.92 316.98 229.74 340.95C217.25 370.32 219.31 394.38 235.9 413.11C281.45 395.04 320.35 372.48 352.59 345.42C377.96 324.13 403.97 293.47 430.63 253.45L14.54 253.45Z" />
			<path id="&lt;Compound Path&gt;" fill-rule="evenodd" class="shp3" d="M75.56 121.26L102.06 42.22C102.63 40.52 104.16 39.5 105.75 39.59L158.38 39.59C160.43 39.59 162.1 41.37 162.11 43.57C162.11 44.05 162.04 44.51 161.9 44.93L161.9 44.94L154.72 66.37C154.15 68.08 152.59 69.12 150.98 68.99L129.44 68.99L129.03 70.2L145.8 70.2C147.85 70.2 149.52 71.98 149.53 74.18C149.53 74.66 149.46 75.12 149.32 75.54L149.32 75.54L142.53 95.79C141.96 97.51 140.41 98.54 138.79 98.42L119.57 98.42L111.01 123.97C110.44 125.69 108.89 126.72 107.27 126.6L79.08 126.6C77.04 126.6 75.37 124.82 75.36 122.62C75.35 122.14 75.43 121.69 75.57 121.26L75.56 121.26ZM108.17 47.57L84.35 118.63L104.9 118.63L113.46 93.08L113.47 93.08C113.98 91.55 115.33 90.46 116.93 90.45L136.42 90.45L140.54 78.17L124 78.17C123.51 78.21 123 78.13 122.5 77.94C120.57 77.19 119.56 74.9 120.25 72.83L123.33 63.65L123.33 63.66C123.84 62.13 125.2 61.03 126.8 61.03L148.61 61.03L153.12 47.57L108.17 47.57ZM138.14 121.26L164.64 42.22C165.2 40.52 166.73 39.5 168.33 39.59L196.56 39.59C198.61 39.59 200.28 41.37 200.29 43.57C200.3 44.05 200.22 44.51 200.08 44.93L200.08 44.94L183.98 92.98L206.31 92.98C208.35 92.97 210.02 94.75 210.04 96.95C210.04 97.43 209.96 97.89 209.82 98.32L209.83 98.32L201.23 123.97C200.66 125.69 199.11 126.72 197.49 126.6L141.66 126.6C139.62 126.6 137.95 124.82 137.93 122.62C137.93 122.14 138.01 121.69 138.15 121.26L138.14 121.26ZM170.75 47.57L146.93 118.63L195.12 118.63L201.04 100.95L178.95 100.95C178.45 100.98 177.94 100.91 177.44 100.72C175.51 99.97 174.5 97.68 175.19 95.61L191.3 47.57L170.75 47.57ZM304.86 84.62C304.59 85.43 304.28 86.29 303.92 87.2L303.92 87.21L303.92 87.22C303.61 88.03 303.26 88.87 302.88 89.74C301 94.03 298.62 98.1 295.77 101.91C293.81 104.55 291.63 107.06 289.23 109.43C286.86 111.79 284.28 114 281.51 116.06L281.46 116.1L281.46 116.1C280.68 116.68 279.9 117.23 279.13 117.74C278.35 118.27 277.56 118.78 276.74 119.28C272.62 121.82 268.33 123.87 263.87 125.43L263.85 125.44C262.94 125.76 262.07 126.04 261.25 126.29C260.49 126.52 259.62 126.76 258.64 127C254.17 128.13 249.69 128.7 245.22 128.7L245.2 128.7C242 128.7 239 128.42 236.22 127.87C235.8 127.78 235.34 127.68 234.85 127.57C232.52 127.02 230.31 126.26 228.22 125.3C225.69 124.14 223.4 122.71 221.36 121C219.3 119.28 217.49 117.29 215.95 115.03L215.94 115.01L215.93 115.02L215.93 115.01L215.92 115.01C215.49 114.37 215.09 113.74 214.72 113.11C214.68 113.03 214.64 112.96 214.6 112.88C214.3 112.34 213.99 111.75 213.68 111.11C212.02 107.66 211.04 103.87 210.75 99.78L210.75 99.73L210.75 99.61C210.7 98.88 210.67 98.13 210.67 97.35C210.67 96.54 210.69 95.73 210.74 94.92C210.98 90.77 211.86 86.43 213.38 81.9L213.38 81.89L213.39 81.86L213.4 81.84C213.67 81.04 213.98 80.19 214.33 79.28C214.68 78.37 215.03 77.52 215.38 76.72C217.26 72.39 219.63 68.3 222.45 64.46C222.51 64.38 222.58 64.3 222.65 64.22C223.22 63.45 223.72 62.79 224.16 62.25C224.7 61.58 225.31 60.87 225.96 60.13C229.1 56.56 232.66 53.31 236.61 50.41L236.66 50.37C237.43 49.81 238.2 49.27 238.95 48.75C239.72 48.23 240.52 47.72 241.34 47.21C245.46 44.66 249.74 42.6 254.19 41.05L254.21 41.05C255.13 40.73 255.99 40.44 256.81 40.2C257.57 39.97 258.44 39.73 259.42 39.49C263.91 38.37 268.42 37.81 272.97 37.81L272.99 37.81C276.2 37.81 279.2 38.08 282 38.63C282.4 38.71 282.87 38.81 283.37 38.93C285.69 39.47 287.89 40.21 289.94 41.15L289.94 41.14L289.95 41.15L290.02 41.18L290.02 41.17C290.72 41.49 291.41 41.83 292.09 42.2C292.79 42.58 293.44 42.96 294.04 43.35C297.32 45.45 300.08 48.12 302.32 51.33L302.39 51.44L302.39 51.43C302.77 52.01 303.16 52.65 303.56 53.35C303.96 54.07 304.31 54.74 304.59 55.34C306.2 58.79 307.16 62.58 307.45 66.71L307.45 66.71C307.66 69.53 307.54 72.45 307.09 75.46C306.66 78.42 305.91 81.48 304.86 84.61L304.86 84.62ZM297.07 84.13C297.33 83.46 297.59 82.72 297.87 81.91L297.87 81.9C298.77 79.21 299.4 76.64 299.76 74.19C300.12 71.78 300.22 69.48 300.06 67.29L300.06 67.28C299.84 64.24 299.14 61.45 297.95 58.91C297.68 58.34 297.44 57.86 297.22 57.46C296.98 57.04 296.69 56.57 296.35 56.07L296.36 56.07C294.72 53.73 292.68 51.77 290.25 50.21C289.74 49.88 289.24 49.58 288.76 49.32C288.26 49.05 287.73 48.79 287.17 48.54L287.18 48.53L287.15 48.52C285.51 47.76 283.74 47.16 281.85 46.72C281.53 46.65 281.15 46.57 280.71 46.48C278.31 46.01 275.75 45.78 273.04 45.78L273.02 45.78C269.03 45.78 265.06 46.27 261.12 47.25C260.46 47.42 259.69 47.63 258.82 47.9C258.01 48.14 257.24 48.39 256.52 48.64L256.5 48.65C252.55 50.02 248.74 51.85 245.05 54.14C244.36 54.57 243.65 55.03 242.92 55.52C242.2 56.01 241.5 56.51 240.81 57.01L240.81 57.01L240.8 57.02C237.28 59.6 234.12 62.48 231.34 65.64C230.84 66.2 230.32 66.83 229.77 67.5C229.24 68.16 228.8 68.73 228.44 69.21C228.39 69.28 228.34 69.35 228.29 69.43C225.8 72.8 223.74 76.37 222.1 80.13C221.76 80.9 221.46 81.64 221.19 82.34C220.93 83.02 220.66 83.77 220.38 84.6L220.38 84.61C219.08 88.48 218.33 92.09 218.14 95.43C218.1 96.08 218.08 96.72 218.08 97.33C218.08 97.93 218.11 98.54 218.15 99.16L218.15 99.18L218.15 99.23C218.36 102.24 219.07 105 220.27 107.49C220.45 107.86 220.66 108.27 220.91 108.71C220.95 108.78 220.99 108.84 221.03 108.9C221.31 109.39 221.6 109.85 221.9 110.28L221.89 110.28L221.91 110.31L221.94 110.35L221.93 110.35C223.07 112.01 224.39 113.47 225.89 114.72C227.42 116 229.16 117.08 231.1 117.97C232.74 118.72 234.51 119.32 236.41 119.77C236.74 119.85 237.12 119.93 237.54 120.01C239.93 120.49 242.47 120.73 245.15 120.73L245.17 120.73C249.08 120.73 253 120.23 256.94 119.24C257.59 119.07 258.36 118.86 259.24 118.59C260.06 118.35 260.83 118.1 261.55 117.85L261.57 117.84C265.52 116.46 269.34 114.63 273.03 112.35C273.73 111.92 274.44 111.46 275.16 110.98C275.88 110.49 276.59 109.99 277.27 109.5L277.27 109.5C279.77 107.65 282.07 105.67 284.18 103.57C286.28 101.49 288.21 99.27 289.97 96.92C292.46 93.57 294.53 90.04 296.16 86.33C296.46 85.63 296.77 84.9 297.07 84.13L297.07 84.13ZM261.07 100.92C258.87 101.74 256.55 102.15 254.12 102.15C250.35 102.15 247.33 101.14 245.05 99.15C244.58 98.74 244.13 98.27 243.72 97.76C243.39 97.36 243.09 96.92 242.8 96.44C242.74 96.36 242.69 96.27 242.64 96.18L242.63 96.18L242.63 96.18L242.62 96.15C241.5 94.15 240.93 91.89 240.92 89.35C240.91 87.06 241.36 84.57 242.26 81.9C243.13 79.3 244.27 76.94 245.7 74.82C247.12 72.69 248.83 70.82 250.82 69.19C252.82 67.54 254.93 66.3 257.14 65.47C259.38 64.63 261.7 64.21 264.12 64.21C266.69 64.21 268.9 64.68 270.76 65.61C272.82 66.64 274.43 68.21 275.58 70.3L275.58 70.3L275.6 70.33C276.69 72.33 277.23 74.6 277.23 77.13C277.23 79.44 276.78 81.93 275.88 84.61C275 87.22 273.86 89.58 272.44 91.68C271 93.82 269.31 95.69 267.35 97.28L267.35 97.27L267.34 97.28C265.35 98.89 263.25 100.11 261.07 100.92ZM254.07 94.18C255.64 94.18 257.16 93.9 258.62 93.36C260.1 92.82 261.51 91.99 262.85 90.91L262.85 90.9C264.24 89.76 265.43 88.47 266.41 87C267.42 85.5 268.25 83.8 268.88 81.9C269.5 80.05 269.81 78.45 269.82 77.12C269.82 76.03 269.61 75.11 269.21 74.35L269.21 74.35C268.85 73.7 268.33 73.2 267.64 72.86C266.75 72.41 265.59 72.18 264.16 72.18C262.58 72.18 261.06 72.46 259.61 73C258.13 73.56 256.7 74.4 255.33 75.53C253.94 76.67 252.74 77.99 251.73 79.5C250.71 81.01 249.88 82.71 249.25 84.61C248.63 86.45 248.33 88.02 248.33 89.33C248.34 90.38 248.54 91.27 248.94 92L248.94 92L248.95 92.01L249.03 92.16C249.11 92.29 249.2 92.42 249.3 92.54C249.42 92.68 249.55 92.82 249.7 92.96C250.63 93.77 252.09 94.18 254.07 94.18ZM296.6 121.26L323.09 42.22C323.66 40.52 325.19 39.5 326.78 39.59L362.36 39.59L362.4 39.6C367.92 39.6 372.63 40.23 376.52 41.47C377.15 41.67 377.79 41.9 378.43 42.16C381.75 43.49 384.43 45.34 386.49 47.71L386.49 47.7L386.52 47.73C386.59 47.82 386.66 47.91 386.73 48C387.37 48.77 387.93 49.58 388.42 50.42C388.94 51.33 389.4 52.32 389.77 53.39C391.54 58.42 391.24 64.47 388.87 71.54L388.86 71.55L388.86 71.57L388.84 71.62C388.56 72.46 388.25 73.29 387.91 74.11C387.56 74.97 387.2 75.79 386.83 76.55C384.83 80.64 382.22 84.16 379 87.11C376.73 89.18 374.34 90.82 371.81 92.04C370.64 92.6 369.43 93.07 368.19 93.45L376.71 120.02L402.79 42.22C403.35 40.52 404.88 39.5 406.48 39.59L435.14 39.59C437.18 39.59 438.85 41.37 438.87 43.57C438.87 44.05 438.79 44.51 438.65 44.93L438.66 44.94L412.16 123.97C411.59 125.69 410.04 126.72 408.42 126.6L379.81 126.6C378.53 126.6 377.38 125.9 376.71 124.83C376.28 125.53 375.63 126.1 374.83 126.39C374.35 126.57 373.86 126.63 373.39 126.6L341.8 126.6C340 126.6 338.5 125.24 338.15 123.41L338.13 123.42L335.75 111.16L331.45 123.97C330.88 125.69 329.33 126.72 327.71 126.6L300.12 126.6C298.07 126.6 296.4 124.82 296.39 122.62C296.38 122.14 296.46 121.69 296.6 121.26L296.6 121.26ZM329.2 47.57L305.38 118.63L325.34 118.63L333.12 95.42C333.49 94.04 334.54 92.93 335.93 92.62C337.94 92.18 339.92 93.57 340.34 95.73L344.8 118.63L368.42 118.63L359.79 91.72L359.8 91.72C359.71 91.46 359.66 91.18 359.63 90.89C359.39 88.7 360.84 86.73 362.88 86.48C364.91 86.23 366.88 85.65 368.76 84.75C370.65 83.84 372.46 82.59 374.18 81.02C376.66 78.75 378.69 76.01 380.24 72.82C380.56 72.16 380.85 71.52 381.11 70.89C381.38 70.23 381.63 69.55 381.87 68.84L381.87 68.83C383.63 63.57 383.96 59.35 382.85 56.18C382.66 55.65 382.41 55.12 382.11 54.59C381.85 54.14 381.56 53.72 381.24 53.33C381.2 53.29 381.16 53.24 381.12 53.2L381.09 53.17L381.1 53.16L381.08 53.14C379.83 51.69 378.1 50.53 375.88 49.64C375.44 49.46 374.96 49.29 374.43 49.12C371.21 48.09 367.21 47.57 362.44 47.57L329.2 47.57ZM338.96 78.01L344.13 62.57L344.14 62.57C344.65 61.04 346.01 59.94 347.61 59.94L352.03 59.94C353.66 59.94 355.1 60.15 356.34 60.56C356.44 60.58 356.54 60.61 356.64 60.65C358.26 61.24 359.54 62.18 360.5 63.46L360.49 63.47C361.88 65.33 362.39 67.61 362.02 70.3C361.96 70.74 361.87 71.2 361.76 71.65C361.66 72.06 361.54 72.48 361.41 72.89C361.39 72.97 361.37 73.04 361.35 73.11C360.55 75.47 359.37 77.45 357.8 79.05C357.53 79.34 357.2 79.64 356.83 79.94C356.62 80.13 356.37 80.32 356.11 80.51C356.05 80.56 355.99 80.61 355.93 80.66L355.92 80.66L355.92 80.66L355.78 80.76C354.53 81.62 353.14 82.27 351.59 82.72C350.13 83.14 348.57 83.35 346.9 83.35L342.71 83.35C342.21 83.38 341.71 83.31 341.21 83.12C339.28 82.37 338.27 80.08 338.96 78.01ZM350.25 67.91L347.75 75.35C348.44 75.3 349.08 75.19 349.66 75.02C350.36 74.82 351.02 74.51 351.64 74.1C351.75 74.02 351.86 73.95 351.97 73.88C352.06 73.82 352.15 73.74 352.24 73.66C352.36 73.56 352.51 73.43 352.67 73.25C353.4 72.51 353.96 71.56 354.35 70.4L354.41 70.24L354.41 70.23L354.41 70.22C354.48 70.01 354.54 69.82 354.58 69.63C354.63 69.43 354.66 69.25 354.69 69.09C354.74 68.7 354.75 68.48 354.72 68.44L354.71 68.43L354.71 68.44C354.66 68.37 354.52 68.3 354.29 68.22L354.12 68.15C353.6 67.99 352.92 67.91 352.08 67.91L350.25 67.91ZM408.9 47.57L385.08 118.63L406.05 118.63L429.87 47.57L408.9 47.57ZM420.5 121.26L446.99 42.22C447.56 40.52 449.09 39.5 450.69 39.59L473.53 39.59C477.38 39.6 480.8 39.7 483.77 39.89C483.92 39.9 484.24 39.93 485.28 40.02C487.82 40.22 490.17 40.5 492.33 40.86L492.35 40.86C493.29 41.02 493.99 41.14 494.47 41.24C495.01 41.35 495.67 41.5 496.47 41.7C499.92 42.56 502.77 43.7 505.01 45.13C508.21 47.16 510.86 49.56 512.96 52.31C515.11 55.11 516.67 58.25 517.65 61.71C517.67 61.78 517.69 61.85 517.7 61.92C518.62 65.28 518.95 68.86 518.7 72.66C518.45 76.43 517.64 80.38 516.26 84.5C514.89 88.57 513.11 92.42 510.91 96.05C508.76 99.6 506.2 102.95 503.23 106.08L503.24 106.09L503.24 106.1C503.12 106.23 502.99 106.36 502.86 106.47C502.08 107.28 501.3 108.05 500.54 108.77C499.61 109.64 498.7 110.45 497.81 111.19C493.02 115.19 487.56 118.56 481.41 121.32L481.36 121.34L481.36 121.34C480.88 121.56 480.26 121.81 479.53 122.09L479.53 122.09L479.53 122.11C478.93 122.34 478.28 122.57 477.61 122.8C474.31 123.92 470.59 124.79 466.46 125.39C463.71 125.79 460.49 126.1 456.83 126.3C453.26 126.5 449.28 126.6 444.92 126.6L424.02 126.6C421.97 126.6 420.3 124.82 420.29 122.62C420.29 122.14 420.36 121.68 420.5 121.26L420.5 121.26ZM453.11 47.57L429.28 118.63L444.87 118.63C449.13 118.63 452.98 118.53 456.44 118.34C459.8 118.15 462.81 117.87 465.46 117.48C469.11 116.94 472.41 116.17 475.36 115.18C475.9 114.99 476.44 114.8 476.99 114.58L477 114.6C477.42 114.43 477.93 114.22 478.54 113.95L478.54 113.95L478.58 113.93L478.6 113.92L478.6 113.93C484.1 111.46 488.98 108.44 493.24 104.88C494.12 104.14 494.93 103.43 495.66 102.74C496.38 102.07 497.06 101.4 497.69 100.75C497.73 100.7 497.78 100.64 497.82 100.59L497.83 100.58L497.84 100.6L497.93 100.5L497.94 100.49C500.54 97.76 502.79 94.83 504.69 91.69C506.56 88.59 508.09 85.29 509.26 81.79C510.43 78.32 511.11 75.09 511.3 72.09C511.49 69.26 511.24 66.61 510.57 64.14L510.53 64C509.83 61.53 508.73 59.31 507.23 57.34C505.69 55.33 503.7 53.54 501.25 51.98C499.67 50.98 497.52 50.14 494.83 49.47C494.43 49.37 493.86 49.24 493.12 49.09C492.31 48.93 491.68 48.81 491.26 48.74L491.24 48.73C489.32 48.42 487.16 48.16 484.78 47.97L483.36 47.88C480.25 47.67 476.99 47.57 473.57 47.57L453.11 47.57ZM469.74 101.39C466.99 102.07 463.93 102.42 460.55 102.46C460.05 102.5 459.53 102.42 459.02 102.23C457.09 101.48 456.08 99.19 456.77 97.12L467.03 66.51L467.03 66.51C467.54 64.98 468.9 63.89 470.5 63.88L471.74 63.88C475.04 63.88 477.83 64.25 480.12 64.98C482.71 65.82 484.74 67.13 486.2 68.92C486.25 68.97 486.3 69.02 486.34 69.08C488.48 71.81 489.23 75.35 488.58 79.68L488.58 79.68C488.46 80.42 488.31 81.19 488.12 81.97C487.95 82.66 487.74 83.38 487.49 84.14C487.47 84.22 487.45 84.29 487.43 84.37L487.38 84.5C485.91 88.88 483.81 92.47 481.07 95.23C480.64 95.67 480.15 96.12 479.61 96.57C479.53 96.65 479.45 96.72 479.37 96.78C478.88 97.19 478.33 97.59 477.72 97.99C477.66 98.04 477.6 98.08 477.53 98.13L477.53 98.13L477.52 98.12L477.52 98.13L477.51 98.13C475.29 99.58 472.7 100.67 469.74 101.39ZM465.68 94.09C466.52 93.97 467.32 93.81 468.08 93.62C470.22 93.1 472.08 92.32 473.65 91.31L473.64 91.3L473.65 91.29C473.71 91.26 473.77 91.22 473.83 91.18C474.15 90.97 474.49 90.71 474.86 90.41C474.93 90.35 475 90.3 475.07 90.25C475.35 90.01 475.65 89.73 475.97 89.4C477.85 87.5 479.33 84.96 480.39 81.79L480.43 81.66L480.49 81.49C480.66 80.96 480.81 80.43 480.94 79.92C481.07 79.38 481.18 78.87 481.25 78.4L481.25 78.38L481.25 78.38C481.53 76.46 481.34 75.07 480.67 74.21L480.64 74.17C480.11 73.54 479.25 73.03 478.03 72.64C476.7 72.21 475.07 71.96 473.13 71.88L465.68 94.09ZM496.17 120.1L550.75 41.19C551.47 40.15 552.57 39.6 553.7 39.6L553.7 39.59L585.34 39.59C587.38 39.59 589.05 41.37 589.06 43.57L589.06 43.59L590.21 122.56C590.25 124.76 588.62 126.57 586.57 126.6L586.53 126.6L586.53 126.6L555.97 126.6C553.93 126.6 552.26 124.82 552.25 122.62C552.25 122.5 552.25 122.38 552.26 122.26L552.25 122.26L552.69 116.67L537.38 116.67L532.7 124.73C531.96 126.01 530.65 126.68 529.34 126.6L499.07 126.6C497.03 126.6 495.36 124.82 495.34 122.62C495.34 121.66 495.65 120.79 496.17 120.1ZM555.59 47.57L506.43 118.63L527.48 118.63L532.15 110.57L532.16 110.57C532.81 109.45 533.96 108.7 535.29 108.7L556.5 108.7C556.68 108.69 556.87 108.69 557.05 108.7C559.09 108.9 560.61 110.83 560.44 113.03L560 118.63L582.74 118.63L581.71 47.57L555.59 47.57ZM558.2 97.87L546.54 97.87C545.79 97.91 545.03 97.7 544.35 97.22C542.63 96.02 542.14 93.55 543.25 91.71L548.6 82.89L548.67 82.77C550.62 79.5 552.16 76.82 553.31 74.72C553.51 74.36 553.72 73.97 553.95 73.55C554.08 73.3 554.27 72.94 554.49 72.51L554.5 72.51C555.1 71.34 555.64 70.21 556.13 69.14C556.57 68.15 557.01 67.11 557.44 66.01L557.44 66.01C558 64.58 559.31 63.57 560.84 63.57L561.24 63.57C561.63 63.56 562.03 63.61 562.42 63.74C564.38 64.39 565.49 66.62 564.9 68.72C564.5 70.11 564.14 71.61 563.84 73.22C563.79 73.46 563.73 73.78 563.67 74.15C563.62 74.47 563.56 74.79 563.52 75.09L563.51 75.08L563.5 75.12L563.5 75.14C563.25 76.7 563 78.89 562.75 81.71C562.68 82.52 562.63 83.11 562.61 83.39L562.47 85.2L562.46 85.25L562.46 85.25L561.88 94.17L561.87 94.17C561.74 96.24 560.15 97.87 558.2 97.87ZM553.22 89.9L554.72 89.9L554.9 87.14L554.82 87.27L553.22 89.9ZM497.93 100.5L497.94 100.49L497.93 100.5Z" />
			<path id="&lt;Compound Path&gt;" fill-rule="evenodd" class="shp0" d="M79.06 122.61L105.56 43.58L158.41 43.58L151.22 65.01L126.82 65.01L123.75 74.19L145.82 74.19L139.03 94.44L116.96 94.44L107.51 122.61L79.06 122.61ZM141.64 122.61L168.13 43.58L196.59 43.58L178.69 96.96L206.33 96.96L197.73 122.61L141.64 122.61ZM301.37 83.25C299.43 89.04 296.58 94.44 292.87 99.41C289.15 104.41 284.65 108.87 279.38 112.79C274.12 116.64 268.56 119.59 262.72 121.64C256.87 123.68 251.02 124.71 245.2 124.71C239.3 124.71 234.12 123.68 229.66 121.64C225.19 119.59 221.62 116.61 218.93 112.68C216.31 108.87 214.8 104.46 214.45 99.51C214.11 94.53 214.91 89.11 216.88 83.25C218.84 77.39 221.68 71.96 225.37 66.95C229.05 61.95 233.52 57.53 238.7 53.71C243.96 49.84 249.51 46.88 255.35 44.85C261.17 42.81 267.06 41.79 272.99 41.79C278.93 41.79 284.13 42.81 288.59 44.85C293.07 46.88 296.65 49.84 299.35 53.71C301.92 57.57 303.4 62.01 303.76 67C304.12 72.01 303.32 77.43 301.37 83.25ZM254.1 98.16C258.1 98.16 261.76 96.8 265.1 94.09C268.45 91.36 270.87 87.77 272.38 83.25C273.9 78.72 273.9 75.09 272.4 72.33C270.88 69.58 268.14 68.2 264.14 68.2C260.14 68.2 256.46 69.58 253.07 72.36C249.69 75.13 247.26 78.76 245.75 83.25C244.24 87.77 244.25 91.36 245.79 94.09C247.33 96.8 250.1 98.16 254.1 98.16ZM300.09 122.61L326.59 43.58L362.34 43.58C372.69 43.58 379.85 45.86 383.79 50.44C387.73 55 388.25 61.6 385.37 70.19C383.48 75.81 380.55 80.43 376.59 84.06C372.6 87.71 368.19 89.83 363.3 90.44L373.62 122.61L341.78 122.61L336.7 96.54L327.96 122.61L300.09 122.61ZM347.63 63.92L342.45 79.37L346.88 79.37C349.59 79.37 351.87 78.7 353.77 77.39C355.66 76.08 357.03 74.21 357.85 71.75C358.69 69.23 358.61 67.3 357.6 65.95C356.6 64.61 354.76 63.92 352.05 63.92L347.63 63.92ZM379.79 122.61L406.29 43.58L435.16 43.58L408.67 122.61L379.79 122.61ZM424 122.61L450.49 43.58L473.49 43.58C480.79 43.58 486.9 43.99 491.78 44.8C496.67 45.61 500.47 46.86 503.13 48.56C508.78 52.15 512.41 56.92 514.09 62.85C515.75 68.79 515.31 75.55 512.76 83.14C510.22 90.72 506.14 97.44 500.54 103.34C494.93 109.24 488.08 114.01 479.97 117.64C476.05 119.37 471.37 120.64 465.96 121.43C460.56 122.23 453.52 122.61 444.89 122.61L424 122.61ZM460.26 98.47C466.69 98.44 471.79 97.18 475.58 94.71C479.35 92.26 482.13 88.39 483.88 83.14C485.61 78 485.48 74.17 483.5 71.64C481.51 69.12 477.6 67.87 471.76 67.87L470.53 67.87L460.26 98.47ZM499.05 122.61L553.72 43.58L585.36 43.58L586.5 122.61L555.95 122.61L556.74 112.68L535.31 112.68L529.55 122.61L499.05 122.61ZM546.36 93.89L558.18 93.89L558.76 84.93C559.09 80.4 559.45 76.9 559.85 74.45C560.22 72.01 560.73 69.71 561.35 67.55L560.87 67.55C560.03 69.71 558.98 72.01 557.75 74.45C556.48 76.9 554.5 80.4 551.8 84.93L546.36 93.89Z" />
			<path id="&lt;Path&gt;" class="shp3" d="M58.74 211.7L61.57 208.51C61.65 208.41 61.74 208.32 61.83 208.24L61.83 208.23L64.95 205.26L65.74 203.98L65.75 203.85L64.52 202.65L64.51 202.66L62.13 200.47L60.58 199.61C60 199.29 59.52 198.86 59.15 198.36L58.37 197.39C57.6 196.44 57.3 195.28 57.42 194.16L57.41 194.16L57.72 191.25L57.88 189.8C57.92 189.4 58.02 189.01 58.16 188.65L58.16 188.64L58.72 187.22L58.88 185.73C59.13 183.37 61.2 181.65 63.54 181.79L162.06 182.94L168.94 183C170.17 183.01 171.28 183.52 172.07 184.33L172.07 184.33L173.9 186.22L173.93 186.25L175.62 187.97C175.77 188.12 175.9 188.28 176.03 188.45L176.03 188.45L179.19 192.74C179.75 193.51 180.03 194.41 180.04 195.3L180.09 196.2L266.02 194.71C267.43 194.69 268.7 195.33 269.53 196.36L269.53 196.35L272.02 199.44C272.75 200.34 273.06 201.44 272.99 202.51C273.92 203.62 274.27 205.14 273.85 206.59L273.75 207.03L273.9 207.12L275.67 207.98L276.08 208.01L277.32 205.79C277.54 205.4 277.81 205.06 278.11 204.77L278.28 204.59L278.27 204.46L276.76 199.08C276.73 198.99 276.71 198.91 276.69 198.82L276.69 198.82L276.51 198L275 195.95C274.36 195.07 274.09 194.04 274.16 193.04L274.21 190.55C274.22 190.42 274.22 190.29 274.24 190.17L274.23 190.17L274.44 188.16L274.5 187.6C274.56 187.04 274.73 186.51 274.97 186.04L275.62 184.62C276.43 182.85 278.26 181.87 280.1 182.07L280.1 182.06L281.49 182.21L283.09 181.35C285.11 180.26 287.59 180.91 288.84 182.77L289.2 183.26L290.18 183.68C290.48 183.81 290.76 183.98 291.02 184.17L291.02 184.16L294.06 186.4L294.75 186.56L298.19 186.92L298.2 186.92L302.22 187.24C302.34 187.24 302.45 187.26 302.57 187.28L303.91 187.42C305.84 187.63 307.35 189.05 307.75 190.85L310.56 200.51L314.91 209.82C314.96 209.91 315 210 315.03 210.09L315.03 210.09L326.06 238.48L333.98 252.2L337.55 257.49C337.61 257.58 337.67 257.68 337.72 257.77L343.38 266.13C343.85 266.82 344.1 267.61 344.13 268.39L344.14 268.39L344.3 271.66L346.3 281.27L348.52 288.94L353.18 298.23C353.28 298.44 353.37 298.65 353.44 298.87L357.02 310.1L375.96 337.28C376.42 337.93 376.67 338.67 376.74 339.41L377.53 346.25L383.05 377.89C383.12 378.28 383.13 378.68 383.09 379.07L382.11 398.71C382.03 400.5 380.89 401.98 379.34 402.61L378.84 407.32C378.78 407.81 378.65 408.28 378.45 408.71L378.46 408.72L374.65 416.89C374.42 417.38 374.11 417.81 373.75 418.17L370.21 422.26L367.03 428.43C366.29 429.86 364.89 430.72 363.4 430.82L363.4 430.82L362.42 430.89L348.41 438.45C347.55 438.91 346.6 439.06 345.7 438.93L340.68 438.4L338.46 439.8C337.55 440.38 336.5 440.58 335.5 440.44L328 439.75C327.47 439.7 326.96 439.56 326.51 439.34L320.43 436.57C318.22 435.56 317.24 432.94 318.25 430.72C318.33 430.55 318.42 430.39 318.52 430.23L318.51 430.22L320.69 426.73C321.73 425.05 323.72 424.32 325.54 424.78L325.61 424.8C325.55 423.95 325.73 423.1 326.14 422.36L326.14 422.36L327.82 419.26C328 418.93 328.21 418.64 328.46 418.38C327.99 417.59 327.76 416.64 327.87 415.66L328.16 412.87C328.22 412.29 328.39 411.75 328.65 411.27L329.16 410.14L316.65 407.24C316.01 407.1 315.44 406.82 314.95 406.45L299.04 395.49C298.31 394.99 297.79 394.31 297.47 393.56L292.31 382.3C291.92 381.44 291.83 380.53 291.99 379.67L291.98 379.67L293.18 373.18C292.05 373.79 290.73 373.87 289.56 373.44L289.56 373.44L287.82 372.81C286.06 372.16 284.96 370.53 284.92 368.76L284.24 357.64C284.07 357.71 283.9 357.77 283.72 357.83C283.61 357.86 283.5 357.89 283.38 357.91L280.96 358.58C279.77 358.9 278.56 358.7 277.58 358.13L277.57 358.13L275.45 356.88C274.99 356.61 274.59 356.27 274.27 355.88L273.27 354.66C272.8 354.81 272.29 354.87 271.77 354.85C269.96 354.76 268.45 353.59 267.85 352L263.15 339.56L259.1 334.33L257 332.85C255.02 331.43 254.55 328.68 255.96 326.69C256.03 326.6 256.1 326.51 256.18 326.42L257.39 324.87C257.68 324.51 258 324.2 258.36 323.96L255.85 323.17C254.25 322.67 253.13 321.35 252.83 319.81L249.85 308.33C249.68 307.69 249.67 307.04 249.78 306.43L249.78 306.43L251.57 296.79L252.74 282.7L251.95 268.15L247.26 261.1L232.59 249.62L226.08 246L224.79 245.51C222.89 244.78 221.78 242.87 221.99 240.93L221.98 240.93L222.49 236.12L218.75 235.41C217.93 235.26 217.21 234.89 216.63 234.37L216.63 234.38L214.49 232.48L211.65 231.67C211.14 231.53 210.67 231.3 210.26 231.01L207.98 229.49C207.2 228.98 206.64 228.26 206.32 227.45L205.16 224.8L200.97 222.47L198.89 222.25L197.7 222.4L194.66 224.63L185.04 233.11C184.24 233.81 183.28 234.17 182.3 234.21L178.97 234.47L172.87 239.57C172.12 240.2 171.22 240.53 170.32 240.59L165.48 241.22L158.13 244.41C157.58 244.65 157.02 244.77 156.46 244.78L156.46 244.78L148.55 244.95C147.53 244.97 146.58 244.64 145.82 244.08L142.9 242.03L139.51 239.8C138.38 239.06 137.7 237.88 137.56 236.64L137.54 236.64L136.8 230.4C136.55 229.76 136.44 229.05 136.52 228.32L136.56 227.86C136.69 225.76 138.3 223.98 140.46 223.73C142.6 223.47 144.57 224.8 145.2 226.79L144.77 224.34L144 223.42L140.15 223.31C140.03 223.3 139.91 223.3 139.8 223.28L139.8 223.29L137.01 222.99C134.59 222.74 132.83 220.56 133.09 218.13L133.26 216.46L133.28 216.36L133.28 216.29L130.45 216.09C130.33 216.08 130.21 216.06 130.1 216.05L126.28 215.64C125.6 215.57 124.98 215.35 124.43 215.01C124.19 215.21 123.92 215.38 123.63 215.53C122.4 216.16 121.01 216.16 119.83 215.63L119.83 215.64L115.84 213.86C115.69 213.79 115.55 213.72 115.41 213.63L115.21 213.53L103.32 213.43L99.29 214.75C98.84 214.9 98.38 214.97 97.93 214.97L91.6 215.29L89.8 215.88C87.82 216.53 85.72 215.7 84.67 214C84.44 214.26 84.18 214.48 83.9 214.68L81.38 216.62C80.69 217.16 79.88 217.45 79.07 217.52L64.07 219.07C63.79 219.1 63.52 219.11 63.25 219.08L61.91 219.03C59.47 218.96 57.56 216.92 57.64 214.49C57.67 213.42 58.09 212.45 58.74 211.71L58.74 211.7Z" />
			<path id="&lt;Path&gt;" class="shp0" d="M62.05 214.63L64.87 211.43L68.39 208.08L70.02 205.43L70.24 203.42L69.86 201.69L67.5 199.41L64.73 196.85L62.7 195.73L61.81 194.62L62.12 191.72L62.27 190.27L63.04 188.32L63.27 186.2L162.03 187.35L168.91 187.41L170.74 189.3L172.47 191.06L175.62 195.35L175.73 197.5L175.85 200.68L266.09 199.12L268.58 202.21L268.52 204.91L269.6 205.36L268.98 208.01L269.38 209.52L271.82 211.02L274.5 212.32L278.42 212.62L279.09 211.68L281.18 207.95L282.83 206.21L282.65 203.7L281.01 197.89L280.63 196.15L278.56 193.34L278.62 190.63L278.84 188.63L278.89 188.07L279.63 186.45L281.42 186.64L282.83 187.13L282.9 186.46L285.18 185.24L286.36 186.83L288.41 187.73L292.18 190.5L294.05 190.92L297.85 191.33L301.88 191.64L303.44 191.81L306.41 202.06L310.92 211.68L322.08 240.42L330.28 254.61L333.88 259.96L339.73 268.6L339.91 272.23L342 282.27L344.39 290.54L349.23 300.2L353.04 312.12L372.33 339.8L373.16 346.89L378.69 378.63L377.71 398.5L375.66 395.46L374.44 406.85L370.64 415.02L366.52 419.78L363.1 426.41L361.17 426.54L346.32 434.56L339.62 433.84L336.11 436.06L328.4 435.36L322.26 432.56L324.44 429.06L327.75 429.76L331.73 431.65L334.01 430.42L330.01 424.46L331.7 421.37L335.01 419.92L336.5 416.58L332.26 416.13L332.55 413.33L334.17 409.78L332.06 406.28L317.63 402.94L301.54 391.86L296.32 380.46L299 365.96L299.18 362.14L294.56 366.28L291.08 369.29L289.34 368.66L288.35 352.52L290.8 349.63L291.12 346.61L291.65 341.7L289.74 345.79L288.09 347.53L285.32 348.14L281.23 347.25L280.49 346.83L282.48 353.59L279.8 354.32L277.68 353.08L272.18 346.4L271.98 350.44L267.05 337.39L262.19 331.11L259.56 329.25L260.87 327.58L265.74 324.26L271 318.28L271.34 314.03L272.91 312.05L273.24 308.92L268.61 304.7L266.91 312.2L263.41 307.99L261.4 308.79L261.3 309.79L263.57 314.89L263.98 317.42L261.73 318.42L259.89 319.8L257.16 318.95L254.12 307.22L255.97 297.26L257.17 282.83L256.29 266.71L250.55 258.08L235.03 245.93L227.99 242.02L226.37 241.39L227.05 235.03L226.43 232.37L219.57 231.07L216.68 228.51L212.84 227.42L210.42 225.81L208.6 221.66L202.31 218.17L198.86 217.8L195.99 218.18L191.83 221.23L182.11 229.79L177.22 230.17L170.03 236.18L164.31 236.92L156.38 240.37L148.46 240.54L145.41 238.41L141.93 236.12L140.98 228.12L140.91 228.79L142.54 230.43L143.05 234.09L145.73 236.52L148.86 235.73L149.76 227.25L148.92 222.42L146.12 219.07L140.27 218.9L137.48 218.6L137.66 216.93L137.75 216.03L146.57 214.83L143.98 212.63L130.76 211.68L126.75 211.25L125.92 210.48L126.17 208.14L128.76 207.17L128.93 205.61L124.8 205.17L122.14 206.81L119.66 207.79L121.63 211.61L117.64 209.83L116.36 209.13L102.6 209.01L97.92 210.55L90.77 210.91L88.43 211.68L88.59 210.23L89.73 207.98L89.06 205.77L87.46 203.9L80.7 205.89L80.55 207.23L81.55 209.59L81.39 211.04L78.69 213.13L63.62 214.68L62.05 214.63Z" />
			<path id="&lt;Compound Path&gt;" fill-rule="evenodd" class="shp3" d="M67 157.38L75.85 132.98L83.04 132.98L79.86 141.74L82.93 141.74L86.11 132.98L93.28 132.98L84.44 157.38L77.26 157.38L80.72 147.84L77.65 147.84L74.19 157.38L67 157.38ZM87.64 157.38L96.49 132.98L103.68 132.98L94.84 157.38L87.64 157.38ZM120.98 143.14C120.97 143.16 120.96 143.2 120.95 143.24C120.66 144.18 120.43 144.88 120.26 145.33C118.72 149.59 116.83 152.74 114.61 154.79C112.39 156.84 109.75 157.86 106.69 157.86C103.62 157.86 101.65 156.76 100.77 154.54C99.89 152.34 100.18 149.22 101.64 145.2C103.11 141.12 105.1 137.99 107.59 135.79C110.07 133.59 112.89 132.5 116.03 132.5C118.26 132.5 119.89 132.98 120.92 133.95C121.95 134.91 122.45 136.41 122.42 138.45L115.45 140.47C115.47 139.63 115.36 139.02 115.12 138.64C114.88 138.27 114.47 138.08 113.9 138.08C113 138.08 112.2 138.56 111.49 139.53C110.79 140.49 109.96 142.28 109.01 144.88C108.07 147.48 107.6 149.25 107.61 150.2C107.63 151.16 108.07 151.63 108.95 151.63C109.61 151.63 110.2 151.37 110.72 150.84C111.24 150.31 111.7 149.51 112.08 148.44L112.2 148.1L110.07 148.1L111.87 143.14L120.98 143.14ZM117.98 157.38L126.82 132.98L134.01 132.98L130.84 141.74L133.91 141.74L137.08 132.98L144.25 132.98L135.41 157.38L128.24 157.38L131.7 147.84L128.63 147.84L125.17 157.38L117.98 157.38ZM149.4 149.27C150.14 150.04 150.88 150.63 151.59 151.03C152.31 151.43 152.99 151.63 153.64 151.63C154.22 151.63 154.75 151.47 155.24 151.14C155.72 150.82 156.06 150.41 156.24 149.92C156.44 149.35 156.13 148.5 155.28 147.39C155.27 147.35 155.25 147.33 155.24 147.32C153.77 145.44 152.92 143.98 152.68 142.94C152.45 141.91 152.55 140.79 152.98 139.58C153.73 137.52 155.09 135.83 157.04 134.49C159 133.17 161.14 132.5 163.45 132.5C164.36 132.5 165.25 132.62 166.14 132.85C167.03 133.09 167.9 133.43 168.77 133.9L166.47 140.23C165.84 139.59 165.21 139.1 164.58 138.77C163.95 138.45 163.32 138.28 162.69 138.28C162.15 138.28 161.67 138.42 161.24 138.69C160.81 138.96 160.52 139.32 160.36 139.75C160.14 140.38 160.48 141.14 161.38 142.05C161.45 142.13 161.49 142.19 161.53 142.22C163.08 143.85 163.98 145.19 164.24 146.24C164.49 147.29 164.36 148.53 163.84 149.96C162.98 152.34 161.49 154.26 159.38 155.7C157.27 157.14 154.9 157.86 152.28 157.86C151.27 157.86 150.33 157.72 149.46 157.41C148.6 157.11 147.76 156.64 146.96 156.01L149.4 149.27ZM176.82 157C176.01 157.28 175.25 157.5 174.54 157.65C173.82 157.79 173.13 157.86 172.47 157.86C171.18 157.86 170.03 157.62 169.02 157.12C168.01 156.63 167.19 155.9 166.54 154.95C165.79 153.81 165.41 152.42 165.43 150.79C165.45 149.15 165.85 147.23 166.66 145C168 141.31 170.05 138.31 172.81 136C175.57 133.69 178.44 132.53 181.43 132.53C182.16 132.53 182.87 132.59 183.54 132.71C184.21 132.82 184.84 133 185.44 133.22L183.32 139.07C182.96 138.84 182.58 138.66 182.17 138.53C181.77 138.41 181.37 138.35 180.96 138.35C179.52 138.35 178.23 138.92 177.08 140.06C175.92 141.2 174.94 142.89 174.14 145.1C173.38 147.19 173.16 148.81 173.48 149.95C173.8 151.09 174.63 151.66 175.97 151.66C176.46 151.66 176.97 151.6 177.48 151.46C177.99 151.33 178.52 151.13 179.04 150.88L176.82 157ZM178.89 157.38L187.73 132.98L194.92 132.98L191.75 141.74L194.82 141.74L197.99 132.98L205.17 132.98L196.32 157.38L189.15 157.38L192.61 147.84L189.54 147.84L186.08 157.38L178.89 157.38ZM202.91 145.2C204.37 141.16 206.34 138.04 208.83 135.83C211.33 133.61 214.1 132.5 217.15 132.5C220.19 132.5 222.15 133.61 223.03 135.82C223.9 138.03 223.61 141.15 222.14 145.2C220.68 149.23 218.71 152.35 216.24 154.56C213.78 156.76 211.01 157.86 207.95 157.86C204.89 157.86 202.91 156.76 202.04 154.54C201.16 152.34 201.45 149.22 202.91 145.2ZM210.23 145.03C209.31 147.57 208.85 149.3 208.87 150.23C208.88 151.16 209.34 151.63 210.21 151.63C211.09 151.63 211.86 151.17 212.54 150.25C213.22 149.33 214.02 147.59 214.95 145.03C215.88 142.47 216.34 140.72 216.33 139.8C216.32 138.88 215.88 138.41 215 138.41C214.13 138.41 213.34 138.88 212.65 139.82C211.95 140.75 211.15 142.49 210.23 145.03ZM223.45 145.2C224.91 141.16 226.88 138.04 229.37 135.83C231.87 133.61 234.64 132.5 237.69 132.5C240.73 132.5 242.69 133.61 243.57 135.82C244.44 138.03 244.15 141.15 242.68 145.2C241.22 149.23 239.25 152.35 236.78 154.56C234.32 156.76 231.55 157.86 228.49 157.86C225.43 157.86 223.45 156.76 222.58 154.54C221.7 152.34 221.99 149.22 223.45 145.2ZM230.77 145.03C229.85 147.57 229.39 149.3 229.41 150.23C229.42 151.16 229.88 151.63 230.75 151.63C231.63 151.63 232.4 151.17 233.08 150.25C233.76 149.33 234.56 147.59 235.49 145.03C236.42 142.47 236.88 140.72 236.87 139.8C236.86 138.88 236.42 138.41 235.54 138.41C234.67 138.41 233.88 138.88 233.19 139.82C232.49 140.75 231.69 142.49 230.77 145.03ZM240.4 157.38L249.24 132.98L256.47 132.98L249.82 151.33L255.09 151.33L252.9 157.38L240.4 157.38ZM261.98 157.38L276.46 132.98L284.56 132.98L281.34 157.38L274.34 157.38L275.1 153.79L270.85 153.79L269 157.38L261.98 157.38ZM273.34 148.86L276.2 148.86L278.03 139.82L273.34 148.86ZM291.6 157.38L284.39 157.38L291 139.17L286.73 139.17L288.97 132.98L304.71 132.98L302.47 139.17L298.21 139.17L291.6 157.38ZM297.49 157.38L306.33 132.98L313.52 132.98L310.35 141.74L313.42 141.74L316.59 132.98L323.77 132.98L314.92 157.38L307.75 157.38L311.21 147.84L308.14 147.84L304.68 157.38L297.49 157.38ZM317.92 157.38L326.76 132.98L333.99 132.98L327.34 151.33L332.62 151.33L330.42 157.38L317.92 157.38ZM332.43 157.38L341.28 132.98L354.06 132.98L351.91 138.9L346.36 138.9L345.23 142.01L350.24 142.01L348.17 147.72L343.16 147.72L341.94 151.08L347.5 151.08L345.21 157.38L332.43 157.38ZM357.8 157.38L350.59 157.38L357.2 139.17L352.93 139.17L355.17 132.98L370.91 132.98L368.67 139.17L364.41 139.17L357.8 157.38ZM363.86 157.38L372.71 132.98L379.9 132.98L371.06 157.38L363.86 157.38ZM388.06 157C387.25 157.28 386.48 157.5 385.77 157.65C385.05 157.79 384.37 157.86 383.71 157.86C382.41 157.86 381.26 157.62 380.25 157.12C379.25 156.63 378.42 155.9 377.78 154.95C377.02 153.81 376.65 152.42 376.67 150.79C376.68 149.15 377.09 147.23 377.9 145C379.23 141.31 381.29 138.31 384.04 136C386.8 133.69 389.67 132.53 392.66 132.53C393.4 132.53 394.11 132.59 394.77 132.71C395.44 132.82 396.08 133 396.68 133.22L394.56 139.07C394.2 138.84 393.81 138.66 393.41 138.53C393.01 138.41 392.6 138.35 392.19 138.35C390.75 138.35 389.46 138.92 388.31 140.06C387.16 141.2 386.17 142.89 385.37 145.1C384.61 147.19 384.39 148.81 384.71 149.95C385.03 151.09 385.87 151.66 387.21 151.66C387.7 151.66 388.21 151.6 388.71 151.46C389.23 151.33 389.75 151.13 390.28 150.88L388.06 157ZM397.12 157.38L411.6 132.98L419.7 132.98L416.48 157.38L409.48 157.38L410.24 153.79L405.99 153.79L404.14 157.38L397.12 157.38ZM408.48 148.86L411.34 148.86L413.17 139.82L408.48 148.86ZM419.68 149.27C420.42 150.04 421.16 150.63 421.87 151.03C422.59 151.43 423.27 151.63 423.92 151.63C424.5 151.63 425.03 151.47 425.52 151.14C426 150.82 426.34 150.41 426.51 149.92C426.72 149.35 426.41 148.5 425.56 147.39C425.54 147.35 425.53 147.33 425.52 147.32C424.05 145.44 423.2 143.98 422.96 142.94C422.73 141.91 422.83 140.79 423.26 139.58C424.01 137.52 425.37 135.83 427.32 134.49C429.28 133.17 431.42 132.5 433.73 132.5C434.64 132.5 435.53 132.62 436.42 132.85C437.31 133.09 438.18 133.43 439.04 133.9L436.75 140.23C436.12 139.59 435.49 139.1 434.86 138.77C434.23 138.45 433.6 138.28 432.97 138.28C432.43 138.28 431.95 138.42 431.52 138.69C431.09 138.96 430.8 139.32 430.64 139.75C430.42 140.38 430.76 141.14 431.66 142.05C431.73 142.13 431.77 142.19 431.81 142.22C433.36 143.85 434.26 145.19 434.52 146.24C434.77 147.29 434.64 148.53 434.12 149.96C433.26 152.34 431.77 154.26 429.66 155.7C427.55 157.14 425.18 157.86 422.56 157.86C421.55 157.86 420.61 157.72 419.74 157.41C418.88 157.11 418.04 156.64 417.24 156.01L419.68 149.27ZM435.39 149.27C436.13 150.04 436.87 150.63 437.58 151.03C438.3 151.43 438.98 151.63 439.63 151.63C440.21 151.63 440.73 151.47 441.23 151.14C441.71 150.82 442.04 150.41 442.22 149.92C442.43 149.35 442.11 148.5 441.27 147.39C441.25 147.35 441.24 147.33 441.23 147.32C439.76 145.44 438.91 143.98 438.67 142.94C438.44 141.91 438.54 140.79 438.97 139.58C439.72 137.52 441.07 135.83 443.03 134.49C444.99 133.17 447.13 132.5 449.44 132.5C450.35 132.5 451.24 132.62 452.13 132.85C453.01 133.09 453.89 133.43 454.75 133.9L452.46 140.23C451.83 139.59 451.2 139.1 450.57 138.77C449.93 138.45 449.31 138.28 448.68 138.28C448.14 138.28 447.66 138.42 447.23 138.69C446.8 138.96 446.51 139.32 446.35 139.75C446.12 140.38 446.47 141.14 447.37 142.05C447.44 142.13 447.48 142.19 447.52 142.22C449.07 143.85 449.97 145.19 450.23 146.24C450.48 147.29 450.35 148.53 449.83 149.96C448.96 152.34 447.47 154.26 445.36 155.7C443.26 157.14 440.89 157.86 438.27 157.86C437.26 157.86 436.32 157.72 435.45 157.41C434.59 157.11 433.75 156.64 432.94 156.01L435.39 149.27ZM452.61 145.2C454.07 141.16 456.04 138.04 458.53 135.83C461.03 133.61 463.8 132.5 466.85 132.5C469.9 132.5 471.86 133.61 472.73 135.82C473.61 138.03 473.31 141.15 471.84 145.2C470.38 149.23 468.41 152.35 465.95 154.56C463.48 156.76 460.71 157.86 457.66 157.86C454.59 157.86 452.62 156.76 451.74 154.54C450.86 152.34 451.15 149.22 452.61 145.2ZM459.93 145.03C459.01 147.57 458.56 149.3 458.58 150.23C458.59 151.16 459.04 151.63 459.92 151.63C460.79 151.63 461.56 151.17 462.25 150.25C462.92 149.33 463.73 147.59 464.66 145.03C465.59 142.47 466.04 140.72 466.04 139.8C466.02 138.88 465.58 138.41 464.71 138.41C463.83 138.41 463.04 138.88 462.35 139.82C461.66 140.75 460.85 142.49 459.93 145.03ZM483.35 157C482.54 157.28 481.78 157.5 481.06 157.65C480.34 157.79 479.66 157.86 479 157.86C477.7 157.86 476.55 157.62 475.55 157.12C474.54 156.63 473.71 155.9 473.07 154.95C472.31 153.81 471.94 152.42 471.96 150.79C471.97 149.15 472.38 147.23 473.19 145C474.53 141.31 476.58 138.31 479.33 136C482.09 133.69 484.97 132.53 487.95 132.53C488.69 132.53 489.4 132.59 490.07 132.71C490.74 132.82 491.37 133 491.97 133.22L489.85 139.07C489.49 138.84 489.11 138.66 488.7 138.53C488.3 138.41 487.89 138.35 487.49 138.35C486.05 138.35 484.76 138.92 483.6 140.06C482.45 141.2 481.47 142.89 480.66 145.1C479.91 147.19 479.69 148.81 480.01 149.95C480.33 151.09 481.16 151.66 482.5 151.66C482.99 151.66 483.5 151.6 484.01 151.46C484.52 151.33 485.04 151.13 485.57 150.88L483.35 157ZM485.59 157.38L494.43 132.98L501.63 132.98L492.78 157.38L485.59 157.38ZM494.11 157.38L508.59 132.98L516.69 132.98L513.47 157.38L506.47 157.38L507.23 153.79L502.98 153.79L501.13 157.38L494.11 157.38ZM505.47 148.86L508.33 148.86L510.15 139.82L505.47 148.86ZM523.73 157.38L516.52 157.38L523.13 139.17L518.86 139.17L521.1 132.98L536.84 132.98L534.6 139.17L530.34 139.17L523.73 157.38ZM529.79 157.38L538.64 132.98L545.83 132.98L536.98 157.38L529.79 157.38ZM543.79 145.2C545.25 141.16 547.22 138.04 549.71 135.83C552.2 133.61 554.98 132.5 558.03 132.5C561.07 132.5 563.03 133.61 563.91 135.82C564.78 138.03 564.48 141.15 563.02 145.2C561.56 149.23 559.59 152.35 557.12 154.56C554.65 156.76 551.89 157.86 548.83 157.86C545.77 157.86 543.8 156.76 542.92 154.54C542.04 152.34 542.33 149.22 543.79 145.2ZM551.11 145.03C550.19 147.57 549.73 149.3 549.75 150.23C549.76 151.16 550.21 151.63 551.09 151.63C551.97 151.63 552.74 151.17 553.42 150.25C554.1 149.33 554.9 147.59 555.83 145.03C556.76 142.47 557.22 140.72 557.21 139.8C557.2 138.88 556.76 138.41 555.88 138.41C555.01 138.41 554.22 138.88 553.53 139.82C552.83 140.75 552.03 142.49 551.11 145.03ZM560.78 157.38L569.62 132.98L576.78 132.98L576.09 145.82L580.75 132.98L587.27 132.98L578.43 157.38L571.36 157.38L571.78 145.17L567.35 157.38L560.78 157.38Z" />
		</g>
	</g>
</svg>