<svg width="161" height="43" viewBox="0 0 161 43" fill="none" xmlns="http://www.w3.org/2000/svg">
<g id="logo">
<g id="logo_2">
<path fill-rule="evenodd" clip-rule="evenodd" d="M87.12 7.92515C87.12 7.92515 87.12 7.92515 87.1429 7.92515C88.3085 7.92515 89.7255 6.99137 89.7255 4.12333C89.7255 1.23306 88.3771 0.34375 87.12 0.34375C85.863 0.34375 84.5146 1.25529 84.5146 4.12333C84.5146 7.0136 85.8402 7.90292 87.12 7.92515ZM86.7772 2.18907C86.8458 1.85558 86.9829 1.78888 87.12 1.78888C87.2343 1.78888 87.3714 1.85558 87.44 2.18907C87.44 2.23354 87.5086 2.43364 87.5086 4.34566C87.5086 6.03536 87.4171 6.16875 87.4171 6.16875C87.3486 6.39108 87.2343 6.45778 87.12 6.45778C87.0972 6.45778 87.0972 6.45778 87.0972 6.45778C86.9829 6.45778 86.8229 6.39109 86.7772 6.03536C86.7315 5.87973 86.7086 5.12381 86.7086 4.05663C86.7086 2.6115 86.7772 2.23354 86.7772 2.18907Z" fill="white"/>
<path fill-rule="evenodd" clip-rule="evenodd" d="M91.7596 7.54719C92.171 7.81399 92.6052 7.92515 93.0395 7.92515C93.0623 7.92515 93.0623 7.92515 93.0852 7.92515C94.2508 7.92515 95.6678 6.99137 95.6678 4.12333C95.6678 1.23306 94.2965 0.34375 93.0623 0.34375C93.0623 0.34375 93.0623 0.34375 93.0395 0.34375C92.6281 0.34375 92.171 0.454914 91.7596 0.721708C91.4168 0.966269 91.0968 1.32199 90.8454 1.85558C90.594 2.4114 90.4568 3.16732 90.4568 4.12333C90.4568 5.07934 90.594 5.83526 90.8454 6.39108C91.0739 6.92467 91.4168 7.30263 91.7596 7.54719ZM92.7195 2.18907C92.788 1.85558 92.9252 1.78888 93.0395 1.78888C93.1766 1.78888 93.3137 1.85558 93.3823 2.18907C93.3823 2.23354 93.4508 2.43364 93.4508 4.34566C93.4508 6.03536 93.3594 6.16875 93.3594 6.16875C93.2909 6.39108 93.1766 6.45778 93.0623 6.45778C93.0623 6.45778 93.0623 6.45778 93.0395 6.45778C92.9252 6.45778 92.7652 6.39109 92.7195 6.03536C92.6738 5.87973 92.6509 5.12381 92.6509 4.05663C92.6509 2.6115 92.7195 2.23354 92.7195 2.18907Z" fill="white"/>
<path fill-rule="evenodd" clip-rule="evenodd" d="M80.7664 7.79175V6.36885C80.6521 6.36885 80.5378 6.27991 80.515 6.10205C80.515 6.10205 80.4692 5.99089 80.4692 5.61293V4.65691H81.2006V5.6574C81.2006 6.30215 81.0635 6.34661 80.9035 6.39108V7.79175H83.7832V6.36885C83.4632 6.39108 83.2347 6.27992 83.2347 5.4573V2.76712C83.2347 1.96674 83.4861 1.87781 83.7832 1.90005V0.477144H80.8806V1.90005C81.0635 1.92228 81.2006 2.03344 81.2006 2.58926V3.41188H80.4692V2.58926C80.4692 2.18907 80.4921 2.16683 80.515 2.12237C80.5378 2.0112 80.6292 1.92228 80.7664 1.90005V0.477144H77.8638V1.90005C78.2066 1.87781 78.4352 1.98898 78.4352 2.81159V5.43507C78.4352 6.05759 78.3666 6.14652 78.298 6.21322C78.2066 6.32438 78.0695 6.39108 77.8638 6.36885V7.79175H80.7664Z" fill="white"/>
<path fill-rule="evenodd" clip-rule="evenodd" d="M5.66521 38.1615L4.68238 33.2481H2.64823L1.57412 38.2063C1.48266 38.5398 1.29992 38.6732 0.979856 38.6732V39.9849H3.26541V38.6954C2.99109 38.6954 2.87685 38.5617 2.87685 38.4061C2.87685 38.3619 2.87685 38.3619 2.89964 38.273L2.94535 38.0059H3.7453L3.79101 38.273C3.79101 38.3171 3.81396 38.3397 3.81396 38.3841C3.81396 38.5842 3.72251 38.6954 3.40245 38.6954V39.9849H6.23652V38.6732C6.21373 38.6732 6.19081 38.6732 6.16802 38.6732C5.91661 38.6287 5.73371 38.4509 5.66521 38.1615ZM3.15104 36.9835L3.37965 35.8496L3.40245 35.7607L3.58532 36.9835H3.15104Z" fill="white"/>
<path fill-rule="evenodd" clip-rule="evenodd" d="M6.09936 33.2481V36.0272H7.31063V35.2935C7.31063 34.6268 7.47075 34.5379 7.67641 34.5156V37.7394C7.67641 38.2952 7.60775 38.4061 7.58496 38.4731C7.49354 38.6065 7.35634 38.6954 7.10494 38.6732V39.9849H10.099V38.6732C9.87051 38.6954 9.7104 38.6065 9.61898 38.4508C9.59619 38.3841 9.52769 38.2952 9.52769 37.6282V34.5156C9.7104 34.5156 9.8933 34.6268 9.8933 35.2716V36.0272H11.0818V33.2481H6.09936Z" fill="white"/>
<path fill-rule="evenodd" clip-rule="evenodd" d="M101.176 7.79175V4.34566H99.7359V5.61293C99.7359 6.07982 99.6902 6.12428 99.6674 6.16875C99.5988 6.30214 99.5074 6.36885 99.2788 6.36885L98.9817 6.39108V2.94498C98.9817 2.36693 99.0274 2.23353 99.0274 2.18907C99.1189 1.98897 99.256 1.87781 99.5302 1.90005V0.477144H96.3763V1.90005C96.6277 1.87781 96.8105 1.98897 96.8791 2.18907C96.9019 2.23353 96.9476 2.3447 96.9476 2.78935V5.47953C96.9476 6.32438 96.6962 6.41331 96.3763 6.36885V7.79175H101.176Z" fill="white"/>
<path fill-rule="evenodd" clip-rule="evenodd" d="M48.9066 7.79175V6.39108C48.7009 6.39108 48.5409 6.30215 48.4495 6.12429C48.4495 6.10205 48.4495 6.10205 48.4495 6.10205C48.4038 6.01312 48.3581 5.87972 48.3581 5.3239V2.96722C48.3581 2.4114 48.4038 2.23354 48.4495 2.14461C48.4724 2.10014 48.4952 2.07791 48.5181 2.05568C48.5867 1.94451 48.7466 1.87781 48.9066 1.90005V0.477144H45.7755V1.90005C46.0269 1.87781 46.1869 1.98897 46.2555 2.18907C46.2783 2.25576 46.324 2.38916 46.324 2.94498V5.3239C46.324 5.96865 46.2783 6.05758 46.2555 6.10205C46.1869 6.27991 46.0269 6.39108 45.7755 6.39108V7.79175H48.9066Z" fill="white"/>
<path fill-rule="evenodd" clip-rule="evenodd" d="M74.7784 7.90291C75.5783 7.90291 76.2411 7.50272 76.6068 6.74681C76.7439 6.43555 76.9267 5.87972 76.8582 4.27896L75.2355 4.30119V4.96818C75.2355 6.03535 75.1669 6.25769 74.8927 6.25769C74.7327 6.25769 74.5956 6.21322 74.5498 5.74633C74.527 5.5907 74.4813 4.83478 74.4813 4.14556C74.4813 3.94546 74.4813 3.8343 74.4813 3.65644C74.4813 2.83383 74.5498 2.27801 74.5727 2.27801C74.6184 1.96675 74.7555 1.90005 74.8698 1.90005C74.9841 1.90005 75.1441 1.98898 75.2126 2.45587C75.2126 2.52257 75.2583 3.01169 75.2355 3.47858H76.881V0.477147H75.8754C75.8526 0.588311 75.784 0.632776 75.6697 0.632776C75.5555 0.632776 75.4183 0.543837 75.4183 0.543837C75.0298 0.388207 74.8241 0.365978 74.5727 0.365978C73.7042 0.365978 72.47 1.07743 72.2643 3.41188C72.2415 3.63421 72.2415 3.85654 72.2415 4.07887C72.2415 4.32343 72.2415 4.54576 72.2643 4.76809C72.47 7.147 73.7042 7.90291 74.7784 7.90291Z" fill="white"/>
<path fill-rule="evenodd" clip-rule="evenodd" d="M29.8685 6.39108C29.6399 6.39108 29.48 6.30214 29.3885 6.10205C29.3657 6.01312 29.2971 5.87972 29.2971 5.3239L29.32 2.96722C29.32 2.18907 29.3885 2.14461 29.4571 2.05568C29.5485 1.94451 29.6857 1.87781 29.8685 1.90005V0.477144H26.7145V1.90005C26.9659 1.87781 27.1259 1.98897 27.2173 2.18907C27.2402 2.25576 27.2859 2.38916 27.2859 2.94498L27.263 5.3239C27.263 5.96865 27.2173 6.05758 27.2173 6.10205C27.1259 6.27991 26.9659 6.39108 26.7145 6.39108V7.79175H29.8685V6.39108Z" fill="white"/>
<path fill-rule="evenodd" clip-rule="evenodd" d="M52.1063 7.90291C52.3577 7.90291 52.5634 7.85845 52.9291 7.72505C52.9748 7.70282 53.0205 7.68058 53.0662 7.65835C53.3633 7.52495 53.3862 7.52495 53.4548 7.52495C53.5233 7.52495 53.569 7.54719 53.6147 7.59165C53.6833 7.63612 53.7062 7.72505 53.729 7.79175H54.5975V5.76856C54.5975 5.12381 54.6432 5.10158 54.6889 5.05711C54.7575 4.92372 54.8946 4.87925 55.0546 4.87925V3.63421H52.1749V4.90148C52.4491 4.85701 52.6777 4.99041 52.6777 5.63516C52.6777 6.30215 52.4491 6.41332 52.2892 6.41332C52.1292 6.41332 51.992 6.32438 51.9235 5.94642C51.9006 5.83526 51.8778 5.65739 51.8778 4.41205C51.8778 2.63373 51.992 2.30024 51.992 2.30024C52.0835 1.98898 52.2434 1.90005 52.4034 1.90005C52.7005 1.90005 52.8377 2.25577 52.9291 2.63373C52.9748 2.94499 52.9977 3.27849 52.9977 3.47858H54.4832V0.477147H53.4776C53.4548 0.632777 53.3862 0.677236 53.2948 0.677236C53.1576 0.677236 53.0662 0.588303 52.9519 0.543837L52.9291 0.521607C52.6548 0.410443 52.4491 0.365978 52.1749 0.365978C51.4435 0.365978 50.6893 0.743935 50.2094 1.63294C49.958 2.07791 49.6608 2.96723 49.6608 4.2345C49.6608 6.96914 51.0778 7.90291 52.1063 7.90291Z" fill="white"/>
<path fill-rule="evenodd" clip-rule="evenodd" d="M41.7987 6.36885C41.6616 6.36885 41.5702 6.27991 41.5245 6.10205C41.5016 6.10205 41.4788 5.99089 41.4788 5.61293V4.65691H42.233V5.6574C42.233 6.30215 42.0959 6.34661 41.913 6.39108V7.79175H44.8156V6.36885C44.4956 6.39108 44.2442 6.27992 44.2442 5.4573L44.2671 2.76712C44.2671 1.96674 44.5185 1.87781 44.8156 1.90005V0.477144H41.913V1.90005C42.073 1.92228 42.233 2.03344 42.233 2.58926V3.41188H41.4788V2.58926C41.4788 2.18907 41.5016 2.16683 41.5245 2.12237C41.5702 2.0112 41.6616 1.92228 41.7759 1.90005V0.477144H38.8733V1.90005C39.2161 1.87781 39.4447 1.98898 39.4447 2.81159V5.43507C39.4447 6.05759 39.3533 6.14652 39.3076 6.21322C39.2161 6.32438 39.079 6.39108 38.8733 6.36885V7.79175H41.7987V6.36885Z" fill="white"/>
<path fill-rule="evenodd" clip-rule="evenodd" d="M20.4523 6.39108V7.79175H22.9206V6.41332C22.6235 6.41332 22.5092 6.27991 22.5092 6.10205C22.5092 6.05758 22.5092 6.03535 22.5321 5.94642L22.5778 5.6574H23.4463L23.492 5.94642C23.5148 5.99088 23.5148 6.03535 23.5148 6.07982C23.5148 6.30215 23.4234 6.41332 23.0577 6.41332V7.79175H26.1431V6.39108C25.846 6.36884 25.6175 6.19098 25.5489 5.83526L24.4747 0.477144H22.235L21.0694 5.85749C21.0236 6.12428 20.8865 6.27992 20.6808 6.34662C20.6123 6.36885 20.5437 6.39108 20.4523 6.39108ZM23.0349 3.32294L23.0577 3.18955L23.2863 4.54575H22.8063L23.0349 3.32294Z" fill="white"/>
<path fill-rule="evenodd" clip-rule="evenodd" d="M67.9448 7.54719C68.1276 7.54719 68.2876 7.68058 68.4476 7.74728C68.7904 7.90291 69.0189 7.92515 69.2475 7.92515C69.8874 7.92515 71.2359 7.52496 71.3501 5.87973V5.4573C71.3273 4.96818 71.1673 4.56799 70.8702 4.16749C70.436 3.56751 69.5903 3.07839 69.4303 2.96723C68.8132 2.5448 68.7675 2.3447 68.7675 2.18907C68.7675 1.94451 68.9275 1.83335 69.0875 1.83335C69.2703 1.83335 69.6817 1.98898 69.8417 3.12286H71.0073V0.477149H70.0246C69.9789 0.610546 69.9331 0.655009 69.8417 0.655009C69.7275 0.655009 69.5903 0.566078 69.3846 0.499379C69.1104 0.388215 68.9047 0.34375 68.6304 0.34375C67.9905 0.34375 67.442 0.632771 67.122 1.14413C66.8934 1.47762 66.7792 1.83335 66.7792 2.36694C66.7792 3.10062 66.962 3.58974 67.3277 4.0344C67.7619 4.56799 68.4247 4.85702 68.9275 5.30168C69.2703 5.5907 69.3389 5.81303 69.3389 5.96866C69.3389 6.21322 69.1789 6.36885 68.9275 6.36885C68.6761 6.36885 68.059 6.05759 68.0133 4.79032H66.7335V7.79175H67.7162C67.7162 7.65836 67.8076 7.54719 67.9448 7.54719Z" fill="white"/>
<path fill-rule="evenodd" clip-rule="evenodd" d="M31.3083 6.10205C31.2398 6.27991 31.0798 6.39108 30.8284 6.39108L30.8055 7.79175H33.9595V6.39108C33.7538 6.39108 33.571 6.30214 33.4796 6.10205C33.4567 6.01312 33.411 5.87972 33.411 5.3239V2.96722C33.411 2.18907 33.4796 2.14461 33.5481 2.05568C33.6395 1.94451 33.7767 1.87781 33.9595 1.90005V0.477144H30.8055V1.90005C31.0798 1.87781 31.2398 1.98897 31.3083 2.18907C31.3312 2.25576 31.3769 2.38916 31.3769 2.94498V5.3239C31.3769 5.96865 31.3312 6.05758 31.3083 6.10205Z" fill="white"/>
<path fill-rule="evenodd" clip-rule="evenodd" d="M4.01962 7.79175V6.36885C3.90525 6.36885 3.79101 6.27991 3.7453 6.10205C3.7453 6.10205 3.69956 5.99089 3.69956 5.61293V4.65691H4.47672V5.6574C4.47672 6.30215 4.31674 6.34661 4.15678 6.39108V7.79175H7.03644V6.36885C6.71653 6.39108 6.48792 6.27992 6.48792 5.4573V2.76712C6.48792 1.96674 6.73933 1.87781 7.03644 1.90005V0.477144H4.13387V1.90005C4.31674 1.92228 4.47672 2.03344 4.47672 2.58926V3.41188H3.69956V2.58926C3.69956 2.18907 3.72251 2.16683 3.7453 2.12237C3.79101 2.0112 3.88246 1.92228 4.01962 1.90005V0.477144H1.0941V1.90005C1.43696 1.87781 1.66557 1.98898 1.66557 2.81159V5.43507C1.66557 6.05759 1.59691 6.14652 1.52841 6.21322C1.43696 6.32438 1.29992 6.39108 1.0941 6.36885V7.79175H4.01962Z" fill="white"/>
<path fill-rule="evenodd" clip-rule="evenodd" d="M14.4872 34.5598C14.6472 34.5823 14.8071 34.6713 14.8071 35.1826L14.7843 35.9385H14.0986V35.1826C14.0986 34.8044 14.0986 34.8044 14.1214 34.7602C14.1671 34.6487 14.2586 34.5823 14.3728 34.5598V33.2481H11.6988V34.5379C12.0187 34.5379 12.2244 34.6268 12.2244 35.405V37.8061C12.2244 38.3619 12.1559 38.4731 12.0874 38.5175C12.0187 38.6287 11.8817 38.6732 11.6988 38.6732V39.9849H14.3728V38.6732C14.2815 38.6506 14.1671 38.5617 14.1214 38.4061C14.1214 38.4061 14.0986 38.3171 14.0986 37.9617V37.0943H14.7843L14.8071 38.0059C14.8071 38.5842 14.6472 38.6506 14.51 38.6732V39.9849H17.1612V38.6732C16.864 38.6732 16.6355 38.5842 16.6355 37.828L16.6584 35.3605C16.6584 34.6046 16.8869 34.5156 17.1612 34.5379V33.2481H14.4872V34.5598Z" fill="white"/>
<path fill-rule="evenodd" clip-rule="evenodd" d="M10.099 6.41332C9.77909 6.41332 9.66469 6.27991 9.66469 6.10205C9.66469 6.05758 9.66469 6.03535 9.68764 5.94642L9.75614 5.6574H10.6247L10.6703 5.94642C10.6703 5.99088 10.6703 6.03535 10.6703 6.07982C10.6703 6.30215 10.579 6.41332 10.2132 6.41332V7.79175H13.3215V6.39108C13.2302 6.36884 13.1387 6.34661 13.0701 6.32438C12.8873 6.25768 12.7502 6.07982 12.7045 5.83526L11.6303 0.477144H9.39049L8.22496 5.85749C8.1563 6.23545 7.9506 6.39108 7.60775 6.39108V7.79175H10.099V6.41332ZM10.2132 3.32294L10.2362 3.18955L10.4418 4.54575H9.9618L10.2132 3.32294Z" fill="white"/>
<path fill-rule="evenodd" clip-rule="evenodd" d="M58.7342 6.36885C58.62 6.36885 58.5057 6.27991 58.46 6.10205C58.46 6.10205 58.4371 5.99089 58.4371 5.61293L58.4143 4.65691H59.1913V5.6574C59.1913 6.30215 59.0313 6.34661 58.8714 6.39108V7.79175H61.7511V6.36885C61.4311 6.39108 61.2026 6.27992 61.2026 5.4573V2.76712C61.2026 1.96674 61.454 1.87781 61.7511 1.90005V0.477144H58.8485V1.90005C59.0313 1.92228 59.1913 2.03344 59.1913 2.58926V3.41188H58.4143V2.58926C58.4143 2.18907 58.4371 2.16683 58.46 2.12237C58.5057 2.0112 58.5971 1.92228 58.7342 1.90005V0.477144H55.8317V1.90005C56.1516 1.87781 56.3802 1.98898 56.3802 2.81159V5.43507C56.3802 6.05759 56.3116 6.14652 56.243 6.21322C56.1516 6.32438 56.0145 6.39108 55.8317 6.36885V7.79175H58.7342V6.36885Z" fill="white"/>
<path fill-rule="evenodd" clip-rule="evenodd" d="M13.4129 2.58926L14.4643 7.81398H16.4298L16.9098 5.01264L17.3897 7.81398H19.3552L20.3608 2.58926C20.4523 2.16684 20.5208 2.10014 20.5894 2.03344C20.6123 2.0112 20.658 1.98897 20.6808 1.96674C20.7494 1.92227 20.8408 1.87781 20.9322 1.87781V0.477144H18.6467V1.83335C18.921 1.83335 19.0353 1.94451 19.0353 2.14461C19.0353 2.18907 19.0353 2.23354 18.9896 2.50033L18.6239 4.67915L18.2125 2.52256C18.1668 2.278 18.1439 2.2113 18.1439 2.12237C18.1439 1.96674 18.2353 1.83335 18.5096 1.83335V0.477144H15.8127V1.83335C16.087 1.83335 16.1784 1.94451 16.1784 2.16684C16.1784 2.16684 16.1784 2.25577 16.1555 2.38917L15.7899 4.67915L15.3556 2.38917C15.3556 2.30023 15.3328 2.2113 15.3328 2.12237C15.3328 1.96674 15.4242 1.83335 15.6984 1.85558V0.477144H12.8416V1.87781C12.9101 1.87781 13.0016 1.90004 13.0701 1.94451C13.2073 2.01121 13.3444 2.21131 13.4129 2.58926Z" fill="white"/>
<path fill-rule="evenodd" clip-rule="evenodd" d="M93.0394 33.1372C92.948 33.115 92.8566 33.115 92.7652 33.115C92.4224 33.115 92.0795 33.1814 91.7596 33.3595C91.4167 33.5374 91.0968 33.8261 90.8454 34.2711C90.5483 34.8269 90.3654 35.5606 90.3654 36.5833C90.3654 37.6282 90.5483 38.3842 90.8454 38.9177C91.0968 39.3624 91.4167 39.6737 91.7596 39.8515C92.1024 40.0294 92.4452 40.0961 92.788 40.0961C92.8795 40.0961 92.9709 40.0961 93.0394 40.0739C94.0679 39.9405 95.165 39.0289 95.165 36.5833C95.165 34.1596 94.1136 33.2706 93.0394 33.1372ZM93.0394 38.4509C93.0394 38.4731 93.0394 38.4731 93.0394 38.495C92.9709 38.6954 92.8566 38.7396 92.7652 38.7396C92.7652 38.7396 92.7652 38.7396 92.7423 38.7396C92.6281 38.7396 92.4909 38.6732 92.4452 38.3397C92.4224 38.2063 92.3767 37.5168 92.3767 36.5388C92.3767 35.2049 92.4452 34.8491 92.4452 34.8044C92.5138 34.5156 92.6509 34.4489 92.7652 34.4489C92.8795 34.4489 92.9937 34.5156 93.0394 34.8044V34.8269C93.0623 34.8714 93.1309 35.0937 93.1309 36.7834C93.1309 38.0059 93.0852 38.3397 93.0394 38.4509Z" fill="white"/>
<path fill-rule="evenodd" clip-rule="evenodd" d="M86.8001 33.2481V34.5598C86.9372 34.5379 87.0286 34.5598 87.12 34.6268C87.1657 34.6713 87.2343 34.7377 87.2572 34.8269C87.28 34.8714 87.3257 35.0048 87.3257 35.5161V37.7172C87.3257 38.273 87.28 38.3619 87.2572 38.4061C87.2343 38.495 87.1657 38.5617 87.12 38.6065C87.0286 38.6506 86.9372 38.6732 86.8001 38.6732V39.9849H89.7026V38.6732C89.4969 38.6954 89.337 38.5842 89.2684 38.4061C89.2455 38.3397 89.177 38.2063 89.177 37.6949V35.538C89.177 34.8269 89.2684 34.7824 89.337 34.6935C89.4055 34.6046 89.5426 34.5379 89.7026 34.5379V33.2481H86.8001Z" fill="white"/>
<path fill-rule="evenodd" clip-rule="evenodd" d="M98.9586 33.2481V34.5379C99.1189 34.5379 99.256 34.6046 99.3474 34.6935C99.3703 34.7377 99.4845 34.8714 99.4845 35.3824V36.6941L98.4561 33.2481H95.8049V34.5598C96.0106 34.5156 96.1706 34.6046 96.262 34.8044C96.2849 34.8714 96.3306 34.8714 96.3306 35.7826V37.7172C96.3306 38.4061 96.262 38.4731 96.1934 38.5398C96.1249 38.6287 95.9877 38.6954 95.8049 38.6732V39.9849H98.1361V38.6732C97.839 38.6954 97.6333 38.5842 97.6333 37.8728V36.3832L98.5932 39.9849H100.764L100.787 35.405C100.787 34.8491 100.879 34.6487 101.039 34.5598C101.13 34.5379 101.199 34.5379 101.29 34.5379V33.2481H98.9586Z" fill="white"/>
<path fill-rule="evenodd" clip-rule="evenodd" d="M81.2006 33.2481V36.0272H82.4119V35.2935C82.4119 34.6268 82.5719 34.5379 82.7776 34.5156V37.7394C82.7776 38.2952 82.709 38.4061 82.6862 38.4731C82.5948 38.6065 82.4576 38.6954 82.2062 38.6732V39.9849H85.2002V38.6732C84.9717 38.6954 84.7888 38.6065 84.7203 38.4508C84.6974 38.3841 84.6288 38.2952 84.6288 37.6282V34.5156C84.7888 34.5156 84.9945 34.6268 84.9945 35.2716V36.0272H86.183V33.2481H81.2006Z" fill="white"/>
<path fill-rule="evenodd" clip-rule="evenodd" d="M21.1151 37.984C21.1151 38.4061 21.0694 38.4508 21.0694 38.4731C21.0008 38.5842 20.9094 38.6732 20.7037 38.6732H20.4066V35.5161C20.4066 34.9822 20.4523 34.8714 20.4751 34.8269C20.5208 34.7157 20.5894 34.6268 20.6808 34.5823C20.7494 34.5598 20.8179 34.5379 20.9094 34.5379V33.2481H18.0296V34.5379C18.2811 34.5379 18.4182 34.6268 18.4867 34.8269C18.5096 34.8714 18.5553 34.9603 18.5553 35.3824V37.8506C18.5553 38.6065 18.3268 38.6954 18.0296 38.6732V39.9849H22.4406V36.8056H21.1151V37.984Z" fill="white"/>
<path fill-rule="evenodd" clip-rule="evenodd" d="M40.4046 36.7612V37.3837C40.4046 38.3619 40.336 38.5617 40.0846 38.5617C39.9475 38.5617 39.8104 38.5175 39.7647 38.0951C39.7647 37.9395 39.719 37.2503 39.719 36.6052C39.719 36.4496 39.719 36.3387 39.719 36.1831C39.719 35.4049 39.7875 34.9158 39.7875 34.8933C39.8561 34.6046 39.9475 34.5598 40.0618 34.5598C40.1761 34.5598 40.336 34.6268 40.3817 35.0714C40.3817 35.1159 40.4046 35.5828 40.4046 36.0052H41.913V33.2481H40.9988C40.976 33.337 40.9074 33.3818 40.7931 33.3818C40.7246 33.3818 40.5646 33.3151 40.5646 33.3151C40.2218 33.1814 40.0161 33.1372 39.7875 33.1372C38.919 33.1372 37.662 33.9376 37.662 36.5611C37.662 39.2512 38.919 40.0738 39.9932 40.0738C40.7246 40.0738 41.3417 39.7178 41.6616 39.0067C41.7988 38.7396 41.9587 38.2063 41.913 36.7389L40.4046 36.7612Z" fill="white"/>
<path fill-rule="evenodd" clip-rule="evenodd" d="M80.7664 38.1615L79.8065 33.2481H77.7495L76.6753 38.2063C76.6296 38.5398 76.4239 38.6732 76.104 38.6732V39.9849H78.3895V38.6954C78.1152 38.6954 78.0009 38.5617 78.0009 38.4061C78.0009 38.3619 78.0009 38.3619 78.0238 38.273L78.0695 38.0059H78.8694L78.9151 38.273C78.9151 38.3171 78.938 38.3397 78.938 38.3841C78.938 38.5842 78.8465 38.6954 78.5037 38.6954V39.9849H81.3377V38.6732C81.3149 38.6732 81.292 38.6732 81.2692 38.6732C81.0178 38.6287 80.8349 38.4509 80.7664 38.1615ZM78.2752 36.9835L78.5037 35.8496V35.7607L78.7094 36.9835H78.2752Z" fill="white"/>
<path fill-rule="evenodd" clip-rule="evenodd" d="M28.4515 33.2481V36.0272H29.6628V35.2935C29.6628 34.6268 29.8228 34.5379 30.0285 34.5156V37.7394C30.0285 38.2952 29.9599 38.4061 29.9371 38.4731C29.8456 38.6065 29.7085 38.6954 29.4571 38.6732V39.9849H32.474V38.6732C32.2225 38.6954 32.0397 38.6065 31.9711 38.4508C31.9483 38.3841 31.8797 38.2952 31.8797 37.6282V34.5156C32.0397 34.5156 32.2454 34.6268 32.2454 35.2716V36.0272H33.4339V33.2481H28.4515Z" fill="white"/>
<path fill-rule="evenodd" clip-rule="evenodd" d="M26.5317 37.2725C26.5317 38.6506 26.2803 38.7621 25.3889 38.7176V37.0502C25.5261 37.0943 25.6403 37.1833 25.6403 37.6724H26.326V35.2716H25.6403C25.6403 35.7159 25.6175 35.7159 25.6175 35.7607C25.5718 35.8941 25.4803 35.983 25.3889 36.0052V34.4934C26.1889 34.4712 26.5317 34.6268 26.5088 36.0272H27.6973V33.2481H23.012V34.5598C23.0349 34.5598 23.0349 34.5598 23.0349 34.5598C23.2177 34.5379 23.3777 34.6268 23.4463 34.8044C23.4691 34.8714 23.5148 34.9158 23.5148 35.605V37.6282C23.5148 38.4061 23.4234 38.495 23.3777 38.5398C23.3091 38.6287 23.1949 38.6732 23.0349 38.6732C23.0349 38.6732 23.0349 38.6732 23.012 38.6732V39.9849H27.743V36.8945H26.5317V37.2725Z" fill="white"/>
<path fill-rule="evenodd" clip-rule="evenodd" d="M34.0509 34.5598C34.3023 34.5379 34.4395 34.6487 34.508 34.8269C34.5309 34.8714 34.5766 35.0048 34.5766 35.5161V37.7172C34.5766 38.273 34.5309 38.3619 34.508 38.4061C34.4395 38.5842 34.3023 38.6732 34.0509 38.6732V39.9849H36.9535V38.6732C36.7478 38.6954 36.5878 38.5842 36.5193 38.4061C36.4964 38.3397 36.4507 38.2063 36.4507 37.6949V35.538C36.4507 34.8269 36.5193 34.7824 36.5878 34.6935C36.6564 34.6046 36.7935 34.5379 36.9535 34.5379V33.2481H34.0509V34.5598Z" fill="white"/>
<path fill-rule="evenodd" clip-rule="evenodd" d="M64.4251 33.115C64.4251 33.115 64.4251 33.115 64.4023 33.115C63.2595 33.115 62.0253 33.9598 62.0253 36.5833C62.0253 39.2287 63.2595 40.0738 64.4023 40.0961C64.4251 40.0961 64.4251 40.0961 64.448 40.0961C65.5221 40.0961 66.8249 39.2287 66.8249 36.5833C66.8249 33.9376 65.5678 33.115 64.4251 33.115ZM64.6994 38.495C64.6308 38.6954 64.5165 38.7396 64.4251 38.7396H64.4023C64.288 38.7396 64.1508 38.6732 64.1051 38.3397C64.0823 38.2063 64.0366 37.5168 64.0366 36.5388C64.0366 35.2049 64.1051 34.8491 64.1051 34.8044C64.1737 34.5156 64.3108 34.4489 64.4023 34.4489C64.5394 34.4712 64.6537 34.5156 64.6994 34.8044C64.7222 34.8714 64.7679 35.0489 64.7679 36.7834C64.7679 38.3619 64.6994 38.4731 64.6994 38.495Z" fill="white"/>
<path fill-rule="evenodd" clip-rule="evenodd" d="M71.3501 36.7389L70.276 36.7612V37.3837C70.276 38.3619 70.2074 38.5617 69.9331 38.5617C69.796 38.5617 69.6817 38.5175 69.636 38.0951C69.6132 37.9395 69.5675 37.2503 69.5675 36.6052C69.5675 36.4496 69.5675 36.3387 69.5675 36.1831C69.5675 35.4049 69.636 34.9158 69.636 34.8933C69.7046 34.6046 69.8189 34.5598 69.9331 34.5598C70.0474 34.5598 70.1845 34.6268 70.2531 35.0714C70.2531 35.1159 70.276 35.5828 70.276 36.0052H71.7615V33.2481H70.8702C70.8245 33.337 70.7559 33.3818 70.6645 33.3818C70.5731 33.3818 70.4131 33.3151 70.4131 33.3151C70.0703 33.1814 69.8874 33.1372 69.6589 33.1372C68.7904 33.1372 67.5105 33.9376 67.5105 36.5611C67.5105 39.2512 68.7675 40.0738 69.8646 40.0738C70.4588 40.0738 71.0073 39.8071 71.3501 39.2954C71.4187 39.2068 71.4644 39.1178 71.533 39.0067C71.6473 38.7396 71.8301 38.2063 71.7615 36.7389H71.3501Z" fill="white"/>
<path fill-rule="evenodd" clip-rule="evenodd" d="M72.6986 34.5598C72.9271 34.5379 73.0643 34.6487 73.1328 34.8269C73.1785 34.8714 73.2014 35.0048 73.2014 35.5161V37.7172C73.2014 38.273 73.1557 38.3619 73.1328 38.4061C73.0643 38.5842 72.9271 38.6732 72.6986 38.6732V39.9849H75.5783V38.6732C75.3726 38.6954 75.2355 38.5842 75.1441 38.4061C75.1212 38.3397 75.0755 38.2063 75.0755 37.6949V35.538C75.0755 34.8269 75.1441 34.7824 75.2126 34.6935C75.304 34.6046 75.4183 34.5379 75.5783 34.5379V33.2481H72.6986V34.5598Z" fill="white"/>
<path fill-rule="evenodd" clip-rule="evenodd" d="M54.2775 35.538C53.729 35.1378 53.7062 34.9603 53.7062 34.8043C53.7062 34.6046 53.8204 34.4934 53.9804 34.4934C54.1404 34.4934 54.5289 34.6268 54.6889 35.6717H55.7402V33.2481H54.826C54.8032 33.3818 54.7575 33.404 54.6661 33.404C54.5518 33.404 54.4375 33.337 54.2547 33.2706C54.0033 33.1594 53.7976 33.1372 53.569 33.1372C53.3405 33.1372 53.1119 33.1814 52.9291 33.2481C52.6091 33.3595 52.3577 33.5815 52.1749 33.8709C51.9463 34.1596 51.8549 34.4934 51.8549 34.9822C51.8549 35.6495 52.0377 36.0942 52.3577 36.5163C52.5177 36.7167 52.7234 36.8723 52.9291 37.0279C53.2262 37.228 53.5462 37.4278 53.8204 37.6724C54.1633 37.9395 54.2318 38.1615 54.2318 38.2952C54.2318 38.5175 54.0718 38.6732 53.8433 38.6732C53.6147 38.6732 53.0434 38.3619 52.9977 37.2058H51.8092V39.9849H52.7005C52.7005 39.8293 52.792 39.7403 52.9291 39.7403C53.1119 39.7403 53.2491 39.8515 53.3862 39.9182C53.7062 40.0516 53.9118 40.0961 54.1404 40.0961C54.7346 40.0961 56.0602 39.6959 56.0602 38.0059C56.0602 37.4726 55.9231 37.0502 55.626 36.65C55.2146 36.0942 54.4375 35.6495 54.2775 35.538Z" fill="white"/>
<path fill-rule="evenodd" clip-rule="evenodd" d="M59.4656 35.538C58.9171 35.1378 58.8714 34.9603 58.8714 34.8043C58.8714 34.6046 59.0085 34.4934 59.1685 34.4934C59.3285 34.4934 59.717 34.6268 59.8541 35.6717H60.9283V33.2481H60.0141C59.9913 33.3818 59.9455 33.404 59.8541 33.404C59.7399 33.404 59.6256 33.337 59.4427 33.2706C59.1913 33.1594 58.9856 33.1372 58.7571 33.1372C58.1629 33.1372 57.6601 33.404 57.3401 33.8709C57.1344 34.1596 57.043 34.4934 57.043 34.9822C57.043 35.6495 57.203 36.0942 57.5458 36.5163C57.9572 37.0054 58.5514 37.2503 59.0314 37.6724C59.3513 37.9395 59.397 38.1615 59.397 38.2952C59.397 38.5175 59.237 38.6732 59.0314 38.6732C58.7799 38.6732 58.2314 38.3619 58.1857 37.2058H56.9973V39.9849H57.8886C57.8886 39.8293 57.98 39.7403 58.0943 39.7403C58.2771 39.7403 58.4143 39.8515 58.5743 39.9182C58.8942 40.0516 59.0771 40.0961 59.3285 40.0961C59.9227 40.0961 61.2483 39.6959 61.2483 38.0059C61.2483 37.4726 61.1111 37.0502 60.814 36.65C60.4026 36.0942 59.6256 35.6495 59.4656 35.538Z" fill="white"/>
<path fill-rule="evenodd" clip-rule="evenodd" d="M50.735 38.1615L49.7523 33.2481H47.7182L46.644 38.2063C46.5754 38.5398 46.3926 38.6732 46.0726 38.6732V39.9849H48.3353V38.6954C48.061 38.6954 47.9696 38.5617 47.9696 38.4061C47.9696 38.3619 47.9696 38.3619 47.9696 38.273L48.0153 38.0059H48.8381L48.8609 38.273C48.8838 38.3171 48.8838 38.3397 48.8838 38.3841C48.8838 38.5842 48.7924 38.6954 48.4724 38.6954V39.9849H51.3064V38.6732C51.0093 38.6506 50.8036 38.495 50.735 38.1615ZM48.221 36.9835L48.4495 35.8496L48.4724 35.7607L48.6781 36.9835H48.221Z" fill="white"/>
<path fill-rule="evenodd" clip-rule="evenodd" d="M142.657 20.5756C142.909 20.4422 142.863 20.2866 143.092 20.2421C143.275 20.2644 143.32 20.3533 143.48 20.3088C143.594 20.2644 143.617 20.1977 143.8 20.3311C143.96 20.3978 144.006 20.3755 144.12 20.2421C144.234 20.1532 144.166 20.1532 144.394 20.131C144.577 20.1087 144.6 20.0198 144.668 19.9087C144.76 19.842 144.92 20.042 144.92 20.042C144.92 20.042 144.92 20.0421 145.034 19.9309C145.149 19.8864 145.171 19.9531 145.286 19.8864C145.377 19.8197 145.514 19.5529 145.629 19.464C145.629 19.3751 145.811 19.4418 145.88 19.2861C146.017 19.175 145.903 19.1305 145.926 18.9971C146.017 18.8415 146.131 18.8192 146.2 18.7081C146.246 18.5524 146.177 18.3968 146.177 18.3968C146.246 18.5302 146.314 18.3524 146.291 18.1967C146.223 18.0189 146.154 17.8855 146.04 17.8188C145.857 17.6631 145.423 17.4186 145.286 17.4853C145.171 17.463 144.897 17.3074 144.783 17.174C144.668 17.0851 144.646 17.174 144.463 17.2185C144.326 17.1962 144.166 17.1295 143.96 16.9517C143.8 16.8183 143.983 16.8405 143.914 16.6627C143.846 16.5293 143.709 16.6182 143.572 16.7516C143.48 16.7961 143.343 16.596 143.183 16.4403C143.069 16.3292 143 16.4403 142.932 16.2625C142.795 16.1513 142.84 16.218 142.726 16.1735C142.612 16.1291 142.612 16.0179 142.497 15.9512C142.452 15.8178 142.383 15.7956 142.2 15.7289C142.086 15.6399 141.903 15.7956 141.675 15.5955C141.446 15.4621 141.469 15.6177 141.309 15.6399C141.103 15.6399 141.012 15.5955 140.852 15.7289C140.783 15.8623 140.715 15.8623 140.578 15.84C140.418 15.8178 140.349 15.8178 140.189 15.9512C140.121 16.0179 140.098 16.1291 139.961 16.1735C139.778 16.3514 139.641 16.3959 139.549 16.3736C139.412 16.3514 139.138 16.3514 139.115 16.4181C139.069 16.5515 138.886 16.5737 138.726 16.4403C138.544 16.4403 138.589 16.4626 138.521 16.2402C138.498 16.0624 138.292 16.0846 138.155 15.9957C138.041 15.929 138.109 15.8178 137.995 15.6844C137.972 15.5732 137.972 15.5066 137.995 15.3732C137.904 15.2398 137.926 15.2175 137.835 15.1953C137.721 15.1508 137.607 15.1064 137.515 15.0841C137.401 14.9507 137.492 14.8173 137.401 14.6839C137.332 14.5505 137.081 14.6617 136.898 14.6172C136.761 14.595 136.624 14.5728 136.601 14.7062C136.601 14.8618 136.35 14.8396 136.372 14.7284L136.35 14.7062C136.258 14.6617 136.075 14.6395 136.121 14.8173C136.121 14.8173 136.235 14.884 136.235 14.973C136.144 15.1064 135.938 14.9063 136.03 15.0397C135.984 15.1508 135.778 15.1508 135.778 15.262C135.732 15.3509 135.664 15.4621 135.572 15.5733C135.504 15.6844 135.595 15.9957 135.55 16.1291C135.55 16.2402 135.572 16.3069 135.527 16.4403C135.504 16.5737 135.595 16.6849 135.687 16.8628C135.778 16.9517 135.618 16.9739 135.687 17.0628C135.824 17.174 135.87 17.2852 135.915 17.3963C136.007 17.4186 136.212 17.4853 136.35 17.552C136.441 17.6409 136.395 17.8855 136.487 17.8855C136.624 17.9522 136.875 18.1078 137.081 18.2412C137.218 18.3524 137.264 18.2412 137.492 18.2412C137.652 18.3746 137.858 18.4413 137.995 18.3968C138.178 18.4191 138.178 18.2857 138.246 18.1967C138.315 18.063 138.384 17.8855 138.452 17.9077C138.544 17.9522 138.749 18.13 138.932 18.13C139.161 18.219 139.069 18.3746 139.092 18.5302C139.115 18.6636 139.138 18.7525 139.115 18.9082C139.092 19.0193 139.161 19.086 139.343 19.2639C139.435 19.3751 139.321 19.5307 139.343 19.6196C139.275 19.7308 139.343 19.8864 139.366 20.042C139.481 20.2421 139.252 20.2421 139.321 20.3755C139.321 20.3755 139.321 20.4645 139.366 20.4645C139.435 20.4867 139.435 20.5534 139.526 20.5756C139.618 20.6423 139.572 20.6868 139.549 20.7535C139.618 20.798 139.481 20.9314 139.572 20.9981C139.618 21.0203 139.846 21.0425 139.915 21.0867C139.983 21.0867 140.029 21.2426 140.029 21.2426C140.121 21.3316 140.235 21.1982 140.349 21.2204C140.463 21.2204 140.555 21.3316 140.669 21.3538C140.76 21.3316 140.898 21.2426 141.012 21.1982C141.172 21.0867 141.309 21.1537 141.515 21.1537C141.72 21.1315 141.835 21.0425 141.972 20.9091C142.155 20.8647 142.337 20.709 142.657 20.5756Z" fill="white"/>
<path fill-rule="evenodd" clip-rule="evenodd" d="M103.118 9.59261C103.05 9.45921 102.981 9.48144 102.913 9.45921C102.867 9.45921 102.776 9.48144 102.707 9.45921C102.639 9.48144 102.753 9.37029 102.639 9.41475C102.57 9.37029 102.593 9.45921 102.593 9.45921C102.479 9.45921 102.501 9.50368 102.41 9.57038C102.41 9.63708 102.319 9.59261 102.296 9.63708C102.204 9.7257 102.227 9.81493 102.227 9.9261C102.136 9.9928 102.09 10.2151 102.044 10.2818C102.044 10.3263 101.861 10.393 101.793 10.3485C101.701 10.3041 101.679 10.5264 101.61 10.5264C101.519 10.4597 101.496 10.4597 101.519 10.5264C101.519 10.5931 101.381 10.6598 101.336 10.6376C101.244 10.682 101.29 10.7043 101.176 10.7043C101.107 10.7265 101.062 10.7265 101.062 10.7932C101.062 10.7932 101.062 10.7932 101.039 10.7932C101.016 10.8599 100.97 10.8821 100.879 11.0377C100.787 11.06 100.764 11.0377 100.673 11.06V11.1711C100.696 11.2156 100.742 11.2823 100.719 11.349C100.696 11.3712 100.696 11.3712 100.673 11.3935C100.65 11.4379 100.65 11.5046 100.65 11.5491C100.627 11.5713 100.559 11.6825 100.49 11.727C100.467 11.8381 100.467 11.8381 100.399 11.8381C100.33 11.8826 100.422 12.016 100.399 12.016C100.353 12.016 100.33 12.016 100.33 12.0382C100.353 12.1049 100.467 12.1049 100.422 12.1716C100.422 12.2161 100.33 12.1271 100.353 12.2605C100.33 12.3939 100.422 12.5273 100.353 12.594C100.399 12.683 100.444 12.6607 100.536 12.7274C100.604 12.7719 100.559 12.8608 100.582 12.8608C100.604 12.8608 100.65 12.8831 100.673 12.8831C100.742 12.9053 100.81 12.9498 100.879 12.972C100.947 12.972 100.993 12.9942 101.039 12.9942C101.107 12.9942 101.153 12.9942 101.153 12.9498C101.13 12.9053 101.084 12.8831 101.039 12.8164V12.7941C101.016 12.7719 101.039 12.7494 101.039 12.7494C101.084 12.7274 101.13 12.7494 101.13 12.7274C101.199 12.683 101.153 12.6607 101.199 12.594C101.222 12.5273 101.244 12.3939 101.313 12.3939C101.404 12.3272 101.359 12.3273 101.336 12.2161C101.404 12.1272 101.427 12.1271 101.473 12.0382C101.45 11.9048 101.656 11.7492 101.701 11.6603C101.747 11.5713 101.839 11.638 101.93 11.5713C101.93 11.5046 102.136 11.4379 102.319 11.4379C102.501 11.4157 102.524 11.2601 102.593 11.1934C102.707 11.1044 102.798 11.1267 102.867 11.1044C103.004 11.0377 102.958 10.971 102.89 10.9488C102.867 10.8821 102.799 10.8599 102.799 10.771C102.753 10.7043 102.776 10.6376 102.776 10.6153C102.684 10.682 102.639 10.682 102.776 10.5264C102.821 10.5264 102.799 10.5042 102.753 10.393C102.707 10.2818 102.844 10.2151 102.913 10.1707C103.004 10.0817 102.958 10.104 102.958 9.9928C102.958 9.90387 102.958 9.88163 103.027 9.83717C103.118 9.81494 103.21 9.94833 103.256 9.90387C103.256 9.88163 103.301 9.83717 103.21 9.74824C103.187 9.7257 103.141 9.65931 103.118 9.59261Z" fill="white"/>
<path fill-rule="evenodd" clip-rule="evenodd" d="M160.461 32.2031C160.279 32.159 160.164 32.0033 160.096 32.0033C160.004 31.8922 159.936 31.8922 159.844 31.8696C159.753 31.8922 159.639 31.7365 159.456 31.7365C159.296 31.7143 158.884 31.4472 158.724 31.2474C158.587 31.0918 158.542 31.0695 158.427 30.9806C158.382 30.9139 158.542 30.8024 158.473 30.7138C158.427 30.6249 158.267 30.6468 158.176 30.6468C158.085 30.6249 157.925 30.3803 157.902 30.2025C157.902 30.1135 157.947 29.8467 157.925 29.7133C157.879 29.6022 157.833 29.4688 157.765 29.3131C157.719 29.202 157.605 29.1353 157.559 29.0905C157.513 29.0464 157.33 29.0686 157.239 29.0905C157.147 29.1131 157.17 29.0464 157.079 29.0464C156.965 29.0241 156.919 29.1794 156.736 29.1353C156.622 29.1575 156.599 29.202 156.53 29.2461C156.393 29.3132 156.37 29.2461 156.37 29.1353C156.348 29.0464 156.439 28.846 156.393 28.757C156.348 28.6239 156.256 28.757 156.165 28.6462C156.165 28.5572 156.256 28.4683 156.188 28.3794C156.21 28.2015 156.188 28.0681 156.142 27.8458C156.073 27.6231 156.188 27.6679 156.233 27.579C156.325 27.5342 156.279 27.4901 156.233 27.3786C156.233 27.2897 156.142 27.2455 156.073 27.1121C156.05 26.9787 156.028 26.9787 155.959 26.8675C155.89 26.8231 155.753 26.8453 155.753 26.7786C155.685 26.7786 155.639 26.5118 155.616 26.4229C155.593 26.3114 155.456 26.334 155.365 26.2673C155.251 26.245 155.113 26.2006 155.09 26.1561C155.068 26.0668 155.068 25.9115 154.976 25.9115C154.885 25.8448 154.816 25.8223 154.702 25.8223C154.611 25.889 154.588 25.8004 154.542 25.6892C154.497 25.667 154.245 25.4446 154.085 25.3999C153.948 25.3112 153.879 25.2223 153.788 25.2001C153.696 25.1778 153.468 24.9997 153.422 24.9997C153.399 24.9333 153.148 24.7999 153.034 24.7777C152.942 24.7999 152.919 24.6887 152.805 24.622C152.691 24.5995 152.531 24.5105 152.462 24.4664C152.325 24.3775 152.233 24.4442 152.142 24.3549C152.028 24.3108 151.982 24.266 151.891 24.2218C151.822 24.2441 151.754 24.266 151.685 24.2218C151.64 24.1551 151.548 24.0884 151.411 24.1104C151.297 24.0214 151.274 24.0884 151.137 23.9995C151.045 23.9106 150.84 23.8216 150.702 23.7994C150.565 23.7549 150.542 23.7549 150.474 23.7105C150.405 23.7105 150.2 23.6212 150.085 23.6212C150.017 23.6212 149.857 23.5104 149.788 23.5104C149.72 23.4659 149.537 23.5104 149.423 23.4434C149.285 23.4215 149.308 23.3992 149.194 23.2658C149.057 23.2214 149.011 23.3325 148.988 23.3547C148.92 23.377 148.874 23.3103 148.828 23.3547C148.737 23.377 148.76 23.5323 148.691 23.5771C148.691 23.5993 148.508 23.5771 148.508 23.5771C148.554 23.5104 148.554 23.5104 148.508 23.4214C148.485 23.3325 148.325 23.1547 148.143 23.1324C147.983 23.1099 147.868 23.1099 147.731 23.0657C147.526 22.8656 147.64 22.9101 147.48 22.8879C147.343 22.8656 147.183 22.7322 147.046 22.6208C146.908 22.5321 146.794 22.5099 146.748 22.5099C146.68 22.4651 146.566 22.3765 146.474 22.4432C146.383 22.4432 146.337 22.2653 146.314 22.1764C146.314 22.0649 146.337 22.0649 146.314 21.9985C146.337 21.9318 146.2 21.9096 146.131 21.9318C146.116 21.947 146.081 21.9322 146.066 21.9272C146.129 21.8621 146.107 21.7991 146.04 21.8204C145.994 21.8204 145.903 21.7762 145.857 21.7095C145.766 21.6206 145.766 21.7314 145.697 21.7314C145.629 21.7314 145.491 21.7762 145.469 21.7095C145.4 21.6651 145.149 21.5758 145.034 21.5984C144.92 21.5094 144.92 21.465 144.76 21.376C144.554 21.376 144.372 21.465 144.303 21.5317C144.189 21.5539 144.074 21.7095 144.006 21.7984C143.983 21.8429 143.983 21.8871 143.983 21.9541C143.914 22.043 143.823 22.1097 143.846 22.1986C143.892 22.3095 143.823 22.3543 143.846 22.4432C143.892 22.5321 143.937 22.7545 143.983 22.8656C143.96 22.9768 144.006 23.1099 144.006 23.2436C144.052 23.3325 144.052 23.5548 144.143 23.5771C144.189 23.6879 144.166 23.7769 144.212 23.8439C144.257 23.955 144.372 23.9773 144.394 23.9773C144.463 24.044 144.394 24.1329 144.417 24.2218C144.509 24.3108 144.646 24.3997 144.646 24.5776C144.714 24.7332 144.92 24.7332 144.989 24.7999C144.989 24.8888 145.126 24.9778 145.149 25.0444C145.171 25.1111 145.08 25.1778 145.08 25.3557C145.057 25.5777 145.103 25.6225 145.149 25.7334C145.103 25.8448 145.057 25.9115 144.989 25.9338C144.897 25.9115 144.829 25.8671 144.829 25.9779C144.76 26.0227 144.714 26.0227 144.692 26.0894C144.623 26.2225 144.692 26.2225 144.623 26.3114C144.509 26.334 144.463 26.2895 144.394 26.334C144.349 26.4229 144.463 26.5118 144.349 26.6007C144.28 26.623 144.234 26.7116 144.28 26.7786C144.303 26.8453 144.349 26.8453 144.303 26.9562C144.28 27.0451 144.097 26.9787 144.006 27.0009C143.937 27.0676 143.983 27.2233 143.983 27.3122C143.983 27.4011 143.892 27.4011 143.777 27.4901C143.732 27.6898 143.983 27.7788 143.663 27.8677C143.572 27.9347 143.457 27.8458 143.366 27.9347C143.275 28.0903 143.137 27.8903 142.932 28.0233C142.863 28.0459 142.817 28.2904 142.863 28.2904C142.84 28.3794 142.772 28.4905 142.657 28.4905C142.566 28.5572 142.589 28.6462 142.452 28.6681C142.292 28.8018 142.155 28.9574 142.018 29.0464C141.858 29.202 141.858 29.202 141.858 29.3131C141.995 29.424 141.926 29.5355 141.903 29.5577C141.835 29.6686 141.903 29.7578 141.926 29.869C141.926 30.0024 141.858 30.1135 141.926 30.1802C141.949 30.2692 142.086 30.2244 142.086 30.3133C142.086 30.4248 142.2 30.4915 142.269 30.6468C142.315 30.8024 142.223 31.0251 142.292 31.0918C142.36 31.114 142.452 31.2029 142.52 31.2252C142.635 31.1807 142.657 31.3141 142.795 31.2916C143 31.2474 142.886 31.3363 143 31.492C143.023 31.6698 143.046 31.6698 143.115 31.7143C143.16 31.7807 143.16 31.9811 143.229 32.1367C143.275 32.2924 143.275 32.3368 143.297 32.4035C143.366 32.4035 143.389 32.6481 143.457 32.7815C143.457 32.9149 143.343 32.9593 143.389 33.1372C143.389 33.3151 143.503 33.2261 143.48 33.337C143.594 33.4929 143.663 33.5596 143.732 33.6041C143.823 33.6705 143.892 33.6705 143.96 33.7372C144.006 33.8261 143.892 34.0932 144.052 34.1821C144.12 34.2711 144.097 34.2933 144.074 34.4267C144.074 34.5156 144.097 34.5598 144.143 34.6268C144.28 34.6713 144.303 34.7377 144.28 34.8044C144.349 34.9158 144.212 34.9603 144.28 35.0048C144.372 35.0715 144.372 35.2268 144.394 35.316C144.463 35.4272 144.554 35.4494 144.623 35.538C144.714 35.627 144.646 35.9163 144.623 35.9605C144.554 35.9385 144.486 36.1161 144.532 36.1609C144.554 36.2276 144.623 36.4054 144.554 36.4496C144.509 36.6052 144.554 36.7167 144.463 36.8498C144.372 36.9835 144.372 37.1833 144.417 37.4059C144.349 37.6724 144.394 37.7394 144.349 37.895C144.234 38.0284 144.189 38.2505 144.189 38.4286C144.234 38.5617 144.143 38.851 144.12 38.9841C144.097 39.0511 144.257 39.4958 144.303 39.607C144.372 39.6959 144.372 39.9405 144.417 39.9849C144.486 40.0739 144.692 40.1628 144.714 40.2517C144.714 40.3184 144.692 40.4515 144.76 40.474C144.783 40.6071 145.012 40.6071 145.126 40.6741C145.24 40.6961 145.331 40.7408 145.491 40.7631C145.697 40.785 145.743 40.785 145.903 40.8965C145.971 40.9632 146.109 41.0076 146.223 41.0296C146.429 41.1188 146.383 41.1188 146.474 41.23C146.543 41.2522 146.589 41.3189 146.68 41.3189C146.817 41.3189 146.908 41.4967 147.022 41.4745C147.137 41.4523 147.206 41.4523 147.297 41.5412C147.457 41.6524 147.434 41.8302 147.594 41.8525C147.708 41.9189 147.777 41.8969 147.846 42.0526C147.891 42.1415 147.777 42.2971 148.006 42.3416C148.12 42.3638 148.143 42.2082 148.165 42.1415C148.188 42.0526 148.303 42.0303 148.348 41.9636C148.417 41.9414 148.531 41.8302 148.531 41.7632C148.6 41.6968 148.623 41.5854 148.577 41.5854C148.531 41.5187 148.577 41.4078 148.668 41.4297C148.874 41.4078 149.034 41.2967 148.988 41.23C149.08 41.1852 149.103 41.0521 149.148 40.9406C149.125 40.8298 149.171 40.785 149.194 40.6297C149.263 40.4515 149.423 40.5404 149.56 40.3626C149.697 40.2959 149.56 40.3184 149.605 40.2069C149.651 40.0739 149.674 40.0516 149.629 39.8734C149.674 39.7178 149.651 39.7404 149.697 39.6289C149.834 39.4958 149.834 39.3402 149.925 39.2287C149.971 39.0956 149.971 39.0956 150.085 39.0289C150.245 38.9177 150.314 38.7621 150.36 38.6287C150.405 38.5843 150.634 38.6287 150.771 38.5843C150.862 38.5843 150.817 38.4509 150.977 38.4509C151.137 38.4731 151.16 38.3619 151.251 38.2952C151.319 38.2285 151.434 38.0507 151.502 37.9395C151.571 37.8506 151.845 37.8728 151.982 37.7613C152.142 37.7394 152.142 37.6949 152.394 37.5835C152.554 37.5168 152.576 37.4059 152.668 37.2948C152.805 37.1391 152.896 37.1833 153.011 37.1169C153.148 37.0279 153.079 37.028 153.125 36.8723C153.148 36.6941 153.262 36.6722 153.354 36.5611C153.491 36.4277 153.628 36.4944 153.742 36.4721C153.879 36.4277 153.811 36.3607 153.948 36.3165C154.108 36.2943 154.176 36.4496 154.313 36.4496C154.405 36.4944 154.679 36.6052 154.793 36.5611C154.931 36.5611 155.045 36.5611 155.228 36.4721C155.41 36.4496 155.479 36.3607 155.593 36.3387C155.753 36.2943 156.028 36.2276 156.233 36.0942C156.416 35.9385 156.439 35.8715 156.53 35.7826C156.713 35.7159 156.965 35.605 157.056 35.5828C157.147 35.4713 157.49 35.2049 157.673 35.1826C157.833 35.1604 157.833 35.0937 157.925 35.0048C157.993 34.9158 158.267 34.8714 158.382 34.8044C158.473 34.7157 158.633 34.5156 158.816 34.3378C158.976 34.2044 159.25 34.0487 159.364 34.0707C159.524 34.0043 159.708 33.6486 159.73 33.5816C159.799 33.5374 160.164 33.2706 160.256 33.2039C160.347 33.0705 160.37 32.8704 160.393 32.737C160.461 32.6481 160.393 32.5144 160.393 32.4258C160.507 32.3146 160.53 32.2257 160.461 32.2031Z" fill="white"/>
<path fill-rule="evenodd" clip-rule="evenodd" d="M137.081 21.7984C137.012 21.8204 136.852 21.8204 136.852 21.7314C136.829 21.5984 136.921 21.5758 136.852 21.5094C136.807 21.376 137.012 21.3538 136.989 21.1982C137.012 21.0648 136.829 21.1537 136.829 21.1537C136.829 21.1537 136.715 20.9536 136.624 20.9314C136.578 20.8869 136.441 20.8202 136.35 20.798C136.304 20.798 136.281 20.798 136.258 20.798C136.098 20.8647 136.144 21.0203 136.007 21.0203C135.892 21.0425 135.915 21.1315 135.892 21.2204C135.892 21.3538 135.595 21.376 135.458 21.465C135.344 21.5317 135.23 21.5317 135.07 21.5539C134.887 21.5539 134.955 21.7095 134.864 21.8204C134.727 21.9541 134.613 21.8871 134.613 22.0649C134.613 22.0649 134.658 22.1316 134.818 22.2431C134.91 22.3543 134.864 22.3543 134.978 22.4432C135.138 22.5099 135.161 22.421 135.298 22.3095C135.39 22.2653 135.504 22.421 135.641 22.332C135.755 22.2653 135.801 22.332 135.961 22.3095C136.075 22.2653 136.167 22.3987 136.258 22.2876C136.281 22.2653 136.304 22.2431 136.35 22.2431C136.441 22.1986 136.555 22.2206 136.692 22.1764C136.829 22.1097 136.829 22.043 136.921 22.1316C137.218 22.2431 137.012 22.043 137.149 21.9318C137.172 21.9096 137.149 21.7984 137.081 21.7984Z" fill="white"/>
<path fill-rule="evenodd" clip-rule="evenodd" d="M111.918 7.52495C111.826 7.52495 111.895 7.32486 111.826 7.25817C111.758 7.16923 111.849 7.10254 111.803 7.03584C111.78 6.9466 111.506 6.96914 111.506 6.83574C111.483 6.74681 111.369 6.65788 111.278 6.63565C111.095 6.63565 111.049 6.68011 110.958 6.59118C110.843 6.59118 110.706 6.63564 110.569 6.52448C110.592 6.36885 110.386 6.45778 110.272 6.43555C110.135 6.45778 110.203 6.72458 110.089 6.63565C109.975 6.59118 109.998 6.41331 109.769 6.45778C109.746 6.48001 109.678 6.45778 109.632 6.50225C109.564 6.50225 109.495 6.48001 109.472 6.45778C109.404 6.41331 109.289 6.41332 109.289 6.41332C109.129 6.39109 109.061 6.48002 109.084 6.65788C109.084 6.76904 108.992 6.83574 108.901 6.74681C108.741 6.56895 108.604 6.59118 108.489 6.63565C108.444 6.68011 108.284 6.50225 108.192 6.43555C108.124 6.43555 107.872 6.48001 107.735 6.59118C107.598 6.65788 107.507 6.85798 107.369 6.88021C107.278 6.85798 107.187 7.10253 107.095 7.05807C106.958 7.03583 106.935 7.10253 106.912 7.2137C106.821 7.2804 106.775 7.19115 106.615 7.2137C106.524 7.30263 106.455 7.48049 106.364 7.43603C106.295 7.39156 106.112 7.45826 105.998 7.45826C105.884 7.52496 105.93 7.61389 105.93 7.61389C105.93 7.61389 105.701 7.63613 105.61 7.76952C105.61 7.76952 105.473 8.16971 105.427 8.34757C105.335 8.48097 105.061 8.94786 104.855 9.08126C104.65 9.23689 104.741 9.45922 104.695 9.61485C104.65 9.70378 104.855 9.83717 104.993 9.9261C105.13 10.104 105.061 10.2151 105.084 10.3485C105.153 10.4375 105.244 10.4152 105.335 10.4152C105.427 10.4597 105.427 10.3708 105.655 10.4819C105.792 10.5486 106.09 10.6153 106.204 10.6376C106.341 10.6376 106.524 10.682 106.638 10.771C106.752 10.8599 106.707 10.9933 106.844 10.9933C107.027 10.9488 107.05 11.1711 107.141 11.1934C107.209 11.2156 107.324 11.3935 107.415 11.4602C107.484 11.5713 107.621 11.5491 107.667 11.4602C107.712 11.3935 107.941 11.4379 107.987 11.5713C108.124 11.7047 108.375 11.7047 108.467 11.7047C108.604 11.7047 108.969 11.6158 109.152 11.638C109.289 11.6158 109.449 11.727 109.609 11.727C109.746 11.727 109.792 11.8381 109.906 11.9048C110.112 11.8826 110.158 11.5936 110.295 11.5936C110.363 11.5491 110.661 11.5491 110.775 11.4602C110.775 11.3935 110.706 11.2823 110.706 11.1267C110.729 10.9933 111.003 10.8821 111.141 10.8599C111.301 10.8599 111.278 10.8154 111.278 10.7487C111.278 10.6376 111.118 10.5931 111.049 10.6598C110.98 10.6709 110.905 10.682 110.848 10.6907C110.932 10.6487 111.03 10.5551 111.095 10.5709C111.163 10.5042 111.278 10.4819 111.369 10.5709C111.461 10.5709 111.598 10.5709 111.644 10.5486C111.666 10.5042 111.598 10.3708 111.644 10.2374C111.575 10.1484 111.644 9.94834 111.598 9.88164C111.575 9.74825 111.575 9.63708 111.529 9.50368C111.506 9.43699 111.689 9.34805 111.644 9.30359C111.575 9.21465 111.598 9.12572 111.712 9.10349C111.849 9.12572 111.826 8.99232 111.78 8.85893C111.78 8.68107 111.872 8.77 111.918 8.68107C111.963 8.50321 111.895 8.43651 112.055 8.39204C112.192 8.36981 112.055 8.19195 112.123 8.08078C112.192 7.94738 112.123 7.83622 112.055 7.76952C112.078 7.65836 111.986 7.63612 111.918 7.52495Z" fill="white"/>
<path fill-rule="evenodd" clip-rule="evenodd" d="M135.001 13.261C134.978 13.1721 135.115 13.1276 135.161 13.0609C135.23 13.0165 135.184 12.8831 135.184 12.8164C135.23 12.7719 135.298 12.7719 135.23 12.7274C135.23 12.6608 135.092 12.7274 135.001 12.7494C134.841 12.8164 134.887 12.594 134.841 12.5274C134.773 12.4384 134.635 12.4607 134.544 12.5048C134.453 12.4829 134.293 12.4606 134.224 12.4829C134.087 12.5273 134.11 12.6607 133.973 12.6607C133.858 12.6607 133.858 12.5048 133.813 12.4829C133.675 12.5718 133.63 12.6385 133.584 12.7052C133.584 12.7719 133.378 12.8831 133.31 12.8608C133.264 12.8608 133.196 12.8386 133.104 12.8164C133.013 12.7719 132.853 12.9053 132.761 12.9053C132.67 12.8608 132.556 12.7941 132.51 12.7941C132.441 12.8608 132.396 12.9498 132.304 12.8831C132.235 12.9275 132.19 12.8164 132.144 12.8386C132.053 12.7941 131.938 12.8386 131.824 12.7941C131.687 12.7494 131.664 12.5718 131.596 12.4607C131.619 12.3273 131.481 12.3273 131.481 12.2828C131.436 12.2161 131.39 12.1049 131.299 12.1272C131.207 12.1272 131.093 12.3939 131.07 12.4829C131.001 12.5718 130.362 12.5718 130.202 12.5496C130.042 12.5496 129.744 12.6163 129.607 12.6163C129.424 12.5718 129.036 12.4606 128.945 12.4829C128.83 12.4606 128.465 12.6163 128.282 12.594C128.076 12.5718 127.756 12.3273 127.642 12.3717C127.505 12.305 127.459 12.3717 127.368 12.3717C127.23 12.3717 127.07 12.3495 127.025 12.3717C127.025 12.4162 127.07 12.4829 127.093 12.5496C127.116 12.6163 127.116 12.683 127.162 12.8164C127.162 12.9942 127.07 13.0165 127.002 13.0387C126.956 13.0609 126.956 13.261 126.888 13.3055C126.796 13.35 126.636 13.4167 126.613 13.5056C126.613 13.6168 126.59 13.639 126.568 13.7057C126.522 13.7724 126.613 13.8613 126.568 13.928C126.499 14.017 126.43 14.0614 126.453 14.1504C126.453 14.2171 126.362 14.3949 126.362 14.4171C126.385 14.4616 126.613 14.4171 126.796 14.4394C126.865 14.4171 127.025 14.3949 127.116 14.4394C127.253 14.4616 127.368 14.4394 127.436 14.4171C127.527 14.3282 127.779 14.3282 127.847 14.306C127.939 14.2615 128.145 14.3282 128.305 14.306C128.442 14.3282 128.419 14.2393 128.533 14.1281C128.556 14.0836 128.716 14.1948 128.83 14.1726C128.899 14.1726 128.899 14.2393 129.013 14.0837C129.15 13.9725 129.402 13.8836 129.539 13.8613C129.653 13.7946 129.744 13.8391 129.882 13.9058C129.996 13.928 129.996 14.0392 130.087 14.017C130.179 14.0614 130.384 14.0392 130.407 14.1504C130.544 14.2393 130.704 14.2837 130.773 14.2615C130.841 14.2393 131.047 14.2615 131.139 14.3282C131.299 14.3282 131.481 14.3504 131.664 14.3727C131.801 14.3727 132.007 14.4838 132.19 14.4838C132.396 14.4171 132.35 14.5061 132.373 14.5283C132.441 14.5283 132.556 14.4838 132.624 14.4838C132.67 14.5061 132.784 14.5728 132.876 14.595C132.99 14.5728 133.104 14.5061 133.173 14.5061C133.241 14.4616 133.31 14.4838 133.378 14.4171C133.355 14.3949 133.538 14.4394 133.538 14.4171C133.561 14.3504 133.584 14.2615 133.698 14.2171C133.767 14.1948 133.927 14.1726 133.995 14.0837C134.064 14.0837 134.27 13.9058 134.453 13.8613C134.59 13.8169 134.75 13.6612 134.91 13.5278C135.024 13.5056 134.978 13.3277 135.001 13.261Z" fill="white"/>
<path fill-rule="evenodd" clip-rule="evenodd" d="M123.939 13.6612C123.756 13.5501 123.825 13.4611 123.688 13.3944C123.574 13.2833 123.459 13.2388 123.299 13.1054C123.185 13.0165 123.185 12.9053 123.185 12.7494C123.139 12.5718 123.094 12.4162 122.888 12.3272C122.842 12.2161 122.774 12.2161 122.637 12.1049C122.522 11.9938 122.568 11.8604 122.659 11.8381C122.774 11.727 122.774 11.6825 122.774 11.5269C122.797 11.3712 122.682 11.2378 122.499 11.3268C122.339 11.3935 122.362 11.4157 122.294 11.2601C122.202 11.1711 122.157 11.349 122.065 11.4602C121.997 11.638 122.088 11.6158 122.179 11.6158C122.294 11.638 122.339 11.6825 122.362 11.7714C122.362 11.8826 122.248 11.8604 122.179 11.9271C122.066 11.9715 122.134 12.0382 121.974 12.0827C121.813 12.016 121.791 11.8604 121.654 11.8159C121.608 11.727 121.608 11.6825 121.562 11.5491C121.494 11.4379 121.425 11.4602 121.242 11.5046C121.082 11.5046 121.06 11.349 121.06 11.1489C121.06 10.9266 120.945 10.771 120.9 10.6598C120.877 10.5931 121.037 10.682 121.151 10.7487C121.265 10.8154 121.174 10.6598 121.197 10.5709C121.082 10.4819 121.082 10.3041 121.037 10.2151C121.06 10.1262 120.991 10.104 120.854 10.0373C120.762 10.015 120.74 9.92611 120.625 9.94834C120.557 10.015 120.465 10.0595 120.488 9.94834C120.534 9.81494 120.42 9.7257 120.42 9.61484C120.397 9.54814 120.168 9.30359 120.054 9.21465C119.94 9.12572 119.871 9.03679 119.848 8.85893C119.848 8.74776 119.94 8.61436 119.871 8.5699C119.757 8.45873 119.597 8.5032 119.688 8.39204C119.711 8.30311 119.505 8.23641 119.414 8.14748C119.414 8.03631 119.345 8.03632 119.209 7.99185C119.163 7.90292 119.14 7.85845 118.957 7.74728C118.66 7.45825 118.591 7.76952 118.454 7.79175C118.454 7.79175 118.34 7.81398 118.294 7.90291C118.248 7.94738 118.226 7.99185 118.226 8.05855C118.111 8.08078 118.066 8.32534 117.814 8.43651C117.631 8.50321 117.7 8.79223 117.448 9.03679C117.334 9.14796 117.266 9.21465 117.151 9.30358C117.037 9.37028 117.037 9.21465 117.014 9.32581C116.9 9.41475 117.037 9.45922 117.06 9.50368C116.969 9.61485 116.923 9.68154 116.923 9.68154C116.786 9.65931 116.626 9.8594 116.443 9.8594C116.214 9.8594 115.94 9.88164 115.757 9.90387C115.62 9.81494 115.392 9.81494 115.186 9.83717C114.957 9.9261 114.592 9.97026 114.592 9.97026C114.706 10.104 114.912 10.3041 115.072 10.393C115.3 10.4597 115.209 10.6376 115.232 10.8154C115.323 11.0155 115.254 11.2378 115.3 11.349C115.392 11.3712 115.46 11.5491 115.666 11.7047C115.849 11.8159 115.894 11.9493 115.917 12.1272C115.963 12.305 116.214 12.4384 116.191 12.594C116.169 12.7719 116.214 12.683 116.397 12.6385C116.534 12.6607 116.649 12.9275 116.694 13.0609C116.786 13.2166 116.923 13.3277 116.877 13.5501C116.946 13.7724 117.151 13.8835 117.174 13.9725C117.197 14.0392 117.403 14.306 117.54 14.2615C117.654 14.1726 117.837 14.1281 117.974 14.1059C118.111 14.0169 118.226 13.9947 118.408 14.017C118.614 14.0392 118.637 13.9058 118.706 13.8613C118.82 13.7946 118.98 13.7502 119.14 13.7279C119.323 13.639 119.185 13.5501 119.071 13.3722C119.025 13.1943 118.683 13.2166 118.614 13.2166C118.408 13.1499 118.477 13.1943 118.477 12.9942C118.546 12.7941 118.751 12.8608 118.706 13.0165C118.706 13.1276 119.003 13.1276 119.048 13.1943C119.14 13.3277 119.14 13.2388 119.209 13.1276C119.209 13.0609 119.071 12.9498 119.025 12.8164C118.934 12.6607 119.185 12.7719 119.231 12.7494C119.345 12.7719 119.414 12.7494 119.528 12.683C119.665 12.5718 119.711 12.7941 119.665 12.8386C119.528 12.9275 119.643 12.9942 119.643 12.9942C119.643 12.9942 119.574 13.1054 119.437 13.2388C119.254 13.2388 119.3 13.3055 119.3 13.4389C119.368 13.6835 119.505 13.5723 119.597 13.6168C119.734 13.6835 119.757 13.6835 119.94 13.7946C120.145 13.9058 120.123 13.8168 120.191 13.6835C120.214 13.5278 120.145 13.4834 120.237 13.3944C120.26 13.2388 120.397 13.4167 120.351 13.5056C120.42 13.6612 120.488 13.7946 120.488 13.7946C120.488 13.7946 120.625 13.7724 120.74 13.8613C120.877 13.9058 120.877 13.9503 120.945 14.017C121.06 14.1281 121.128 13.9947 121.128 13.9947C121.128 13.9947 121.105 14.0169 121.22 14.1281C121.265 14.2393 121.38 14.2615 121.517 14.3949C121.517 14.4616 121.608 14.4838 121.768 14.6395C121.813 14.6839 121.882 14.6172 121.951 14.5283C122.019 14.4394 121.974 14.4394 122.088 14.4616C122.225 14.4838 122.111 14.3949 122.202 14.2615C122.294 14.1948 122.362 14.1726 122.477 14.1726C122.614 14.1281 122.682 14.1503 122.774 14.1281C122.865 14.0614 122.934 14.0169 123.048 13.9725C123.208 13.9502 123.162 14.1726 123.094 14.2393C123.048 14.3504 123.048 14.3504 123.162 14.4394C123.254 14.5061 123.368 14.2837 123.436 14.1726C123.551 14.0614 123.688 14.017 123.756 13.9947C123.894 13.9503 123.871 13.8613 124.099 13.7946C124.282 13.7502 124.076 13.6612 123.939 13.6612Z" fill="white"/>
<path fill-rule="evenodd" clip-rule="evenodd" d="M133.401 17.4408C133.378 17.3074 133.104 17.1963 132.967 17.1073C132.738 16.9962 132.716 16.8405 132.578 16.7516C132.418 16.7071 132.487 16.507 132.418 16.4626C132.235 16.4181 132.235 16.3292 132.098 16.4181C131.984 16.4848 131.916 16.3959 131.779 16.4181C131.687 16.3736 131.527 16.3959 131.299 16.3736C131.047 16.4403 130.933 16.3069 130.773 16.2847C130.613 16.2847 130.476 16.4181 130.316 16.4181C130.156 16.3514 129.973 16.4626 129.95 16.596C129.904 16.7071 129.699 16.6849 129.699 16.7516C129.607 16.9962 129.722 17.0406 129.767 17.1295C129.882 17.2629 130.064 17.3519 130.224 17.3963C130.43 17.3741 130.476 17.4408 130.613 17.5964C130.75 17.7298 130.796 17.8855 130.864 17.9966C130.933 18.1078 130.887 18.2634 130.887 18.2634C130.887 18.2634 130.979 18.5302 131.047 18.6414C131.184 18.7748 131.07 18.8192 131.116 18.9749C131.139 19.0638 131.276 19.1305 131.276 19.2417C131.367 19.3973 131.55 19.3084 131.71 19.2639C131.87 19.1083 132.053 19.175 132.235 19.1305C132.396 19.1527 132.601 19.1305 132.647 19.0638C132.761 18.9971 132.807 18.8637 133.036 18.8637C133.196 18.8859 133.196 18.8637 133.264 18.7748C133.333 18.6414 133.378 18.5969 133.538 18.3746C133.561 18.1523 133.538 18.0189 133.607 17.9077C133.653 17.7076 133.355 17.6187 133.401 17.4408Z" fill="white"/>
<path fill-rule="evenodd" clip-rule="evenodd" d="M21.2522 31.9586V26.3562L20.6808 26.3784H20.4066C20.0866 26.3784 19.858 26.3114 19.7666 26.1783C19.5609 25.9338 19.4467 25.3332 19.4467 24.4442L19.4695 16.6182C19.4695 15.7733 19.5609 15.2175 19.7666 14.9507C19.858 14.8396 20.0409 14.7729 20.2694 14.7729C20.338 14.7729 20.4066 14.7729 20.4751 14.7729L20.6808 14.7951L21.2522 14.8396V9.23689H0.5V14.7951L1.3455 14.7729C1.68836 14.7729 1.91697 14.8396 2.00842 14.973C2.23688 15.2398 2.35112 15.84 2.35112 16.7516L2.37404 24.333C2.37404 25.3557 2.28259 25.956 2.09972 26.1561V26.1783C1.96268 26.3114 1.73407 26.3784 1.43696 26.3784C1.39122 26.3784 1.3455 26.3784 1.29992 26.3784L0.5 26.3114V31.9586H21.2522ZM10.8761 26.4229C10.716 26.4003 10.6247 26.2895 10.5333 26.1339C10.4876 25.8671 10.4646 25.4446 10.4646 24.8888L10.4418 22.8212H11.4474V24.9997C11.4474 25.6892 11.3789 26.1339 11.2418 26.334C11.2188 26.3784 11.1503 26.4003 11.0361 26.4229H10.8761ZM10.9674 14.8173C11.1046 14.8396 11.196 14.884 11.2188 14.9285C11.356 15.1286 11.4246 15.5066 11.4246 16.1068V17.7743H10.4189V16.1291C10.4189 15.5955 10.4418 15.2839 10.4646 15.1508L10.4876 15.0841L10.5104 15.0619C10.5561 14.9507 10.6932 14.8618 10.8761 14.8173H10.9674ZM1.25421 31.2916V27.134C1.89402 27.1788 2.35112 27.0009 2.64823 26.6897C2.83114 26.4896 3.10546 26.2006 3.10546 24.3775L3.08254 16.7961C3.08254 14.3727 2.32833 14.0837 1.25421 14.1059V9.9928H10.6932V14.1281C10.5104 14.1726 10.3504 14.2393 10.2132 14.3504C10.0533 14.4616 9.91609 14.595 9.84759 14.7951C9.75614 14.9063 9.68764 14.9507 9.68764 16.1513V18.4858L10.2132 18.508H12.1559V16.1291C12.1559 14.4838 11.676 14.2393 11.1046 14.1281V9.9928H20.5208V14.1059C19.5609 14.0392 18.7382 14.306 18.7382 16.6627L18.7153 24.4886C18.7153 26.8453 19.4467 27.1566 20.5208 27.134V31.2916H11.1275V27.1566C11.6761 27.0676 12.1559 26.8675 12.1559 25.0222V22.1097H9.68764L9.7104 24.9107C9.7104 26.0005 9.8248 26.2895 9.8248 26.334C9.8933 26.6007 10.0305 26.7786 10.2132 26.912C10.3504 27.0451 10.5333 27.1121 10.739 27.1566V31.2916H1.25421Z" fill="white"/>
<path fill-rule="evenodd" clip-rule="evenodd" d="M101.039 26.4003C100.924 26.3784 100.787 26.3562 100.673 26.334C100.193 26.2006 99.8959 25.889 99.7816 25.3557L96.1706 9.23689H87.7371L87.12 11.8604L83.8289 25.4446C83.7375 25.8004 83.6004 26.0449 83.4175 26.1783C83.2118 26.334 82.9147 26.4003 82.5262 26.4003H81.5434C81.452 26.4003 81.3606 26.3784 81.2692 26.3562C80.7207 26.245 80.4007 25.9115 80.2864 25.3557L78.5037 17.4186L76.6525 9.23689H68.2419L64.4023 25.0445L64.3108 25.4446C64.2423 25.8004 64.1051 26.0449 63.8994 26.1783C63.7166 26.334 63.4195 26.4003 63.031 26.4003H62.2996L62.2539 31.9586H101.77V26.4451L101.062 26.4003C101.062 26.4003 101.062 26.4003 101.039 26.4003ZM71.0987 26.4896C70.6645 26.4896 70.4588 26.4003 70.4588 26.2895C70.4588 26.2006 70.4817 26.1116 70.5045 25.956L70.5502 25.7114H72.1501L72.2186 26.0005C72.2415 26.1116 72.2415 26.1783 72.2415 26.2225C72.2415 26.3114 72.2415 26.3562 72.2186 26.3784C72.1272 26.467 71.8987 26.4896 71.4873 26.4896H71.0987ZM81.4977 31.2916H71.4873V27.2677C71.8072 27.2677 72.0586 27.2233 72.2643 27.1788C72.8129 27.0451 72.9957 26.7341 72.9957 26.2673C72.9957 26.1339 72.9728 26.0005 72.95 25.889L72.7671 25.0445H72.2643L71.3501 25.0222H69.956L69.796 25.8671C69.7503 26.1561 69.7503 26.1783 69.7503 26.3114C69.7503 26.8231 70.116 27.2233 71.0759 27.2677V31.2916H63.0081L63.031 27.1566C63.6252 27.1566 64.0823 27.0232 64.4023 26.7564C64.7222 26.5118 64.9279 26.1339 65.0422 25.6447L68.8361 9.9928H76.0811L79.5779 25.5558C79.7836 26.467 80.4007 27.0009 81.2692 27.134C81.3377 27.134 81.4292 27.1566 81.4977 27.1566V31.2916ZM90.594 26.4896C90.1826 26.4896 89.954 26.4003 89.954 26.2895C89.954 26.2006 89.9769 26.1116 89.9997 25.956L90.0455 25.7114H91.6456L91.7139 26.0005C91.7367 26.1116 91.7367 26.1783 91.7367 26.2225C91.7367 26.3114 91.7367 26.3562 91.7139 26.3784C91.6224 26.467 91.3939 26.4896 90.9825 26.4896H90.594ZM101.039 31.2916H91.0054V27.2677C91.3253 27.2677 91.5767 27.2233 91.7596 27.1788C92.3309 27.0451 92.4909 26.7341 92.4909 26.2673C92.4909 26.1339 92.4681 26.0005 92.4452 25.889L92.2624 25.0445H91.7596L90.8454 25.0222H89.4512L89.2912 25.8671C89.2455 26.1561 89.2455 26.1783 89.2455 26.3114C89.2455 26.8231 89.6112 27.2233 90.594 27.2677V31.2916H82.5033L82.549 27.1566C83.6461 27.1566 84.3089 26.7116 84.5374 25.6447L87.12 15.0619L88.3313 9.9928H95.5763L99.0731 25.5558C99.256 26.4451 99.8502 26.9562 100.673 27.1121C100.787 27.134 100.902 27.134 101.039 27.1566V31.2916Z" fill="white"/>
<path fill-rule="evenodd" clip-rule="evenodd" d="M48.4495 32.2031C48.9752 32.3587 49.5237 32.4477 50.0494 32.4702C50.7807 32.5144 51.5349 32.5144 52.1977 32.5144C52.4491 32.5144 52.7005 32.5144 52.9291 32.5144C52.9519 32.5144 52.9748 32.5144 53.0205 32.5144C53.2491 32.5144 53.4548 32.5144 53.6376 32.5144C54.3004 32.5144 55.1232 32.4257 56.0145 32.2031C58.6657 31.5587 62.0253 29.6466 62.0253 25.1111C62.0253 23.1988 61.4083 21.6873 60.0827 20.2421C59.2142 19.2639 57.9343 18.3968 56.8373 17.7521H61.0426V11.9048C61.0426 10.0595 58.3457 9.01456 55.306 8.74776C54.6889 8.7033 53.8661 8.68106 53.1119 8.68106C53.0434 8.68106 52.9748 8.70329 52.9291 8.70329C52.6091 8.70329 52.3349 8.70329 52.0606 8.70329C51.8092 8.70329 51.5578 8.70329 51.3521 8.70329C50.3236 8.70329 49.3409 8.85892 48.4495 9.17018C47.1925 9.5926 46.0955 10.3263 45.2727 11.3268C44.3585 12.4384 43.9014 13.6168 43.9014 15.3731C43.9014 17.7076 44.6556 19.3528 46.1183 20.8202C46.804 21.4872 47.6268 22.043 48.4495 22.5099C48.4724 22.5321 48.5181 22.5541 48.541 22.5766H43.8328V28.2237C43.8328 29.8912 46.0955 31.403 47.9467 32.0478C48.1067 32.0923 48.2895 32.1589 48.4495 32.2031ZM44.5642 28.246V23.3103H50.2094L50.2779 24.9107C50.3693 26.7786 51.7863 27.2455 52.4491 27.2455C52.6091 27.2455 52.7691 27.2455 52.9291 27.2007C53.5462 27.0451 53.9576 26.623 53.9576 26.0449C53.9576 25.667 53.7747 25.1111 52.9291 24.3997C52.7691 24.2885 52.6091 24.1551 52.4263 24.0214C51.1921 23.1546 49.7523 22.4877 48.4495 21.7095C47.7867 21.3093 47.1697 20.8647 46.6211 20.3311C45.3184 18.9971 44.6328 17.5297 44.6328 15.3954C44.6328 13.7946 45.0441 12.7719 45.8212 11.7937C46.5069 10.971 47.3982 10.3485 48.4495 9.94833C49.318 9.61484 50.3008 9.43698 51.3521 9.43698C51.7635 9.43698 52.312 9.41475 52.9291 9.41475C53.729 9.41475 54.5975 9.43697 55.2146 9.48144C58.4371 9.77046 60.3112 10.7932 60.3112 11.9271V17.0628H54.8718V14.8396C54.8718 13.3722 53.4548 13.8168 52.9977 13.8168C52.9748 13.8168 52.9519 13.8168 52.9291 13.8168C52.3806 13.8391 51.8778 14.217 51.8778 14.8396C51.8778 15.1953 51.9692 15.6177 52.9291 16.3292C53.2491 16.5737 53.6604 16.8627 54.2318 17.174C54.8032 17.5075 57.9343 18.9526 59.5342 20.7313C60.7226 22.043 61.2711 23.3992 61.2711 25.1334C61.2711 30.5579 56.0145 31.8255 53.6376 31.8255C53.409 31.8255 53.1805 31.8255 52.9291 31.8255C52.0835 31.8477 51.0778 31.8477 50.0722 31.7807C49.5466 31.7588 48.998 31.6476 48.4495 31.492C46.4612 30.8694 44.5642 29.4465 44.5642 28.246ZM50.9636 23.9325C51.3293 24.1329 51.6721 24.3549 51.992 24.5775C52.4491 24.8888 52.7463 25.1556 52.9291 25.3779C53.2034 25.7333 53.2262 25.956 53.2262 26.0227C53.2262 26.1783 53.1576 26.3339 52.9291 26.4229C52.8834 26.4451 52.8605 26.467 52.8148 26.467C52.7234 26.5118 52.5863 26.5118 52.4491 26.5118C52.0606 26.5118 51.0778 26.245 51.0093 24.844L50.9636 23.9325ZM54.1404 14.8173V16.2625C53.5233 15.8845 53.1348 15.5955 52.9291 15.3731C52.5406 15.0174 52.5863 14.8618 52.5863 14.8173C52.5863 14.6839 52.6777 14.5283 52.9291 14.5061C52.9519 14.5061 52.9748 14.5061 52.9977 14.5061C53.1119 14.5061 53.2719 14.4838 53.3633 14.4838C53.5233 14.4616 53.6376 14.4394 53.7747 14.4394C53.8661 14.4394 53.9576 14.4616 54.0033 14.4616C54.0261 14.4838 54.049 14.4838 54.0718 14.4838C54.0718 14.4838 54.0718 14.5061 54.0947 14.5283C54.0947 14.5505 54.1404 14.6395 54.1404 14.8173Z" fill="white"/>
<path fill-rule="evenodd" clip-rule="evenodd" d="M22.6692 9.23689V14.7951H23.0349L23.5148 14.7729C23.8576 14.7729 24.0862 14.8396 24.1776 14.973C24.4062 15.2398 24.5204 15.84 24.5204 16.7516L24.5433 24.333C24.5433 25.3557 24.4519 25.956 24.269 26.1561L24.2462 26.1783C24.1319 26.3114 23.9034 26.3784 23.6062 26.3784C23.5605 26.3784 23.5148 26.3784 23.4691 26.3784L23.0349 26.3562L22.6692 26.3114V31.9586H43.4214V26.3562L42.5758 26.3784C42.2558 26.3784 42.0273 26.3114 41.9359 26.1783C41.7302 25.9338 41.6159 25.3332 41.6159 24.4442L41.6388 16.6182C41.6388 15.7733 41.7302 15.2175 41.9359 14.9507C42.0273 14.8396 42.2101 14.7729 42.4387 14.7729C42.5073 14.7729 42.5758 14.7729 42.6444 14.7729L43.4214 14.8396V9.23689H22.6692ZM33.0225 26.4229C32.8625 26.4003 32.7482 26.2895 32.6796 26.1339C32.6339 25.8671 32.6111 25.4446 32.6111 24.8888L32.5882 22.8212H33.5938V24.9997C33.5938 25.6892 33.5253 26.1339 33.3881 26.334C33.3653 26.3784 33.2967 26.4003 33.1824 26.4229H33.0225ZM33.251 9.9928H42.6672V14.1059C41.7073 14.0392 40.8845 14.306 40.8845 16.6627L40.8617 24.4886C40.8617 26.8453 41.5931 27.1566 42.6672 27.134V31.2916H33.2739V27.1566C33.8224 27.0676 34.3023 26.8675 34.3023 25.0222V22.1097H31.834L31.8569 24.9107C31.8569 26.0005 31.9711 26.2895 31.9711 26.334C32.1311 26.8231 32.4739 27.0899 32.8853 27.1566V31.2916H23.4005V27.134C24.0405 27.1788 24.4976 27.0009 24.7947 26.6897C24.9775 26.4896 25.2518 26.2006 25.2518 24.3775L25.2289 16.7961C25.2289 14.3727 24.4747 14.0837 23.4005 14.1059V9.9928H32.8396V14.1281C32.4282 14.2393 32.1311 14.4394 31.994 14.7951C31.9026 14.9063 31.834 14.9507 31.834 16.1513V18.4858L33.0453 18.508H34.3023V16.1291C34.3023 14.4838 33.8224 14.2393 33.251 14.1281V9.9928ZM33.1139 14.8173C33.251 14.8396 33.3424 14.884 33.3653 14.9285C33.5024 15.1286 33.571 15.5066 33.571 16.1068V17.7743H32.5654V16.1291C32.5654 15.5955 32.5882 15.2839 32.6111 15.1508L32.6568 15.0841V15.0619C32.7025 14.9507 32.8396 14.8618 33.0225 14.8173H33.1139Z" fill="white"/>
<path fill-rule="evenodd" clip-rule="evenodd" d="M91.7596 18.2857L90.9825 21.7984H92.5366L91.851 17.9299L91.7596 18.2857Z" fill="white"/>
<path fill-rule="evenodd" clip-rule="evenodd" d="M71.3501 18.6859L70.6645 21.7984H72.1958L71.5101 17.9299L71.3501 18.6859Z" fill="white"/>
</g>
</g>
</svg>
