<?xml version="1.0" encoding="UTF-8" standalone="no"?>
<!-- Created with Inkscape (http://www.inkscape.org/) -->

<svg
   xmlns:dc="http://purl.org/dc/elements/1.1/"
   xmlns:cc="http://creativecommons.org/ns#"
   xmlns:rdf="http://www.w3.org/1999/02/22-rdf-syntax-ns#"
   xmlns:svg="http://www.w3.org/2000/svg"
   xmlns="http://www.w3.org/2000/svg"
   xmlns:sodipodi="http://sodipodi.sourceforge.net/DTD/sodipodi-0.dtd"
   xmlns:inkscape="http://www.inkscape.org/namespaces/inkscape"
   version="1.1"
   id="svg815"
   xml:space="preserve"
   width="1439.6034"
   height="675.85168"
   viewBox="0 0 1439.6034 675.85168"
   sodipodi:docname="IHSA.svg"
   inkscape:version="0.92.2 (5c3e80d, 2017-08-06)"><metadata
     id="metadata821"><rdf:RDF><cc:Work
         rdf:about=""><dc:format>image/svg+xml</dc:format><dc:type
           rdf:resource="http://purl.org/dc/dcmitype/StillImage" /><dc:title></dc:title></cc:Work></rdf:RDF></metadata><defs
     id="defs819"><clipPath
       clipPathUnits="userSpaceOnUse"
       id="clipPath833"><path
         d="M 48.4301,47.426 H 1209.573 V 1640.5699 H 48.4301 Z"
         id="path831"
         inkscape:connector-curvature="0" /></clipPath><clipPath
       clipPathUnits="userSpaceOnUse"
       id="clipPath841"><path
         d="m 236.2372,56.9574 h 969.1195 V 1676.2598 H 236.2372 Z"
         id="path839"
         inkscape:connector-curvature="0" /></clipPath><clipPath
       clipPathUnits="userSpaceOnUse"
       id="clipPath7505"><path
         d="M 162.1997,297.9504 H 411.8003 V 416.2507 H 162.1997 Z"
         id="path7503"
         inkscape:connector-curvature="0" /></clipPath></defs><sodipodi:namedview
     pagecolor="#ffffff"
     bordercolor="#666666"
     borderopacity="1"
     objecttolerance="10"
     gridtolerance="10"
     guidetolerance="10"
     inkscape:pageopacity="0"
     inkscape:pageshadow="2"
     inkscape:window-width="640"
     inkscape:window-height="480"
     id="namedview817"
     showgrid="false"
     fit-margin-top="0"
     fit-margin-left="0"
     fit-margin-right="0"
     fit-margin-bottom="0"
     inkscape:zoom="0.38342199"
     inkscape:cx="779.05034"
     inkscape:cy="-4.4065387"
     inkscape:current-layer="g823" /><g
     id="g823"
     inkscape:groupmode="layer"
     inkscape:label="School Map"
     transform="matrix(1.3333333,0,0,-1.3333333,-60.949656,2225.553)"><g
       id="g7415"
       transform="matrix(4.3470996,0,0,4.3470996,-663.19711,-136.2913)"><g
         id="g7499"><g
           id="g7501"
           clip-path="url(#clipPath7505)"><path
             d="m 167.3924,387.7116 c 0,3.3282 0.312,6.6562 -3.016,8.7363 v 15.8083 h 33.8009 v -15.8083 c -3.3281,-2.0801 -3.0161,-5.4081 -3.0161,-8.7363 v -40.041 c 0,-3.328 -0.312,-6.6561 3.0161,-8.7361 V 323.126 h -33.8009 v 15.8085 c 3.328,2.08 3.016,5.4081 3.016,8.7361"
             style="fill:#154382;fill-opacity:1;fill-rule:nonzero;stroke:none"
             id="path7507"
             inkscape:connector-curvature="0" /><path
             d="m 167.3924,387.7116 c 0,3.3282 0.312,6.6562 -3.016,8.7363 v 15.8083 h 33.8009 v -15.8083 c -3.3281,-2.0801 -3.0161,-5.4081 -3.0161,-8.7363 v -40.041 c 0,-3.328 -0.312,-6.6561 3.0161,-8.7361 V 323.126 h -33.8009 v 15.8085 c 3.328,2.08 3.016,5.4081 3.016,8.7361 z"
             style="fill:none;stroke:#ffffff;stroke-width:2.5999999;stroke-linecap:butt;stroke-linejoin:miter;stroke-miterlimit:4;stroke-dasharray:none;stroke-opacity:1"
             id="path7509"
             inkscape:connector-curvature="0" /><path
             d="m 191.7116,402.4106 h 31.1343 v -3.1139 c 0,0 -1.3836,-0.1727 0.1733,-2.2485 1.5565,-2.0758 2.0758,-3.6322 2.2486,-5.708 0.1726,-2.0757 0,-33.3823 0,-33.3823 0,0 -0.3461,-2.7678 -0.8649,-2.7678 -0.5188,0 1.211,-2.0757 1.3836,-3.1134 0.1733,-1.0375 0.6921,-3.9783 -0.3461,-4.1515 -1.0375,-0.1727 -2.4212,-3.1134 -2.4212,-3.1134 0,0 0.346,-1.9024 -1.2109,-1.9024 -1.557,0 -1.0376,-2.2485 -1.0376,-2.2485 0,0 -0.1733,-1.9031 -0.8649,-2.2492 -0.6921,-0.3454 0,-2.5945 -0.3461,-3.1134 -0.346,-0.5188 -2.2485,-1.2108 -1.2108,-2.0756 1.0382,-0.8649 0.8648,-1.9026 0,-2.0752 -0.8649,-0.1733 -4.151,-0.8649 -4.151,-2.2492 0,-1.3836 1.9024,-0.8649 1.2104,-2.7673 -0.6916,-1.9024 -3.1134,0.6921 -3.1134,0.6921 0,0 -1.7297,1.3836 -3.2861,0.8649 -1.557,-0.5193 -1.211,-3.6327 -1.211,-3.6327 0,0 -0.6921,-0.6916 -0.6921,-1.3837 0,0 -0.3461,1.7297 -1.3836,1.9024 -1.0377,0.1734 -1.3837,2.0758 -1.3837,2.0758 0,0 -2.5945,1.211 -1.3836,2.4218 1.2103,1.211 0.3454,3.1134 0.3454,3.1134 0,0 -0.1726,3.1133 -0.8649,3.1133 -0.6914,0 -1.9024,1.5571 -3.286,1.7298 -1.3837,0.1733 -7.4377,4.1516 -6.054,7.265 1.3836,3.1134 3.8055,4.843 1.5564,7.2648 -2.2485,2.4212 -2.2485,1.0377 -2.9401,1.2109 -0.6921,0.1728 0,2.2485 -1.211,2.9401 -1.2108,0.6922 -4.843,5.8812 -4.843,5.8812 0,0 -4.6704,1.9026 -4.1515,8.6487 0.5188,6.7449 1.7297,5.0152 2.4217,5.7073 0.6916,0.6916 2.0752,0.8649 2.2486,1.9025 0.1728,1.0376 1.2109,2.2485 1.9025,3.9782 0.6921,1.7297 -1.9025,0.5188 -1.3838,3.2868 0.5189,2.7671 0.5189,2.2485 1.7298,2.5945 1.211,0.3454 4.1516,0.5188 4.1516,0.5188 0,0 2.4212,0.692 2.5945,3.2861 0.1728,2.5945 2.9401,4.3243 1.7298,5.5352 -1.2109,1.2109 -2.9407,2.2485 -2.7679,2.9406 0.1733,0.6922 -1.211,1.3836 -1.211,1.3836"
             style="fill:#f47216;fill-opacity:1;fill-rule:nonzero;stroke:none"
             id="path7511"
             inkscape:connector-curvature="0" /><path
             d="m 191.7116,402.4106 h 31.1343 v -3.1139 c 0,0 -1.3836,-0.1727 0.1733,-2.2485 1.5565,-2.0758 2.0758,-3.6322 2.2486,-5.708 0.1726,-2.0757 0,-33.3823 0,-33.3823 0,0 -0.3461,-2.7678 -0.8649,-2.7678 -0.5188,0 1.211,-2.0757 1.3836,-3.1134 0.1733,-1.0375 0.6921,-3.9783 -0.3461,-4.1515 -1.0375,-0.1727 -2.4212,-3.1134 -2.4212,-3.1134 0,0 0.346,-1.9024 -1.2109,-1.9024 -1.557,0 -1.0376,-2.2485 -1.0376,-2.2485 0,0 -0.1733,-1.9031 -0.8649,-2.2492 -0.6921,-0.3454 0,-2.5945 -0.3461,-3.1134 -0.346,-0.5188 -2.2485,-1.2108 -1.2108,-2.0756 1.0382,-0.8649 0.8648,-1.9026 0,-2.0752 -0.8649,-0.1733 -4.151,-0.8649 -4.151,-2.2492 0,-1.3836 1.9024,-0.8649 1.2104,-2.7673 -0.6916,-1.9024 -3.1134,0.6921 -3.1134,0.6921 0,0 -1.7297,1.3836 -3.2861,0.8649 -1.557,-0.5193 -1.211,-3.6327 -1.211,-3.6327 0,0 -0.6921,-0.6916 -0.6921,-1.3837 0,0 -0.3461,1.7297 -1.3836,1.9024 -1.0377,0.1734 -1.3837,2.0758 -1.3837,2.0758 0,0 -2.5945,1.211 -1.3836,2.4218 1.2103,1.211 0.3454,3.1134 0.3454,3.1134 0,0 -0.1726,3.1133 -0.8649,3.1133 -0.6914,0 -1.9024,1.5571 -3.286,1.7298 -1.3837,0.1733 -7.4377,4.1516 -6.054,7.265 1.3836,3.1134 3.8055,4.843 1.5564,7.2648 -2.2485,2.4212 -2.2485,1.0377 -2.9401,1.2109 -0.6921,0.1728 0,2.2485 -1.211,2.9401 -1.2108,0.6922 -4.843,5.8812 -4.843,5.8812 0,0 -4.6704,1.9026 -4.1515,8.6487 0.5188,6.7449 1.7297,5.0152 2.4217,5.7073 0.6916,0.6916 2.0752,0.8649 2.2486,1.9025 0.1728,1.0376 1.2109,2.2485 1.9025,3.9782 0.6921,1.7297 -1.9025,0.5188 -1.3838,3.2868 0.5189,2.7671 0.5189,2.2485 1.7298,2.5945 1.211,0.3454 4.1516,0.5188 4.1516,0.5188 0,0 2.4212,0.692 2.5945,3.2861 0.1728,2.5945 2.9401,4.3243 1.7298,5.5352 -1.2109,1.2109 -2.9407,2.2485 -2.7679,2.9406 0.1733,0.6922 -1.211,1.3836 -1.211,1.3836 z"
             style="fill:none;stroke:#ffffff;stroke-width:2.5999999;stroke-linecap:butt;stroke-linejoin:miter;stroke-miterlimit:10;stroke-dasharray:none;stroke-opacity:1"
             id="path7513"
             inkscape:connector-curvature="0" /><path
             d="m 292.1346,323.126 h -33.8009 v 15.8085 c 3.3281,2.08 3.0161,5.4081 3.0161,8.7361 v 13.1043 h -10.6083 v -13.1043 c 0,-3.328 -0.312,-6.6561 3.0161,-8.7361 V 323.126 h -33.8008 v 15.8085 c 3.328,2.08 3.016,5.4081 3.016,8.7361 v 40.041 c 0,3.3282 0.312,6.6562 -3.016,8.7363 v 15.8083 h 33.8008 v -15.8083 c -3.3281,-2.0801 -3.0161,-5.4081 -3.0161,-8.7363 v -9.5683 h 10.6083 v 9.5683 c 0,3.3282 0.312,6.6562 -3.0161,8.7363 v 15.8083 h 33.8009 v -15.8083 c -3.3281,-2.0801 -3.0161,-5.4081 -3.0161,-8.7363 v -40.041 c 0,-3.328 -0.312,-6.6561 3.0161,-8.7361"
             style="fill:#154382;fill-opacity:1;fill-rule:nonzero;stroke:none"
             id="path7515"
             inkscape:connector-curvature="0" /><path
             d="m 292.1346,323.126 h -33.8009 v 15.8085 c 3.3281,2.08 3.0161,5.4081 3.0161,8.7361 v 13.1043 h -10.6083 v -13.1043 c 0,-3.328 -0.312,-6.6561 3.0161,-8.7361 V 323.126 h -33.8008 v 15.8085 c 3.328,2.08 3.016,5.4081 3.016,8.7361 v 40.041 c 0,3.3282 0.312,6.6562 -3.016,8.7363 v 15.8083 h 33.8008 v -15.8083 c -3.3281,-2.0801 -3.0161,-5.4081 -3.0161,-8.7363 v -9.5683 h 10.6083 v 9.5683 c 0,3.3282 0.312,6.6562 -3.0161,8.7363 v 15.8083 h 33.8009 v -15.8083 c -3.3281,-2.0801 -3.0161,-5.4081 -3.0161,-8.7363 v -40.041 c 0,-3.328 -0.312,-6.6561 3.0161,-8.7361 z"
             style="fill:none;stroke:#ffffff;stroke-width:2.5999999;stroke-linecap:butt;stroke-linejoin:miter;stroke-miterlimit:4;stroke-dasharray:none;stroke-opacity:1"
             id="path7517"
             inkscape:connector-curvature="0" /><path
             d="m 322.5838,385.3196 c 0,3.952 -0.1041,9.4642 -5.5121,9.4642 -3.5362,0 -5.4082,-2.6 -5.4082,-5.9282 0,-1.768 0.208,-3.536 1.664,-4.9921 1.56,-1.664 5.5122,-2.912 7.8002,-3.536 6.6561,-1.768 15.6004,-4.1602 21.2165,-7.9043 3.2242,-2.184 5.6162,-4.784 6.8642,-8.5281 1.456,-3.8482 2.0801,-8.1122 2.0801,-12.2724 v -0.4159 c 0,-17.1605 -7.5923,-29.8489 -34.1128,-29.8489 -11.3363,0 -23.2967,2.1842 -32.3449,9.3603 v 23.9206 h 27.1447 c 0,-5.3042 -0.104,-9.2562 0.832,-11.1283 0.936,-1.768 2.912,-2.912 4.9922,-2.912 3.744,0 5.4081,3.6401 5.4081,6.8641 0,9.1523 -5.7201,9.8803 -13.4164,11.7523 -16.8484,4.1602 -26.3126,8.2163 -26.3126,27.4567 v 1.976 c 0.416,9.5683 1.976,14.3524 9.2562,19.8646 5.9281,4.4721 14.5604,5.5121 22.8805,5.5121 12.0643,0 22.7766,-2.3921 32.8649,-9.3602 v -21.0086 h -25.8966"
             style="fill:#154382;fill-opacity:1;fill-rule:nonzero;stroke:none"
             id="path7519"
             inkscape:connector-curvature="0" /><path
             d="m 322.5838,385.3196 c 0,3.952 -0.1041,9.4642 -5.5121,9.4642 -3.5362,0 -5.4082,-2.6 -5.4082,-5.9282 0,-1.768 0.208,-3.536 1.664,-4.9921 1.56,-1.664 5.5122,-2.912 7.8002,-3.536 6.6561,-1.768 15.6004,-4.1602 21.2165,-7.9043 3.2242,-2.184 5.6162,-4.784 6.8642,-8.5281 1.456,-3.8482 2.0801,-8.1122 2.0801,-12.2724 v -0.4159 c 0,-17.1605 -7.5923,-29.8489 -34.1128,-29.8489 -11.3363,0 -23.2967,2.1842 -32.3449,9.3603 v 23.9206 h 27.1447 c 0,-5.3042 -0.104,-9.2562 0.832,-11.1283 0.936,-1.768 2.912,-2.912 4.9922,-2.912 3.744,0 5.4081,3.6401 5.4081,6.8641 0,9.1523 -5.7201,9.8803 -13.4164,11.7523 -16.8484,4.1602 -26.3126,8.2163 -26.3126,27.4567 v 1.976 c 0.416,9.5683 1.976,14.3524 9.2562,19.8646 5.9281,4.4721 14.5604,5.5121 22.8805,5.5121 12.0643,0 22.7766,-2.3921 32.8649,-9.3602 v -21.0086 h -25.8966 z"
             style="fill:none;stroke:#ffffff;stroke-width:2.5999999;stroke-linecap:butt;stroke-linejoin:miter;stroke-miterlimit:4;stroke-dasharray:none;stroke-opacity:1"
             id="path7521"
             inkscape:connector-curvature="0" /><path
             d="m 367.7164,323.126 h -30.6807 v 15.8085 c 3.016,2.08 3.328,6.6561 4.1601,10.0881 l 11.7523,63.2336 h 39.521 l 13.0003,-64.5856 c 0.52,-2.808 1.56,-7.8001 4.6801,-8.7361 V 323.126 h -35.0488 v 15.8085 c 2.184,0.832 3.224,2.496 3.224,4.888 0,0.9361 -0.208,1.7681 -0.416,2.6001 h -13.4163 c -0.208,-0.832 -0.416,-1.768 -0.416,-2.6001 0,-2.496 1.248,-4.264 3.64,-4.888 z m 7.6963,40.665 -4.5762,26.4168 h -0.208 l -4.3681,-26.4168"
             style="fill:#154382;fill-opacity:1;fill-rule:nonzero;stroke:none"
             id="path7523"
             inkscape:connector-curvature="0" /><path
             d="m 367.7164,323.126 h -30.6807 v 15.8085 c 3.016,2.08 3.328,6.6561 4.1601,10.0881 l 11.7523,63.2336 h 39.521 l 13.0003,-64.5856 c 0.52,-2.808 1.56,-7.8001 4.6801,-8.7361 V 323.126 h -35.0488 v 15.8085 c 2.184,0.832 3.224,2.496 3.224,4.888 0,0.9361 -0.208,1.7681 -0.416,2.6001 h -13.4163 c -0.208,-0.832 -0.416,-1.768 -0.416,-2.6001 0,-2.496 1.248,-4.264 3.64,-4.888 z m 7.6963,40.665 -4.5762,26.4168 h -0.208 l -4.3681,-26.4168 z"
             style="fill:none;stroke:#ffffff;stroke-width:2.5999999;stroke-linecap:butt;stroke-linejoin:miter;stroke-miterlimit:4;stroke-dasharray:none;stroke-opacity:1"
             id="path7525"
             inkscape:connector-curvature="0" /><path
             d="m 166.285,311.4979 c 0,0.4677 0.0438,0.9356 -0.424,1.228 v 2.2222 h 4.7513 v -2.2222 c -0.4678,-0.2924 -0.4239,-0.7603 -0.4239,-1.228 v -5.6285 c 0,-0.4678 -0.0439,-0.9357 0.4239,-1.2281 v -2.2221 h -4.7513 v 2.2221 c 0.4678,0.2924 0.424,0.7603 0.424,1.2281"
             style="fill:#f47216;fill-opacity:1;fill-rule:nonzero;stroke:none"
             id="path7527"
             inkscape:connector-curvature="0" /><path
             d="m 175.3644,305.6939 c 0,-0.4532 -0.0438,-0.9649 0.424,-1.2134 v -2.0613 h -4.2981 v 2.0613 c 0.4532,0.2778 0.4239,0.6872 0.4239,1.1549 v 6.0379 c 0,0.4678 0.0439,0.9357 -0.4239,1.2134 v 2.0614 h 3.8741"
             style="fill:#f47216;fill-opacity:1;fill-rule:nonzero;stroke:none"
             id="path7529"
             inkscape:connector-curvature="0" /><path
             d="m 180.3346,305.6939 c 0,-0.4532 -0.0438,-0.9649 0.4241,-1.2134 v -2.0613 h -4.2982 v 2.0613 c 0.4532,0.2778 0.4239,0.6872 0.4239,1.1549 v 6.0379 c 0,0.4678 0.0439,0.9357 -0.4239,1.2134 v 2.0614 h 3.8741"
             style="fill:#f47216;fill-opacity:1;fill-rule:nonzero;stroke:none"
             id="path7531"
             inkscape:connector-curvature="0" /><path
             d="m 185.3049,305.6939 c 0,-0.4677 -0.0439,-0.9356 0.4385,-1.2134 v -2.0613 h -4.3126 v 2.0613 c 0.4532,0.2778 0.4239,0.6872 0.4239,1.1549 v 2.7192 c 0,0.4679 0.0438,0.9358 -0.4239,1.2135 v 2.0614 h 3.8741 z m -3.728,7.9676 c 0,0.9942 1.0234,1.4035 1.8714,1.4035 0.8625,0 1.8566,-0.4678 1.8566,-1.4619 0,-0.965 -0.9795,-1.4181 -1.8274,-1.4181 -0.9065,0 -1.9006,0.4386 -1.9006,1.4765"
             style="fill:#f47216;fill-opacity:1;fill-rule:nonzero;stroke:none"
             id="path7533"
             inkscape:connector-curvature="0" /><path
             d="m 190.2605,311.0593 c 0.9356,0.6287 1.7544,0.7895 2.4852,0.7602 0.7165,-0.0292 1.3452,-0.2631 1.6959,-0.614 0.6287,-0.5994 0.7017,-1.2719 0.7017,-2.0614 v -3.4502 c 0,-0.4532 -0.0438,-0.9649 0.4094,-1.2134 v -2.0613 h -3.6695 c -0.2046,0.9356 -0.1899,1.9152 -0.1899,2.8653 v 2.6901 c 0,0.0584 0.0438,0.4825 -0.1025,0.8186 -0.2338,0.3509 -0.614,0.614 -1.1842,0.3509 v -3.4502 c 0,-0.4532 -0.0438,-0.9649 0.4241,-1.2134 v -2.0613 h -4.2982 v 2.0613 c 0.4532,0.2632 0.424,0.6872 0.424,1.1549 v 2.7924 c 0,0.497 0.0146,0.8186 -0.424,1.1403 v 2.0614 h 3.728"
             style="fill:#f47216;fill-opacity:1;fill-rule:nonzero;stroke:none"
             id="path7535"
             inkscape:connector-curvature="0" /><path
             d="m 204.6343,305.9279 c 0,-1.0234 -0.0293,-2.1784 -0.8626,-2.8947 -0.8333,-0.7163 -2.0614,-0.8041 -3.114,-0.8041 -0.9503,0 -2.2953,0.0731 -3.0993,0.614 -1.1257,0.7456 -1.1257,1.8714 -1.1257,3.0848 v 2.3976 c 0,0.9941 0.0146,2.0758 0.8771,2.7485 0.8334,0.6578 1.9591,0.7455 2.997,0.7455 0.9356,0 2.3391,-0.073 3.1433,-0.5409 1.111,-0.6725 1.1842,-1.7836 1.1842,-2.9531 z m -4.7514,-0.2925 c 0,-0.497 -0.0438,-1.2572 0.6432,-1.2572 0.7018,0 0.658,0.7602 0.658,1.2572 v 2.6609 c 0,0.4969 0.1023,1.3742 -0.6433,1.3742 -0.7456,0 -0.6579,-0.8626 -0.6579,-1.3742"
             style="fill:#f47216;fill-opacity:1;fill-rule:nonzero;stroke:none"
             id="path7537"
             inkscape:connector-curvature="0" /><path
             d="m 209.2705,305.6939 c 0,-0.4677 -0.0438,-0.9356 0.4386,-1.2134 v -2.0613 h -4.3128 v 2.0613 c 0.4532,0.2778 0.424,0.6872 0.424,1.1549 v 2.7192 c 0,0.4679 0.0439,0.9358 -0.424,1.2135 v 2.0614 h 3.8742 z m -3.7279,7.9676 c 0,0.9942 1.0233,1.4035 1.8712,1.4035 0.8626,0 1.8567,-0.4678 1.8567,-1.4619 0,-0.965 -0.9795,-1.4181 -1.8274,-1.4181 -0.9064,0 -1.9005,0.4386 -1.9005,1.4765"
             style="fill:#f47216;fill-opacity:1;fill-rule:nonzero;stroke:none"
             id="path7539"
             inkscape:connector-curvature="0" /><path
             d="m 213.7583,305.6354 c 0,-0.5262 -0.0585,-1.2572 0.6871,-1.2572 0.3656,0 0.6579,0.307 0.6579,0.7017 0,0.8333 -1.0526,0.9649 -1.6666,1.1111 -1.652,0.3801 -3.0847,0.6725 -3.0847,2.69 0,0.9649 0.2338,1.7397 1.0671,2.3098 0.731,0.4825 1.7983,0.6287 2.6609,0.6287 1.4618,0 2.9677,-0.2923 4.1519,-1.1988 v -2.1929 h -3.2018 v 0.3362 c 0,0.424 -0.1315,0.9065 -0.687,0.9065 -0.3654,0 -0.6725,-0.2778 -0.6725,-0.6287 0,-0.6579 0.8771,-0.7748 1.3742,-0.8771 1.7982,-0.3801 3.4356,-0.6726 3.4356,-2.924 0,-2.3976 -1.8567,-3.0116 -3.9327,-3.0116 -1.301,0 -3.0554,0.307 -4.0349,1.2427 v 2.3829 h 3.2455"
             style="fill:#f47216;fill-opacity:1;fill-rule:nonzero;stroke:none"
             id="path7541"
             inkscape:connector-curvature="0" /><path
             d="m 233.573,302.4192 h -4.7514 v 2.2221 c 0.4679,0.2924 0.4241,0.7603 0.4241,1.2281 v 1.842 h -1.4913 v -1.842 c 0,-0.4678 -0.0438,-0.9357 0.424,-1.2281 v -2.2221 h -4.7513 v 2.2221 c 0.4678,0.2924 0.4239,0.7603 0.4239,1.2281 v 5.6285 c 0,0.4677 0.0439,0.9356 -0.4239,1.228 v 2.2222 h 4.7513 v -2.2222 c -0.4678,-0.2924 -0.424,-0.7603 -0.424,-1.228 v -1.345 h 1.4913 v 1.345 c 0,0.4677 0.0438,0.9356 -0.4241,1.228 v 2.2222 h 4.7514 v -2.2222 c -0.4679,-0.2924 -0.4239,-0.7603 -0.4239,-1.228 v -5.6285 c 0,-0.4678 -0.044,-0.9357 0.4239,-1.2281"
             style="fill:#f47216;fill-opacity:1;fill-rule:nonzero;stroke:none"
             id="path7543"
             inkscape:connector-curvature="0" /><path
             d="m 238.4133,305.6939 c 0,-0.4677 -0.0439,-0.9356 0.4385,-1.2134 v -2.0613 h -4.3128 v 2.0613 c 0.4533,0.2778 0.4241,0.6872 0.4241,1.1549 v 2.7192 c 0,0.4679 0.0438,0.9358 -0.4241,1.2135 v 2.0614 h 3.8743 z m -3.728,7.9676 c 0,0.9942 1.0233,1.4035 1.8712,1.4035 0.8626,0 1.8568,-0.4678 1.8568,-1.4619 0,-0.965 -0.9796,-1.4181 -1.8275,-1.4181 -0.9064,0 -1.9005,0.4386 -1.9005,1.4765"
             style="fill:#f47216;fill-opacity:1;fill-rule:nonzero;stroke:none"
             id="path7545"
             inkscape:connector-curvature="0" /><path
             d="m 248.2957,309.5681 c -0.4534,-0.2777 -0.4241,-0.6725 -0.4241,-1.1403 v -5.5847 c 0,-1.0379 0.0439,-2.4414 -0.7601,-3.2163 -0.7895,-0.7748 -2.1199,-0.9064 -3.1725,-0.9064 -1.5351,0 -2.69,0.2339 -4.035,0.9796 v 2.2075 h 3.2017 c 0,-0.2047 0.0146,-0.4679 0.1023,-0.6725 0.1024,-0.2047 0.2632,-0.3508 0.5409,-0.3508 0.7602,0 0.6725,0.9063 0.6725,1.4327 v 0.5847 c -0.614,-0.4679 -1.3743,-0.6725 -2.032,-0.6725 -1.7398,0 -2.7339,0.8479 -2.7339,2.8654 v 3.4649 c 0,2.0029 0.5116,3.2601 2.573,3.2601 0.8186,0 1.6228,-0.2193 2.2806,-0.7164 v 0.5264 h 3.7866 z m -3.8743,-0.4386 c -0.1754,0.1169 -0.4093,0.1901 -0.6286,0.1901 -0.6871,0 -0.6871,-0.6141 -0.6871,-1.1403 v -2.0322 c 0,-0.497 0,-1.3011 0.7017,-1.3011 0.1901,0 0.4386,0.0585 0.614,0.1609"
             style="fill:#f47216;fill-opacity:1;fill-rule:nonzero;stroke:none"
             id="path7547"
             inkscape:connector-curvature="0" /><path
             d="m 253.1224,311.2201 c 0.7894,0.4679 1.6081,0.6287 2.3391,0.5994 0.7164,-0.0292 1.345,-0.2631 1.6959,-0.614 0.6287,-0.5994 0.7017,-1.2719 0.7017,-2.0614 v -3.4502 c 0,-0.4532 -0.0438,-0.9649 0.4094,-1.2134 v -2.0613 h -3.6695 c -0.2046,0.9356 -0.1901,1.9152 -0.1901,2.8653 v 2.6901 c 0,0.0584 0.0438,0.4825 -0.1023,0.8186 -0.2338,0.3509 -0.614,0.614 -1.1842,0.3509 v -3.4502 c 0,-0.4532 -0.0439,-0.9649 0.424,-1.2134 v -2.0613 h -4.2981 v 2.0613 c 0.4532,0.2632 0.4239,0.6872 0.4239,1.1549 v 6.0379 c 0.0146,0.4678 0.0438,0.9648 -0.4386,1.2134 v 2.0614 h 3.8888"
             style="fill:#f47216;fill-opacity:1;fill-rule:nonzero;stroke:none"
             id="path7549"
             inkscape:connector-curvature="0" /><path
             d="m 268.4326,311.1616 c 0,0.5556 -0.0147,1.3304 -0.7749,1.3304 -0.4971,0 -0.7602,-0.3655 -0.7602,-0.8333 0,-0.2485 0.0291,-0.4971 0.2339,-0.7017 0.2193,-0.2339 0.7748,-0.4094 1.0964,-0.4972 0.9357,-0.2484 2.193,-0.5847 2.9823,-1.1109 0.4534,-0.3071 0.7896,-0.6725 0.9651,-1.1989 0.2046,-0.5409 0.2923,-1.1404 0.2923,-1.7251 v -0.0585 c 0,-2.4121 -1.0673,-4.1957 -4.7952,-4.1957 -1.5935,0 -3.2748,0.307 -4.5466,1.3157 v 3.3624 h 3.8156 c 0,-0.7455 -0.0147,-1.301 0.117,-1.5643 0.1316,-0.2484 0.4093,-0.4092 0.7018,-0.4092 0.5262,0 0.7601,0.5117 0.7601,0.9648 0,1.2865 -0.8041,1.3888 -1.8859,1.652 -2.3684,0.5848 -3.6987,1.155 -3.6987,3.8596 v 0.2778 c 0.0584,1.345 0.2777,2.0174 1.3011,2.7923 0.8333,0.6286 2.0467,0.7747 3.2163,0.7747 1.6959,0 3.2017,-0.3361 4.6197,-1.3157 v -2.9531 h -3.6401"
             style="fill:#f47216;fill-opacity:1;fill-rule:nonzero;stroke:none"
             id="path7551"
             inkscape:connector-curvature="0" /><path
             d="m 278.2458,308.4571 c 0,0.4385 0.0438,1.2134 -0.6287,1.2134 -0.6578,0 -0.6433,-0.6872 -0.6433,-1.1551 v -2.9384 c 0,-0.4678 -0.0145,-1.1988 0.6433,-1.1988 0.731,0 0.6287,1.0088 0.6287,1.4765 v 0.4825 h 3.2309 v -2.8508 c -0.9796,-0.9794 -2.7047,-1.2573 -4.035,-1.2573 -3.9034,0 -3.918,2.2661 -3.918,3.3771 v 3.0702 c 0,1.9589 0.7164,3.1431 3.8303,3.1431 1.4473,0 2.9531,-0.2485 4.1227,-1.1403 v -2.5145 h -3.2309"
             style="fill:#f47216;fill-opacity:1;fill-rule:nonzero;stroke:none"
             id="path7553"
             inkscape:connector-curvature="0" /><path
             d="m 286.3319,311.2201 c 0.7895,0.4679 1.6081,0.6287 2.3391,0.5994 0.7165,-0.0292 1.345,-0.2631 1.6959,-0.614 0.6286,-0.5994 0.7017,-1.2719 0.7017,-2.0614 v -3.4502 c 0,-0.4532 -0.0438,-0.9649 0.4094,-1.2134 v -2.0613 h -3.6695 c -0.2046,0.9356 -0.1901,1.9152 -0.1901,2.8653 v 2.6901 c 0,0.0584 0.044,0.4825 -0.1023,0.8186 -0.2339,0.3509 -0.614,0.614 -1.1842,0.3509 v -3.4502 c 0,-0.4532 -0.0438,-0.9649 0.424,-1.2134 v -2.0613 h -4.2981 v 2.0613 c 0.4532,0.2632 0.4239,0.6872 0.4239,1.1549 v 6.0379 c 0.0146,0.4678 0.0438,0.9648 -0.4386,1.2134 v 2.0614 h 3.8888"
             style="fill:#f47216;fill-opacity:1;fill-rule:nonzero;stroke:none"
             id="path7555"
             inkscape:connector-curvature="0" /><path
             d="m 300.6034,305.9279 c 0,-1.0234 -0.0293,-2.1784 -0.8626,-2.8947 -0.8333,-0.7163 -2.0614,-0.8041 -3.114,-0.8041 -0.9502,0 -2.2953,0.0731 -3.0993,0.614 -1.1257,0.7456 -1.1257,1.8714 -1.1257,3.0848 v 2.3976 c 0,0.9941 0.0146,2.0758 0.8772,2.7485 0.8333,0.6578 1.959,0.7455 2.9969,0.7455 0.9358,0 2.3391,-0.073 3.1433,-0.5409 1.111,-0.6725 1.1842,-1.7836 1.1842,-2.9531 z m -4.7514,-0.2925 c 0,-0.497 -0.0438,-1.2572 0.6432,-1.2572 0.7018,0 0.6579,0.7602 0.6579,1.2572 v 2.6609 c 0,0.4969 0.1024,1.3742 -0.6432,1.3742 -0.7457,0 -0.6579,-0.8626 -0.6579,-1.3742"
             style="fill:#f47216;fill-opacity:1;fill-rule:nonzero;stroke:none"
             id="path7557"
             inkscape:connector-curvature="0" /><path
             d="m 309.6546,305.9279 c 0,-1.0234 -0.0291,-2.1784 -0.8625,-2.8947 -0.8333,-0.7163 -2.0613,-0.8041 -3.1139,-0.8041 -0.9503,0 -2.2953,0.0731 -3.0993,0.614 -1.1257,0.7456 -1.1257,1.8714 -1.1257,3.0848 v 2.3976 c 0,0.9941 0.0145,2.0758 0.8771,2.7485 0.8333,0.6578 1.9591,0.7455 2.997,0.7455 0.9356,0 2.3391,-0.073 3.1432,-0.5409 1.1111,-0.6725 1.1841,-1.7836 1.1841,-2.9531 z m -4.7512,-0.2925 c 0,-0.497 -0.044,-1.2572 0.6432,-1.2572 0.7018,0 0.658,0.7602 0.658,1.2572 v 2.6609 c 0,0.4969 0.1023,1.3742 -0.6434,1.3742 -0.7456,0 -0.6578,-0.8626 -0.6578,-1.3742"
             style="fill:#f47216;fill-opacity:1;fill-rule:nonzero;stroke:none"
             id="path7559"
             inkscape:connector-curvature="0" /><path
             d="m 314.291,305.6939 c 0,-0.4532 -0.0439,-0.9649 0.4239,-1.2134 v -2.0613 h -4.2981 v 2.0613 c 0.4532,0.2778 0.424,0.6872 0.424,1.1549 v 6.0379 c 0,0.4678 0.0439,0.9357 -0.424,1.2134 v 2.0614 h 3.8742"
             style="fill:#f47216;fill-opacity:1;fill-rule:nonzero;stroke:none"
             id="path7561"
             inkscape:connector-curvature="0" /><path
             d="m 323.1653,302.4192 h -4.3128 v 2.2221 c 0.4241,0.2924 0.4679,0.9357 0.5849,1.4182 l 1.652,8.8886 h 5.5554 l 1.8274,-9.0787 c 0.0731,-0.3948 0.2193,-1.0965 0.6579,-1.2281 v -2.2221 h -4.9267 v 2.2221 c 0.3069,0.117 0.4532,0.3509 0.4532,0.6872 0,0.1315 -0.0293,0.2485 -0.0586,0.3654 h -1.8859 c -0.0292,-0.1169 -0.0585,-0.2486 -0.0585,-0.3654 0,-0.3509 0.1755,-0.5995 0.5117,-0.6872 z m 1.0819,5.7162 -0.6433,3.7134 h -0.0292 l -0.614,-3.7134"
             style="fill:#f47216;fill-opacity:1;fill-rule:nonzero;stroke:none"
             id="path7563"
             inkscape:connector-curvature="0" /><path
             d="m 332.9786,305.6354 c 0,-0.5262 -0.0584,-1.2572 0.6871,-1.2572 0.3656,0 0.6579,0.307 0.6579,0.7017 0,0.8333 -1.0526,0.9649 -1.6666,1.1111 -1.652,0.3801 -3.0847,0.6725 -3.0847,2.69 0,0.9649 0.2338,1.7397 1.0672,2.3098 0.7309,0.4825 1.7982,0.6287 2.6607,0.6287 1.4619,0 2.9679,-0.2923 4.152,-1.1988 v -2.1929 h -3.2018 v 0.3362 c 0,0.424 -0.1315,0.9065 -0.687,0.9065 -0.3655,0 -0.6725,-0.2778 -0.6725,-0.6287 0,-0.6579 0.8771,-0.7748 1.3742,-0.8771 1.7982,-0.3801 3.4355,-0.6726 3.4355,-2.924 0,-2.3976 -1.8566,-3.0116 -3.9326,-3.0116 -1.301,0 -3.0554,0.307 -4.0349,1.2427 v 2.3829 h 3.2455"
             style="fill:#f47216;fill-opacity:1;fill-rule:nonzero;stroke:none"
             id="path7565"
             inkscape:connector-curvature="0" /><path
             d="m 341.7514,305.6354 c 0,-0.5262 -0.0585,-1.2572 0.6872,-1.2572 0.3655,0 0.6578,0.307 0.6578,0.7017 0,0.8333 -1.0526,0.9649 -1.6666,1.1111 -1.652,0.3801 -3.0846,0.6725 -3.0846,2.69 0,0.9649 0.2338,1.7397 1.0672,2.3098 0.7309,0.4825 1.7981,0.6287 2.6607,0.6287 1.4619,0 2.9677,-0.2923 4.1519,-1.1988 v -2.1929 h -3.2016 v 0.3362 c 0,0.424 -0.1316,0.9065 -0.6872,0.9065 -0.3654,0 -0.6725,-0.2778 -0.6725,-0.6287 0,-0.6579 0.8773,-0.7748 1.3742,-0.8771 1.7983,-0.3801 3.4357,-0.6726 3.4357,-2.924 0,-2.3976 -1.8567,-3.0116 -3.9326,-3.0116 -1.3013,0 -3.0556,0.307 -4.035,1.2427 v 2.3829 h 3.2454"
             style="fill:#f47216;fill-opacity:1;fill-rule:nonzero;stroke:none"
             id="path7567"
             inkscape:connector-curvature="0" /><path
             d="m 355.4219,305.9279 c 0,-1.0234 -0.0293,-2.1784 -0.8626,-2.8947 -0.8333,-0.7163 -2.0614,-0.8041 -3.1139,-0.8041 -0.9503,0 -2.2953,0.0731 -3.0993,0.614 -1.1258,0.7456 -1.1258,1.8714 -1.1258,3.0848 v 2.3976 c 0,0.9941 0.0147,2.0758 0.8772,2.7485 0.8333,0.6578 1.959,0.7455 2.9971,0.7455 0.9356,0 2.3391,-0.073 3.1431,-0.5409 1.1111,-0.6725 1.1842,-1.7836 1.1842,-2.9531 z m -4.7514,-0.2925 c 0,-0.497 -0.0438,-1.2572 0.6433,-1.2572 0.7017,0 0.6579,0.7602 0.6579,1.2572 v 2.6609 c 0,0.4969 0.1023,1.3742 -0.6433,1.3742 -0.7455,0 -0.6579,-0.8626 -0.6579,-1.3742"
             style="fill:#f47216;fill-opacity:1;fill-rule:nonzero;stroke:none"
             id="path7569"
             inkscape:connector-curvature="0" /><path
             d="m 361.1254,308.4571 c 0,0.4385 0.0438,1.2134 -0.6287,1.2134 -0.6578,0 -0.6432,-0.6872 -0.6432,-1.1551 v -2.9384 c 0,-0.4678 -0.0146,-1.1988 0.6432,-1.1988 0.731,0 0.6287,1.0088 0.6287,1.4765 v 0.4825 h 3.2309 v -2.8508 c -0.9796,-0.9794 -2.7045,-1.2573 -4.0349,-1.2573 -3.9034,0 -3.9181,2.2661 -3.9181,3.3771 v 3.0702 c 0,1.9589 0.7164,3.1431 3.8303,3.1431 1.4473,0 2.9532,-0.2485 4.1227,-1.1403 v -2.5145 h -3.2309"
             style="fill:#f47216;fill-opacity:1;fill-rule:nonzero;stroke:none"
             id="path7571"
             inkscape:connector-curvature="0" /><path
             d="m 369.1238,305.6939 c 0,-0.4677 -0.0438,-0.9356 0.4386,-1.2134 v -2.0613 h -4.3128 v 2.0613 c 0.4532,0.2778 0.424,0.6872 0.424,1.1549 v 2.7192 c 0,0.4679 0.0439,0.9358 -0.424,1.2135 v 2.0614 h 3.8742 z m -3.7279,7.9676 c 0,0.9942 1.0234,1.4035 1.8713,1.4035 0.8625,0 1.8566,-0.4678 1.8566,-1.4619 0,-0.965 -0.9795,-1.4181 -1.8274,-1.4181 -0.9064,0 -1.9005,0.4386 -1.9005,1.4765"
             style="fill:#f47216;fill-opacity:1;fill-rule:nonzero;stroke:none"
             id="path7573"
             inkscape:connector-curvature="0" /><path
             d="m 375.2052,303.1209 c -0.731,-0.6139 -1.4474,-0.8918 -2.3976,-0.8918 -1.6082,0 -2.6169,1.0087 -2.6169,2.6315 0,1.8421 1.111,2.3831 2.6607,2.8947 l 2.2221,0.7163 v 0.3216 c 0,0.4532 -0.1168,0.9065 -0.5993,0.9065 -0.5556,0 -0.6725,-0.4533 -0.6725,-0.9065 v -0.3801 h -3.2309 v 2.2661 c 1.1842,0.848 2.6753,1.1403 4.108,1.1403 0.9211,0 2.1053,-0.1462 2.8801,-0.731 0.9648,-0.7602 0.9795,-1.7251 0.9648,-2.7922 v -2.5732 c 0,-0.4824 -0.0438,-0.9063 0.4241,-1.2426 v -2.0613 h -3.7426 z m -0.1317,3.2163 c -0.614,-0.2485 -1.4326,-0.3947 -1.4326,-1.038 0,-0.2923 0.1901,-0.6287 0.497,-0.5702 0.2924,0 0.614,0.1024 0.9356,0.3364"
             style="fill:#f47216;fill-opacity:1;fill-rule:nonzero;stroke:none"
             id="path7575"
             inkscape:connector-curvature="0" /><path
             d="m 383.3356,311.6295 h 1.1403 v -2.1053 h -1.1403 v -3.5232 c 0,-0.9941 -0.0146,-1.3597 1.1403,-1.4913 v -2.0905 l -1.7251,-0.1316 c -0.7602,-0.0585 -1.6959,0.0731 -2.2807,0.6433 -0.6285,0.6285 -0.5848,1.4911 -0.5848,2.2953 v 4.298 h -0.4239 v 2.1053 h 0.4239 v 1.7981 l 3.4503,0.9796"
             style="fill:#f47216;fill-opacity:1;fill-rule:nonzero;stroke:none"
             id="path7577"
             inkscape:connector-curvature="0" /><path
             d="m 389.0084,305.6939 c 0,-0.4677 -0.044,-0.9356 0.4385,-1.2134 v -2.0613 h -4.3128 v 2.0613 c 0.4533,0.2778 0.4241,0.6872 0.4241,1.1549 v 2.7192 c 0,0.4679 0.0438,0.9358 -0.4241,1.2135 v 2.0614 h 3.8743 z m -3.728,7.9676 c 0,0.9942 1.0233,1.4035 1.8712,1.4035 0.8626,0 1.8568,-0.4678 1.8568,-1.4619 0,-0.965 -0.9796,-1.4181 -1.8276,-1.4181 -0.9063,0 -1.9004,0.4386 -1.9004,1.4765"
             style="fill:#f47216;fill-opacity:1;fill-rule:nonzero;stroke:none"
             id="path7579"
             inkscape:connector-curvature="0" /><path
             d="m 398.3936,305.9279 c 0,-1.0234 -0.0292,-2.1784 -0.8625,-2.8947 -0.8333,-0.7163 -2.0613,-0.8041 -3.1139,-0.8041 -0.9503,0 -2.2953,0.0731 -3.0994,0.614 -1.1256,0.7456 -1.1256,1.8714 -1.1256,3.0848 v 2.3976 c 0,0.9941 0.0145,2.0758 0.8771,2.7485 0.8333,0.6578 1.959,0.7455 2.997,0.7455 0.9356,0 2.3391,-0.073 3.1432,-0.5409 1.1111,-0.6725 1.1841,-1.7836 1.1841,-2.9531 z m -4.7514,-0.2925 c 0,-0.497 -0.0438,-1.2572 0.6434,-1.2572 0.7018,0 0.6578,0.7602 0.6578,1.2572 v 2.6609 c 0,0.4969 0.1023,1.3742 -0.6432,1.3742 -0.7456,0 -0.658,-0.8626 -0.658,-1.3742"
             style="fill:#f47216;fill-opacity:1;fill-rule:nonzero;stroke:none"
             id="path7581"
             inkscape:connector-curvature="0" /><path
             d="m 403.0152,311.0593 c 0.9358,0.6287 1.7544,0.7895 2.4854,0.7602 0.7164,-0.0292 1.345,-0.2631 1.6959,-0.614 0.6286,-0.5994 0.7017,-1.2719 0.7017,-2.0614 v -3.4502 c 0,-0.4532 -0.0438,-0.9649 0.4094,-1.2134 v -2.0613 h -3.6695 c -0.2047,0.9356 -0.1901,1.9152 -0.1901,2.8653 v 2.6901 c 0,0.0584 0.0439,0.4825 -0.1023,0.8186 -0.2339,0.3509 -0.614,0.614 -1.1842,0.3509 v -3.4502 c 0,-0.4532 -0.0438,-0.9649 0.4239,-1.2134 v -2.0613 h -4.298 v 2.0613 c 0.4531,0.2632 0.4239,0.6872 0.4239,1.1549 v 2.7924 c 0,0.497 0.0146,0.8186 -0.4239,1.1403 v 2.0614 h 3.7278"
             style="fill:#f47216;fill-opacity:1;fill-rule:nonzero;stroke:none"
             id="path7583"
             inkscape:connector-curvature="0" /><path
             d="m 395.5853,407.0415 c 0,1.911 1.5562,3.4762 3.4853,3.4762 1.9111,0 3.4763,-1.5652 3.4763,-3.4762 0,-1.9201 -1.5652,-3.4853 -3.4763,-3.4853 -1.9291,0 -3.4853,1.5652 -3.4853,3.4853 z m 6.3064,0 c 0,1.5652 -1.2558,2.821 -2.8211,2.821 -1.5743,0 -2.83,-1.2558 -2.83,-2.821 0,-1.5743 1.2557,-2.8301 2.83,-2.8301 1.5653,0 2.8211,1.2558 2.8211,2.8301 z m -1.092,-1.8928 h -0.8554 l -0.8372,1.5834 H 398.37 v -1.5834 h -0.7371 v 3.7492 h 1.82 c 0.3185,0 0.7371,-0.009 1.0191,-0.1729 0.3368,-0.2184 0.4369,-0.5824 0.4369,-0.9737 0,-0.6916 -0.3549,-0.9737 -1.0193,-1.0192 z m -1.3286,2.1476 c 0.4185,-0.009 0.7097,0.091 0.7097,0.5642 0,0.5005 -0.5368,0.5005 -0.9008,0.5005 h -0.91 v -1.0647"
             style="fill:#000000;fill-opacity:1;fill-rule:nonzero;stroke:none"
             id="path7585"
             inkscape:connector-curvature="0" /></g></g><g
         id="g7587" /></g></g></svg>