<?xml version="1.0" encoding="UTF-8" standalone="no"?>
<!DOCTYPE svg PUBLIC "-//W3C//DTD SVG 1.1//EN" "http://www.w3.org/Graphics/SVG/1.1/DTD/svg11.dtd">
<svg width="100%" height="100%" viewBox="0 0 289 154" version="1.1" xmlns="http://www.w3.org/2000/svg" xmlns:xlink="http://www.w3.org/1999/xlink" xml:space="preserve" xmlns:serif="http://www.serif.com/" style="fill-rule:evenodd;clip-rule:evenodd;stroke-linejoin:round;stroke-miterlimit:2;">
    <g transform="matrix(1,0,0,1,-71.9976,-67.399)">
        <g>
            <g transform="matrix(1,0,0,1,97.228,174.965)">
                <path d="M0,-80.054C40.415,-104.268 89.125,-111.01 141.801,-106.031C187.964,-101.668 227.726,-87.986 251.781,-58.103C266.661,-39.631 266.613,-18.342 250.546,2.508C240.953,14.96 226.966,24.021 210.083,30.956C221.149,24.72 229.65,16.983 236.337,8.074C250.784,-11.184 249.492,-30.588 236.954,-47.588C211.996,-81.441 168.93,-92.384 122.957,-97.373C75.25,-102.549 34.599,-95.414 0,-80.054" style="fill:rgb(0,45,115);"/>
            </g>
            <g transform="matrix(1,0,0,1,229.683,218.549)">
                <path d="M0,-130.026L-2.764,-125.667L-6.358,-126.213L-9.092,-123.679L-8.969,-118.848L-11.937,-118.768L-17.113,-116.172L-55.475,-115.802L-57.223,-115.754L-80.055,-116.343L-92.196,-116.029L-122.015,-116.521L-128.916,-116.34L-145.166,-115.915L-143.945,-112.848L-148.761,-96.397L-157.685,-56.667L-127.988,-57.446L-125.613,-56.872L-113.383,-57.191L-112.692,-54.198L-108.677,-54.308L-108.14,-57.328L-93.03,-57.727L-68.483,-58.364L-66.197,-57.789L-46.471,-58.943L-46.409,-56.573L-27.226,-58.264L-20.863,-58.977L-19.632,-55.451L-15.591,-37.865L-5.034,-35.13L-4.44,-32.775L-1.173,-18.175L1.178,-18.242L2.413,-14.622L6.436,-17.833L9.323,-17.901L8.611,-21.538L11.518,-24.073L16.267,-22.92L17.849,-25.968L21.753,-34.01L25.196,-35.928L26.953,-35.42L29.874,-34.223L27.917,-18.94L38.969,-20.507L42.925,-26.629L52.233,-28.058L54.522,-27.573L58.56,-30.144L71.349,-29.197L72.095,-23.836L74.341,-28.643L72.394,-35.976L74.056,-39.575L72.204,-43.271L73.306,-44.482L67.749,-59.566L62.287,-64.9L55.876,-65.915L53.549,-64.666L56.009,-60.99L59.452,-62.999L64.805,-58.853L63.831,-52.712L67.336,-52.266L69.149,-46.196L67.606,-41.869L49.075,-35.362L39.681,-36.939L35.563,-40.487L33.483,-53.196L26.968,-54.849L24.626,-57.794L26.288,-60.853L29.224,-59.105L30.41,-60.32L27.917,-65.726L23.168,-69.8L22.432,-74.704L18.228,-78.242L14.19,-78.776L10.605,-82.241L9.522,-76.829L5.391,-77.907L1.9,-80.823L1.107,-88.104L2.294,-89.41L4.455,-93.661L13.051,-99.36L11.246,-101.136L11.803,-103.52L22.219,-106.255L23.287,-108.747L22.062,-112.365L14.865,-116.462L12.848,-130.363L8.691,-132.078L0,-130.026ZM32.904,-9.323L31.655,-13.573L27.537,-14.11L26.872,-15.915L22.313,-13.331L16.66,-5.343L14.296,-5.827L13.193,-4.611L14.405,-1.543L17.374,-1.619L23.13,-5.514L31.266,-5.087L36.988,-7.063L38.114,-10.738L36.879,-11.251L32.904,-9.323ZM63.118,-9.508L62.634,-4.754L65.531,-4.189L62.738,-0.47L57.467,-1.515L54.57,1.02L60.449,2.052L68.048,1.848L69.733,-0.655L64.78,-9.555L63.118,-9.508Z" style="fill:rgb(0,45,115);"/>
            </g>
            <g transform="matrix(1,0,0,1,202.734,137.472)">
                <path d="M0,-11.684L-4.251,-0.927L4.367,-0.927L-0.031,-11.684L0,-11.684ZM-8.646,5.127L2.011,-21.384L3.265,-21.384L14.311,5.127C14.903,6.492 15.437,7.392 15.931,7.829C16.42,8.271 17.161,8.52 18.159,8.579L18.159,9.7L3.451,9.7L3.451,8.579C5.431,8.52 6.64,8.271 7.067,7.829C7.501,7.392 7.425,6.483 6.836,5.127L5.063,0.809L-4.949,0.809L-5.852,3.231C-6.742,5.402 -6.998,6.832 -6.623,7.513C-6.241,8.195 -4.973,8.55 -2.818,8.579L-2.818,9.7L-12.474,9.7L-12.474,8.579C-11.462,8.52 -10.71,8.271 -10.209,7.829C-9.729,7.392 -9.202,6.492 -8.646,5.127M-35.891,-11.684L-40.144,-0.927L-31.528,-0.927L-35.922,-11.684L-35.891,-11.684ZM-44.537,5.127L-33.881,-21.384L-32.627,-21.384L-21.581,5.127C-20.987,6.492 -20.455,7.392 -19.959,7.829C-19.472,8.271 -18.729,8.52 -17.731,8.579L-17.731,9.7L-32.44,9.7L-32.44,8.579C-30.461,8.52 -29.253,8.271 -28.826,7.829C-28.389,7.392 -28.467,6.483 -29.059,5.127L-30.825,0.809L-40.842,0.809L-41.742,3.231C-42.635,5.402 -42.889,6.832 -42.514,7.513C-42.129,8.195 -40.866,8.55 -38.709,8.579L-38.709,9.7L-48.364,9.7L-48.364,8.579C-47.351,8.52 -46.6,8.271 -46.099,7.829C-45.617,7.392 -45.092,6.492 -44.537,5.127M-65.015,5.127L-65.015,-16.174C-65.015,-17.495 -65.286,-18.371 -65.82,-18.815C-66.35,-19.249 -67.485,-19.522 -69.216,-19.627L-69.216,-20.746L-53.541,-20.746L-53.541,-19.627C-55.274,-19.522 -56.405,-19.249 -56.939,-18.815C-57.469,-18.371 -57.739,-17.495 -57.739,-16.174L-57.739,5.127C-57.739,6.444 -57.469,7.325 -56.939,7.767C-56.405,8.204 -55.274,8.472 -53.541,8.579L-53.541,9.7L-69.216,9.7L-69.216,8.579C-67.485,8.472 -66.35,8.204 -65.811,7.767C-65.279,7.325 -65.015,6.444 -65.015,5.127M-108.4,4.087C-108.4,5.825 -108.115,6.974 -107.55,7.545C-106.99,8.114 -105.784,8.456 -103.938,8.579L-103.938,9.7L-114.311,9.7L-114.311,8.579C-112.67,8.472 -111.604,8.138 -111.107,7.563C-110.606,6.993 -110.357,5.839 -110.357,4.087L-110.357,-15.139C-110.357,-16.887 -110.621,-18.045 -111.136,-18.616C-111.654,-19.185 -112.758,-19.522 -114.446,-19.627L-114.446,-20.746L-103.082,-20.746L-93.934,0.501L-93.924,0.501L-84.893,-20.746L-73.664,-20.746L-73.664,-19.627C-75.31,-19.522 -76.375,-19.259 -76.867,-18.822C-77.373,-18.387 -77.62,-17.509 -77.62,-16.174L-77.62,5.127C-77.62,6.461 -77.373,7.339 -76.867,7.774C-76.375,8.212 -75.31,8.472 -73.664,8.579L-73.664,9.7L-88.472,9.7L-88.472,8.579C-86.829,8.472 -85.765,8.212 -85.269,7.774C-84.768,7.339 -84.521,6.461 -84.521,5.127L-84.521,-17.578L-95.838,9.7L-97.068,9.7L-108.4,-16.699L-108.4,4.087Z" style="fill:white;fill-rule:nonzero;"/>
            </g>
        </g>
    </g>
</svg>
