<?xml version="1.0" encoding="utf-8"?>
<svg xmlns="http://www.w3.org/2000/svg" width="250px" height="250px">
<g stroke="#7C5C00">
	<polygon fill="#0B2C62" stroke-width="4.785" stroke-miterlimit="10" points="92.41,246.61 35.98,214.02 3.39,157.58 3.39,92.41 35.98,35.98 92.42,3.39 157.58,3.39 214.02,35.98 246.6,92.42 246.6,157.58 214.02,214.02 157.58,246.61"/>
	<circle fill="none" stroke-width="1.7005" stroke-miterlimit="10" cx="125" cy="125" r="99.56"/></g>
<g fill="#FFFFFF">
	<polyline points="22.41,79.43 24.2,73.88 26.34,79.3 32.17,79.29 27.68,83 29.49,88.54 24.57,85.42 19.87,88.85 21.32,83.21 16.6,79.79 22.41,79.43"/>
	<polyline points="223.97,79.43 225.76,73.88 227.9,79.3 233.73,79.29 229.24,83 231.05,88.54 226.14,85.42 221.43,88.85 222.88,83.21 218.16,79.79 223.97,79.43"/>
	<circle cx="125" cy="125" r="94.62"/>
	<path d="M18.8,125.52c-0.23,0-0.32-0.11-0.32-0.33c0.02-0.63,2.44-0.49,2.52-3.5c0.06-2.26-1.11-2.94-2.05-2.96c-2.26-0.06-2.14,7.9-6.54,7.79c-1.45-0.04-3.91-0.95-3.79-5.74c0.06-2.18,0.55-4.68,1.42-4.66c0.92,0.02,2.57,0.09,2.56,0.67c-0.02,0.58-0.99,0.3-1.89,1.16c-0.63,0.59-1.33,1.97-1.37,3.5c-0.05,2.11,0.96,3.06,2.03,3.09c3.12,0.08,2.78-7.73,7.05-7.63c2.08,0.05,3.41,1.77,3.32,5.31c-0.04,1.81-0.37,3.38-0.92,3.36L18.8,125.52 M22.44,142.09l-1.13-9.42c-0.32-2.69,0.6-1.87,0.52-2.54c-0.03-0.27-0.13-0.36-0.7-0.52c-1.17-0.31-2.59-0.82-3.09-0.76c-0.12,0.01-0.22,0.08-0.18,0.38c0.1,0.82,2.42,0.64,2.77,4.27c0.19,1.87,0.15,1.93-0.94,2.06l-8.28,0.99c-0.35,0.04-1.09-0.17-1.22-0.43c-0.37-0.71-0.35-2.03-0.79-1.98c-0.16,0.02-0.26,0.08-0.2,0.58c0.14,1.2,0.45,2.4,0.6,3.59c0.09,0.77,0.23,2.63,0.32,3.4c0.06,0.47,0.11,0.72,0.39,0.69c0.26-0.03,0.38-0.47,0.2-1.94c-0.09-0.7,0.32-0.87,1.32-0.99l8.71-1.05c0.41-0.05,0.51,0.09,0.63,1.14c0.41,3.46,0.11,4.01-1.14,4.54c-0.19,0.1-0.3,0.21-0.28,0.41c0.04,0.32,0.26,0.45,3.18,0.1c0.45-0.05,0.56-0.17,0.53-0.37C23.56,143.54,22.72,144.48,22.44,142.09 M25.92,151.01l-9.13,7.26c-1.27,1.11-1.46,1.26-1.65,2.17c-0.16,0.77,0,1.35-0.22,1.41c-0.14,0.04-0.18-0.06-0.31-0.54c-0.21-0.83-0.28-1.41-0.73-3.1l-0.76-2.91c-0.06-0.22-0.07-0.37,0.18-0.44c0.22-0.06,0.37,0.13,0.52,0.54c0.18,0.55,0.42,0.98,0.78,0.88c0.2-0.05,0.4-0.26,0.65-0.43l2.36-1.68c0.12-0.08,0.17-0.17,0.03-0.71c-0.16-0.61-0.29-1.43-0.73-3.1c-0.16-0.61-0.47-0.76-1.36-0.94c-0.94-0.22-2.25-0.61-2.7-0.49c-0.57,0.15-0.49,0.72-0.37,1.32c0.04,0.25,0.11,0.75-0.18,0.83c-0.26,0.07-0.39-0.13-0.53-0.66c-0.08-0.29-0.12-0.8-0.36-1.7c-0.25-0.97-0.52-1.68-0.8-2.75c-0.06-0.24-0.09-0.42,0.05-0.45c0.34-0.09,0.44,0.61,0.89,1.14c0.37,0.43,0.79,0.7,1.23,0.82l8.31,2.27c1.89,0.52,3.42,0.74,4.77,0.98L25.92,151.01 M21.56,151.03c0.09-0.08,0.06-0.17,0.05-0.22c-0.02-0.1-0.17-0.19-0.35-0.22l-2.8-0.7c-0.22-0.05-0.43-0.1-0.58-0.06c-0.14,0.04,0.09,0.99,0.3,1.79c0.25,0.95,0.43,1.65,0.55,1.62c0.08-0.02,0.15-0.07,0.21-0.11L21.56,151.03z M30.95,168.93l-3.62-8.76c-1.03-2.5,0.07-1.96-0.19-2.58c-0.11-0.26-0.22-0.32-0.81-0.32c-1.21,0.01-2.71-0.1-3.18,0.09c-0.11,0.05-0.19,0.13-0.07,0.41c0.32,0.77,2.5-0.03,3.82,3.36c0.68,1.75,0.66,1.82-0.36,2.23l-7.71,3.19c-0.32,0.13-1.1,0.13-1.29-0.09c-0.55-0.59-0.88-1.86-1.29-1.69c-0.15,0.06-0.23,0.15-0.03,0.61c0.46,1.11,1.08,2.19,1.54,3.3c0.3,0.72,0.93,2.47,1.23,3.19c0.18,0.44,0.3,0.66,0.56,0.56c0.24-0.1,0.23-0.56-0.33-1.93c-0.27-0.65,0.08-0.93,1-1.31l8.1-3.35c0.38-0.16,0.51-0.05,0.91,0.92c1.33,3.22,1.18,3.83,0.12,4.67c-0.16,0.15-0.23,0.29-0.16,0.47c0.13,0.3,0.37,0.36,3.09-0.76c0.41-0.17,0.49-0.31,0.41-0.5C32.42,170.04,31.87,171.16,30.95,168.93 M32.69,175.57l-6.54,3.97c-1.74,1.06-1.91,0.9-2.91-0.43c-0.12-0.16-0.41-0.63-0.76-0.42c-0.21,0.13-0.13,0.37,0.04,0.65c0.1,0.17,0.36,0.43,0.99,1.48l2.79,4.59c0.51,0.84,0.93,1.69,2.05,3.54c0.1,0.17,0.86-0.08,1.29-0.23c0.47-0.17,1.31-0.32,1.55-0.47c0.16-0.1,0.33-0.2,0.16-0.48c-0.3-0.49-1.36,0.15-2.95-0.94c-0.45-0.31-0.76-0.54-1.3-1.44c-0.6-0.99-1.1-2.09-0.46-2.48l3.35-2.03c0.44-0.26,0.58-0.23,1.06,0.56c1.15,1.89,1.05,2.56,0.62,3.03c-0.68,0.73-0.72,0.82-0.56,1.08c0.15,0.26,0.28,0.27,0.44,0.17c0.14-0.08,0.4-0.36,1.12-0.79c0.66-0.4,1.71-0.8,2.11-1.05c0.05-0.03,0.52-0.29,0.32-0.61c-0.2-0.32-0.86-0.16-1.48-0.24c-0.52-0.07-0.92-0.21-1.66-1.43c-0.78-1.29-0.71-1.45-0.36-1.66l2.7-1.64c0.96-0.58,1.04-0.57,1.61,0.37c1.11,1.82,1.59,3.17,1.3,3.88c-0.32,0.78-0.81,1.11-0.6,1.45c0.2,0.32,0.6,0.08,1.26-0.32c1.41-0.86,1.42-0.92,1.16-1.35c-1.12-1.85-2.08-3.26-2.91-4.63c-1.59-2.62-2.1-3.62-2.67-4.55c-0.21-0.34-0.29-0.41-0.5-0.28c-0.19,0.12-0.21,0.24,0.37,1.39C33.68,174.96,33.1,175.31,32.69,175.57 M39.65,200.24l2.5-2.38c0.37-0.35,0.56-0.22,1.63,0.91l3.72,3.91c0.4,0.42,0.39,0.53-1.13,1.98c-2.04,1.94-2.22,1.9-3.36,0.94c-0.71-0.6-0.78-0.61-0.94-0.45c-0.19,0.18-0.2,0.32,0.01,0.54c0.24,0.25,1.32,1.27,2.6,2.61c0.97,1.02,1.44,1.64,1.93,2.15c0.33,0.34,0.46,0.42,0.64,0.26c0.21-0.2,0.1-0.37-0.35-1.02c-0.61-0.88-0.37-1.1,0.16-1.61l6.72-6.4c0.22-0.21,0.48-0.21,0.71-0.12c0.59,0.24,1.17,1.17,1.49,0.86c0.16-0.16,0.09-0.26-0.27-0.64c-0.6-0.64-1.55-1.5-2.13-2.12c-0.73-0.76-1.34-1.53-1.86-2.07c-0.31-0.33-0.49-0.37-0.65-0.21c-0.21,0.2-0.18,0.41-0.03,0.62c0.34,0.5,1.18,1.09,0.43,1.81l-2.42,2.31c-0.21,0.2-0.51,0.35-0.94-0.1c-1.05-1.11-2.19-2.18-4.63-4.74c-0.24-0.25-0.26-0.41,0.15-0.79l2.51-2.39c0.44-0.42,0.71-0.47,1.29,0.05c0.65,0.59,0.9,0.77,1.09,0.59c0.24-0.23,0.03-0.47-0.32-0.84c-0.6-0.63-1.55-1.5-2.14-2.12c-0.72-0.76-1.34-1.53-1.86-2.07c-0.26-0.27-0.37-0.3-0.56-0.12c-0.22,0.21-0.16,0.43,0.41,1.03c0.64,0.67,0.4,1.01-0.02,1.4l-6.68,6.36c-0.49,0.46-0.92,0.22-1.38-0.14c-0.95-0.73-1.11-0.78-1.24-0.65c-0.13,0.13-0.15,0.25,0.02,0.43c0.48,0.51,1.08,1.01,2.05,2.03c1.28,1.35,2.26,2.49,2.55,2.8c0.36,0.38,0.47,0.38,0.64,0.22c0.12-0.11,0.11-0.21-0.62-1.28C39.22,201.55,38.83,201.02,39.65,200.24 M59.3,206.88l-5.12,6.59c-0.95,1.22-1.42,0.89-2.12,0.39c-0.82-0.58-0.91-0.63-1.09-0.4c-0.15,0.19-0.2,0.34,0.1,0.57c0.56,0.43,1.22,0.84,2.35,1.72c1.45,1.12,2.39,1.95,2.92,2.37c0.42,0.32,0.49,0.3,0.61,0.16c0.2-0.26,0-0.49-0.35-0.9c-0.61-0.68-0.94-0.99-0.3-1.83l5.5-7.09c0.47-0.61,0.63-0.65,1.69,0.07c0.48,0.32,0.73,0.33,0.84,0.19c0.11-0.15,0.07-0.26-0.41-0.62c-0.65-0.51-0.94-0.63-2.55-1.88c-0.97-0.75-1.46-1.23-1.93-1.6c-0.46-0.35-0.63-0.33-0.78-0.14c-0.15,0.19-0.11,0.35,0.37,0.75C59.84,205.9,59.82,206.22,59.3,206.88 M72.03,226.77l1.58-2.5c0.54-0.85,0.79-0.88,1.47-0.6c0.94,0.39,1.06,0.37,1.17,0.2c0.16-0.26-0.12-0.43-0.51-0.66c-0.37-0.22-1.12-0.57-2.02-1.11l-3.51-2.1c-0.43-0.26-0.57-0.27-0.68-0.08c-0.14,0.23-0.13,0.26,1.26,1.18c1,0.67,0.92,0.96,0.39,1.85c-1.67,2.78-2.21,2.72-4.75,1.2c-2.02-1.21-3.92-4.69-2.07-7.78c1.82-3.05,5.22-4.03,8.49-2.08c1.87,1.12,2.56,2.46,2.55,3.86c0,0.69,0.02,0.75,0.21,0.86c0.17,0.1,0.29,0.1,0.35,0c0.34-0.56,0.55-1.16,0.86-1.74c0.41-0.73-2.12-2.57-3.86-3.62c-4.35-2.6-9.1-2.63-11.34,1.11c-2.36,3.94,0.65,7.81,4.31,10C68.43,226.25,71.74,227.21,72.03,226.77 M81.12,229.92l1.22-3.22c0.18-0.48,0.41-0.43,1.86,0.12l5.04,1.91c0.54,0.2,0.58,0.31-0.16,2.27c-1,2.63-1.17,2.68-2.62,2.3c-0.9-0.23-0.97-0.21-1.05,0c-0.09,0.25-0.04,0.38,0.24,0.49c0.33,0.13,1.74,0.57,3.48,1.23c1.31,0.5,2.01,0.85,2.67,1.1c0.45,0.17,0.6,0.18,0.69-0.04c0.1-0.27-0.07-0.38-0.75-0.77c-0.93-0.53-0.81-0.83-0.55-1.52l3.28-8.68c0.11-0.29,0.34-0.4,0.59-0.41c0.63-0.04,1.56,0.55,1.72,0.13c0.08-0.21-0.03-0.27-0.52-0.46c-0.82-0.31-2.04-0.69-2.84-0.99c-0.99-0.38-1.87-0.8-2.58-1.06c-0.42-0.16-0.6-0.12-0.68,0.09c-0.1,0.27,0.02,0.45,0.24,0.57c0.53,0.31,1.54,0.47,1.17,1.45l-1.18,3.13c-0.1,0.27-0.31,0.54-0.9,0.32c-1.43-0.54-2.91-1.02-6.22-2.27c-0.33-0.12-0.41-0.26-0.21-0.78l1.23-3.24c0.21-0.57,0.44-0.73,1.18-0.51c0.84,0.25,1.15,0.3,1.24,0.06c0.12-0.31-0.18-0.44-0.65-0.62c-0.82-0.31-2.05-0.69-2.84-0.99c-0.99-0.37-1.87-0.8-2.58-1.06c-0.35-0.13-0.47-0.11-0.56,0.14c-0.11,0.29,0.04,0.45,0.82,0.75c0.87,0.33,0.8,0.74,0.59,1.27l-3.26,8.62c-0.24,0.63-0.73,0.59-1.3,0.47c-1.17-0.24-1.34-0.22-1.4-0.05c-0.06,0.17-0.03,0.29,0.2,0.38c0.66,0.25,1.41,0.45,2.73,0.94c1.74,0.66,3.11,1.27,3.51,1.42c0.49,0.19,0.59,0.14,0.67-0.07c0.06-0.15,0.01-0.24-1.11-0.88C81.3,231.3,80.72,230.99,81.12,229.92 M113.21,230.08l0.3-1.98c0.08-0.54-1.44-1.06-3.23-1.34c-3.49-0.53-5.36,0.57-5.68,2.62c-0.64,4.21,7.15,4.86,6.68,7.95c-0.16,1.05-1.23,1.94-3.32,1.62c-1.51-0.23-2.8-1.11-3.3-1.8c-0.73-1-0.34-1.93-0.91-2.02c-0.57-0.09-0.84,1.54-0.98,2.45c-0.13,0.87,2.28,1.67,4.44,2c4.74,0.72,5.96-1.61,6.17-3.04c0.66-4.35-7.25-5.23-6.91-7.47c0.14-0.93,0.96-2,3.2-1.66c2.98,0.45,2.54,2.84,3.16,2.93C113.06,230.39,113.17,230.31,113.21,230.08 M115.91,234.45c-0.08,3.92,4.38,6.46,8.65,6.55c1.15,0.02,4.44-0.19,4.71-1.02c0.13-0.43,0.51-1.8,0.52-2.03c0-0.16-0.09-0.35-0.27-0.35c-0.58-0.01-1.69,2.7-5.12,2.63c-1.23-0.03-5.23-0.81-5.12-6.09c0.08-3.47,2.88-5.71,5.69-5.65c2.98,0.07,3.92,2.35,4.62,2.36c0.28,0.01,0.33-0.09,0.33-0.24c0-0.18-0.07-1.31-0.12-1.57c-0.11-0.59-2.71-1.12-4.74-1.16C121.13,227.79,116.02,229.48,115.91,234.45 M138.65,238.02l-0.51-3.41c-0.08-0.51,0.14-0.58,1.68-0.81l5.33-0.8c0.57-0.09,0.66-0.02,0.97,2.06c0.42,2.78,0.28,2.91-1.15,3.29c-0.9,0.24-0.95,0.29-0.91,0.51c0.04,0.26,0.15,0.35,0.45,0.3c0.35-0.05,1.8-0.35,3.64-0.63c1.39-0.21,2.17-0.24,2.86-0.35c0.47-0.07,0.62-0.13,0.58-0.38c-0.04-0.28-0.25-0.29-1.03-0.3c-1.07,0-1.12-0.33-1.22-1.05l-1.38-9.18c-0.05-0.3,0.1-0.51,0.31-0.65c0.53-0.35,1.63-0.28,1.56-0.73c-0.03-0.22-0.16-0.22-0.68-0.14c-0.87,0.13-2.12,0.4-2.97,0.53c-1.04,0.16-2.02,0.22-2.77,0.34c-0.45,0.07-0.58,0.19-0.54,0.41c0.04,0.28,0.23,0.38,0.49,0.38c0.61,0.01,1.57-0.34,1.73,0.69l0.5,3.31c0.04,0.28-0.01,0.62-0.63,0.71c-1.51,0.23-3.04,0.54-6.54,1.07c-0.35,0.05-0.49-0.03-0.57-0.57l-0.52-3.43c-0.09-0.6,0.02-0.85,0.78-1.03c0.86-0.19,1.15-0.3,1.11-0.56c-0.05-0.32-0.38-0.29-0.87-0.22c-0.87,0.13-2.12,0.4-2.97,0.53c-1.04,0.16-2.02,0.22-2.76,0.34c-0.37,0.05-0.46,0.13-0.42,0.39c0.05,0.3,0.26,0.38,1.08,0.25c0.92-0.14,1.05,0.25,1.14,0.82l1.37,9.12c0.1,0.67-0.35,0.88-0.91,1.05c-1.14,0.36-1.28,0.46-1.25,0.64c0.03,0.18,0.12,0.27,0.37,0.24c0.7-0.11,1.45-0.3,2.84-0.51c1.83-0.28,3.34-0.42,3.76-0.49c0.52-0.08,0.58-0.17,0.55-0.39c-0.02-0.16-0.11-0.21-1.41-0.22C139.47,239.13,138.82,239.15,138.65,238.02 M152.9,231.29c-1.09-3.2,1.03-7.28,5.73-8.88c4.71-1.6,8.86,0.35,9.95,3.56c1.09,3.21-1.03,7.28-5.73,8.88C158.14,236.45,153.98,234.5,152.9,231.29 M162.62,234.2c2.8-0.95,4.09-3.72,2.91-7.19c-1.35-3.98-3.88-4.89-6.69-3.93c-2.8,0.95-4.26,3.21-2.91,7.19C157.12,233.74,159.82,235.15,162.62,234.2z M170.58,225.11c-1.62-2.98-0.23-7.35,4.14-9.72c4.37-2.37,8.79-1.16,10.41,1.82c1.62,2.98,0.23,7.35-4.14,9.73C176.63,229.29,172.2,228.08,170.58,225.11 M180.67,226.31c2.6-1.41,3.4-4.35,1.65-7.58c-2.01-3.69-4.66-4.15-7.26-2.74c-2.6,1.41-3.66,3.89-1.65,7.58C175.16,226.8,178.07,227.73,180.67,226.31z M185.22,211.06l4.71,6.28c1.35,1.8,1.35,1.92,0.79,2.47c-0.59,0.6-1.2,1.08-1,1.34c0.21,0.28,0.41,0.13,0.93-0.26c1.1-0.83,2.36-1.87,3.26-2.55c1.43-1.07,4.26-3.09,5.83-4.27c0.36-0.27-0.41-2.06-0.83-2.62c-0.23-0.31-0.41-0.25-0.55-0.15c-0.46,0.35,0.43,2.46-2.62,4.74l-1.41,1.05c-0.46,0.35-0.62,0.34-1.25-0.49l-5.47-7.3c-0.32-0.42,0.17-0.91,1.09-1.76c0.3-0.27,0.32-0.49,0.23-0.61c-0.21-0.28-0.37-0.2-0.8,0.11c-0.88,0.66-1.72,1.39-2.6,2.05c-0.88,0.66-1.82,1.26-2.7,1.92c-0.24,0.18-0.3,0.36-0.16,0.53c0.12,0.16,0.34,0.25,1.05-0.28C184.51,210.7,185.12,210.93,185.22,211.06 M200.53,198.2l5.81,5.29c1.66,1.51,1.68,1.64,1.24,2.28c-0.47,0.69-0.98,1.28-0.74,1.5c0.26,0.23,0.43,0.05,0.86-0.43c0.93-1.02,1.97-2.28,2.73-3.11c1.2-1.32,3.61-3.84,4.93-5.29c0.3-0.34-0.79-1.95-1.31-2.41c-0.29-0.26-0.45-0.17-0.57-0.04c-0.39,0.43,0.88,2.33-1.69,5.15l-1.18,1.3c-0.39,0.42-0.55,0.45-1.32-0.25l-6.74-6.14c-0.39-0.36-0.01-0.93,0.74-1.94c0.24-0.32,0.22-0.54,0.11-0.64c-0.26-0.23-0.4-0.13-0.76,0.26c-0.74,0.82-1.43,1.69-2.17,2.5c-0.74,0.82-1.55,1.58-2.29,2.39c-0.2,0.22-0.23,0.4-0.06,0.56c0.15,0.14,0.39,0.18,0.98-0.47C199.76,197.98,200.41,198.09,200.53,198.2 M209.96,187.99l6.28,4.37c1.67,1.17,1.59,1.39,0.78,2.84c-0.1,0.18-0.41,0.63-0.08,0.86c0.2,0.14,0.39-0.03,0.58-0.3c0.12-0.17,0.25-0.5,0.95-1.51l3.07-4.41c0.56-0.8,1.17-1.54,2.4-3.31c0.12-0.16-0.42-0.75-0.73-1.09c-0.34-0.36-0.83-1.06-1.06-1.23c-0.15-0.1-0.32-0.22-0.5,0.05c-0.33,0.47,0.69,1.18,0.34,3.08c-0.1,0.54-0.19,0.91-0.79,1.78c-0.66,0.95-1.47,1.85-2.09,1.42l-3.21-2.24c-0.42-0.29-0.45-0.43,0.09-1.19c1.26-1.81,1.92-2,2.52-1.79c0.94,0.32,1.04,0.33,1.21,0.08c0.17-0.25,0.13-0.37-0.02-0.47c-0.13-0.09-0.49-0.22-1.18-0.7c-0.64-0.44-1.43-1.24-1.81-1.51c-0.05-0.03-0.47-0.36-0.69-0.05c-0.22,0.31,0.21,0.85,0.38,1.46c0.15,0.5,0.18,0.92-0.64,2.09c-0.86,1.24-1.04,1.24-1.37,1l-2.59-1.81c-0.92-0.64-0.94-0.72-0.31-1.62c1.22-1.75,2.26-2.74,3.02-2.76c0.84-0.03,1.34,0.29,1.57-0.04c0.22-0.31-0.17-0.58-0.81-1.02c-1.35-0.94-1.42-0.93-1.7-0.52c-1.23,1.77-2.14,3.22-3.06,4.54c-1.75,2.51-2.46,3.39-3.08,4.27c-0.23,0.33-0.25,0.43-0.05,0.58c0.18,0.13,0.31,0.09,1.12-0.9C209.01,187.33,209.56,187.72,209.96,187.99 M218.1,169.03l11.65,0.49c1.69-0.01,1.93,0,2.67-0.56c0.62-0.48,0.89-1.02,1.09-0.92c0.13,0.06,0.1,0.16-0.12,0.61c-0.38,0.77-0.71,1.25-1.48,2.82l-1.33,2.7c-0.1,0.2-0.19,0.33-0.42,0.21c-0.2-0.1-0.19-0.35-0.04-0.75c0.22-0.54,0.32-1.02-0.01-1.18c-0.18-0.09-0.47-0.06-0.77-0.1l-2.89-0.28c-0.15-0.02-0.24,0.02-0.48,0.52c-0.28,0.56-0.72,1.27-1.48,2.82c-0.28,0.56-0.14,0.88,0.41,1.6c0.57,0.78,1.3,1.93,1.72,2.14c0.53,0.26,0.84-0.23,1.14-0.75c0.13-0.22,0.41-0.64,0.68-0.5c0.24,0.12,0.21,0.36-0.03,0.85c-0.13,0.27-0.43,0.68-0.84,1.52c-0.45,0.9-0.7,1.61-1.19,2.6c-0.11,0.23-0.21,0.38-0.33,0.31c-0.31-0.15,0.07-0.75,0.08-1.45c0-0.56-0.14-1.05-0.39-1.42l-4.8-7.15c-1.09-1.63-2.1-2.8-2.96-3.87L218.1,169.03 M221.41,171.87c-0.11,0-0.16,0.09-0.18,0.13c-0.05,0.09,0.01,0.26,0.12,0.4l1.66,2.36c0.14,0.18,0.26,0.35,0.41,0.42c0.13,0.06,0.58-0.81,0.94-1.55c0.43-0.88,0.76-1.53,0.65-1.58c-0.07-0.04-0.16-0.05-0.22-0.05L221.41,171.87z M237.46,152.58l-2.8-0.96c-0.94-0.33-1.04-0.56-0.92-1.29c0.17-1,0.12-1.12-0.08-1.18c-0.29-0.09-0.39,0.22-0.53,0.65c-0.13,0.41-0.3,1.22-0.62,2.23l-1.23,3.9c-0.15,0.48-0.13,0.62,0.08,0.68c0.25,0.08,0.28,0.06,0.86-1.49c0.42-1.13,0.72-1.12,1.71-0.8c3.09,0.98,3.15,1.52,2.26,4.35c-0.71,2.25-3.66,4.89-7.09,3.81c-3.38-1.07-5.13-4.15-3.98-7.78c0.66-2.08,1.8-3.06,3.16-3.37c0.67-0.16,0.72-0.19,0.79-0.41c0.06-0.19,0.03-0.31-0.08-0.34c-0.62-0.2-1.26-0.26-1.89-0.44c-0.8-0.23-2.01,2.65-2.63,4.59c-1.53,4.84-0.47,9.46,3.7,10.77c4.38,1.38,7.44-2.44,8.73-6.5C237.79,156.21,237.95,152.76,237.46,152.58 M229.27,144.97l7.18,1.11c3.34,0.53,4.43-4.34,4.71-6.41c0.56-4.15-0.46-6.36-3.32-6.83l-6.43-1.01c-0.91-0.15-1.11-0.51-1.2-1.6c-0.06-0.77-0.08-0.82-0.32-0.85c-0.08-0.01-0.22-0.03-0.25,0.17l-0.51,3.83c-0.05,0.4-0.19,0.83-0.24,1.18c-0.05,0.37,0.08,0.49,0.28,0.52c0.18,0.02,0.24-0.1,0.5-0.85c0.54-1.55,0.88-1.6,1.62-1.48l6.8,1.04c2.26,0.35,2.71,2.82,2.37,5.31c-0.38,2.79-1.25,4.41-4.64,3.88l-5.38-0.82c-1.71-0.25-1.75-0.41-1.61-1.63c0.06-0.77,0.03-0.86-0.17-0.88c-0.26-0.03-0.38,0.03-0.43,0.48l-0.82,6.09c-0.06,0.45-0.1,0.87,0.31,0.93c0.24,0.03,0.35,0.02,0.55-1.52C228.35,144.95,228.67,144.86,229.27,144.97 M231.32,124.97l7.65-0.23c2.04-0.06,2.11,0.16,2.32,1.81c0.03,0.2,0.04,0.75,0.45,0.74c0.25-0.01,0.3-0.26,0.29-0.59c-0.01-0.2-0.1-0.55-0.14-1.78l-0.16-5.37c-0.03-0.98,0.02-1.93-0.04-4.09c-0.01-0.2-0.79-0.35-1.24-0.44c-0.49-0.09-1.29-0.36-1.58-0.35c-0.19,0-0.39,0.01-0.38,0.34c0.02,0.58,1.26,0.54,2.11,2.27c0.24,0.49,0.39,0.84,0.42,1.89c0.04,1.15-0.07,2.36-0.83,2.38l-3.91,0.12c-0.51,0.02-0.62-0.08-0.64-1.01c-0.07-2.21,0.34-2.75,0.95-2.94c0.95-0.3,1.03-0.36,1.02-0.66c-0.01-0.3-0.11-0.37-0.3-0.37c-0.16,0-0.53,0.12-1.36,0.14c-0.77,0.02-1.88-0.14-2.35-0.13c-0.06,0-0.59-0.01-0.58,0.37c0.01,0.38,0.67,0.56,1.17,0.94c0.42,0.31,0.69,0.63,0.74,2.06c0.04,1.5-0.1,1.61-0.5,1.62l-3.16,0.1c-1.12,0.03-1.18-0.01-1.22-1.12c-0.07-2.13,0.18-3.54,0.78-4.01c0.66-0.52,1.25-0.56,1.24-0.97c-0.01-0.38-0.48-0.36-1.26-0.34c-1.65,0.05-1.69,0.1-1.68,0.6c0.06,2.16,0.2,3.86,0.25,5.46c0.09,3.06,0.04,4.19,0.08,5.27c0.01,0.4,0.06,0.5,0.3,0.49c0.22-0.01,0.3-0.11,0.37-1.39C230.15,125.01,230.83,124.99,231.32,124.97 M49.65,48.06l-8.74-1.99c-0.23-0.05-0.34-0.02-1.27,0.89c-0.23,0.23-0.75,0.86-1.49,1.59c-0.6,0.59-1.62,1.41-2.01,1.8c-0.44,0.43-0.4,0.57-0.26,0.71c0.18,0.18,0.3,0.21,1.31-0.61c1.26-1.03,1.64-1.07,2.16-0.45l5.64,6.76c0.88,1.04,0.62,1.56,0.03,2.21c-0.93,1-0.95,1.17-0.73,1.4c0.18,0.18,0.33,0.06,0.73-0.33c0.58-0.57,1.05-1.15,2.07-2.16c1.18-1.16,2.15-1.99,2.59-2.42c0.53-0.52,0.72-0.71,0.53-0.9c-0.22-0.23-0.46-0.05-1.83,1.11c-0.85,0.71-1.33,0.68-2.77-0.83l-4.63-4.9c-0.06-0.06-0.15-0.15-0.03-0.27c0.14-0.14,0.96,0.01,1.43,0.11l9.86,2.06c0.35,0.08,0.49,0.08,0.68-0.1c0.16-0.16,0.24-0.27,0.19-0.45l-2.21-9.77c-0.21-0.87-0.28-1.4-0.16-1.51c0.07-0.07,0.2,0.02,0.49,0.32l5.87,5.97c0.18,0.18,0.24,0.48-0.55,1.34c-0.6,0.64-0.8,0.99-0.61,1.19c0.2,0.2,0.3,0.12,0.58-0.15c1.18-1.16,2.25-2.26,3.13-3.13c0.83-0.82,2.2-1.98,2.78-2.55c0.67-0.66,0.73-0.83,0.54-1.03c-0.09-0.09-0.58,0.15-1.47,0.82c-1.11,0.82-1.64,0.84-2.26,0.2l-6.43-6.55c-0.55-0.56-0.39-0.77,0.69-1.99c0.89-0.99,0.88-1.19,0.73-1.34c-0.16-0.17-0.27-0.18-0.69,0.23l-3.57,3.51c-1.04,1.03-1.07,1.41-0.8,2.57l1.87,7.93c-0.13-0.59,0.19,0.52-0.01,0.73C50.83,48.25,50.23,48.19,49.65,48.06 M61.31,30.81l4.79,7.25c0.89,1.35,0.28,1.78-0.62,2.42c-1.06,0.75-1.16,0.84-0.99,1.09c0.14,0.21,0.28,0.3,0.68,0.03c0.76-0.5,1.55-1.13,3.1-2.15c1.98-1.31,3.38-2.14,4.11-2.62c0.57-0.38,0.59-0.47,0.48-0.62c-0.19-0.28-0.55-0.12-1.18,0.17c-1.07,0.5-1.58,0.79-2.19-0.13l-5.16-7.8c-0.45-0.68-0.41-0.85,0.93-1.84c0.6-0.45,0.74-0.71,0.63-0.87s-0.25-0.14-0.9,0.29c-0.89,0.59-1.17,0.88-3.37,2.33c-1.33,0.88-2.11,1.29-2.76,1.72c-0.62,0.41-0.69,0.61-0.55,0.82c0.14,0.21,0.33,0.21,1.02-0.22C60.49,29.98,60.83,30.09,61.31,30.81 M73.45,23.35l1.64,3.9c0.1,0.24,1.16,3.27,1.58,4.36c0.42,1.09-0.04,1.42-1.12,1.95c-0.85,0.4-1.15,0.71-1.06,0.93c0.12,0.29,0.51,0.13,1.02-0.08c0.84-0.35,1.58-0.76,2.84-1.29c1.11-0.47,2.19-0.83,3.27-1.28c0.54-0.23,0.84-0.36,0.7-0.69c-0.07-0.16-0.41-0.13-1.29,0.11c-2,0.52-2.49,0.36-2.9-0.6c-0.49-1.18-1.13-2.36-1.78-3.91l-1.52-3.62c-0.03-0.06,0.09-0.13,0.16-0.11l16,3.83c1.77,0.43,2.34,0.86,2.88,0.63c0.18-0.08,0.3-0.22,0.16-0.53l-1.64-3.9c-0.94-2.25-1.79-4.5-2.44-6.47c-0.35-1.1-0.32-1.36,0.44-1.8c1.51-0.86,1.55-0.93,1.47-1.12c-0.1-0.24-0.34-0.23-0.82-0.02c-0.48,0.2-1.29,0.63-2.9,1.31c-0.96,0.4-2.13,0.8-2.82,1.09c-0.69,0.29-0.7,0.5-0.6,0.74c0.1,0.24,0.22,0.28,0.77,0.07c2.22-0.84,2.49-0.79,2.99,0.4l2.64,6.29c0.02,0.04-0.03,0.1-0.11,0.14c-0.06,0.03-0.13,0.03-0.28,0c-0.54-0.1-1.82-0.21-4.77-1.04l-9.69-2.75c-1.11,0.54-1.77,0.84-6.02,2.63c-0.42,0.18-0.42,0.34-0.36,0.47c0.11,0.28,0.19,0.29,0.63,0.15C72.65,22.46,73.07,22.44,73.45,23.35 M98.72,13.94l0.67,4.17c0.04,0.25,0.35,3.45,0.51,4.61c0.15,1.16-0.38,1.37-1.55,1.63c-0.92,0.19-1.28,0.42-1.25,0.65c0.05,0.31,0.47,0.25,1.01,0.16c0.9-0.14,1.72-0.36,3.07-0.58c1.19-0.19,2.33-0.29,3.48-0.47c0.58-0.09,0.9-0.14,0.84-0.5c-0.03-0.17-0.37-0.22-1.28-0.2c-2.07,0.03-2.51-0.24-2.67-1.27c-0.2-1.26-0.54-2.56-0.81-4.22l-0.62-3.88c-0.01-0.06,0.12-0.1,0.19-0.07l14.63,7.52c1.62,0.84,2.07,1.39,2.64,1.3c0.19-0.03,0.34-0.14,0.29-0.48l-0.67-4.17c-0.38-2.41-0.67-4.8-0.83-6.86c-0.08-1.15,0.01-1.4,0.86-1.64c1.67-0.48,1.73-0.53,1.69-0.74c-0.04-0.25-0.28-0.3-0.79-0.22c-0.51,0.08-1.4,0.31-3.13,0.58c-1.03,0.17-2.26,0.28-3,0.39c-0.74,0.12-0.8,0.32-0.76,0.57c0.04,0.25,0.15,0.32,0.73,0.25c2.36-0.29,2.61-0.18,2.81,1.1l1.08,6.74c0.01,0.04-0.05,0.09-0.15,0.11c-0.06,0.01-0.13,0-0.27-0.06c-0.5-0.22-1.71-0.63-4.39-2.14l-8.76-4.97c-1.21,0.26-1.91,0.39-6.47,1.12c-0.45,0.07-0.49,0.23-0.47,0.38c0.05,0.29,0.12,0.33,0.58,0.3C98.16,12.89,98.57,12.97,98.72,13.94 M125.11,10.9l-0.35,7.96c-0.09,2.12-0.39,2.18-2.54,2.25c-0.26,0.01-0.97-0.02-0.99,0.4c-0.01,0.25,0.31,0.33,0.73,0.35c0.26,0.01,0.72-0.05,2.31,0.02l6.95,0.3c1.27,0.06,2.5,0.19,5.29,0.32c0.26,0.01,0.52-0.79,0.67-1.25c0.15-0.5,0.58-1.31,0.59-1.61c0.01-0.19,0.02-0.4-0.4-0.42c-0.75-0.03-0.8,1.26-3.11,1.99c-0.66,0.21-1.12,0.34-2.48,0.28c-1.49-0.07-3.05-0.28-3.01-1.07l0.18-4.08c0.02-0.53,0.16-0.63,1.36-0.58c2.86,0.13,3.52,0.6,3.72,1.25c0.31,1.01,0.38,1.1,0.77,1.12c0.39,0.02,0.49-0.09,0.5-0.28c0.01-0.17-0.1-0.56-0.07-1.43c0.04-0.81,0.34-1.94,0.37-2.43c0-0.06,0.06-0.61-0.43-0.64c-0.49-0.02-0.78,0.65-1.32,1.13c-0.44,0.41-0.88,0.66-2.73,0.58c-1.95-0.09-2.07-0.24-2.05-0.66l0.14-3.29c0.05-1.17,0.12-1.23,1.55-1.17c2.76,0.12,4.57,0.5,5.12,1.16c0.62,0.73,0.62,1.35,1.14,1.37c0.49,0.02,0.51-0.47,0.54-1.27c0.08-1.72,0.01-1.76-0.64-1.79c-2.79-0.12-5.01-0.13-7.08-0.22c-3.96-0.17-5.42-0.32-6.82-0.38c-0.52-0.02-0.65,0.01-0.66,0.27c-0.01,0.23,0.11,0.32,1.77,0.5C125.17,9.69,125.14,10.39,125.11,10.9 M154.23,15.29l0.44-2.04c0.12-0.56-1.82-1.28-4.11-1.77c-4.48-0.96-6.91-0.03-7.36,2.09c-0.93,4.34,9.07,5.92,8.39,9.1c-0.23,1.08-1.63,1.89-4.31,1.31c-1.94-0.42-3.57-1.48-4.2-2.27c-0.92-1.13-0.39-2.06-1.12-2.22c-0.73-0.16-1.12,1.52-1.33,2.45c-0.19,0.89,2.89,2.01,5.66,2.61c6.07,1.3,7.7-1,8.01-2.48c0.96-4.49-9.18-6.32-8.69-8.62c0.21-0.96,1.29-1.98,4.15-1.37c3.81,0.82,3.19,3.27,3.98,3.44C154.04,15.6,154.18,15.52,154.23,15.29 M157.72,19.9c1.38-3.25,6.62-4.63,12.55-2.12c5.93,2.51,8.59,7.24,7.21,10.48c-1.38,3.25-6.62,4.63-12.55,2.12C159,27.88,156.34,23.15,157.72,19.9 M165.21,29.72c3.53,1.49,6.94,0.45,8.43-3.08c1.71-4.03-0.13-6.7-3.66-8.2c-3.53-1.5-6.73-0.96-8.43,3.08C160.06,25.05,161.68,28.22,165.21,29.72z M197.05,34.27L187,27.19c-2.87-2.02-1.4-2.02-2.12-2.53c-0.29-0.21-0.45-0.21-1.02,0.09c-1.15,0.62-2.68,1.26-2.98,1.69c-0.07,0.11-0.08,0.23,0.24,0.45c0.88,0.62,2.38-1.29,6.18,1.5c1.97,1.44,2,1.51,1.34,2.45l-5,7.11c-0.21,0.3-0.96,0.68-1.31,0.56c-0.97-0.32-2.24-1.45-2.51-1.07c-0.1,0.14-0.11,0.26,0.43,0.64c1.28,0.9,2.68,1.68,3.95,2.57c0.82,0.58,2.74,2.04,3.56,2.62c0.51,0.36,0.78,0.53,0.95,0.28c0.16-0.23-0.19-0.68-1.76-1.79c-0.74-0.52-0.62-0.98-0.02-1.83l5.26-7.47c0.24-0.35,0.45-0.3,1.57,0.48c3.69,2.6,4.01,3.29,3.62,4.68c-0.04,0.23-0.01,0.41,0.2,0.56c0.34,0.24,0.63,0.18,2.39-2.32c0.27-0.38,0.24-0.56,0.03-0.71C199.29,34.65,199.6,36.07,197.05,34.27 M209.99,44.57l-3.81,12.1c-0.46,1.79-0.54,2.05-0.11,3.11c0.37,0.91,0.91,1.47,0.74,1.63c-0.11,0.1-0.21,0.02-0.66-0.45c-0.76-0.8-1.22-1.4-2.79-3.04l-2.7-2.82c-0.2-0.21-0.32-0.37-0.12-0.56c0.17-0.16,0.45-0.02,0.86,0.35c0.55,0.51,1.07,0.87,1.34,0.6c0.15-0.15,0.2-0.47,0.33-0.76l1.12-2.92c0.06-0.15,0.04-0.26-0.45-0.78c-0.56-0.59-1.24-1.42-2.79-3.04c-0.56-0.59-0.96-0.61-1.94-0.4c-1.05,0.19-2.55,0.38-2.91,0.71c-0.45,0.43,0.03,1.01,0.54,1.6c0.21,0.25,0.61,0.76,0.38,0.98c-0.2,0.19-0.46,0.04-0.96-0.48c-0.27-0.28-0.66-0.81-1.49-1.68c-0.9-0.94-1.63-1.59-2.62-2.62c-0.23-0.23-0.37-0.41-0.26-0.52c0.26-0.25,0.83,0.47,1.62,0.83c0.63,0.29,1.23,0.4,1.73,0.33l9.46-1.36c2.15-0.3,3.76-0.77,5.22-1.12L209.99,44.57 M205.84,46.59c0.03-0.12-0.06-0.21-0.1-0.26c-0.09-0.1-0.3-0.12-0.49-0.08l-3.14,0.53c-0.24,0.05-0.47,0.09-0.59,0.21c-0.11,0.1,0.75,1.03,1.5,1.81c0.88,0.92,1.53,1.6,1.62,1.51c0.06-0.06,0.1-0.14,0.12-0.21L205.84,46.59z"/>
</g>
<path fill="none" stroke="#FFFFFF" stroke-width="3.56" stroke-miterlimit="10" d="M201.39,74.96l4.41-2.1c0.04-0.02,0.08-0.04,0.13-0.05l7.9-2.15c0.07-0.02,0.14-0.03,0.2-0.03c0.26,0,0.51,0.13,0.65,0.36l1.97,3.16c0.11,0.18,0.15,0.4,0.09,0.6c-0.05,0.21-0.19,0.38-0.38,0.48l-24.1,13.04"/>
<path fill="#0B2C62" stroke="#000000" stroke-width="1.538" stroke-miterlimit="10" d="M73.2,203.85c-0.21,0-0.4-0.08-0.55-0.23c-0.14-0.15-0.22-0.34-0.22-0.55l0.36-50.56l-1.18-15.28l-1.71-11.47l-9.74-69.34c-0.03-0.22,0.04-0.44,0.18-0.61c0.15-0.17,0.36-0.26,0.58-0.26h37.7l0.89-9.5c0.02-0.21,0.13-0.41,0.3-0.54c0.14-0.1,0.3-0.16,0.47-0.16c0.04,0,0.08,0,0.13,0.01l7.11,1.19c0.26,0.04,0.48,0.22,0.58,0.46l3.78,9.06l14.16,1.53c0.24,0.03,0.45,0.16,0.57,0.36l3.98,6.51L143,58.47c0.11-0.05,0.22-0.08,0.34-0.08c0.09,0,0.17,0.01,0.25,0.04l7.9,2.76l13.89,6.35l10.66,5.33l7.12-5.25c0.14-0.1,0.3-0.15,0.46-0.15c0.22,0,0.44,0.1,0.6,0.28l3.34,4.08l9.53,0.38c0.14,0.01,0.28,0.05,0.4,0.13l3.92,2.61l4.41-2.1c0.04-0.02,0.08-0.04,0.13-0.05l7.9-2.15c0.07-0.02,0.14-0.03,0.2-0.03c0.26,0,0.51,0.13,0.65,0.36l1.97,3.16c0.11,0.18,0.15,0.4,0.09,0.6c-0.05,0.21-0.19,0.38-0.38,0.48l-24.1,13.04l-10.89,7.4l-9.8,12.55c-0.05,0.06-0.1,0.11-0.17,0.16l-15.74,10.99l-0.12,14.06c0,0.2-0.08,0.4-0.23,0.54l-9.85,9.8l5.18,6.97c0.23,0.31,0.19,0.76-0.09,1.02l-5.25,4.88l1.12,13.43l10.69,5.73c0.11,0.06,0.2,0.14,0.27,0.23l4.65,6.59l10.23,6.54c0.15,0.1,0.26,0.24,0.32,0.42l4.2,13.27c0.07,0.23,0.03,0.49-0.11,0.69c-0.15,0.2-0.38,0.31-0.62,0.31H73.2z"/>
<path fill="#7C5C00" d="M67.95,182.36l-2.42-2.9l-0.26,0.22c0.27,0.32,0.45,0.58,0.54,0.77c0.16,0.32,0.16,0.55,0.01,0.68c-0.12,0.1-0.37,0.2-0.75,0.3c-0.18,0.04-0.57,0.14-1.17,0.28l-2.62-3.14l0.34-0.91c0.08-0.2,0.14-0.36,0.21-0.5c0.11-0.21,0.2-0.36,0.28-0.42c0.18-0.15,0.36-0.17,0.52-0.07c0.17,0.11,0.45,0.39,0.84,0.83l0.27-0.22l-3.83-4.59l-0.26,0.22c0.28,0.32,0.4,0.64,0.36,0.96c-0.03,0.32-0.22,0.93-0.56,1.81l-2.84,7.73l0.33,0.4l8.34-1.62c0.66-0.13,1.12-0.19,1.37-0.17c0.39,0.03,0.74,0.21,1.03,0.54L67.95,182.36 M63.3,181.84l-3.47,0.73l-0.07-0.09l1.29-3.35L63.3,181.84z M47.22,169.09c-0.22-0.79-0.36-1.22-0.4-1.3c-0.12-0.2-0.28-0.33-0.47-0.38c-0.19-0.05-0.36-0.06-0.51-0.01l-0.26-0.43l2.74-1.63l0.24,0.41c-0.36,0.74-0.6,1.41-0.7,2.01c-0.19,1.13-0.01,2.16,0.55,3.1c0.63,1.07,1.42,1.63,2.36,1.68c0.95,0.05,1.98-0.26,3.11-0.94c0.84-0.49,1.45-1.04,1.83-1.62c0.72-1.09,0.68-2.3-0.12-3.64c-0.49-0.82-1.11-1.48-1.86-1.99c-0.43-0.29-1.02-0.59-1.77-0.88l0-0.64c0.88,0.32,1.57,0.65,2.08,0.99c0.9,0.6,1.66,1.41,2.27,2.44c0.93,1.57,1.37,3.09,1.31,4.56c-0.06,1.63-0.72,2.82-2,3.58c-1.27,0.75-2.63,0.8-4.09,0.14c-1.36-0.62-2.5-1.71-3.42-3.25C47.75,170.61,47.44,169.88,47.22,169.09 M53.07,161.21l-1.39-3.51l-0.32,0.13c0.16,0.39,0.24,0.69,0.27,0.9c0.05,0.36-0.02,0.58-0.21,0.65c-0.15,0.06-0.42,0.08-0.8,0.06c-0.19-0.01-0.58-0.05-1.2-0.1l-1.5-3.8l0.6-0.76c0.13-0.17,0.25-0.3,0.36-0.41c0.17-0.17,0.3-0.28,0.4-0.31c0.22-0.09,0.39-0.06,0.52,0.1c0.12,0.15,0.3,0.51,0.54,1.05l0.32-0.13l-2.2-5.56l-0.32,0.13c0.17,0.39,0.18,0.73,0.05,1.03c-0.14,0.3-0.5,0.82-1.1,1.55l-5.12,6.46l0.19,0.49l8.43,1.06c0.67,0.08,1.12,0.17,1.35,0.27c0.36,0.15,0.63,0.43,0.81,0.83 L53.07,161.21 M48.81,159.27l-3.53-0.39l-0.04-0.11l2.27-2.78L48.81,159.27z M48.34,149.25l-1.27-5.72c-0.46-2.07-1.29-3.6-2.49-4.6c-1.07-0.89-2.21-1.2-3.41-0.93c-1.34,0.3-2.29,1.07-2.86,2.31c-0.61,1.37-0.67,3.16-0.17,5.4l1.23,5.53l0.34-0.08c-0.08-0.49-0.1-0.84-0.07-1.06c0.06-0.37,0.26-0.59,0.61-0.67l6.53-1.45c0.36-0.08,0.64,0.04,0.86,0.37c0.12,0.19,0.24,0.51,0.36,0.96L48.34,149.25 M46.14,145.06l-6.55,1.45c-0.27,0.06-0.46,0.05-0.58-0.02c-0.18-0.11-0.32-0.4-0.42-0.87c-0.32-1.42,0-2.55,0.95-3.39c0.6-0.52,1.36-0.89,2.31-1.09c1.58-0.35,2.72-0.24,3.43,0.32c0.71,0.56,1.18,1.38,1.42,2.45c0.09,0.39,0.08,0.66-0.01,0.81C46.59,144.86,46.41,144.98,46.14,145.06z M45.57,136.51l-0.34,0.02c-0.05-0.53-0.12-0.9-0.23-1.12c-0.17-0.33-0.45-0.48-0.83-0.46l-6.57,0.44c-0.39,0.03-0.64,0.22-0.76,0.59c-0.07,0.21-0.1,0.58-0.09,1.12l-0.34,0.02l-0.72-10.62l2.73-0.19l0.03,0.47c-0.86,0.29-1.43,0.73-1.72,1.31c-0.28,0.58-0.38,1.61-0.27,3.09c0.04,0.56,0.1,0.92,0.2,1.07c0.09,0.15,0.27,0.21,0.53,0.2l3.13-0.21c-0.06-1.05-0.24-1.75-0.55-2.1c-0.31-0.35-0.84-0.6-1.61-0.75l-0.03-0.46l4.53-0.31l0.03,0.47c-0.76,0.18-1.28,0.49-1.57,0.91c-0.29,0.43-0.39,1.16-0.33,2.21l3.28-0.22c0.29-0.02,0.48-0.13,0.57-0.34c0.09-0.21,0.11-0.62,0.07-1.25c-0.08-1.18-0.31-2.12-0.69-2.85c-0.38-0.72-1.05-1.34-2-1.85l-0.03-0.52l2.86,0.55L45.57,136.51 M44.21,124.6c0.07-0.7,0.03-1.17-0.13-1.4c-0.16-0.23-0.42-0.36-0.78-0.4l-6.42-0.68c-0.37-0.04-0.62,0.06-0.76,0.28c-0.14,0.23-0.26,0.65-0.36,1.26l-0.34-0.04l0.49-4.63l6.67-2.95l0-0.15l-5.89-4.25l0.49-4.65l0.34,0.04c-0.03,0.62,0.01,1.06,0.12,1.3c0.11,0.24,0.43,0.39,0.95,0.44l5.97,0.63c0.5,0.05,0.84-0.03,1.02-0.24c0.18-0.21,0.31-0.63,0.39-1.24l0.34,0.04l-0.64,6.1l-0.34-0.04c0.05-0.54,0.02-0.96-0.07-1.25c-0.09-0.29-0.35-0.45-0.76-0.5l-6.6-0.7l-0.02,0.13l7.47,5.35l-0.06,0.53l-8.27,3.69l-0.01,0.08l6.13,0.65c0.45,0.05,0.79-0.03,1.02-0.24c0.23-0.21,0.4-0.7,0.5-1.47l0.34,0.04l-0.46,4.3L44.21,124.6 M46.41,107.58c0.12-0.51,0.17-0.89,0.15-1.13c-0.05-0.4-0.26-0.65-0.65-0.75l-6.38-1.63c-0.39-0.1-0.69,0.01-0.92,0.32c-0.13,0.19-0.28,0.56-0.43,1.09l-0.34-0.08l1.61-6.28l0.34,0.09c-0.13,0.56-0.18,0.96-0.16,1.18c0.04,0.38,0.26,0.62,0.65,0.73l6.38,1.63c0.37,0.09,0.66,0.02,0.85-0.23c0.19-0.25,0.36-0.65,0.51-1.21l0.33,0.09l-1.61,6.28L46.41,107.58 M43.26,89.02c0.49-0.66,0.75-1.03,0.78-1.12c0.08-0.22,0.09-0.42,0.01-0.6c-0.08-0.18-0.18-0.32-0.3-0.41l0.18-0.47l2.97,1.16l-0.17,0.45c-0.8,0.17-1.47,0.39-2.01,0.68c-1,0.54-1.71,1.32-2.11,2.34c-0.45,1.16-0.41,2.12,0.13,2.9c0.54,0.77,1.43,1.4,2.65,1.88c0.91,0.36,1.71,0.51,2.41,0.45c1.3-0.11,2.23-0.88,2.8-2.33c0.35-0.89,0.49-1.78,0.42-2.69c-0.03-0.52-0.17-1.17-0.39-1.94l0.51-0.39c0.29,0.89,0.46,1.64,0.5,2.25c0.08,1.08-0.09,2.18-0.53,3.29c-0.67,1.7-1.6,2.98-2.79,3.84c-1.32,0.96-2.67,1.16-4.06,0.62c-1.37-0.54-2.24-1.58-2.62-3.14c-0.34-1.46-0.19-3.02,0.46-4.69C42.38,90.37,42.77,89.68,43.26,89.02 M50.56,86.95l0.26-0.46c1.03,0.24,1.91,0.2,2.64-0.15c0.73-0.34,1.3-0.88,1.71-1.62c0.41-0.72,0.55-1.3,0.45-1.76c-0.1-0.46-0.31-0.77-0.61-0.94c-0.36-0.2-0.73-0.2-1.13-0.01c-0.26,0.13-0.69,0.44-1.29,0.95l-0.96,0.81c-0.96,0.8-1.73,1.31-2.34,1.52c-0.61,0.21-1.18,0.16-1.73-0.15c-0.58-0.33-0.97-0.91-1.16-1.75c-0.19-0.84,0.04-1.83,0.69-2.98c0.33-0.58,0.71-1.11,1.15-1.58c0.44-0.47,0.68-0.74,0.72-0.82c0.1-0.18,0.13-0.32,0.1-0.43c-0.04-0.11-0.1-0.22-0.19-0.32l0.27-0.47l2.59,1.46l-0.25,0.45c-0.72-0.13-1.44-0.05-2.18,0.24c-0.73,0.29-1.31,0.81-1.74,1.57c-0.3,0.53-0.43,1.02-0.39,1.45c0.04,0.43,0.22,0.74,0.53,0.92c0.37,0.21,0.73,0.22,1.08,0.03c0.35-0.18,0.99-0.66,1.91-1.45l1.11-0.94c0.5-0.42,0.95-0.72,1.37-0.9c0.78-0.34,1.49-0.32,2.12,0.03c0.6,0.33,0.98,0.96,1.15,1.89c0.17,0.93-0.14,2.08-0.92,3.47c-0.18,0.32-0.38,0.63-0.61,0.93c-0.23,0.3-0.48,0.59-0.75,0.86l-0.26,0.26c-0.06,0.06-0.11,0.13-0.15,0.19c-0.04,0.06-0.08,0.12-0.11,0.16c-0.09,0.17-0.12,0.3-0.09,0.4c0.03,0.1,0.1,0.21,0.2,0.33l-0.26,0.46L50.56,86.95 M107.58,45.37l3.73-0.53l-0.05-0.34c-0.41,0.06-0.73,0.08-0.94,0.05c-0.36-0.04-0.56-0.15-0.58-0.35c-0.02-0.16,0.02-0.42,0.13-0.8c0.06-0.18,0.18-0.56,0.38-1.15l4.05-0.57l0.6,0.76c0.13,0.17,0.23,0.32,0.32,0.44c0.13,0.2,0.2,0.36,0.21,0.46c0.03,0.24-0.04,0.39-0.22,0.48c-0.18,0.08-0.56,0.18-1.15,0.28l0.05,0.34l5.92-0.84l-0.05-0.34c-0.42,0.07-0.75,0.01-1.01-0.2c-0.26-0.2-0.67-0.67-1.25-1.42l-5.08-6.49l-0.52,0.07l-3.01,7.95c-0.24,0.64-0.43,1.05-0.58,1.25c-0.23,0.32-0.56,0.52-1,0.6L107.58,45.37 M110.46,41.69l1.2-3.34l0.11-0.02l2.17,2.86L110.46,41.69z M120.42,43.57l6.24,0.14l0.01-0.34c-0.65-0.03-1.08-0.14-1.29-0.31c-0.21-0.17-0.31-0.5-0.3-0.98l0.06-2.65l0.52,0.01l3.72,4.33l3.79,0.09l0.01-0.35c-0.17-0.01-0.32-0.03-0.44-0.07c-0.12-0.04-0.23-0.11-0.33-0.22l-3.36-3.92c0.58-0.08,1.14-0.27,1.67-0.58c0.69-0.41,1.05-0.99,1.06-1.72c0.02-1.01-0.7-1.72-2.18-2.14c-0.76-0.2-1.76-0.32-3-0.35l-5.97-0.14l-0.01,0.34c0.63,0.06,1.03,0.14,1.21,0.25c0.27,0.17,0.39,0.51,0.38,1.04l-0.14,6c-0.01,0.51-0.13,0.84-0.36,0.98c-0.23,0.15-0.66,0.22-1.28,0.23L120.42,43.57 M125.15,39l0.08-3.48c0-0.21,0.09-0.35,0.24-0.44c0.16-0.09,0.49-0.12,0.99-0.11c0.92,0.02,1.55,0.3,1.89,0.83c0.19,0.31,0.28,0.73,0.27,1.26c-0.02,0.87-0.3,1.41-0.83,1.63C127.26,38.92,126.38,39.02,125.15,39z M134.58,34.84l10.93,1.9l-0.45,2.7l-0.52-0.09c0-1-0.38-1.74-1.13-2.22c-0.42-0.27-1.08-0.49-1.98-0.67l-1.23,7.07c-0.09,0.49-0.03,0.84,0.17,1.04c0.2,0.2,0.67,0.36,1.39,0.49l-0.06,0.34l-6.47-1.12l0.06-0.34c0.71,0.12,1.21,0.12,1.47,0c0.26-0.12,0.44-0.43,0.52-0.92l1.23-7.07c-0.89-0.14-1.58-0.15-2.09-0.04c-0.93,0.2-1.53,0.77-1.81,1.71l-0.52-0.09L134.58,34.84 M145.94,43.08l0.51,0.16c-0.03,1.06,0.19,1.91,0.67,2.55c0.48,0.64,1.12,1.09,1.93,1.35c0.78,0.25,1.39,0.28,1.81,0.09c0.43-0.19,0.69-0.45,0.8-0.79c0.13-0.39,0.05-0.76-0.21-1.11c-0.18-0.23-0.57-0.59-1.19-1.07l-0.99-0.77c-0.98-0.78-1.63-1.44-1.96-1.99c-0.33-0.55-0.39-1.13-0.2-1.72c0.21-0.64,0.7-1.13,1.48-1.48c0.78-0.35,1.8-0.33,3.05,0.08c0.64,0.21,1.23,0.48,1.78,0.81c0.55,0.34,0.86,0.52,0.95,0.54c0.19,0.06,0.34,0.06,0.43,0.01c0.1-0.06,0.19-0.14,0.28-0.25l0.52,0.17l-0.91,2.83l-0.49-0.16c-0.02-0.73-0.24-1.42-0.67-2.08c-0.43-0.66-1.06-1.12-1.89-1.39c-0.58-0.19-1.08-0.22-1.5-0.09c-0.41,0.13-0.68,0.36-0.79,0.7c-0.13,0.41-0.07,0.76,0.18,1.06c0.25,0.31,0.85,0.83,1.8,1.58l1.14,0.9c0.51,0.4,0.89,0.79,1.15,1.15c0.49,0.69,0.62,1.39,0.39,2.08c-0.21,0.65-0.75,1.15-1.63,1.5c-0.87,0.35-2.07,0.28-3.59-0.21c-0.35-0.11-0.69-0.25-1.04-0.41c-0.34-0.16-0.67-0.35-0.99-0.56l-0.31-0.2c-0.07-0.04-0.15-0.08-0.22-0.11c-0.07-0.03-0.13-0.06-0.18-0.07c-0.18-0.06-0.31-0.06-0.41-0.01c-0.09,0.05-0.19,0.14-0.28,0.26l-0.51-0.16L145.94,43.08 M197.37,89.71l1.34,3.52l0.32-0.12c-0.15-0.39-0.23-0.69-0.26-0.9c-0.05-0.36,0.02-0.58,0.21-0.65c0.15-0.06,0.42-0.07,0.81-0.05c0.19,0.01,0.58,0.05,1.2,0.11l1.46,3.82l-0.61,0.75c-0.14,0.16-0.26,0.3-0.36,0.4c-0.17,0.17-0.3,0.27-0.4,0.31c-0.22,0.09-0.39,0.05-0.52-0.11c-0.12-0.15-0.3-0.51-0.52-1.06l-0.32,0.12l2.13,5.58l0.32-0.12c-0.16-0.39-0.17-0.73-0.03-1.03c0.14-0.3,0.51-0.81,1.11-1.53l5.2-6.39l-0.19-0.49l-8.42-1.17c-0.67-0.09-1.12-0.19-1.35-0.29c-0.36-0.15-0.63-0.43-0.8-0.84L197.37,89.71 M201.6,91.71l3.52,0.43l0.04,0.11l-2.3,2.75L201.6,91.71z M210.55,98.67l2.51,10.81l-2.66,0.64l-0.12-0.52c0.92-0.39,1.46-1.03,1.6-1.9c0.08-0.49,0.03-1.19-0.16-2.08l-6.99,1.62c-0.49,0.11-0.79,0.3-0.89,0.57c-0.11,0.26-0.08,0.75,0.09,1.47l-0.34,0.08l-1.48-6.39l0.34-0.08c0.16,0.71,0.35,1.16,0.57,1.35c0.22,0.2,0.56,0.24,1.05,0.12l6.99-1.62c-0.22-0.87-0.48-1.52-0.77-1.94c-0.55-0.78-1.31-1.11-2.28-1l-0.12-0.52L210.55,98.67 M204.66,112.19c0.05,0.49,0.13,0.84,0.23,1.04c0.16,0.33,0.44,0.49,0.84,0.46l6.57-0.47c0.38-0.03,0.63-0.2,0.74-0.52c0.06-0.19,0.1-0.56,0.1-1.11l0.34-0.02l0.45,6.25l-0.35,0.02c-0.06-0.54-0.14-0.91-0.24-1.11c-0.16-0.34-0.44-0.49-0.83-0.46l-2.81,0.2l0.31,4.4l2.81-0.2c0.39-0.03,0.65-0.21,0.76-0.55c0.06-0.21,0.09-0.6,0.08-1.16l0.34-0.02l0.45,6.3l-0.34,0.02c-0.07-0.54-0.15-0.91-0.25-1.1c-0.16-0.33-0.43-0.47-0.82-0.45l-6.57,0.47c-0.4,0.03-0.66,0.23-0.77,0.61c-0.07,0.22-0.09,0.57-0.07,1.07l-0.34,0.02l-0.45-6.3l0.34-0.03c0.05,0.53,0.13,0.9,0.23,1.12c0.17,0.33,0.45,0.48,0.84,0.46l3.13-0.22l-0.31-4.4l-3.13,0.22c-0.4,0.03-0.66,0.23-0.78,0.61c-0.06,0.22-0.08,0.59-0.06,1.09l-0.34,0.03l-0.44-6.25L204.66,112.19 M205.55,126.25c-0.03,0.5-0.01,0.86,0.05,1.08c0.11,0.37,0.36,0.58,0.77,0.61l6.56,0.55c0.39,0.03,0.67-0.12,0.83-0.45c0.1-0.2,0.18-0.56,0.26-1.08l0.34,0.03l-0.54,6.43l-0.34-0.03c0.04-0.75,0.01-1.26-0.11-1.52c-0.12-0.26-0.44-0.41-0.98-0.46l-6.37-0.54c-0.3-0.02-0.51,0.06-0.62,0.27c-0.12,0.2-0.2,0.61-0.25,1.23c-0.09,1.11,0.01,2.06,0.3,2.84c0.3,0.78,0.93,1.49,1.92,2.12l-0.05,0.54l-3.01-1l0.9-10.67 L205.55,126.25 M204.19,138.12l0.34,0.08c-0.11,0.52-0.15,0.9-0.11,1.14c0.06,0.37,0.28,0.6,0.67,0.68l6.41,1.5c0.38,0.09,0.68-0.02,0.89-0.34c0.13-0.18,0.27-0.53,0.41-1.05l0.34,0.08l-2.42,10.37l-2.66-0.62l0.11-0.45c0.91-0.03,1.58-0.28,2.03-0.75c0.44-0.47,0.83-1.43,1.17-2.87c0.13-0.55,0.17-0.91,0.12-1.08c-0.05-0.17-0.2-0.28-0.45-0.34l-3.05-0.71c-0.25,1.02-0.28,1.74-0.09,2.17c0.19,0.43,0.63,0.82,1.32,1.19l-0.11,0.45l-4.42-1.03l0.11-0.45c0.78,0.05,1.37-0.09,1.77-0.41c0.4-0.32,0.72-1,0.96-2.02l-3.2-0.75c-0.28-0.07-0.5-0.01-0.64,0.16c-0.15,0.17-0.29,0.56-0.44,1.17c-0.27,1.15-0.32,2.12-0.17,2.92c0.15,0.8,0.61,1.59,1.37,2.36l-0.12,0.51l-2.57-1.36L204.19,138.12 M209.92,153.35l-4.07,10.32l-2.55-0.99l0.2-0.49c0.98,0.2,1.78-0.02,2.4-0.66c0.35-0.36,0.7-0.96,1.05-1.81l-6.68-2.64c-0.47-0.18-0.82-0.2-1.06-0.04c-0.24,0.16-0.49,0.58-0.76,1.27l-0.32-0.13l2.41-6.1l0.32,0.13c-0.27,0.67-0.37,1.16-0.3,1.44c0.07,0.28,0.33,0.52,0.79,0.7l6.68,2.64c0.32-0.84,0.47-1.52,0.47-2.04c-0.01-0.95-0.45-1.66-1.31-2.12l0.2-0.49L209.92,153.35 M197.18,161.09c-0.24,0.47-0.38,0.82-0.42,1.07c-0.05,0.4,0.1,0.69,0.46,0.88l5.8,3.11c0.35,0.19,0.67,0.16,0.96-0.09c0.18-0.15,0.41-0.47,0.68-0.96l0.31,0.17l-3.06,5.71l-0.3-0.16c0.26-0.52,0.4-0.89,0.43-1.12c0.05-0.38-0.1-0.67-0.46-0.86l-5.81-3.11c-0.34-0.18-0.63-0.18-0.88,0.02c-0.25,0.2-0.51,0.54-0.78,1.05l-0.3-0.16l3.06-5.71L197.18,161.09 M195.8,179.86c-0.63,0.53-0.97,0.83-1.03,0.9c-0.14,0.19-0.19,0.39-0.16,0.58c0.03,0.2,0.1,0.35,0.2,0.47l-0.29,0.41l-2.6-1.84l0.28-0.39c0.82,0.03,1.52-0.03,2.12-0.18c1.11-0.28,1.98-0.87,2.61-1.77c0.72-1.02,0.9-1.97,0.56-2.85c-0.34-0.88-1.05-1.7-2.12-2.46c-0.8-0.56-1.54-0.9-2.23-1.01c-1.29-0.21-2.38,0.32-3.28,1.59c-0.55,0.78-0.9,1.61-1.05,2.51c-0.09,0.51-0.11,1.17-0.08,1.98l-0.59,0.26c-0.07-0.93-0.05-1.7,0.05-2.3c0.18-1.07,0.61-2.09,1.3-3.07c1.05-1.49,2.26-2.52,3.63-3.06c1.5-0.61,2.87-0.49,4.09,0.37c1.2,0.85,1.8,2.07,1.79,3.68c-0.01,1.5-0.54,2.98-1.57,4.44C196.97,178.76,196.43,179.34,195.8,179.86 M188.21,180.12l-0.36,0.38c-0.94-0.48-1.81-0.65-2.6-0.49c-0.79,0.16-1.47,0.54-2.05,1.16c-0.56,0.6-0.85,1.13-0.86,1.6c-0.01,0.47,0.11,0.82,0.37,1.06c0.29,0.28,0.66,0.37,1.09,0.28c0.29-0.06,0.78-0.26,1.48-0.61l1.12-0.56c1.12-0.55,2-0.86,2.63-0.92c0.64-0.06,1.19,0.13,1.64,0.55c0.49,0.46,0.72,1.12,0.7,1.98c-0.02,0.86-0.48,1.77-1.38,2.73c-0.46,0.49-0.96,0.91-1.5,1.26c-0.54,0.35-0.84,0.56-0.9,0.63c-0.14,0.15-0.2,0.28-0.19,0.39c0.01,0.12,0.04,0.24,0.11,0.36l-0.37,0.39l-2.16-2.04l0.35-0.38c0.67,0.3,1.39,0.39,2.17,0.29c0.78-0.1,1.47-0.47,2.06-1.11c0.42-0.44,0.66-0.88,0.72-1.31c0.06-0.43-0.04-0.77-0.3-1.01c-0.31-0.29-0.66-0.39-1.04-0.29c-0.38,0.09-1.12,0.41-2.2,0.95l-1.3,0.65c-0.58,0.29-1.1,0.47-1.54,0.55c-0.84,0.14-1.52-0.04-2.05-0.54c-0.49-0.47-0.71-1.17-0.66-2.11c0.06-0.94,0.63-1.99,1.73-3.15c0.25-0.27,0.52-0.52,0.82-0.76c0.29-0.24,0.6-0.46,0.93-0.65l0.31-0.19c0.07-0.05,0.13-0.1,0.19-0.15c0.06-0.05,0.11-0.09,0.15-0.13c0.13-0.14,0.19-0.26,0.18-0.37c-0.01-0.1-0.05-0.22-0.11-0.36l0.36-0.39L188.21,180.12"/>
<path d="M114.8,126.18c-0.83-1.68-1.99-3.23-3.42-4.6l-0.88-0.85c-0.27-0.29-0.53-0.58-0.82-0.86l-2.92-2.82c-0.04-0.04-0.08-0.08-0.12-0.12c-1.58-1.65-2.31-2.63-2.63-3.19c-0.42-0.67-0.89-1.99-0.89-4.61c0-1.74,0.32-3.21,0.95-4.37c0.63-1.15,1.27-1.3,1.76-1.3c0.31,0,0.61,0.07,0.9,0.21c0.25,0.4,0.5,0.85,0.75,1.37c1.22,2.63,2.1,5.83,2.61,9.51l0.18,1.33h1.45l0.25,1.7h3.89V97.96h-1.7v-1.7h-3.94c0,0-0.39,1.73-0.48,2.17c-0.26-0.16-0.58-0.35-1.04-0.65c-1.57-1.01-3.24-1.52-4.96-1.52c-2.37,0-5.61,1-7.6,5.74v-2.76h-1.7v-1.7H81.83c0,0-3.9,17.74-6.03,27.41c-2.19-9.91-5.68-25.71-5.68-25.71H68.8c-0.24-1.07-0.38-1.7-0.38-1.7H55.67v4.77l1.7,0.28v1.42l1.68,0.28c0.07,0.48,0.13,1.16,0.13,2.12v36.12c0,2.21-0.29,3.34-0.54,3.89c-0.08,0.17-0.27,0.61-1.56,0.63l-1.51,0.02v4.97h1.7v1.7h12.53v-4.88l-1.43-0.1c-0.1-0.01-0.18-0.02-0.27-0.03v-1.57l-1.43-0.1c-0.24-0.02-0.44-0.05-0.63-0.08c-0.21-0.82-0.39-2.13-0.39-4.23c0,0,0-7.26,0-15.32c2.62,11.74,5.5,24.61,5.5,24.61h1.32c0.24,1.08,0.38,1.7,0.38,1.7h3.54c0,0,2.91-13.43,5.52-25.45c0,7.89,0,14.67,0,14.67c0,2.86-0.49,3.46-0.51,3.49c-0.11,0.13-0.47,0.54-1.55,0.61l-1.44,0.09v4.89h1.7v1.7h15.37v1.06h3.96c0,0,0.36-1.76,0.46-2.2c0.16,0.11,0.33,0.23,0.33,0.23c0.87,0.64,1.81,1.14,2.76,1.47c0.96,0.33,1.93,0.5,2.88,0.5c3.99,0,7.04-2.07,8.83-6c1.63-3.58,2.46-7.44,2.46-11.47C117.14,133,116.35,129.25,114.8,126.18z M95.37,104.12c-0.91,2.81-1.39,5.8-1.39,8.93c0,3.69,0.56,6.86,1.67,9.43c1.11,2.56,3,5.15,5.64,7.71c0,0,0.44,0.42,0.95,0.91c0.25,0.26,0.48,0.53,0.75,0.79c0,0,1.6,1.54,2.26,2.17c0.83,0.9,1.26,1.51,1.46,1.88c0.65,1.2,0.98,2.82,0.98,4.83c0,1.74-0.33,3.42-0.99,4.99c-0.5,1.19-1.2,1.71-2.35,1.71c-0.37,0-0.75-0.11-1.11-0.32c-0.22-0.32-0.43-0.66-0.64-1.04c-1.31-2.39-2.28-6.37-2.88-11.82l-0.15-1.37h-1.51l-0.19-1.7h-4.09v15.89l-0.69-0.05c-0.12-0.72-0.23-1.89-0.23-3.78v-33.57c0-3.9,0.42-4.7,0.47-4.78c0.26-0.44,0.98-0.63,1.52-0.72L95.37,104.12z M167.45,126.18c-0.83-1.68-1.99-3.23-3.42-4.6l-0.87-0.84c-0.27-0.29-0.54-0.59-0.83-0.87l-2.92-2.82c-0.03-0.03-0.06-0.06-0.09-0.09c-1.6-1.66-2.33-2.65-2.66-3.22c-0.41-0.67-0.89-1.99-0.89-4.61c0-1.74,0.32-3.21,0.95-4.37c0.63-1.15,1.27-1.3,1.76-1.3c0.31,0,0.61,0.07,0.9,0.21c0.25,0.4,0.5,0.85,0.75,1.37c1.22,2.63,2.1,5.83,2.61,9.51l0.18,1.33h1.45l0.25,1.7h3.89V97.96h-1.7v-1.7h-3.94c0,0-0.38,1.73-0.48,2.17c-0.26-0.16-0.58-0.35-1.04-0.65c-1.57-1.01-3.24-1.52-4.96-1.52c-2.34,0-5.53,0.98-7.53,5.58v-2.61h-1.7v-1.7h-32.08v4.72l1.7,0.35v1.35l1.43,0.29c0.09,0.51,0.16,1.21,0.16,2.16v36.76c0,2.49-0.48,3.3-0.68,3.53c-0.11,0.11-0.5,0.29-1.22,0.36l-1.39,0.14v4.85h1.7v1.7h31.34v1.06h3.96c0,0,0.37-1.76,0.46-2.2c0.16,0.11,0.33,0.23,0.33,0.23c0.87,0.64,1.81,1.14,2.76,1.47c0.96,0.33,1.93,0.5,2.88,0.5c3.99,0,7.04-2.07,8.83-6c1.63-3.58,2.46-7.44,2.46-11.47C169.79,133,169,129.25,167.45,126.18z M148.02,104.13c-0.91,2.81-1.39,5.8-1.39,8.92c0,3.69,0.56,6.86,1.67,9.43c1.11,2.56,3,5.15,5.64,7.71c0,0,0.44,0.42,0.95,0.91c0.25,0.26,0.48,0.52,0.75,0.79c0,0,1.6,1.54,2.26,2.17c0.83,0.9,1.26,1.51,1.46,1.88c0.65,1.2,0.98,2.82,0.98,4.83c0,1.74-0.33,3.42-0.99,4.99c-0.5,1.19-1.2,1.71-2.35,1.71c-0.38,0-0.75-0.11-1.12-0.32c-0.22-0.32-0.43-0.66-0.64-1.04c-1.31-2.39-2.28-6.37-2.88-11.82l-0.15-1.37h-1.51l-0.19-1.7h-4.09v15.89l-0.67-0.05c-0.1-0.52-0.18-1.23-0.18-2.18V108.1c0-2.51,0.49-3.26,0.64-3.43c0.03-0.03,0.26-0.3,1.36-0.47L148.02,104.13z M134.31,106.4c0,0,0,11.68,0,14.18c-1.25,0-3.09,0-4.68,0c0-4.07,0-12.48,0-12.48c0-2.46,0.49-3.25,0.7-3.48c0.02-0.02,0.34-0.29,1.44-0.41c0,0,0.78-0.09,1.12-0.12c0.39,0.05,0.96,0.12,0.96,0.12c0.12,0.02,0.19,0.04,0.3,0.05C134.24,104.77,134.31,105.46,134.31,106.4z M129.63,144.86c0,0,0-13.43,0-15.99c1.25,0,3.09,0,4.68,0c0,4.43,0,14.29,0,14.29c0,2.45-0.49,3.24-0.7,3.47c-0.08,0.1-0.38,0.35-1.37,0.41c0,0-0.77,0.05-1.15,0.08l-1.29-0.1C129.71,146.5,129.63,145.8,129.63,144.86z M195.24,133.44l0.16-1.7h-4.12l-0.25,1.24c-1.11,5.55-2.4,9.29-3.85,11.09c-1.31,1.64-2.87,2.44-4.76,2.44c-0.04,0-0.06-0.01-0.1-0.01c-0.02-0.26-0.03-0.55-0.03-0.91v-35.9c0-3.94,0.48-4.73,0.54-4.81c0.09-0.13,0.53-0.57,2.16-0.66l1.45-0.09v-4.9h-1.7v-1.7h-16.99v4.83l1.7,0.21v1.49l1.63,0.2c0.1,0.51,0.17,1.2,0.17,2.15v36.83c0,2.44-0.52,3.22-0.74,3.45c-0.07,0.07-0.37,0.31-1.33,0.37l-1.43,0.1v4.89h1.7v1.7h25.78l1.88-20.29H195.24z M152.56,162.56c0.09,0.03,0.2,0.04,0.3,0.04c0.71,0,1.1-0.35,1.1-1.07c0-0.61-0.33-1.01-0.95-1.01c-0.08,0-0.31,0-0.38,0.03c-0.08,0.01-0.07,0.07-0.07,0.15V162.56 M151.42,160.72c0-0.24-0.16-0.23-0.35-0.23h-0.22v-0.35h2.15c0.48,0,1.07-0.03,1.5,0.2c0.39,0.22,0.61,0.68,0.61,1.1c0,0.68-0.61,1.21-1.25,1.31c0.95,0.09,1.18,2.15,1.86,2.15v0.33h-0.82c-0.18,0-0.39,0.01-0.54-0.08c-0.26-0.16-0.48-0.75-0.6-0.99c-0.09-0.23-0.33-0.82-0.49-0.99c-0.15-0.2-0.31-0.18-0.52-0.18h-0.19v1.55c0,0.19,0.01,0.37,0.27,0.37h0.27v0.33h-2.29v-0.33h0.09c0.34,0,0.5,0.04,0.5-0.33V160.72z M149.2,162.79c0,2.18,1.69,3.92,3.88,3.92c2.18,0,3.85-1.74,3.85-3.92c0-2.15-1.67-3.89-3.85-3.89C150.89,158.9,149.2,160.64,149.2,162.79z M148.21,162.79c0-2.65,2.18-4.8,4.87-4.8c2.68,0,4.84,2.15,4.84,4.8c0,2.68-2.16,4.83-4.84,4.83C150.39,167.62,148.21,165.47,148.21,162.79z"/>
<path fill="#C0A45B" d="M57.1,148.58c1.51-0.02,2.49-0.54,2.94-1.54c0.45-1,0.67-2.51,0.67-4.52V106.4c0-2.09-0.26-3.47-0.77-4.13c-0.51-0.66-1.42-1.09-2.74-1.29v-1.91h9.98l7.8,35.27l0.33-0.01l7.75-35.26h9.84v1.91c-1.28,0.2-2.14,0.68-2.6,1.44c-0.46,0.76-0.69,2.62-0.69,5.58v33.57c0,2.83,0.23,4.67,0.69,5.55c0.46,0.88,1.33,1.36,2.6,1.46v1.91H79.94v-1.91c1.16-0.07,2.03-0.45,2.62-1.14c0.59-0.68,0.89-2.18,0.89-4.49v-37.19h-0.3l-9.7,44.73h-1.07l-9.82-43.95l-0.15,0.07v34.42c0,2.55,0.25,4.42,0.75,5.59c0.5,1.18,1.63,1.83,3.39,1.95v1.91H57.1V148.58 M95.31,132.75v18.81h1.17c0.12-0.82,0.26-1.44,0.4-1.89c0.15-0.44,0.43-0.66,0.84-0.66c0.1,0,0.23,0.03,0.4,0.09c0.17,0.06,0.34,0.14,0.51,0.23l0.77,0.54c0.78,0.57,1.57,1,2.37,1.28c0.8,0.28,1.59,0.41,2.38,0.41c3.41,0,5.89-1.7,7.43-5.1c1.55-3.4,2.32-7.01,2.32-10.84c0-4.1-0.72-7.58-2.17-10.45c-0.76-1.53-1.8-2.93-3.11-4.19l-2.93-2.82c-2.44-2.35-4.01-4.13-4.72-5.34c-0.73-1.19-1.1-2.98-1.1-5.38c0-2.01,0.38-3.71,1.14-5.1c0.76-1.4,1.8-2.1,3.11-2.1c1.87,0,3.45,1.39,4.74,4.18c1.29,2.79,2.21,6.1,2.74,9.95h1.01V97.8h-1.17c-0.12,0.77-0.26,1.38-0.42,1.85c-0.16,0.47-0.45,0.7-0.89,0.7c-0.19,0-0.95-0.42-2.27-1.28c-1.32-0.85-2.7-1.28-4.13-1.28c-2.79,0-4.86,1.61-6.2,4.84c-1.35,3.22-2.02,6.7-2.02,10.42c0,3.5,0.51,6.44,1.54,8.82c1.03,2.38,2.79,4.78,5.29,7.21l2.54,2.45c1.59,1.51,2.64,2.74,3.16,3.68c0.78,1.43,1.17,3.29,1.17,5.56c0,1.96-0.37,3.82-1.11,5.59c-0.74,1.77-2,2.65-3.77,2.65c-1.8,0-3.4-1.29-4.81-3.87c-1.41-2.58-2.43-6.71-3.06-12.39H95.31 M116.62,148.58v1.91h13.28v-1.91c-1.08-0.08-1.86-0.34-2.33-0.79c-0.79-0.8-1.18-2.34-1.18-4.63v-17.53h9.46v17.53c0,2.21-0.37,3.71-1.11,4.52c-0.47,0.53-1.27,0.83-2.4,0.9v1.91h13.28v-1.91c-1.02-0.08-1.73-0.35-2.16-0.83c-0.76-0.8-1.13-2.33-1.13-4.59V106.4c0-2.19,0.34-3.67,1.03-4.45c0.4-0.47,1.16-0.8,2.27-0.97v-1.91h-13.28v1.91c1.18,0.15,1.99,0.46,2.44,0.94c0.71,0.77,1.07,2.27,1.07,4.48v15.72h-9.46V106.4c0-2.22,0.37-3.72,1.11-4.52c0.47-0.47,1.27-0.77,2.4-0.9v-1.91h-13.28v1.91c1.16,0.22,1.94,0.56,2.33,1.01c0.64,0.77,0.96,2.24,0.96,4.41v36.76c0,2.23-0.36,3.75-1.07,4.55C118.4,148.19,117.66,148.48,116.62,148.58 M147.96,132.75v18.81h1.17c0.12-0.82,0.25-1.44,0.4-1.89c0.15-0.44,0.43-0.66,0.84-0.66c0.1,0,0.23,0.03,0.4,0.09c0.17,0.06,0.34,0.14,0.51,0.23l0.77,0.54c0.78,0.57,1.57,1,2.37,1.28c0.8,0.28,1.6,0.41,2.38,0.41c3.41,0,5.88-1.7,7.43-5.1c1.55-3.4,2.32-7.01,2.32-10.84c0-4.1-0.72-7.58-2.17-10.45c-0.76-1.53-1.8-2.93-3.11-4.19l-2.93-2.82c-2.44-2.35-4.01-4.13-4.72-5.34c-0.73-1.19-1.1-2.98-1.1-5.38c0-2.01,0.38-3.71,1.14-5.1c0.76-1.4,1.8-2.1,3.11-2.1c1.87,0,3.45,1.39,4.74,4.18c1.29,2.79,2.21,6.1,2.74,9.95h1.01V97.8h-1.17c-0.12,0.77-0.26,1.38-0.42,1.85s-0.45,0.7-0.89,0.7c-0.2,0-0.95-0.42-2.27-1.28c-1.32-0.85-2.7-1.28-4.13-1.28c-2.79,0-4.86,1.61-6.2,4.84c-1.35,3.22-2.02,6.7-2.02,10.42c0,3.5,0.51,6.44,1.54,8.82c1.03,2.38,2.79,4.78,5.3,7.21l2.54,2.45c1.59,1.51,2.65,2.74,3.16,3.68c0.78,1.43,1.17,3.29,1.17,5.56c0,1.96-0.37,3.82-1.11,5.59c-0.74,1.77-2,2.65-3.77,2.65c-1.8,0-3.4-1.29-4.81-3.87c-1.41-2.58-2.43-6.71-3.06-12.39H147.96 M169.27,148.58v1.91h22.84l1.59-17.21h-1.17c-1.16,5.82-2.55,9.74-4.15,11.75c-1.61,2.01-3.6,3.02-5.97,3.02c-1.33,0-2.23-0.27-2.69-0.82c-0.46-0.54-0.69-1.66-0.69-3.34V108c0-3.03,0.27-4.93,0.83-5.7c0.55-0.77,1.65-1.21,3.32-1.31v-1.91h-13.92v1.91c1.14,0.13,1.94,0.42,2.38,0.9c0.75,0.77,1.12,2.28,1.12,4.52v36.83c0,2.23-0.4,3.74-1.19,4.54C171.11,148.23,170.34,148.51,169.27,148.58"/>
</svg>