<?xml version="1.0" encoding="utf-8"?>
<svg xmlns="http://www.w3.org/2000/svg" width="215px" height="250px">
<polygon fill="#FFFFFF" points="204.87,41.02 101.78,93.85 10.13,169.21 107.28,249 204.87,168.82"/>
<g fill="#00205C">
	<path d="M198.53,194.28c-1.43,0-2.65-0.5-3.66-1.49c-1.01-0.99-1.52-2.2-1.52-3.61c0-1.4,0.51-2.61,1.52-3.62c1.01-1.01,2.23-1.51,3.66-1.51c1.42,0,2.64,0.51,3.65,1.51c1.01,1.01,1.52,2.21,1.52,3.62c0,1.41-0.51,2.61-1.52,3.61C201.17,193.78,199.95,194.28,198.53,194.28 M198.54,184.9c-1.17,0-2.17,0.42-3.01,1.26c-0.83,0.84-1.25,1.85-1.25,3.02c0,1.17,0.42,2.17,1.25,3c0.83,0.83,1.84,1.24,3.01,1.24c1.18,0,2.18-0.41,3-1.24c0.82-0.83,1.24-1.83,1.24-3c0-1.17-0.41-2.18-1.24-3.02C200.72,185.32,199.72,184.9,198.54,184.9 M201.17,192.33h-1.51l-0.62-1.48c-0.32-0.74-0.66-1.11-1.03-1.11h-0.37v2.59h-1.23v-6.42h1.93c0.8,0,1.42,0.16,1.85,0.47c0.43,0.31,0.65,0.74,0.65,1.28c0,0.44-0.13,0.81-0.4,1.12c-0.26,0.31-0.66,0.52-1.17,0.63v0.03c0.36,0.07,0.71,0.47,1.07,1.19L201.17,192.33z M197.63,186.94v1.83h0.7c0.79,0,1.18-0.31,1.18-0.92c0-0.31-0.11-0.54-0.32-0.69c-0.21-0.14-0.55-0.22-1-0.22H197.63z"/>
	<polygon points="1.34,1 10.13,31.35 10.13,168.79 10.11,169.23 10.14,169.21 10.13,169.21 101.78,93.85 117.44,112.92 204.87,41.02 204.87,31.35 213.66,1"/>
</g>
<path fill="#DC0032" d="M164.46,170.1l-76.57,62.97l-19.44-15.96l80.34-66.07L164.46,170.1z M204.87,136.87l-40.41,33.23l15.67,19.06l24.74-20.34V136.87z M117.43,112.92l-87.87,72.26L49,201.15l84.11-69.17L117.43,112.92z M148.78,151.04l56.08-46.12V72.97l-71.76,59.01L148.78,151.04z"/>
<path fill="#FFFFFF" d="M146.35,32.81c0-0.72-0.21-0.93-0.93-0.93h-6.75c-0.72,0-0.93,0.21-0.93,0.93v2.78c0,0.57,0.16,0.72,1.08,0.98l10.3,2.58c5.05,1.29,7.42,2.27,7.42,7.42v6.64c0,4.74-2.27,7-7,7h-14.58c-4.74,0-7.01-2.27-7.01-7v-4.94h9.68v3.3c0,0.72,0.21,0.93,0.93,0.93h7.36c0.72,0,0.93-0.21,0.93-0.93v-3.14c0-0.57-0.26-0.72-1.08-0.93l-10.3-2.63c-5.05-1.29-7.42-2.27-7.42-7.42v-6.28c0-4.74,2.27-7,7-7h13.96c4.74,0,7.01,2.27,7.01,7v4.58h-9.68V32.81z M37.69,60.21h5.7V38.17l17.31,22.04h9.33h0.05V46.06h12.31v-7.94H70.08v-6.02H85.7v-7.94H70.03h-0.74h-8.58h-2.87v7.94h2.87V46.2L43.39,24.16H42.6h-8.58h-2.87v7.94h2.87v20.18h-2.87v7.94h2.87H37.69z M101.51,60.21h2.05v-7.94h-2.05v-6.93h11.05v6.93h-2.45v7.94h2.45h9.37h2.12v-7.94h-2.12V32.09h2.12v-7.94h-2.12h-9.37h-2.45v7.94h2.45v5.98h-11.05v-5.98h2.05v-7.94h-2.05h-9.37h-2.51v7.94h2.51v20.18h-2.51v7.94h2.51H101.51z"/></svg>