<svg xmlns="http://www.w3.org/2000/svg" viewBox="0 0 311 105" height="105" width="311"><style>.st0{fill:#fff}.st1{fill-rule:evenodd;clip-rule:evenodd;fill:#939598;stroke:#010101;stroke-width:.4834;stroke-miterlimit:1}.st2{fill:url(#SVGID_1_)}.st3{fill:url(#SVGID_2_)}.st4{fill:url(#SVGID_3_)}.st5{fill:url(#SVGID_4_)}.st6{opacity:.5}.st7{fill:#231f20}.st8{fill:url(#SVGID_5_)}</style><path class="st0" d="M16.5 11.2h9.8l29 48.8h.2L63 13.2h13.6L65.3 84.3h-9.8L26.4 35.5h-.2L18.8 83H5.2m161.4-54.5c-2-3.5-5-5.7-9.6-5.7-4.4 0-9.1 3.3-9.8 7.8-1.8 11.8 26.6 6.9 22.9 30.3-2.2 14-12.5 23.9-26.8 23.9-9.7 0-15.8-5.5-19.3-13.6l10.2-8.6c1 5.4 5.1 10.2 11 10.2 5.5 0 9.8-4.7 10.5-10.1 1.2-7.3-5.2-9.3-10.3-11.4-8.4-3.7-14.2-8.2-12.6-19 1.8-11.6 11.9-20.9 23.7-20.9 6.2 0 14.3 3.1 17.9 7.7m8.7 63.9h-13.6l11-69.8h13.7"/><path class="st0" d="M205.1 68.2l-8 14.7h-14.3l38.6-71.6h10.5L247 82.9h-14.5l-3-14.7m-6.9-36.5h-.2L210.7 57h16.5l-4.6-25.3z"/><path class="st0" d="M263.4 68.2l-8.1 14.7H241l38.6-71.6h10.5l15.2 71.6h-14.5l-3-14.7m-6.9-36.5h-.2L269 57h16.5l-4.6-25.3z"/><path class="st1" d="M100.2 2.7c.1.1.1-.2.2-.2 0 .1 0 .1 0 0 0 .1-.1.2-.2.2 0 .1.2 0 .1.2.1.1.1-.1.2-.1 0-.1-.1 0-.3-.1.1 0 .1 0 0 0 .2-.1 0 .1.2 0 .1 0-.1-.1 0-.2 0 .1.2 0 .2.1.1 0 .1-.1.2-.1-.1-.1-.3.1-.2-.1-.1 0-.1.1-.1.1s-.1 0-.1-.1v-.1c.2 0 .3 0 .3.1v-.2c.1 0 .1.2.1 0v.1c.1 0 .1-.2.1 0 .2-.1-.1-.2-.1-.3 0 0 .1.1.1 0 .1 0 0 .2 0 .3.1 0 0-.2 0-.3.2.1.1-.2.2-.2-.1.2 0 .1.1.2 0 0 .1-.2 0-.1h.2c0 .1-.1.1-.1.2.1 0 .3-.1.2.1.1 0 .1 0 .2-.1.1.1 0 .2-.2.1v.2-.1c.1 0 .2 0 .1.1.1 0 .1-.2.3-.1 0 .1 0 .2-.1.2 0 0 .1 0 .1-.1s-.2 0-.1.1.2.1.2.2c.1 0 .2-.1.3 0v-.1c.1.1.2.1.4.1 0 .2 0 .2.2.2 0 .1-.1 0-.2 0 .1.1.4.1.4 0 0 .1 0 .1.2 0 0 .1.2.2 0 .2 0 .2.2 0 .3 0l-.2.2c.2-.1.2-.1.3-.2.1.2-.1.1-.1.2h.3c0 .1.2.3 0 .3.1.1.2-.1.3 0 .1 0 0-.2.2-.2 0 .1-.1.1-.1.1 0 .1.3-.1.2.2.1 0 .1 0 .2-.1.1.1 0 .2-.2.1v.2-.1c.1 0 .2 0 .1.1.1 0 .1-.2.3-.1 0 .1 0 .2-.1.2 0 0 .1 0 .1-.1s-.2 0-.1.1c.2.1.3.4.7.3 0-.1-.2 0-.4 0 0-.1.3-.1.4 0-.1-.1-.4 0-.5-.2v-.2c.1 0 0 .1.1.2.1-.1.3 0 .5 0 0 .1 0 .2-.1.2 0 0 0-.1.1-.1v.1c.1-.1.3.1.2.2v-.1c-.1 0 .1.1 0 .2.1 0 .1-.1.2-.1s0 .2-.1.1c.1.1.2-.1.1-.2.1-.1.1.1.2.1 0-.1 0-.1-.1-.1.1-.2.1.1.2.1 0 .1-.1-.1-.2 0 .1.2.2-.1.4 0-.1.1.1.2 0 .2.1.2.3.2.2 0 .1-.2.2.1.1.2.2.1 0-.3.2-.2 0 .1-.1.1 0 .2.1-.1.2 0 .4 0 0 .1.1.2 0 .3.1 0 0-.1.2-.1 0 .1 0 .1-.1.1h.1V5h.2c0 .1-.1.1-.1.1s.4.1.4 0c0 .2.2.2.1.3.1 0 .1 0 .1-.1.1.1 0 .1.2 0 0 .1-.1.1 0 .1 0 .1-.1 0-.1 0 .1.1.1 0 0 .2.1.1.3-.2.4 0 .1-.2-.2-.1-.3 0 0-.1.2-.1.4-.1 0 .1 0 .2-.1.2 0 0 0-.1.1-.1v.1c.1-.1.3.1.2.2v-.1c-.1 0 .1.1 0 .2.1 0 .1-.1.2-.1s0 .2-.1.1c.1.1.2-.1.1-.2 0-.1.2 0 .3 0V6c.1 0 .1-.1.2 0 0 0-.1.1 0 .2.1 0 0-.2.2-.2-.1.3 0 .2.2.3h-.1c.1.1.2-.1.4 0 .1 0 0-.1.1-.1 0 .1.1.1.4.1 0 0 0 .1 0 0 .1 0 0 .1 0 .2-.1-.1 0-.1-.1 0 .1.1.2 0 .3.1.1-.2-.2 0-.1-.2h.2c0 .1.1.1.1.2 0-.1-.1 0-.1-.2.1.1.4.3.2.4h.1c.1 0 .1-.2 0-.2 0 0 .3.2.2.3.2 0 .1 0 .1-.1h.2v.1c0 .1-.1 0-.1 0 0 .3.8.2.2.2 0 .1.3-.1.3.1h-.3c.2.1.4-.1.5 0-.2.1 0 .1.1 0-.1.1.1.2 0 .2.1.1.2-.1.4 0-.1.2.1.3.2.2.1 0 0 .2 0 .3 0 0 .1.1.3.1 0-.1-.1 0-.2 0-.1-.1.3 0 .3-.2.1 0 0 .2-.1.2h.4s0 .1 0 0c.1 0 0 .1 0 .2-.1-.1 0-.1-.1 0 .1.1.2 0 .3.1.1-.2-.2 0-.1-.2h.2c0 .1.1.1.1.2 0-.1-.1 0-.1-.2.1 0 .1.1.1.2h.4v.3c0-.1.1-.1.4-.1 0 .2 0 .2.2.2-.1.2-.2 0-.3 0 0 .2.2.1.3.2 0 .1-.1.1-.1.1 0 .1.1 0 .2 0-.1 0-.1-.1-.1-.3.1.1 0 0 .2 0-.1.1.1.2 0 .2 0 .1.1-.1.2 0 0 .1-.1.1-.1 0-.1 0 .1.1 0 .2.2 0 .2-.1.2-.2.1 0 0 .1 0 .2.1-.1.2 0 .3 0v.2c-.1 0 0-.2-.1-.1-.1 0 0 .1 0 .1 0 .1.1-.1.1.1-.2 0-.2 0-.1-.2-.1.1-.1.1-.2 0 0 .1.2.1 0 .2h.5c-.1.1-.1.1-.1.3.1 0 0-.3.2-.3 0 .1.1.1 0 .2 0 0 .4-.1.4 0h-.3c.3.1.4.1.7.1-.1.2.1.2.4.2-.1.2.1.2.3.2v.3c0-.1.1-.1.4-.1 0 .2 0 .2.2.2-.1.2-.2 0-.3 0 0 .2.2.1.3.2 0 .1-.1.1-.1.1 0 .1.1 0 .2 0-.1 0-.1-.1-.1-.3.1.1.1 0 .2 0-.1.1.1.2 0 .2 0 .1.1-.1.2 0 0 .1-.1.1-.1 0-.1 0 .1.1 0 .2.2 0 .2-.1.2-.2.1 0 0 .1 0 .2.1-.1.3-.1.3 0s0 .1 0 0c-.1-.1-.3.1-.4 0 0 .1.2.1 0 .2.3 0 .3-.1.5 0-.1.1-.1.1-.1.3.1 0 0-.3.2-.3 0 .1 0 .2.2.2 0 .1-.1.1 0 .2.1 0 .1-.1.1-.2.1.1 0 .3.2.2 0 .1.1.2 0 .3 0 .1.1.1.2.1 0-.1-.1 0-.1-.2.2 0 0 .2.2.2v.3c.1-.1.1 0 .4 0 0-.2-.1.1-.1-.1h.1c.1.2-.1.1-.1.2.1 0 .2 0 .3.1-.1.1-.1 0-.2 0 0 .1.1.1.1.2.1 0 .1-.1.3-.1 0 .2 0 .2-.1.2.1.1.4-.3.5 0v-.1c-.1.1 0 .1-.2 0 0 .1.2 0 .2.2.1-.1.1.1.2 0 0 .1.1.1.1.2.2.1.3.2.4 0 0-.1-.2.1-.1-.1.1.1.1 0 .2 0 0 .1-.1.1-.1.2.1-.1.2 0 .3 0 0 .1-.1.1-.1.2.1 0 0-.1.1-.2.1 0 0 .3-.1.2.1.1.1 0 .2 0 0-.1-.1 0-.1-.2 0 .1.1.1.2.2.1 0 .1-.2.1 0v-.1c.1.1.2.1.4.1 0 .2.1.2 0 .3.1-.1.2-.2.4-.1 0 .1-.1 0-.1 0 0 .1.2 0 .1.2.1 0 .2-.1.4-.1v.2c-.1 0-.1-.1 0-.1h-.1s0 .1.1.1c-.1.1-.1-.1-.2 0 0 .1.1 0 .1.2.1-.1.4 0 .4-.1.1 0 .1.2.2.3.1-.1-.1-.3.1-.3-.1.1 0 .1 0 .2.5 0 .2 0 0 .1.2.1.6 0 .7 0 .1 0 0 .1 0 .2.1 0 .2-.1.4 0 0 .1-.1.1 0 .2h.3c-.1.1.1.2 0 .3.1 0 .1-.1.3-.2 0 .1-.1.1-.1.2h.3c0-.1 0-.1-.1-.1 0-.1.1 0 .2 0v.2c.2-.1.3.2.3 0 .1.1 0 .1 0 .2 0 0 0-.1-.1-.1-.1.2.2 0 .4 0 0 .1-.2 0-.2.1s.1-.1.2 0c0 0-.1 0-.1.2.2-.2-.1.3.2.1h-.1c.1-.1.6-.1.6.1.3-.2.2.1.4-.1-.1.2 0 .1.1.3-.1-.1 0 .1-.2.1.1 0 0-.2.1-.2-.1 0 0-.1 0-.1-.2 0 0 .2-.1.3 0 .1.1-.1.1.1.1-.1 0-.3.2-.2v.2c-.1.1-.1-.1-.1-.2-.1.1 0 .3.1.3-.1.5.1.8.2 1.1-.1-.2 0 0-.1.1.1-.1.1.1.1-.1 0 .1 0 .2.1.3-.1 0-.1-.1-.2-.2-.1.1.2.1.1.3.1 0 .1 0 .1-.1.1.1.1.3.1.6.1-.3 0 .2.2.3-.1 0-.1-.1-.1-.2-.1.1 0 .2 0 .3h.1c.1.1.1.2.1.3 0 .1-.1-.2-.1-.2-.1.4.3.5.1.9.1 0 0-.1 0-.2 0 .3 0 .5.2.7v-.1c-.1 0 0 .2-.1.2 0-.1.1-.2 0-.2-.1.1 0 .4 0 .5.1-.1.1-.2.1-.3.1 0 .1.1.1.2v-.1c-.1.1-.1.4-.2.2.1.1-.1.2 0 .3.1 0 .1-.1.1-.2.1.1.1.2.2.2 0 .4-.1 1 0 1.5.2 0 .1-.2.2-.2-.1.2.1.4.1.7-.1-.1-.1.1 0 .3.1-.3 0-.1.1.1 0 .1-.1 0-.2 0 0 .1.1.1.2.1 0 .1.1.5-.1.4.2.1 0 .4.2.6-.2 0-.2.1-.2.2-.1 0 .1-.1-.1-.1-.1 0 0 .2-.2.2.2-.2-.1 0-.2 0-.1.1 0 .1 0 .3h-.2c0 .1.1 0 .2 0v-.2h.2c-.1.1-.2 0-.2.2-.3 0-.3.1-.5 0 0 .1.1.1.2.1-.2 0-.1.2-.3.2.1-.1 0-.2.1-.4h.2c-.1-.2-.3.1-.4 0-.1.1 0 .2 0 .4V25c0 .2 0 .4-.2.5-.1 0 0-.1 0-.2-.2.1.2.3 0 .4 0-.1 0-.1-.1-.2v.4c-.1 0-.1.1 0 0 0 .1-.2.1-.2 0-.1 0 0 .1-.1 0v.4c.1.1.2-.1.1-.2.1-.1.1.1.1.2-.1 0-.2-.1-.2.2h-.2l-1-.5c.1-.1.2-.1.3 0 0 .1-.1 0-.2 0s0 .2-.2.2c.1.1.1.1-.1.2 0 .1.1 0 .1.2-.1-.1 0 0-.2 0 .1-.1 0-.1 0-.3h-.1c-.1.1.1.2 0 .4h-.1c.1.2 0 .1.1.3h-.2c0 .1.1.1.1.3-.1 0-.2.1 0 0h-.1c0-.1.2-.1.1-.3 0-.1-.1 0-.1-.1-.1 0 .1.1 0 .2.1-.1-.1.3 0 .6-.1-.1-.3.1-.3 0v.2c-.1.1 0 .5 0 .7h-.2c0 .1.1 0 .1.2h-.2c0 .1 0 .1.1.1-.1.1-.2.3-.3.1-.1 0 .2.4-.1.3 0 .1.2 0 .2.1.1-.1 0-.4.2-.4-.2.1-.1.4-.1.5-.1 0-.2-.2-.3-.1 0 .1.1.1.1 0-.1 0 0 .5-.2.4 0 .1.1.2.2.1.1 0 0 .1-.1.1 0 .1.1.4-.1.3.1-.1.2-.5-.1-.5.1.2.1.3 0 .5-.2-.2-.1 0 0 .2-.3 0-.8.2-1.1 0 0 .1.1 0 .1.2-.1-.1-.2.1-.2.1 0 .1-.1 0-.1-.1-.1.1-.4.1-.5.1.1.2.4 0 .6.1-.1.1-.5.1-.7 0-.1 0 0 .1 0 .2-.6 0-1.4-.1-1.7 0 .1-.1 0-.2 0-.2.3.2 1.2.1 1.7.1-.4-.1-1.2.1-1.5-.1.5-.1 1.3.1 1.5-.1-.5.1-1.4.1-1.8 0 .2.1-.1.3 0 .6-.2-.1-.1.2-.2.2v-.2c-.2 0-.2.3-.2.4-.1 0-.1-.4 0-.4 0-.1-.1.1-.2 0-.1.3-.2.5 0 .6 0 .1-.1.1-.2.1 0-.1.2-.1 0-.1-.1 0 0 .1-.1.1-.1.1 0 0 0-.1h-.2c0 .1.1.1.1.2.1 0 .2 0 .2-.1.1.1-.1.1-.2.1v-.1c-.1.1.1.2 0 .3h-.3c-.1 0 0 .3-.1.2-.1-.1.1-.1.1-.3 0 .1-.2.1-.3 0-.1 0 0 .2.2.1 0 0-.2.2-.2 0-.1 0 .1.2 0 .3 0 .1.1 0 .1 0 .1 0 0 .1 0 0-.1 0-.1.1-.1.2s0 .1.1.1c-.3-.1 0 .3-.3.4.1-.1 0-.1.1-.2v-.1c-.1 0-.2.2-.3.1-.1 0 .2.3 0 .3v-.3c-.1.1 0 .3.1.3.1-.1.1-.3.2-.4.1.1-.1.4-.1.5-.1 0-.1-.2-.2-.2-.1.3 0 1.2 0 1.7-.2 0-.3.1-.3.3-.1-.1-.1 0-.2.1-.1 0 0-.1-.1-.1v.1s.1.1.2 0v.2l-.1-.1c-.1.1 0 .1-.1.1s0-.1 0-.2c-.1.1-.1.3-.3.2 0 .1.2 0 .1.2h-.2c.1-.1 0-.1 0-.2-.1.1 0 0-.2 0 0 .1 0 .1.1.1-.2 0-.2.1-.2.2h-.1.1v-.1c-.2.2-.5.1-.7.1 0 .2.3.1.4 0v.2c0-.1-.1-.1-.3-.1.2.1 0 0-.2 0 .2.3-.1 1.1.2 1.2-.1 0-.2-.1-.2-.1v.2c.1 0 .2-.2.2 0-.1-.1 0 .1-.2 0 0 .3.1.3.3.4.1-.1-.1 0-.1-.2.1.1 0 0 .2 0-.1.1 0 .1 0 .2h-.1c.1.2-.1.4.1.6.1 0 .1-.1.1-.3-.1 0 0 .2-.1.2-.1-.2.1-.2.1-.4.1.1 0 .3.2.4.1 0 0-.2-.1-.2 0-.1.1 0 .2 0 0 .1 0 .2.2.2 0 .1.1.2 0 .2.1 0 .1-.1.1-.1s-.1.2-.1.4c.1-.1.1 0 .2 0-.1.1-.2 0-.2.2.1 0 .1-.1.3-.1 0-.2-.1-.1 0-.2.2 0 0 .2 0 .3 0-.1.4-.2.4 0v-.1h-.2c0 .1.3 0 .2.2V39c.2 0 0 .1 0 .2.1.1.2 0 .4 0-.2-.1.1-.1.2-.1v.2c.1-.1.2 0 .4 0v.2s.1-.1.2 0c0 .1 0 .2.1.2-.1-.1.4-.1 0-.2 0-.1.1 0 .2 0v.2h.2c0 .1-.1.1-.1.2.1 0 .1-.1.1-.2h.1c.2 0 .1.3-.1.3 0-.1.2-.1.1-.3-.1 0-.1.2-.2.2 0 .1.2.1 0 .1.1.1.4-.1.3.2l.1-.1c.1 0-.1.1 0 .2h.1c1.3.1 2.6-.1 3.9 0 .1 0 .4-.1.4.2-.1 0 0-.1-.1-.1-1.2.1-2.9.1-4.1 0 0 0 0 .1-.1.1 1.3 0 2.9.1 4.2 0 .2 0 .1.2.4.1-.1 0-.2.2 0 .2h-.1c0 .1.1 0 .2 0 0-.1-.1-.1-.1-.2.2-.1.1.2.3 0 .1.1 0 .1 0 .2-.2 0 0-.2-.1-.2s0 .1 0 .2.2.1.3.1c-.1.1.1.2 0 .5.1 0 0-.3.2-.3 0-.1-.1.1-.2 0 0-.1.1 0 .2 0 0 .1 0 .1-.1.1.1.1.5.1.5.1.1.1-.4.1-.5 0-.1 0 .1.1-.1.1.1-.1.6.2.7-.1.1 0 0 .2.1.1 0 .1-.1 0-.1 0 0 .2.5-.1.7.1 0 .1-.1.1-.2.1 0 .1.1.1.1.2.1 0 0-.1.1-.2h.3v.2h.4c-.1-.5 0-1.6 0-2.4h1v.2c.2.1.1.1.1.3 0-.1.2 0 0 .1.1.1.1 0 .2 0v.7c.1-.1.1-.5.1-.1 0 .1-.1.1-.1.2s.1-.1.2 0c-.1-.2 0-.6 0-.1.1.1.1.1.2.1-.1.1-.4.1-.4.3.1-.1.3 0 .3-.1s-.1.1-.2 0c0-.1.1-.1.2-.1 0 .3-.1.6 0 .7.1-.2.1.1.2.2-.1 0-.1.1-.2.1 0 .1.2.1 0 .1.1.1.3 0 .4 0v5.4c-.1.1 0 0-.2 0 .1.1 0 .1.1.2-.1 0-.1-.1-.1-.2h-.1c0 .1.1.2.1.3-.1 0-.1-.1-.1-.2-.1.1.1.4 0 .5.1-.2.1-.5.1 0 .1 0 0-.3.1-.4.2 0 0 .3.1.5h-.2c0-.1.2 0 .2-.1-.1-.1-.3 0-.2.1.1 0 .1.3.1.5v-.1c0-.1-.1.1-.2 0 0 .1.1.1 0 .2h.2c0 .1-.1.1-.2.1.1.1 0 .4 0 .6v-.2c-.1.1-.1.1 0 .2h-.2c.1.1 0 .2 0 .4-.1 0-.2.1-.2 0 .1.1 0 .2.1.3 0 .1-.2 0-.2 0 .1.2-.1.4 0 .4-.1.1-.4 0-.3.2.1 0 .1-.1.1-.1.1.1 0 .1 0 .2h-.2c-.1.2.2 0 .2.2-.1-.1-.2.2-.2.4-.2 0-.2.1-.3 0 .1.1.1.2.1.4-.1-.1-.1-.3-.1 0 0 0 0-.1-.2-.1.2.2-.3-.1-.1.2v-.1c.2.1-.1.9 0 .3V52s-.1.5.2.4c.1 0 0-.2 0-.3-.1 0 0 .4-.1.3 0-.1-.1-.3.1-.3v.5c0-.1-.2-.1-.3-.1 0 .1.1.1 0 .2 0 .1.1-.1.2 0 0 .1-.1.1-.2.1 0 .1.1.6-.1.5 0-.1.1-.1.1-.2-.1 0-.1.2-.2.1h.1c0-.1-.1.1-.2 0 0 .1.1.1.1.2s-.2 0-.1-.1c-.1.1.1.2.2.1.1.1.1.5 0 .7-.1 0-.1 0 0 0 .1-.1 0-.4 0-.5 0 .2-.2.4 0 .5-.2.1 0-.2 0-.5-.1.3-.1.4-.1 0-.1.2 0 .6 0 .6v3.7c-.1 0-.1.1-.2.1-.1.2-.1.5-.1.9.2 0 .1-.5.1-.7.2.1.1.7 0 .8h-.1c-.1 0 0 .1 0 .2.1 0 .1-.1.2 0 0 .1-.1.1-.2.1v1c-.2 0-.1.2-.3.2.1.1.1.4 0 .5.2.1.1-.4.1-.5.2.1 0 .4.1.6h-.2v.5c-.1 0-.2.1-.2 0 0 0 0 .1-.1.1.2 0 .1.3.1.5-.1-.1 0-.1-.1-.2-.2.1-.3.2-.2.5.1-.1 0-.5.2-.4-.1 0-.2.2-.2.4.1-.4.1-.3.1.1h-.2c0-.1.2 0 .2-.1-.1-.1-.3 0-.2.1.1 0 0 .4.1.6-.1 0-.1-.1-.2-.2 0 .1.1.1-.1.2 0 .1.1-.1.2 0 0 .1-.1 0-.1 0-.2.2 0 .7-.1 1.1-.1-.2-.1-.8 0-1 0-.1-.1-.1-.2-.1-.1.2 0 .7 0 1.1.1-.1 0-.3 0-.4v-.5c.1 0 0 .6 0 .8-.2.2.1.7-.1 1 0 0 .1 0 .1.1-.1 0-.3-.2-.3 0 .1 0 .1 0 .1-.1.1.1 0 .6 0 .9h-.2v-.3.3c.1-.2 0-.5.1-.7-.3.1-.1.7-.2 1-.2-.1-.1.2-.2.1h.1c0 .5-.1.5 0 0h-.2c.1.1.1.2.1.4-.3-.1 0 .4-.2.4 0-.1.1-.3 0-.4-.1 0 0 .2 0 .4-.1-.2-.3-.6-.2-.8-.1 0-.1.1-.2 0 0-.1.1.1.2 0-.1-.3 0-.7 0-1.1.4.1 0-1.2.2-1.5v1.2c0 1.2 0-1.3.1-1.2 0-.1-.1 0-.1 0-.1 0 0-.2.1-.1v-5.3c0-.1-.1 0-.2 0v-.3c.1-.1 0 .3.2.2-.1-.1 0-.3 0-.4s-.2.1-.3 0c-.1.1.2.2 0 .2 0-.1-.1-.1 0-.2-.3-.1-.5.2-.6.2.1.1.1.1.1.3.1 0 0-.1.1-.1v.2c-.1 0-.1-.1-.1-.1-.1 0 0 .2 0 .2 0 .1 0 0-.1 0 .1.1 0 .1-.2.2v-.1.1-.1c-.3.1-.1.2-.2.4.1 0 .1-.1.1-.2h.1v-1h-.1.1c0 .1-.2.1 0 .1 0 .1-.2 0-.2.1h-.2c0 .1-.1.1-.1.3.1 0 .1-.3.3-.2 0 .1-.1.1-.2.1 0 .1.3 0 .2.1h-.2c0 .3-.2.4-.2.7-.1 0 0-.2 0-.3h-.1c.1 0 .1 0 .1.2-.1-.1 0-.1-.2-.1 0 .2.2.2 0 .3h.1c.1.6-.1 1-.1 1.4.1 0 0-.2 0-.3.1 0 .2 0 .2-.1.1.2 0 .6.1.7 0 .1.1-.1.2 0 0-.1 0-.2-.1-.2 0-.1.1 0 .2 0v.3h-.1c0 .2.1.2 0 .3.1 0 .1-.1.1 0 0 0 .1-.1.2-.1 0 .1-.2.1 0 .1v.4c-.1-.1-.3 0-.3.1.1.2.1.5.1.9-.5-.1-.4.9-.4 1.2h.1v.5c-.1-.1 0-.1-.1-.2-.1.1-.2.2-.4.3.1.2 0 .2-.1.3-.1-.2-.1 0-.2 0v.2c-.1.1-.4.3-.4.4.1 0-.1.1-.1-.1-.1 0 0 .2.1.2-.2 0-.1.1-.2.2 0-.2.1-.2.1-.3-.2-.1-.1.3-.2.2 0 .1-.1.3 0 .4-.1.1-.1 0-.2 0 .1-.2 0-.2.2-.4 0-.1-.1-.1-.1-.1-.2.3-.1.4 0 .7-.1 0 0-.1 0-.2v.1c-.1-.1-.1 0-.3 0 .1.1.1.1.1.3-.1 0-.1-.1-.1-.2-.1.1 0 .2 0 .3 0 .1-.1 0-.1 0v2c0 .1.1.4-.1.5 0-.2.1 0 .1-.1-.1-.1-.3.1-.3 0-.1.1 0 .3 0 .4.1-.2 0-.4.1-.1-.1.1-.2.3-.1.3 0 0-.2-.1-.2.1.1-.1.2.3 0 .3 0-.2 0-.3-.1-.5 0 .2-.1.6 0 .8-.1 0-.3 0-.3.1s.2-.2.3 0c-.3.1-.3.5-.4.7-.1 0-.1 0 0 0s.1-.3 0-.3 0 .3-.1.3-.1-.2-.1-.3c-.1.2 0 .4 0 .6 0 .1-.1 0-.2 0 0 .1.1.2.1.4v-.2c-.1 0-.1.1-.1.2-.1 0-.1-.2 0-.2v-.2c-.1 0 0 .2-.1.2s0-.2 0-.2c-.1 0-.1.3 0 .3 0 .1-.3.1-.3 0h-.1c0 .1.2 0 .1.2h-.1c.1.1 0 .2 0 .4.1 0 0-.2 0-.3.1 0 .1-.1.2-.1-.1.1.1.4-.1.4V72c-.1.2-.1.4-.1.7h-.2l-.1.1c.1.2 0 .2 0 .5-.2-.1-.1.2-.2.1.1 0 .2.3 0 .3 0 0 .1-.3-.1-.2 0 .1 0 .1.1.1-.2.1 0 .6-.2.5.1-.1.1-.2.1-.5h.1c-.1.3-.1.4-.1.7.1 0 .1-.1.1-.1.1 0 0 .2 0 .3 0-.1-.2-.2-.4-.2 0 .1.1.1 0 .2 0 .1.2-.1.3 0-.1 0-.5.2-.4.2-.1.1-.1-.1-.2 0-.1 0 .2.2 0 .2-.1 0 .1-.3-.2-.2 0 .1.2 0 .1.2-.1 0-.2-.1-.2-.1v.2-.1c.2.1-.1.2-.2.3-.1-.2-.2.2-.4.3 0 .1 0-.1.1 0v.1c0 .1-.1 0-.2 0 0-.1.1-.1 0-.1 0 .1-.2.2-.3.3.1-.1 0-.2 0-.3 0 .1.1 0 .1.2-.2-.1-.1.3-.4.2 0 .1.1.1 0 .2h-.3c0 .1.2.1.1.2h-.2.1c0-.1-.1-.1-.1 0-.1 0 0 .1 0 .2h-.2c.1.1 0 .1-.1.1v.2-.1c.1.3 0 .7 0 1 .1-.3 0-1 0-1.1.2.2 0 .8.1 1.1-.2.1-.8 0-1.2 0-.1-.1 0-.1 0-.2.1 0 .1.1.1.1 0-.1-.1-.1-.1-.2-.1 0 0 .2-.2.2 0-.1.1-.1.1-.1-.1-.1-.3 0-.5 0 0-.2-.1-.2 0-.3-.1.1-1 .2-1 0-.1 0-.1.2-.2 0v.4c-.1-.1-.3.1-.3 0-.1.2.1.3 0 .5.2 0 0-.2.1-.2s0 .2 0 .3h-.2c.1.2-.1.3 0 .4-.1 0-.1-.2-.2-.2-.1.1 0 .2 0 .4.1 0 .1-.1.1-.1.1.2-.1.3-.1.5.1 0 .1.1.3.1 0-.1-.2-.1-.2-.2v-.2c.1 0 .1.1.1.2.1 0 0-.3.1-.2-.1.2.1.4.3.3 0 .1-.1.1-.2.1 0 .1.3 0 .2.1-.2 0-.2-.1-.3-.2-.2.1.1.2 0 .3.1 0 .1-.1.3 0v.2c.1 0 0-.2.2-.1-.1.1.2.2 0 .5-.1-.1.1-.2 0-.3-.1 0-.1.2-.1 0-.1.1.1.2 0 .3.1.1.3.1.3 0 .1.4 0 .6.1 1 0-.1.2-.5 0-.4 0-.1.1 0 .2 0 0 .2-.1.4 0 .5-.1.1-.1-.1-.2 0v-.3c-.1.1 0 .4 0 .5.2-.2-.1.3.2.1h-.1c0-.1.3-.1.3 0-.1.1-.3.2-.4.1V81c.1-.1 0 .3.2.3 0-.1.1-.2 0-.3.1-.1.1-.1.3-.1 0 .1-.1.1-.2.1.1.1.1.3 0 .4-.3-.1-.2.2-.2.3-.1 0-.1-.2-.1 0v-.1c-.1 0-.1.2-.1 0-.2.2.2.2.1.4-.1 0 0-.1-.1-.1 0 .1-.2.1-.1.3-.1 0-.2 0-.2.2-.1-.1-.1-.2-.2-.2s-.1.1-.2 0c-.1 0 .1.2 0 .3-.1 0-.1-.2-.1-.2-.1.1.1.2 0 .3-.2 0-.1-.1-.3 0v.2c.1-.2.1.1 0 .2-.2 0 0-.1 0-.1h-.2c.2.1-.1.1.1.1-.1.1-.2-.1-.1-.2-.2-.1 0 .3-.2.2v.1c-.1 0-.1-.1-.1-.1v.3c-.1 0-.4-.1-.4.2-.1 0-.1-.1-.1-.2-.1 0 0 .2-.1.1-.2 0 0-.1 0-.2-.3-.1-.1.3-.3.4-.1-.1 0 0 0-.1-.1.1-.2.1-.4.1 0 .1.3-.1.2.2-.1 0-.1-.1-.1-.1-.1 0 0 .1-.2.1 0 0 .1.3-.1.2h.1c-.1-.1-.1 0-.2 0 .2.1-.1 0 0 .2v-.1c-.1 0 .1.3-.2.2 0 .1.2 0 .1.1h-.2c-.1.1 0 .1 0 .2-.2 0-.2-.2-.4-.2-.1.2.1.1.1.2s-.2 0-.2-.1c-.2.1.2.3.2.1.2.1-.2.2-.2.1 0 .1.1.1.1.2-.1-.2-.2.1-.2.2-.2 0 0-.1 0-.2-.1 0-.1.1-.2.2.1 0 0 .1 0 .2-.1.1-.2 0-.3 0-.1 0 .1.2 0 .2-.2 0 0-.1 0-.1-.1 0-.1.1-.1.1l-.1-.2h-.1c.1.1.1.2.2.3 0 .1-.1.1-.2.1h.1c0-.1-.1-.1-.1-.2-.1 0 0 .1 0 .2-.2 0-.4-.1-.4 0s.4-.1.4.1c-.2 0-.4 0-.4.2-.1 0 0-.1 0-.2-.1 0 0 .2 0 .2v-.1c.1 0 0 .2-.1.1 0-.1-.1-.2 0-.3 0-.1-.1-.1-.2-.1 0 .1.1.3 0 .4-.1-.1-.2 0-.3 0 0 .1.3.1.3.1-.1.1-.3 0-.3.1.1.1 0 .1 0 .2v-.1c.1.2-.1.1-.2 0 0 0 0 .1-.2.1v-.1.1c0 .1.2 0 .2.2-.1 0-.1-.1-.2-.1-.1.1 0 .2 0 .3-.1 0 0 0 0-.1s-.1-.1-.2-.1c0 .1.2 0 .2.2-.1 0-.1-.1-.2-.1v.3h-.4c0 .1.1.3-.1.3 0-.1.1-.3-.1-.3.1 0 .1.2 0 .1 0 .2.1.2.1.3-.1 0-.1-.1-.2-.2v.3c.1 0 .1-.2.2-.1.1-.2.1-.1 0 0h-.1v.4c-.1.1 0-.2-.1-.2s0 .1 0 .2c-.1-.1-.1.1-.2 0 0 .6-.2-.1.1-.1-.1-.1-.2.1-.2.1v-.1c.1-.1.2-.1.3-.2-.4-.3-.3.8-.2.9-.1.1-.2 0-.2.2 0-.2-.2 0-.2-.2l-.1.1c-.1 0 0 0 0-.1s-.1.1-.2 0c-.1 0 .1.1 0 .2 0-.1.3 0 .1 0-.1 0 0 .1 0 .2h-.3.1c0 .1-.1.1-.2 0v.2h-.3c-.1 0 0 .3-.1.1V89s-.1 0-.2.1c0-.1 0-.1.1-.1-.1-.2-.1.1-.2.1 0-.2.2-.2.3-.3-.1-.1-.2 0-.3.1 0 .2 0 .3.1.5 0 0-.1 0 0 0 0 .1-.2 0-.2 0 0 .2.1 0 .1.2-.1 0-.1-.1-.2-.1 0 .1.1.1 0 .3h-.3c0 .1.2.1.1.3V90s0 .1-.1.1v-.2c-.1 0-.1.2-.1.2-.1 0-.3-.1-.2.1v-.1.1c.1-.1.3-.1.4-.2v.1h.1c-.1.1-.2.1-.3.1h.1c0 .1-.1.1-.2 0v.2s-.1.1-.2 0c0 .2-.2.1-.2.4h-.2c0-.1.1-.1.1-.2-.1 0-.1 0-.1.1-.1 0-.1-.1-.2-.1s.1.2 0 .2c0 .1 0 .1.1.1s-.1 0 0-.1c.1 0 .1.2.2.1.1 0-.1.1 0 .2-.1 0 0-.1 0-.2-.1 0-.1.1-.2.1.1.1 0 .1 0 .2 0 0-.1 0 0 0-.1.1-.1 0-.3 0l.1.1s-.2 0-.1.1c0 .1-.1 0-.1-.1-.1.1.1.3-.1.3h.1c0-.1-.1 0-.2 0 .2.1 0 0 0 .2-.1 0 0-.1 0-.2-.2 0 .1.4-.2.3 0 .1.2 0 .1.1h-.2c-.1.1 0 .1 0 .2-.1 0-.1-.1-.2 0s0 .1 0 .2h-.2c-.1.1 0 .1 0 .2-.1 0-.1-.1-.1-.1-.1 0 0 .2-.2.1 0 .1.1.2-.1.2h.1c0-.1-.1-.2-.2-.1 0 .1 0 0 .1 0 0 0 0 .1-.1.1.1.1 0 .1.1.2-.1.1-.1 0-.3 0l.1.1s-.2 0-.1.1c0 .1-.1 0-.1-.1-.1.1 0 .2 0 .3 0 0-.1-.1-.1 0s0-.1.1 0c0 .2-.4 0-.4.3.1 0 .1-.1.1-.1.1.1 0 .1 0 .2h-.2c0 .1.1-.1.2 0 0 .1-.1.1-.2.1 0 .3-.1.4 0 .5-.1.1-.1 0-.2 0 0 .1.1 0 .1.2h-.2c0 .1 0 .1.1.1-.1 0-.1.5-.1.5-.1.6-1-7.3 0-.2 0-.1.1-.3-.1-.4.1 0 .1.2 0 .1 0 .2.2.3.1.5-.1 0 0-.2 0-.4-.1.1 0 .4-.1.4.2-.1.1 0 .1.1-.2-.1-.1 0-.1.1-.1-.1-.1.1-.3.1.1-.1.1-.1-.1-.1h.1c-.1 0-.1.3 0 .3s0-.1 0-.2c.2.2.5-.3.4 0-.2 0-.1 0-.2.2v-.1c-.2.1.1.1.1.2-.2 0-.2.1-.2.3-.4.7.1-.1 0-.2 0 0-.1.4-.2.1v.1c0 .1.1 0 .2 0 .1.1-.3 0-.2.2-.1 0 0-.1 0-.2h-.2c.1.1.1.2.2.2 0 .1-.2 0-.1-.1 0 .1-.2 0-.2.2 0 0 0-.1.1-.1 0 .1 0 .2-.1.2h.1c-.1-.1-.4 0-.3.2.1 0 .1-.1.1-.1.1.1 0 .1 0 .2h-.2c0 .1.1-.1.2 0-.1.1-.3.1-.2.2 0 .1-.1 0-.2 0-.1.1 0 .1 0 .2-.1-.1-.2.1-.4 0 .1.1 0 .1 0 .2-.1-.1 0-.2-.2-.2.1.1.1.2.1.3l.1-.1c.1 0 .1.3 0 .3 0-.1.1 0 .1-.2-.1.1-.1 0-.2 0s.1.2 0 .2h.1v.4c-.1 0-.3 0-.4-.1-.1 0 .1.1 0 .2.1 0 .1-.1.2 0 0 .1-.1 0-.2 0 0 .1.2 0 .2 0 0 .1-.1 0-.2.1v.6c.1-.1 0-.5.1-.6v.7c-.3 0-.1-.6-.1-.7-.2 0 0 .5-.1.7.1 0 .1.1.1.3-.1-.3-.1 0-.1.1s-.2.1-.2.1c0 .1 0 .2.1.2-.1 0-.2.1-.4.1 0-.1.2 0 .2-.1v-.2c-.1 0 0 .1 0 .2h-.3v.2c.1-.1.3-.1.4-.1 0 .1-.3.1-.4.1v.1c.1 0 .1 0 .1-.1.1 0 0 .1 0 .2-.1 0-.2 0-.2.2H98v.2h-.2c0-.1.1 0 .1-.1-.1-.1-.1.1-.2.1 0-.1.1-.1.2-.2h-.2c.1.1 0 .1 0 .2-.1-.1 0-.2-.2-.2.1.2 0 .3.1.5-.1 0 0 0 0-.1-.1 0-.1.1-.2.1s0-.1 0-.1c-.2-.1-.1.1-.2.2.2 0-.1-.1.1-.1 0 .1-.1.1-.2.1 0 .1.1.3 0 .3-.1-.2-.2 0-.4-.1 0 .1.1.3-.1.3v.1-.5c.1 0 .1.2 0 .2s-.1-.1-.2-.2c-.2.1 0 .2-.2.3.1.1.3 0 .2.2-.2 0-.3-.1-.4 0 0 .1.1 0 .1.2-.2 0-.2-.1-.4 0v.2s-.3.1-.3 0c-.1 0 0 .1 0 .2h-3.2c0-.2 0-.2.1-.3 0-.1-.1 0-.1-.1-.1 0 0 .1 0 .1-.2 0 0-.1-.2-.1v-1.2c.2 0 .2-.1.3-.1-.1-.1 0-.2 0-.2.1-.1.2-.2.3-.2-.1-.1-.1-.2-.2-.2s.1.1-.1.1c0-.2.1-.1.2-.1.1-.1 0-.1 0-.2.1 0 .2 0 .2-.2h.2c0 .1-.1 0-.1.1.1.1.2-.2.2-.3h.2c0-.1-.1 0-.1-.2h.2c0-.1-.2-.1 0-.1-.1-.1-.1-.2-.1-.4.3-.1.1-.7.1-1.1.1.1 0 .6.1.8 0-.3.1-.8-.1-.9.3-.1.2.5.2.8.1-.3-.1-.7 0-.9h-.1c0-.1-.1-.4 0-.5.1 0-.1.2 0 .4.2 0-.1-.5.2-.4-.2.1 0 .1.2.1-.1-.1-.1 0 0-.2-.1 0-.1.1-.2 0 .1-.1.2-.2.2-.3.2 0 0 .1 0 .2.1 0 .1 0 .2-.1.1 0 0 .1.1.1s0-.2 0-.1c-.1-.1.1-.1 0-.2-.1.1-.1.2-.2.2v-.2c.1 0 0 .1.1.1 0-.1 0-.2.2-.3 0 .1-.1.1 0 .2.1 0 0-.1 0-.2.1 0 .1.1.1.2.1 0 .1-.1.1-.2v.1c-.1 0 0-.2 0-.2 0-.1-.1.1-.2 0 0-.2.3-.2.4-.1.1 0 0-.1.2-.1-.1-.4-.1-2 0-2.8 0 0 0 .1-.1.1 0 .8-.1 1.7 0 2.5-.1-.1-.1-.4-.1-.5v-2c.1.1.1-.2 0-.2v.1c-.1.1-.4.1-.4-.1.1 0-.1-.1 0-.2.1 0 .2.1.1.2h.2c-.1 0-.2-.1-.2-.3-.1 0 0 .1-.2.1.1-.1.1-.1 0-.2-.1.1-.1.2-.1 0-.1 0-.1.1-.1.2 0 0-.1-.2-.2 0-.1 0 .2-.1 0-.2 0-.1-.1 0-.2-.1.1-.2-.4-.2-.5-.2-.2.1.1.1-.1.1 0-.1 0-.2.1-.2-.1-.1-.4 0-.5 0 0-.2.1 0 .2 0 0-.1-.1-.1-.1-.2v.1c.1 0 0-.2 0-.2.4.2.4.3.4.4-.1 0 0-.1 0-.2-.2 0-.3.1-.4.2 0-.1.1-.1.1-.2-.1.1-.2-.1-.3 0-.1-.1.1-.2.1 0 0-.2-.1-.1 0-.3-.1 0-.1.1-.2.1-.1-.3-.7-.1-1.1-.1 0 0-.1.1 0 .1-.1.1-.3 0-.2-.1l.1.1c.1 0 .1-.1.2-.2 0-.1-.3 0-.2-.2-.2 0-.4-.2-.4.1-.1 0 0-.2-.1-.1 0-.1 0-.2.1-.3-.2.1-.2 0-.6 0 0-.2-.1-.2-.2-.2 0-.2.1-.2.2-.1-.1-.2-.1 0-.2 0h-2.8c-.1 0-.1 0-.1.1-.1 0 0-.1 0-.2-.1.1-.1 0-.2 0 .1.1.1.2 0 .3h-.2c0 .2.3.1.2-.1.1-.1 0 .2.1.1.1 0 0-.1 0-.2.1 0 0 .2 0 .2-.3-.1-.1.2-.3.2 0-.2.1 0 .1-.1-.1-.1-.2-.1-.3-.2-.1.1 0 .1 0 .3 0-.1.1-.1.2-.1 0 .1-.1 0-.2 0v.2c-.1 0 0 0 0-.1-.1 0-.2.2-.2 0v.1s-.1 0-.1-.1h-.3c.3.1.2.1-.1.1 0 .1 0 .2.1.2 0 .1-.3.1-.4.1 0-.2 0-.3-.2-.2 0-.1.1-.1.2-.1-.1-.1-.1-.2 0-.3h-.1c.1.2-.3.1-.2.2-.1 0 0-.2-.3-.2 0-.1.1-.2 0-.3 0-.1.2 0 .2 0 .1 0 0-.1.1-.2h-.6c0-.2 0-.3.2-.3 0 .1-.2.1-.1.3.1-.1.1-.2.2-.2 0-.1-.2-.1 0-.1-.1-.1-.3 0-.4 0 0-.2 0-.3-.1-.4h.2c0-.2-.3-.1-.2 0-.1-.2.1-.5-.3-.6-.1 0 0 .1 0 .1-.1 0 0-.1-.1-.2 0 0-.1.1-.2 0 0-.1 0-.2-.1-.2 0 .2-.1 0-.4 0 .1-.3-.4-.2-.2-.3-.1-.1-.1 0-.1.1-.1 0 0-.2-.3-.2 0-.1-.1-.2 0-.2 0-.1-.1 0-.2-.1-.1 0 0 .1-.1.2-.1 0-.1-.1 0-.1-.1-.1-.1-.1-.1-.2H82h.1c-.3.1.1-.1.1-.2-.1.1-.1 0-.2 0 .1.2-.1-.1-.2 0 0 0 0-.4.1-.2v-.1c0-.1-.2.1-.2 0 .1.1.1.2 0 .4-.1 0-.1-.3 0-.3 0-.1-.1 0-.2 0 0-.2 0 0 .1 0 0 0 0-.1-.1-.1.2-.2-.1-.1.1-.2 0-.1-.1.1-.2 0 0-.2.2-.1.2-.4-.1.1-.2.2-.2.3-.2-.1.1-.1.1-.3-.1.1 0 .1-.2 0v-.3c0-.1-.1 0-.1-.1h-2c.2-.1.6 0 .9 0h.9c.1-.1.3 0 .4 0 0-.2-.2-.1-.4-.1-.5 0-1.4.1-1.7-.1h2.1c0-.2-.2 0-.3-.1h.1c-.6.1-1.3 0-1.8 0v-.3c-.1 0 0 .2-.1.1v-.1c-.1 0-.1.1-.1.1 0 .1-.1-.3 0-.2 0-.1-.1-.1-.2-.1-.1-.1.1 0 .2 0v-.1c-.1.1-.2 0-.3.1-.1-.1-.1-.2 0-.3-.1-.1-.2 0-.1-.2-.1-.1-.1.3 0 .2.2.5.2.2.2.1h.1c.1 0 .1.1.1.1.1 0-.2-.3-.2-.1-.2 0-.1-.1-.1-.2v.1c-.1.1 0-.2 0-.2-.1.1-.2-.1-.3-.1 0-.2.1-.2 0-.4 0 .2-.7 0-.1 0 0-.1-.2 0-.3 0v-.2c0-.1-.2 0-.3 0-.1 0-.1.1-.1.2-.1-.1-.1 0-.1 0 0-.2.1 0 .1-.1-.1-.1-.3 0-.6 0 .2-.1-.1-.2 0 0v-.1s-.1.1 0 .1c-.1.1-.1-.2-.1-.2-.4 0-.3-.1.1 0-.1-.2-.5 0-.7-.1.1-.3-.1-.1-.1-.3-.1.1-.1.2-.2.1h.1c0-.1-.2-.1 0-.2-.1-.1-.2.1-.4 0 0-.1.1-.1.3-.1 0-.1-.2 0-.1-.1h.2c-.2-.1-.4 0-.5-.1.2.2.3.2 0 .1 0-.2.1-.3 0-.4 0 .1 0 .1-.2.1V83h-.2c.1-.3-.1-.4-.1-.7-.1.2-.1.4-.1 0 0-.2-.1 0-.2-.1.1-.1.3 0 .3.1.1-.2-.2-.1-.3-.2 0-.2.2 0 .3 0 0-.1-.3-.1-.3 0-.1 0 0-.1 0-.2-.1 0 0 .2-.2.1-.1 0 .2-.1 0-.1 0-.1.1 0 .1-.2-.1 0-.1.1-.2.1v-.4c-.1.1.2.4-.1.4.1 0 0-.1-.1-.1.1-.1 0-.1 0-.3-.1 0-.1.2-.1 0-.1 0 0 .1 0 .2-.1 0-.1-.1-.1-.2-.2 0-.3.1-.5 0v-.2h-.3c-.1-.1.2-.1.3-.1 0-.1-.3-.1-.3 0v-.2c-.1 0-.1.2-.2.1 0-.1.1-.1.1-.3-.1 0 0 .1 0 .2 0 0-.1-.1-.1 0-.1-.1 0-.4-.3-.3-.1.1.1-.1.2 0v-.1c0 .1-.2.1-.1 0-.1 0-.1.1-.1.1h-.2c0-.1.1-.1.2-.1-.1-.1-.1-.1-.2-.1-.1-.1.1-.1.1 0 .1-.1-.1-.2 0-.2h-.2v.2c-.1 0-.1-.1-.2-.1h.1c0-.1-.2.1-.2-.1-.1 0-.1.2 0 .1-.1.2-.1-.2-.1-.3.1 0 0 .1.1.1s0-.1 0-.2c-.1.1-.1 0-.2 0-.1-.1 0-.3-.1-.3h-.3c-.1-.1.1-.2-.1-.2h.1v-.3.1c-.1-.1-.3 0-.3-.2h.2c0-.2-.2 0-.3-.1v-2c-.1 0 .1-.1 0-.2.4.3.4.3.6.3 0-.1-.2 0-.2-.1.1-.1.3 0 .3 0v-1.5c-.1.3 0 .9 0 1.3-.1.1-.2 0-.3.1-.1-.1.1-.1.2-.1-.1-.4 0-1 0-1.5.2.3 0 1 .1 1.4.1-.5 0-1.1 0-1.5-.1.2-.3-.2-.4 0-.1 0 0-.1 0-.2.1 0 .1.1.1.1.1 0-.2-.3-.2-.1-.1 0-.2-.1-.1-.2-.1.1-.1.1-.2-.1-.1 0-.1.1-.3 0-.1-.1.2 0 .2-.1s-.1 0-.2 0c.1-.1.2.1.3.1 0-.1 0-.1-.1-.1h.1c-.1 0-.1-.1-.2-.2-.1.1-.2.1-.3.2.1-.1-.1-.1.1-.1v-.1c-.1 0 0 .1-.2.1 0-.1 0-.1 0 0-.1-.1-.1-.2 0-.3-.2-.1 0 .2-.2.2 0-.2-.1-.2-.2-.2 0-.1.1-.4-.1-.3.2-.2 0-.8.1-1.1 0 0 0 .1-.1.1 0 0 0-.2-.1-.2 0-.1.2 0 .2.1.1-.1 0-.2 0-.4.1 0 .1.1.2.1 0-.1-.1 0-.2-.1 0-.1.2 0 .2.1.1-.3 0-.2 0-.6h.1c0-.1 0-.1-.1-.1.1-.1.2 0 .2.1 0-.1.2 0 .2-.2 0-.1-.2 0-.1-.1.1.1.1-.1.3 0 0-.1-.2 0-.2-.2h.2c0 .1-.1.1-.2 0 .1.2.3 0 .2-.2.1 0 .1.1.2 0 0-.1-.1 0-.2-.1-.1 0-.1.1-.1.2-.1 0 0-.2 0-.3.2 0 .2 0 .2-.1.1 0 .1.1.1.2h-.2v.1s.3 0 .3.1c-.1 0-.2-.1-.1-.3.1 0 .1.1.1.2 0-.1.1-.4 0-.5-.1 0 .1.2 0 .3-.2 0 0-.2-.2-.3 0 .1-.3 0-.5.1 0 .1.2.1 0 .1-.1 0-.1-.1-.1-.2h.1c-.1-.1 0-.1 0-.1 0-.1.1.1.1-.1.1 0 .1.2 0 .1.1.1.4 0 .2-.2-.1 0 0 .2-.1.2 0-.1 0-.3.1-.3s0 .1 0 .2c0-.2.1-.1.2-.2-.1-.1-.1 0-.2 0 .1-.1.3 0 .3 0 0-.1-.1-.1-.2-.1v-.3h.2c0 .1-.1 0-.2 0-.1.1.2.1 0 .2 0 .1.2.2.2 0-.1.1 0 0-.1 0 0-.1.1 0 .1 0v-.2s.3 0 .2-.1c.1-.1.1 0 0 .1.1 0 .1-.2.2-.1-.3-.2.1 0 0-.3.1 0 .1.1.2.1 0-.1-.1 0-.2-.1 0-.1.3 0 .2.1.1-.3 0-.2 0-.5.3.1.2-.6.2 0 .1 0 0-.2 0-.3h.2c0-.1-.2 0-.2-.2h.2c0 .1-.1.1-.2 0 .2.3.1-.3.4-.2-.1-.1-.1-.2-.1-.3.2 0 .1.1.2.1-.1-.1.1-.1.1 0 .1 0 0-.2.2-.1-.1 0-.1-.1 0-.1 0-.1-.1-.1-.2-.2 0-.1.1.1.2 0 0-.2-.1-.3.1-.4-.1.1-.1.1 0 .2.2-.1.2-.1.3-.2 0 0-.1-.1-.1 0 .1-.1.1 0 .2 0 0-.1 0-.1-.1-.1.1-.1.1 0 .2 0 0 0-.1 0-.1.1.3.1 0-.2 0-.4.1.1.1 0 .2 0v-.2c.1.1.1.2 0 .3v-.1c-.1 0-.1.2 0 .2 0-.1 0 0 .1-.2.1 0 0 .1.1.1.1-.1-.1-.1 0-.3 0-.1 0 .2.1.2.1-.1 0-.2 0-.3.1 0 .1.1.1.2.1-.1.3 0 .4-.1 0-.1-.1.1-.2 0 0-.1.1-.1.2-.1l-.1-.1c-.1 0-.1.1-.2.1 0-.1.2-.2 0-.2-.1-.1.3-.1.3 0 .1 0-.1-.1 0-.2h.6c0-.1-.1-.1-.2-.3.1 0 .1.1.2.1v-.2h.6c-.1-.1-.1-.1-.1-.3.1 0 .1.1.1.2.1 0 0-.2 0-.2.1-.1.3 0 .5-.1-.1.2 0 0 .2 0 .1 0 0-.2.1-.2h.4c-.3-.1-.5-.1 0-.1 0 0-.5-.1-.2-.1h.2c0-.1-.3.1-.3 0 0 0 .4-.1.3 0 0-.1.1 0 .1-.2.1 0 .1.1.1.1h.1c-.1-.1 0-.1-.1-.1.1-.1.2.1.2.2.1 0 .1-.1.2-.2-.1 0-.1.1-.3 0-.1 0 .1-.1.1 0-.6.2-.4.2-.1.2v.1c.1-.1-.1-.1 0-.2.1 0 .3-.2.3.1.1-.1.1-.3 0-.2 0-.1.2 0 .3 0 .1 0-.1-.1 0-.2.1 0 .1.1.2.1-.1-.1 0-.1 0-.3h4.3v-.1c.1.1.3.1.5.1-.2-.1.1 0 .2 0 0 0-.1-.2 0-.3.1.1.5-.1.4 0 .2 0 .3-.1.4 0 0-.1-.1-.1.1-.2-.1-.1-.3.3-.4 0 .1 0 .1.1.1.1s0-.1.1-.1c-.1-.2-.3.1-.3 0 0 0 .3-.1.3 0 .1 0 0-.1 0-.2.1.1 0 .2.2.2 0-.1 0-.1.1-.2 0 .1.1 0 .2.1.1 0 0-.1 0-.2.1 0 .4.1.4-.1 0-.1-.2.2-.3 0 .1-.1.2 0 .2-.2h.2c.1.1-.2 0-.2.1h.3s0-.2.1-.1v-.2c.1 0 .3.1.3-.2.1-.1.1.1.2 0-.1.1-.3.1-.3.1.1.1.2-.1.3-.1 0-.2-.2 0-.2-.2 0-.1.1-.1.2 0v-.3c0-.1.1 0 .2 0-.1-.1-.1-.2.1-.1-.4-.1.1-.1.2-.3-.2-.3 0-.9-.1-1.4h.2c-.2.2-.1.9-.1 1.3h.1c-.2-.2 0-.7-.1-1.1h.1c-.1-.2 0-.3 0-.4.1.1 0 .1 0 .3.2 0 0-.2.1-.3 0 0 0 .1.1.1 0-.1-.2-.1-.1-.3.1 0 .1-.1.2-.1 0-.1-.1 0-.1-.2.1.1 0 0 .2 0-.1.1 0 .1 0 .3h.1c.1-.1-.1-.3 0-.5.1 0 .1.1.2 0 .1.1-.1.1-.1.1.1.1.2-.1.3-.1 0-.1-.1-.1-.2-.1 0-.1.1-.1.2-.1h-.1s.1 0 .1.1c.1-.2.2 0 .3-.2-.1.1-.2-.3 0-.2H87c.1 0 0 .3.1.4 0-.1.1-.3 0-.4-.1 0 .1-.1.1.1.1 0 0-.2-.1-.2.2 0 .1-.1.2-.2 0 .2-.1.2-.1.3.2 0 .1-.2.2-.3.1 0 0 .1.1.1 0-.1.1 0 .1 0v-.1c0-.1-.1 0-.2 0v.1c.1 0 .4.1.3-.2.1.1-.1.2-.2.2v.2h.1c-.2-.1.1-.1 0-.2.1.2.1-.1.3 0 0-.1-.2 0-.1-.1.1.1 0-.1.2 0v.1c.2-.1-.2-.1-.1-.2l.2.2c0-.1-.1-.1-.1-.1.1 0 .2-.1.4 0 0-.1-.1 0-.1-.2.2 0 .1 0 .1.2.1 0 .3-.1.3 0 0-.2.1-.3.1-.5.1-.1.1.2.2.2s-.1-.1 0-.2c.1 0 0 .2.1.2s-.1-.2 0-.2 0 .1 0 .2c.2 0 .1-.1.1-.2.1-.1 0 .2.1.1.1 0 .1-.1.1-.2v.1-.1c-.1-.1-.1.1-.2.1 0-.2.3-.1.3 0 0-.1-.1-.1.1-.2 0-.1-.1 0-.2 0 0-.2.2.1.2-.2.1.1 0 .2.2.2.1 0-.1-.2.1-.1-.1-.1-.2.1-.2 0 .1-.1.3 0 .4-.2.1.1-.1.1-.1.2s.1-.1.2 0v-.2c-.1 0-.2 0-.2.1-.2-.2.2 0 .2-.2.1 0 0 .1.2.1.1-.1-.1-.2 0-.3.1.1.3.1.4-.2.2.1.1-.1.3-.2v.2c-.1 0-.1.1-.2 0 .1.2.2 0 .3 0 0-.1-.1 0-.1-.2.1 0 .1 0 .1-.1h.4c0-.2-.2-.3.1-.4h-.1c0 .1.1 0 .2 0-.2-.1.1 0 0-.2-.1 0-.1 0-.1.1-.2-.1.2-.2.1 0 .1 0 0-.2 0-.2.2 0 .5.1.5-.2.1 0 .1.1.1.2.2-.1-.1-.2.1-.2 0-.1-.2 0-.2.1-.1 0 0-.1-.1-.1.1-.1.1 0 .2 0v-.1c.2.1.2-.2.4-.2-.1 0 0 .2 0 .3h.1c0-.1-.1 0-.1-.2.1.1.1-.1.2-.2v.1c.1 0 0-.1 0-.2.1 0 .1.1.1.2.1-.1 0-.2 0-.4h.5-.1c.1-.1.2 0 .3 0 0 0 0-.4.2-.4v.2h.2c-.1-.2 0-.2-.1-.2.7-.1 1.6-.1 2.3 0 .1 0 0-.1 0-.2.1 0 .2 0 .2.1h-.1s0 .1-.1.2c-.6-.1-1.6-.1-2.2 0 .6.1 1.6-.1 2.2.1.3 0 .1-.5.4-.6 0 .1.1 0 .2 0s.1-.2.1-.3c-.1 0 0 .2 0 .2H97c.1 0-.2-.3.1-.4 0 .1-.1.1-.1.2.1-.1.2-.3.2-.4.1 0 .1.3 0 .3 0 .1.1-.1.2 0 .1-.1.1-.2.1-.3-.1 0 0 .2-.1.2-.1-.2.1-.2.2-.3 0-.1-.1.1-.3 0 0-.1.1-.1.2 0v-.2c.2-.1.2.1.4 0v-.2c-.1.2-.1 0-.1-.2.3-.1.3.2.5.1 0 0-.1-.2-.2-.1-.1 0-.1-.3 0-.2v.1c.1.1.3 0 .2.2.1 0 .1-.1.1-.2s-.1-.1-.2-.1c.1 0 .1-.3 0-.1-.5 0-.2.1-.2.1.4-.1 1.4 0 1.8 0 .1 0 .1-.1 0-.2.2 0 0 .2 0 .3h.1c.1 0 0-.2 0-.3.1 0 .1.2.1 0 .1 0 0 .3 0 .3.2 0 0-.2.1-.3.3 0 .2-.2.4-.2.1.1-.1.1-.1.2s.1 0 .2 0c-.1-.1-.2-.1 0-.1 0 0 0-.1.1-.1 0-.1-.2 0-.1-.1h.1c0-.1-.2-.1-.2 0-.1-.2.3-.1.4-.1 0-.1-.2-.1-.1-.3v.1s0-.1.1-.1v.2c.1 0 .1-.5 0-.6-.1 0 .1.4-.1.4.1-.1.1-.3 0-.4-.1 0 0 .3-.1.4v-.4c.3-.3.1-.2-.2 0 .1-.3-.1-.4 0-.7-.1 0-.2.1-.2.2 0-.2-.1-.3 0-.3-.1-.2-.1.2-.2.1 0-.1.1-.1.1-.3-.1.4-.1-.2 0-.2 0-.1-.2.1-.2-.1-.1 0 .1.3-.1.2v-.3c.1 0 .1-.1.2 0-.1-.2-.3 0-.4-.1 0-.2 0 0 .1 0v-.1c-.1-.1-.2.1-.1-.2.1 0 0 .1.1 0-.1 0-.1-.2-.1-.3-.1 0 0 .2 0 .3-.2-.1 0-.4 0-.5-.1 0-.2 0-.2.1-.1-.1-.2 0-.2-.1.1.1.1 0 .2 0-.1 0 0-.2-.2-.2 0-.1.1-.1.1-.2-.1 0-.1.1-.2 0-.1 0 .1.1-.1.2.1-.1-.1-.2 0-.4-.1 0 0 .2-.2.2 0-.1.1-.1.1-.2-.1 0-.1 0-.1.1-.1 0 0-.2.1-.1 0-.2-.1 0-.1-.1.3-.3.1-.2-.2 0v-.2h.1c-.3-.2-1.1.1-1.4-.2-.1 0 0 .1 0 .1-.1 0-.1-.2-.1 0-.1 0 .1-.2 0-.2 0-.1.1.1.2 0 0 0-.1 0-.1-.1h.1c-.3 0-.2 0-.5-.1.1-.1.1-.1 0-.2.1-.1.1 0 .2 0v.1c-.1.2-.1-.1-.2-.2.1.1.1.1.2.1 0-.2-.2-.1-.4-.2.1-.1 0-.3-.1-.3 0 0-.1.2.1.2-.1.1-.2-.2-.4 0 0 .1.1-.1.2 0 0 .3.1.3.4.4 0 .2-.1-.1-.2 0 0-.1 0-.2-.2-.2 0-.2-.1-.1-.2-.2.1-.1 0-.3 0-.5h-.1c-.1 0-.1.3 0 .3-.3.1-.2-.5-.2-.8-.1-.1-.2-.1-.3-.1 0-.2-.1-.4 0-.5-.1 0-.1 0 0 0 0 .1-.1-.1-.1-.1s0 .1-.1 0c-.1 0 0 .1 0 .1 0 .2-.2-.2 0-.1-.1-.1-.3 0-.4-.1v.1c0-.1 0-.1.1-.2 0-.1-.2-.1-.1-.2-.1 0-.2.2 0 .2-.2.2 0-.3-.2-.2v-.3c-.3.1-.4-.1-.5 0 0-.1.1-.1.2-.1-.1-.1-.2-.1-.4-.1 0 0 .1 0 .1-.1-.1-.1-.2.1-.2.1-.1-.1 0-.2 0-.4-.1 0 0 .1 0 .2-.2 0-.2 0-.2-.2 0 .1.2.1.2 0-.1 0-.3.2-.2 0v.1c.1 0 0-.1 0-.2-.1.1-.2 0-.2-.2-.1.1-.2 0-.2.2-.1-.1 0-.3 0-.5h-.1c-.1 0 0 .4 0 .3-.2-.2-.1-.7-.4-.8h.3c-.1-.1-.1-.1-.3-.1.1-.1 0 0 0-.2-.1 0-.2.1-.2-.1 0 .1.1.1.2 0 0-.1-.2 0-.2-.1-.1 0-.1.1-.2.1v-.2c-.1 0-.1.1-.2 0-.1 0 0-.2 0-.3.2 0-.1.2.1.2.1 0 0-.1 0-.2.1 0 .1 0 .2.1 0-.2-.2 0-.2-.2h.1c0-.1-.2-.1 0-.2 0-.1-.1 0-.2 0 0-.4 0-.7-.3-.7.3.1.3.5.3.8 0 0 .1 0 .1-.1.1 0-.1.1.1.1 0 .1-.1 0-.2 0 0-.3.1-.7-.2-.7 0 .1.2 0 .1.2-.2 0-.2-.2-.2 0-.1-.1.1-.1 0-.3-.2 0-.1.2-.4.1-.1-.1.2 0 .2-.1h-.1c-.1 0 0 0 0-.1-.1-.1-.6-.1-.6 0-.2-.2.3-.1.4-.1v-.1c-.5 0-.4 0-.7.1-.1-.1.1-.1.1-.2s-.2 0-.2 0h.1c-.2-.1-.2 0-.4 0-.1-.1 0-.1-.1-.2-.1.1-.3 0-.4 0v-.1c-.2 0 0 .1-.2.1 0 0 0-.1 0 0 0-.2.2-.4-.1-.1-.2 0 0-.1-.1-.1s0 .2-.2.1c.1-.1.1-.1-.1 0 0-.1.1-.1.2-.1-.1 0-.3-.1-.4 0-.1-.1.3-.1.1-.3h-.1s.1 0 .1.1c-.1.1-.2 0-.2.2-.1-.1 0-.2.2-.2-.1-.1-.2-.1-.2-.2-.1.1-.1.1-.1.2-.1 0-.1-.2-.1-.2.1 0 .1 0 .1-.1-.1-.1-.3.2-.5.1 0-.2-.2-.1-.2-.3.1.1.2 0 .2-.1-.1 0 0 .1-.2.1 0-.1.1-.1 0-.2 0 0-.2.2 0 .2 0 .1-.3 0-.3 0 .1-1.5.1-3.1 0-4.5h-.2c0-.1.1-.1.2-.1.2 1.4 0 2.9.1 4.4.1-1.4 0-2.8 0-4.3.1 1.4 0 2.8 0 4.3h-.2v.2c.1 0 0-.2.1-.1-.1-1.4 0-2.9 0-4.3-.2-.3-.3-.1-.4-.4-.1 0 .1.2-.1.1v-.3c.1 0 .1.1.1.2.1-.1 0-.4-.2-.3.1.1.1.1 0 .1 0 .1.1.1.1.3-.1-.1-.1-.1-.1-.3 0 0-.1 0-.1.1 0-.1-.1-.2-.1-.4.2 0 0 .3.2.2-.1-.1-.1-.2-.1-.3-.1 0-.2 0-.2.1-.3 0-.3-.1 0 0 0-.1-.4-.1-.4-.1-.1 0 .1-.2 0-.3 0 .1-.1.2-.2.3-.1 0 .1-.2 0-.2 0-.1 0 0 .1 0 0 0 0-.1-.1-.1-.1-.1 0 .1-.1.1s-.1-.2 0-.2c-.5 0-.3-.1 0 0-.1-.1-.2-.1-.3-.1 0-.1.1-.1.3-.1-.7.1-1.8.1-2.9.1 0-.1-.1-.1 0-.2.1 0 .1.1.1.2.7-.1 1.7 0 2.4 0-.6-.1-1.6 0-2.3-.1 0-.1 0-.2.1-.2h-.1c0 .2-.2.1-.4.2 0 .1.1 0 .2 0 0 .1-.2 0-.2 0 0-.2 0-.5-.3-.5.1.1.1.1 0 .1 0 .1.1.2 0 .3.2 0 0-.2.1-.2.2.2-.2.2.2.2 0 .1-.2 0-.3 0-.1-.1.1-.2-.2-.2V32c.1 0 .1.1.2 0-.1-.2 0-.9 0-.1 0 .1 0-.6.1-.3.1.5.1-.5.1.1v.2h-.1v.3c.1 0 .1-.1.2-.1 0-.3-.1-.6 0-.7 0 0-.1-.1-.1-.2.1.1.1.1.1 0s-.2 0-.1-.1h.2c0-.1.1-.3 0-.4.1-.2.2.3.1.3.1 0 .1-.3 0-.3h.5c-.1-.2.1-.4-.1-.5 0-.1.1 0 .1-.1s-.1 0-.2 0c0-.2-.2 0-.2-.3.1.1.2.3.4.2-.2-.1-.2-.2-.4-.3 0-.1.1-.1 0-.2-.1.1-.1.2-.1.3h-.2c-.1-.1.3 0 .2-.1-.1-.1-.3.1-.2-.1 0 .1 0 .1.2 0-.1-.2 0-.9.1-.2 0 0 .1-.5-.2-.4-.1 0 0 .2 0 .3.1 0 0-.4.1-.3 0 .1.1.3-.1.3v-.5c0 .1.2.1.3.1 0-.1-.1-.1 0-.2 0-.1-.1.1-.2 0 0-.1.1-.1.2-.1-.1-.1 0-.4 0-.5h.2l-.2.2h.2c0-.1 0-.1 0 0-.1 0 .1-.1.1-.1-.1 0 0-.2.1-.2v-.3c-.1.7-.1.5-.1.2v.1c-.2-.1.1-.1 0-.2.1-.2.1.1.2.2v-.4c.1.1.1.1.3.1 0-.1-.3 0-.3-.2.1 0 .1-.1.2 0 0 0-.1-.4 0-.4v.3c.1-.3.1-.4.1 0-.1 0-.1.1-.3.1.1.1.3 0 .3.1v-.9c.6 0 1.4.1 1.8 0 0-.1 0-.1-.1-.1v.1c-.1 0 0-.1 0-.2.1 0 .2 0 .2.1.1-.1.1-.1 0-.2.1.1 0 .1.2 0-.1.1 0 .2 0 .3.1-.1 0-.2 0-.3.2.2.1-.1.4-.1 0-.1-.1-.1-.1-.2h.2v.1c.2 0 0-.2 0-.3.1.1 0-.7 0-.9.2.2 0 .8.1 1.1-.1-.2.1-1.1-.1-1.1-.1-.1.1-.1.2 0v1.1c.1-.6 0-1.1 0-1.6.2.1.3-.2.3 0v-.1s-.2-.1-.2 0c-.1-.1 0-.4 0-.5.3 0 0 .6.1 0 0 .1-.1.4 0 .4.1-.1.1-.3.1-.5.1.1.2 0 .3 0 0-.1 0-.1-.1-.1v.1c-.1 0 0-.1 0-.2.1 0 .2 0 .2.1.1 0 .1-.1.1-.2H88c.2 0 .2.2.2.3.1 0 0-.2 0-.2.1-.1.2 0 .4-.1 0-.2-.1-.2-.1-.3h.1c0 .2-.1 0-.1.1.1.1.3-.1.3 0 0-.3.1-1.2 0-1.3-.1 0 0-.2.1-.1 0-.1 0-.2-.2-.2 0 .2.1 0 .1.1-.1.1-.4-.1-.4 0-.1 0 .1-.1 0-.2-.1 0 0 .1-.1.2-.1 0 0-.3.1-.2-.1 0-.4 0-.3-.4H88c-.1.1 0 .2 0 .3-.2 0 0-.3-.2-.3-.1 0 .1.2-.1.1 0-.2 0-.2-.2-.2.1-.2.2 0 .3 0 0-.2-.5-.1-.5-.3.1 0 .1-.1.2 0-.1 0-.1-.1 0-.2 0-.1-.1-.1-.2-.1 0 0 .1 0 .1.1-.1 0-.1.1-.2.1v-.5c-.1 0 0 .1 0 .2-.1-.1-.1 0-.2 0 .1 0 .2 0 .2-.2 0 0-.1 0-.1.1s.1-.1.1.1h-.1c0-.1 0-.2.2-.2 0-.1-.1-.2-.3-.2 0 .1.1.1.2.1H87c0-.2 0-.3.1-.5 0 0-.1.1-.1 0 0 0-.1.2 0 .2 0 .1-.1-.1-.1 0-.1 0 0-.1 0-.1 0-.1-.2-.1-.2-.2.1 0 .1 0 .2.1 0 0 .1 0 .1-.1-.2.1-.1-.5-.4-.3 0 .1.2 0 .2.1-.1 0-.3-.1-.4 0 .1-.1.1-.2.3-.1 0-.1-.1 0-.2 0-.1-.5.1-1 .1-1.2.1 0 .1.1.1.2.1 0 0-.2.1-.2s0 .1 0 .2-.1.1-.2.1c.1.1.2-.1.3 0 0-.1-.1-.2 0-.3.1.1.1.1.1-.1.1 0 .1 0 .1.1.1 0 0-.2.2-.1 0-.1 0-.1-.1-.2-.1 0 .1.1-.1.1 0-.1 0-.1.1-.2 0 .1.3.1.3 0 0 0-.3-.1-.2 0-.1-.2.3-.1.4 0h-.1c.1-.1 0 0 0-.2 0 .1.1 0 .2.1.1 0 0-.1.1-.2 0-.1-.1.1-.1 0 .1-.2.2.1.1.2.1-.1 0-.3.1-.4.1-.2 0 .2.2.1.1 0 0-.2.1-.1 0-.1-.2 0-.2-.2.1 0 0 .1.1.1 0-.1 0-.1.1-.2.1.1.1-.1.2.1 0-.1.2-.1.2-.2.1 0 0 .1 0 .2.1.1.1 0 .2 0-.1-.1-.1-.1-.1-.3.1 0 .1.1.1.2.1 0 0-.1 0-.2.2-.1.3.1.4-.2h-.1s.1.1 0 .1 0-.2 0-.2c.2.2 0-.1.3 0-.1 0-.1-.2 0-.2s0 .1 0 .2c.1-.1.1-.1.1-.3.2 0 .4.1.4-.1.1 0 0 .1 0 .2.1 0 .1-.1.2 0 0 0 0-.3-.1-.2h.2c-.1.1 0 .2 0 .3.1-.1.1-.2.3-.2-.1-.2-.2.1-.3.2 0-.1.1-.2.3-.3 0-.1-.1-.1 0-.3.2 0 .4 0 .4-.2.2 0 0 .1 0 .2h.2c.1 0-.1-.1 0-.2.1 0 .1.1.2.1-.1-.1 0-.1 0-.3.5-.1 1.1.1 1.2-.2h-.1s.1.1 0 .1 0-.2 0-.2c.2.1 0-.1.3-.1 0-.3-.2-1 .1-1.2.1.3 0 .7 0 1 .1-.2 0-.7 0-1h.5c.1 0-.1-.2 0-.3-.1.1 0 .2-.1.3-.1-.1-.3.1-.4 0 .1.1.6-.2 0-.1 0-.1.3-.1.3 0 .1 0 .1-.1.1-.2.2 0 .1.2.2.3.1 0 0-.3-.1-.2h.5c0-.1-.1-.1.1-.2 0-.1-.1.1-.2 0-.1.1.1.2-.2.2 0-.1 0 0 .1 0v-.1c-.1 0-.1 0-.1.1-.1 0 0-.1 0-.2h.3c.1 0 0-.1 0-.2.1.1 0 .2.2.2.1 0-.1-.1 0-.2-.1 0-.1.1-.2 0 .2-.1.4.2.5-.1h-.2c-.1-.1.1-.2.2-.3.3.1.3-.1.4-.3 0 .1-.1.1 0 .3 0 .1.1 0 .2 0v.4c-.1 0 0-.4 0-.5h.2c0-.1-.1-.1-.1-.2.1 0 .2 0 .2.2-.1 0-.1-.1-.2-.1 0 .1.1.1.2.1.1-.3-.1-.4.1-.6-.1 0-.1 0-.1.1-.1-.2.2-.1.3-.1-.1-.1-.1-.1-.2-.3-.1 0-.1.2 0 .2-.1.2-.1-.2 0-.2s.1.1.1.2c.2-.1 0-.4.2-.4 0-.2-.1 0-.1-.1.2 0 .1.1.3.1v-.1.1c-.1 0 0-.2 0-.3.1.1.3-.3.2-.3 0-.1.1.1.1.1.1 0 0-.2-.1-.2.3.1.1-.2.2-.5h.2c-.2.1 0 .5-.2.6.2 0 0-.8.3-1-.1.1 0 .2-.1.4 0 .1.1 0 .2 0v-.1c-.1 0-.1-.2 0-.4.1 0 0 .2 0 .3h.1c0-.1-.1-.3.1-.4h-.1v.1c-.1 0 0-.2 0-.2 0-.1.2 0 .2-.1.1.1-.1.1-.2.1 0 .1.2.1.3 0 0-.1-.1-.1 0-.2v.1c-.1-.1.1-.1 0-.2h.1v.1c.1-.1 0-.2-.2-.2-.1-.1.3 0 .2-.2-.1 0-.1 0-.1.1-.4-.1-.1 0 .1 0h-.1c.2-.1-.1 0 0-.2-.1 0 .1.2-.1.2v-.3h.2c0-.1-.1-.2.1-.2v-.3c.2-.1.1.2.2.3.1-.1 0-.3 0-.4 0 .1.2 0 .2.1 0-.1.1-.2.2-.4 0 0 0 .1.1.1 0-.1-.1-.1-.1-.3.1 0 .2.2.2.3.1 0 0-.2 0-.2 0-.1-.1-.1-.2-.1.1-.1.2 0 .2.2.1-.2-.1-.3-.1-.4.1.1.1-.1.3-.1 0-.1-.1-.2 0-.3.2 0 0 .1 0 .2.1-.1.2 0 .2-.2-.2.2.1-.4.3-.2 0 .1-.1 0-.1.1s.2 0 .2-.1-.2 0-.1-.2h.1c0-.2-.1-.2 0-.4 0 0 .1.1.2.1-.1 0-.1-.1-.2-.1 0-.1.1 0 .2 0v.2c.1 0 .1-.1.1-.2s-.1-.1-.2-.1c.1 0 0-.1 0-.1v-.2c0 .4 0 0 .1-.1s0 .3 0 .2c-.1.1-.1.1-.1.2.1 0 .1-.2.1-.4.2.1.1-.2.2-.2v.2c.1-.1.2-.1.4-.1-.3 0-.3-.1 0 0 .2 0 0-.3.2-.2-.1.1 0 .3-.2.3.1.2.1-.1.2-.1 0-.1-.1 0-.1-.2.1 0 .1 0 0 0 .3-.1.8 0 .9 0 .1-.1.1-.2.2-.4.1.1.2 0 .1.1-.8-2.2-.8-2.4-.8-2.4m2-.2c0 .1-.1 0-.2 0-.1.2.3 0 .2 0zm3 1.5c0 .1-.1 0-.2 0-.1.2.3.1.2 0zm.2-.1c.1 0 .4 0 .4.1.1-.2-.5-.1-.4-.1zM116 9c0 .1 0 .2-.1.3h.2c-.1-.1-.1-.4-.1-.3zm3 1.4c0 .1 0 .2-.1.3.1-.1.2.1.2 0-.1 0 0-.4-.1-.3zm7.1 4.2c0-.1.3 0 .4-.1-.2.1-.3.1-.4.1 0 0-.1 0 0 0zm1.3 3c0 .2.1.1.1.3h-.1v.1s0 .1.1.1c0-.1.1-.2 0-.3s-.1-.2-.1-.2zm.8 5.3s.1-.5 0-.6v.6zm.1-.1c0 .3.1.3-.1.5.3 0 .2-.4.1-.5zm-2.8 4.3c.1 0 .2-.1.3 0V27c-.1 0-.3-.1-.3.1zm-1.1 2.6s-.6.1-.5.1c.1.1.5-.1.5-.1zm-4.5 1.8c.1 0 .2.1.2 0 0 0-.2-.1-.2 0zm-.6.6c0 .1-.1.1-.1.2.1 0 .2-.2.1-.2zm-1.5 3c0 .1-.1.1-.1.2.1.1.2-.1.1-.2zm8.4 24.9c0-.1.3-.2.2-.3-.1.2-.2.2-.2.3 0 .5 0 .5 0 0zm-2.6-.8c.1.2-.1.4 0 .5-.1-.1.2-.3 0-.5zm-.3 3.6c0 .1-.2.2-.2.3.1 0 .4-.3.2-.3zM113 76.1c-.1-.1 0-.2-.1-.2 0 .1.1.2.1.2.1-.1.1-.2.2-.3-.2.1-.1 0-.2 0v.3zm-2.9 6.4c.1 0 .2-.1 0 0 .1 0 0-.1 0 0zm-4.3 4.2c0 .1-.2.1-.1.2 0 0-.2-.1-.2 0 .1 0 .1.1.2 0 0-.1.1-.2.1-.2.1-.1.3 0 .3-.1-.1-.1-.4 0-.3.1-.1-.1-.1-.1 0 0-.1.1 0-.1 0 0zm-1.6 1.8c.1 0-.1.1 0 0 0 0 .2-.1.1-.2 0 .1-.1 0-.1.2zm-1.6 1.6c.1 0 .3 0 .2-.2-.2.1-.4.2-.4.5.1 0 0-.3.2-.3zm-1.4 1.9v.3h.1c0-.1.2-.1.2-.2-.2-.1-.2.1-.3-.1zm-4.6 7.6v.3h.1c0-.1.2-.1.2-.2-.2-.1-.2.1-.3-.1zm-.6.3c.1 0-.1.3 0 .2.1-.1.2-.1.4 0 0-.2-.3-.1-.4-.2.1 0 .1 0 0 0 0 .1 0 0 0 0zm-16.8-16c.1 0 .1.1.2 0 0-.1-.1-.2-.2-.2 0 .1.1.1 0 .2.1 0 0 0 0 0zm-1.3-.9c-.1-.1-.2.2-.1.2 0-.1.1-.2.1-.2zm-4.4-16c0 .1 0 .2.1.3-.1-.1.2-.2-.1-.3.2.2.1-.1 0 0zm22-23.2c.1-.2-.1-.2 0-.3-.1 0-.2.1-.4 0 .1.1.3.2.4.3zm-8.1-24.3c.1-.1 0 .1.2 0 .1-.2-.3-.1-.2 0zm4.5-6.1c.3 0 .1-.1.1-.3v-.9h-.1c0 .5.2 1 0 1.2zm2.2-2.3c.1 0 .1-.4 0-.4.1.1 0 .3 0 .4zm2.3-4.9c0 .1-.1.3.1.3 0-.1.1-.3-.1-.3zm1-1c.1-.1 0 0 0-.2.1.1.1-.1 0-.1v.3zm11.8.7c.2 0 0-.1 0 0 .1-.1.1-.1.2-.1 0-.1 0-.1-.1-.1 0 .1 0 .1-.1.2zm3.5 1.5v-.2c0 .1-.3 0-.2.1 0 .1 0 .1.2.1zm4.1 2.1c.1 0 .3 0 .3-.1-.2 0-.2.1-.3.1zm10.3 6.9c.1-.2 0-.5-.1-.5.1.2 0 .4.1.5zm-39.2 5.9c0-.1 0 .1.2.1 0-.1-.1-.2-.1-.3 0 .1 0 .3-.1.2zm-1.4 3c0-.1 0 .1.2.1 0-.1-.1-.2-.1-.3-.1.1 0 .3-.1.2zm37 4.5c0 .1-.1 0 0 0 .1.1.1 0 0 0 .1-.1 0-.1 0 0zm-39.9 1c0 .6-.1 1.3.1 1.7-.1-.4 0-1.2-.1-1.7zm41.2 9.1c0-.2-.1-.3-.3-.3.2.2.2.3.3.3zm-33.6.1c.1 0 .4 0 .3-.1-.1 0-.3 0-.3.1zm6.5 6.8c.1-.1.1-.1.1-.2h-.1c.1.1 0 .1 0 .2zm31.3.8c-.1 0-.1.2-.2 0 .1.1 0 .5.2.5 0-.4 0-.3-.1 0 0-.2.1-.3.1-.5zm-.5 1.3c.2 0 .1-.2 0-.3 0 .2.1.2 0 .3zm-30.4 2.7c0 .2 0 .1 0 0h1.8c-.2-.1-.6 0-.9 0h-.9zm-1.8 2.2c-.7 0-1.6-.1-2.1 0h2.1zm28.4 2s.2.1.2 0v-.1c-.1.1-.2-.1-.2.1 0-.1 0-.1 0 0zM88.3 58h.2v-.2c-.1.1-.2.1-.2.2zm35.1 1c.1 0 .1-.8 0-.7.1.2.1.6 0 .7zm-9.6 16.2c.2 0 .6.1.7 0-.2 0-.7-.1-.7 0zm-37.5 7.1c.1 0 .1-.1 0 0 .1-.2.1-.2 0-.3h-.1c.1.2.1.2.1.3zm3 1.5c.1 0 .1-.1 0 0 .1-.2.1-.2 0-.3h-.1c.1.1.1.2.1.3zm5.7 4.8c0-.2.1 0 .2-.1-.2 0-.1-.3 0-.3-.1.1-.2 0-.3.1.2 0 0 .2.1.3zm18.9.1c0-.1.2 0 .2-.1v-.2c-.1 0-.3.2-.2.3zm-18.3.9c.1-.1.3.1.3 0-.2 0-.2 0-.1-.1-.1.1-.2-.1-.2.1zm8.4 7.3h.2v-.3c-.1.1-.2.2-.2.3z"/><linearGradient id="SVGID_1_" gradientUnits="userSpaceOnUse" x1="735.873" y1="48.377" x2="855.875" y2="48.377" gradientTransform="rotate(180 453.44 53)"><stop offset="0" stop-color="#be232f"/><stop offset=".184" stop-color="#d1413d"/><stop offset=".38" stop-color="#e35b4c"/><stop offset=".5" stop-color="#ec6553"/><stop offset=".62" stop-color="#e35b4c"/><stop offset=".816" stop-color="#d1413d"/><stop offset="1" stop-color="#be232f"/></linearGradient><path class="st2" d="M51 50.4c4.3-1 12.8-2.5 17-3.3-1 3.8-1.8 7.4-2.8 11.2 7.1.6 13.8 2.1 20.3 4.7-9.2.9-22.5 3.1-31.6 5.1 1.5-3.4 2.9-6.8 4.5-10.2-2.4-2.5-4.9-5-7.4-7.5z"/><path class="st0" d="M67.5 48.9c0-.2-.2-.3-.4-.3H67c-3.6.6-9.2 1.6-13.2 2.5l-1.5.3c-.1 0-.1.1-.2.1l-.1.1.5.5h.1c.4-.1.9-.2 1.3-.3 4.1-.9 9.7-1.9 13.2-2.5.3 0 .4-.2.4-.4zm14 12.5c-1.2.1-2.4.3-3.6.5-7.3 1-15.6 2.4-22.3 3.9l-.8.2-.3.7.2.1h.3c.3-.1.6-.1.9-.2 6.8-1.5 15.1-2.9 22.2-3.9 1.4-.2 2.7-.4 4-.5.2 0 .3-.1.3-.3l.1-.2-.2-.1c-.4-.1-.6-.1-.8-.2z"/><linearGradient id="SVGID_2_" gradientUnits="userSpaceOnUse" x1="417.195" y1="48.377" x2="537.191" y2="48.377" gradientTransform="matrix(1 0 0 -1 -373.768 106)"><stop offset="0" stop-color="#be232f"/><stop offset=".184" stop-color="#d1413d"/><stop offset=".38" stop-color="#e35b4c"/><stop offset=".5" stop-color="#ec6553"/><stop offset=".62" stop-color="#e35b4c"/><stop offset=".816" stop-color="#d1413d"/><stop offset="1" stop-color="#be232f"/></linearGradient><path class="st3" d="M163.4 50.4c-4.3-1-12.8-2.5-17-3.3 1 3.8 1.8 7.4 2.8 11.2-7.1.6-13.8 2.1-20.3 4.7 9.2.9 22.5 3.1 31.6 5.1-1.5-3.4-2.9-6.8-4.5-10.2 2.4-2.5 4.9-5 7.4-7.5z"/><path class="st0" d="M162.3 51.5c-.1-.1-.1-.1-.2-.1l-1.5-.3c-4.1-.9-9.7-1.9-13.2-2.5h-.1c-.2 0-.4.1-.4.3 0 .1 0 .2.1.3.1.1.2.1.3.2 3.6.6 9.2 1.6 13.2 2.5.5.1.9.2 1.3.3h.1l.5-.5-.1-.2zm-3.4 14.1c-6.8-1.5-15.1-2.9-22.3-3.9-1.3-.2-2.4-.3-3.6-.5-.2.1-.5.2-.7.2l-.2.1.1.2.3.3c1.3.2 2.6.3 4 .5 7.3 1 15.6 2.4 22.2 3.9l.9.2h.3l.2-.1-.3-.7-.9-.2zM295.1 12h-1.5v-.6h3.7v.6h-1.5v4.4h-.8l.1-4.4zm7 2.2c0-.7-.1-1.5-.1-2.1-.2.6-.4 1.3-.7 1.9l-.9 2.4h-.5l-.8-2.4c-.2-.7-.5-1.4-.6-1.9 0 .6-.1 1.5-.1 2.2l-.1 2.1h-.6l.4-5h.9l.9 2.4c.2.6.4 1.2.5 1.6.1-.5.3-1.1.5-1.6l.9-2.4h.9l.3 5h-.7l-.2-2.2z"/><linearGradient id="SVGID_3_" gradientUnits="userSpaceOnUse" x1="841.647" y1="52.099" x2="820.958" y2="52.099" gradientTransform="rotate(180 453.44 53)"><stop offset="0" stop-color="#be232f"/><stop offset="1" stop-color="#ec6553"/></linearGradient><path class="st4" d="M68 47.1c5.9-1 11.9-1.7 17.9-2.3L85.5 63c-6.5-2.6-13.2-4.3-20.3-4.7 1-3.8 1.9-7.4 2.8-11.2z"/><linearGradient id="SVGID_4_" gradientUnits="userSpaceOnUse" x1="522.974" y1="52.099" x2="502.285" y2="52.099" gradientTransform="matrix(1 0 0 -1 -373.768 106)"><stop offset="0" stop-color="#be232f"/><stop offset="1" stop-color="#ec6553"/></linearGradient><path class="st5" d="M146.4 47.1c-5.9-1-11.9-1.7-17.9-2.3l.4 18.3c6.5-2.6 13.2-4.3 20.3-4.7-1-3.9-1.8-7.5-2.8-11.3z"/><g class="st6"><path class="st7" d="M68 47.1c5.9-1 11.9-1.7 17.9-2.3L85.5 63c-6.5-2.6-13.2-4.3-20.3-4.7 1-3.8 1.9-7.4 2.8-11.2z"/></g><g class="st6"><path class="st7" d="M146.4 47.1c-5.9-1-11.9-1.7-17.9-2.3l.4 18.3c6.5-2.6 13.2-4.3 20.3-4.7-1-3.9-1.8-7.5-2.8-11.3z"/></g><linearGradient id="SVGID_5_" gradientUnits="userSpaceOnUse" x1="107.249" y1="47.723" x2="107.249" y2="70.152" gradientTransform="matrix(1 0 0 -1 0 106)"><stop offset="0" stop-color="#be232f"/><stop offset=".184" stop-color="#d1413d"/><stop offset=".38" stop-color="#e35b4c"/><stop offset=".5" stop-color="#ec6553"/><stop offset=".62" stop-color="#e35b4c"/><stop offset=".816" stop-color="#d1413d"/><stop offset="1" stop-color="#be232f"/></linearGradient><path class="st8" d="M149.2 58.3c-13.8-2.8-27.9-4.2-42-4.2s-28.1 1.5-42 4.2l-.6-5.3c-.5-4.3-1.1-8.4-1.5-12.7 14.6-2.9 29.4-4.4 44.2-4.4 14.7 0 29.6 1.5 44.2 4.4-.7 5.9-1.5 11.8-2.1 17.7l-.2.3z"/><path class="st0" d="M63.2 42.3h.2c14.5-2.9 29.2-4.4 43.9-4.4 14.6 0 29.4 1.5 43.9 4.4v-.2.2h.2l.1-.8h-.2c-14.5-2.9-29.3-4.4-44-4.4s-29.5 1.5-44 4.4h-.2l.1.6v.2zm86.3 14.5l.1-.8h-.2c-13.9-2.7-28.1-4.1-42.2-4.1-14.1 0-28.3 1.4-42.2 4.1h-.2l.1.6v.2h.1c13.9-2.7 28.1-4.1 42.2-4.1s28.2 1.4 42.2 4.1h.1z"/><path class="st0" d="M87.3 40.7l.2 1.9-2 .2.2 2.2 1.8-.2.2 1.9-1.8.3.2 2.3 2-.2.2 1.9-4.1.4-1-10.2 4.1-.5zm5.1 4.8c-.3-.2-.6-.4-1-.4-.3 0-.5.2-.5.6.1.8 2.2.5 2.4 2.5.1 1.4-.6 2.4-2 2.5-.8.1-1.5-.2-2.1-.7l.8-1.5c.3.2.6.4 1 .4.3 0 .6-.3.5-.6 0-.9-2.2-.5-2.4-2.7-.1-1.3 1-2 2.1-2.1.7-.1 1.3.1 1.8.5l-.6 1.5zm3.9-3.9l.1 1.9h.8l.1 1.5h-.8l.3 5.2-1.9.1-.3-5.2h-.7l-.1-1.5h.7l-.1-1.9 1.9-.1zm4.6 7.4c0 .7-.5 1.3-1.3 1.4-.7 0-1.3-.6-1.4-1.3 0-.7.5-1.3 1.3-1.4.7.1 1.3.5 1.4 1.3zm8.1-9.2l-.1 10.2H107l.1-8.4h-1v-1.7h2.9zm4 10.4l2.1-3.9c-.4.3-.8.6-1.3.5-1.5-.1-1.9-2-1.9-3.3.1-1.8.9-3.7 3-3.6 2 .1 2.7 1.9 2.6 3.7-.1 1.8-.8 3.4-1.6 4.9l-.9 1.7h-2zm.7-6.9c0 .5.1 1.6.8 1.6.8 0 1-1.3 1-1.7s-.1-1.6-.8-1.6c-.8 0-1 1.2-1 1.7zm9-2.9l-.7 10.2-1.9-.1.6-8.4-1-.1.1-1.7 2.9.1zm4.2 5.1c-.9-.4-1.3-1.4-1.2-2.3.2-1.5 1.3-2.6 2.8-2.4 1.5.2 2.4 1.5 2.2 2.9-.1 1-.7 1.7-1.6 2 1.3.5 1.6 1.5 1.5 2.9-.2 1.6-1.5 2.8-3.2 2.6-1.7-.2-2.8-1.5-2.6-3.2.1-1.3.7-2.2 2.1-2.5zm0 2.5c-.1.5 0 1.5.7 1.5.7.1 1-.9 1-1.4.1-.5-.1-1.5-.8-1.5-.6-.1-.8.9-.9 1.4zm1.1-3.4c.6.1.7-.7.8-1.1 0-.4 0-1.1-.5-1.2-.5-.1-.6.7-.7 1 0 .5 0 1.3.4 1.3z"/></svg>