<svg width="423" height="180" fill="none" xmlns="http://www.w3.org/2000/svg"><g clip-path="url(#clip0)"><path d="M160.072 12.505c5.25 9.59 14.129 20.35 12.125 30.089 7.548 7.061 5.943 18.277 20.464 21.717 16.302 18.564 14.157 43.721 36.192 60.184 6.385 13.801 20.093 28.94 11.914 41.536-19-.371-41.56-1.66-60.314-8.491-5.943-2.368-6.231-7.082-8.621-11.012-5.48-1.885-10.758-3.02-15.32-6.41C110.2 155.221 55.619 160.539 6.006 171.972c-18.124-13.066 10.47-20.099 11.41-31.308a33.097 33.097 0 00-9.86-25.409c-1.592-2.207.378-3.503 1.625-5.002 9.959-1.198 22.224.049 30.06-4.084 18.536 2.361 38.314.7 48.035-9.913-2.993-6.158 7.492-5.373 4.506-10.284-4.632-3.636 4.906-7.755 4.73-12.225-2.915-2.179-4.492-4.638-3.854-9.625 19.161-7.594-10.225-23.707 8.214-30.292 4.997-3.58 0-12.183 9.812-12.61l45.751-11.132 3.637 2.417zM298.194 149.218c-5.607 7.566-11.347 14.396-24.606 14.41-9.35 3.419-16.709 10.508-22.75 16.372-14.963-14.866 10.821-15.139 14.718-25.157 11.417 1.759 12.482-11.44 23.443-7.706 1.99-2.501 12.538-3.958 9.195 2.081z" fill="#11175E"/><path d="M160.577 2.417c5.242 9.59 14.122 20.351 12.117 30.082 7.548 7.061 5.944 18.284 20.472 21.717 16.295 18.564 14.157 43.721 36.184 60.184 6.385 13.794 20.101 28.94 11.915 41.529-18.993-.364-41.553-1.653-60.315-8.484-5.943-2.368-6.223-7.089-8.613-11.019-5.481-1.878-10.765-3.013-15.327-6.403-46.277 15.103-100.894 20.428-150.506 31.861-18.124-13.066 10.47-20.099 11.417-31.308a33.1 33.1 0 00-9.868-25.409c-1.591-2.207.385-3.503 1.633-5.009 9.952-1.19 22.223.056 30.052-4.077 18.544 2.36 38.322.7 48.035-9.913-2.992-6.158 7.5-5.373 4.514-10.284-4.633-3.636-7.948-8.547-8.165-13.016-2.915-2.18-9.812.448-9.188-4.54 19.161-7.594 7.997-28.022 26.436-34.593 4.997-3.58 0-12.183 9.812-12.61L156.939 0l3.638 2.417z" fill="url(#paint0_radial)"/><path d="M298.699 139.123c-5.607 7.573-11.354 14.403-24.607 14.417-9.349 3.419-16.708 10.508-22.756 16.365-14.963-14.866 10.821-15.132 14.717-25.157 11.417 1.766 12.482-11.433 23.451-7.706 1.983-2.494 12.559-3.937 9.195 2.081z" fill="url(#paint1_radial)"/><path d="M124.238 60.556a22.875 22.875 0 01-1.976-6.613c-.302-3.195-.224-4.26.308-6.466a10.499 10.499 0 011.213-3.195 69.333 69.333 0 001.598 7.307c.7 1.898 2.439 6.004 3.651 5.394 1.212-.61 0-3.419.61-6.844.609-3.426 1.443-7.146 3.882-9.885 2.439-2.74 6.925-7.153 8.214-10.27 1.29-3.118 2.663-6.305 1.907-11.104-.757-4.799-1.907-6.844-1.907-6.844a18.523 18.523 0 017.541 6.76c2.972 4.792 5.481 10.578 5.859 15.748.379 5.17 0 13.003.154 15.412.155 2.41.232 5.549 1.29 5.703 1.058.154 2.285-2.438 3.273-5.478a41.4 41.4 0 001.983-7.755c.179-1.338.254-2.687.225-4.036a20.31 20.31 0 013.118 9.437c.456 5.702-.077 9.275-1.212 10.571-1.135 1.296-1.752 2.277-4.492 2.585a37.806 37.806 0 01-7.759-.154 17.755 17.755 0 00-4.794.231 17.66 17.66 0 00-.918-6.165c-1.135-3.727-2.102-4.862-3.266-7.068a18.3 18.3 0 01-2.06-6.011c-.224-1.828.308-2.585.308-2.585s-2.663 3.194-3.574 5.703a22.76 22.76 0 00-1.752 8.217 31.63 31.63 0 00.61 6.69c.224.834.911 1.597-.989 1.401-1.899-.196-2.971-.7-5.025-.224-2.053.477-4.422.827-6.02-.462z" fill="#11175E"/><path d="M128.955 36.751s-1.451-4.568-.918-7.53a19.881 19.881 0 012.663-7.154c1.297-2.052 2.208-2.662 2.74-3.88.388-1.084.667-2.204.834-3.342a20.205 20.205 0 011.297 5.933c.203 3.034.077 5.17-.834 7.601-.911 2.431-1.752 3.118-3.049 4.722-1.296 1.604-2.579 2.964-2.733 3.65zM109.037 123.157H95.09l-7.71-26.719a66.809 66.809 0 01-1.4-6.053l-5.783 32.772H66.531l10.246-58.083h14.529l9.762 30.783 3.161-17.92h-2.908l2.27-12.863h15.685l-10.239 58.083zM165.644 74.616l-19.028 27.882-3.644 20.799h-14.22l3.707-20.799-11.494-37.424h15.769l5.123 21.325c.084.442.19 1.401.316 2.907.855-1.714 3.1-5.504 6.735-11.37h-2.243l2.271-12.862h18.432l-1.724 9.542zM199.74 104.326c-1.262 7.132-3.733 12.122-7.415 14.971s-9.12 4.273-16.316 4.273c-1.939 0-7.809-.137-17.612-.413l2.804-15.846h13.533l-.512 2.9c2.103.112 3.589.168 4.535.168 3.868 0 6.088-1.604 6.658-4.813.378-2.157-1.381-3.792-5.278-4.904-5.536-1.546-9.062-2.9-10.575-4.063-3.603-2.77-4.855-7.279-3.757-13.528 1.234-6.972 4.1-11.923 8.599-14.851 3.869-2.49 9.373-3.734 16.512-3.734 1.715 0 4.079.084 7.093.252 3.287.217 5.607.33 7.008.33l-2.803 15.685H189.76l.462-2.655a30.863 30.863 0 00-3.413-.253c-4.06 0-6.373 1.605-6.938 4.813-.369 2.102 1.397 3.706 5.298 4.813 5.607 1.546 9.163 2.875 10.667 3.986 3.631 2.662 4.932 6.952 3.904 12.869zM246.535 85.769c-1.402 7.972-4.574 13.399-9.517 16.281-3.888 2.279-10.036 3.416-18.446 3.411l-3.126 17.696h-14.192l7.975-45.22h-2.242l2.284-12.947c1.435 0 3.598-.025 6.49-.077h6.406c9.812 0 16.353.995 19.623 2.985 4.743 2.942 6.324 8.899 4.745 17.87zm-14.669-.154c.599-3.391.428-5.56-.511-6.509-.808-.78-2.953-1.17-6.434-1.17h-1.5l-2.53 14.355h2.804c2.712 0 4.625-.427 5.747-1.296 1.121-.869 1.941-2.655 2.424-5.38zM284.458 123.157h-16.687l2.298-13.023h2.327l1.843-10.46h-11.872l-4.142 23.483h-14.332l7.975-45.22h-2.242l2.271-12.863h16.434l-3.875 21.794h12.033l3.848-21.794h14.367l-10.246 58.083zM329.522 104.326c-1.262 7.132-3.733 12.122-7.415 14.971s-9.123 4.273-16.323 4.273c-1.934 0-7.802-.137-17.605-.413l2.803-15.846h13.534l-.519 2.9c2.103.112 3.595.168 4.542.168 3.868 0 6.088-1.604 6.658-4.813.378-2.157-1.381-3.792-5.278-4.904-5.541-1.546-9.066-2.9-10.576-4.063-3.611-2.77-4.863-7.279-3.756-13.528 1.233-6.972 4.1-11.923 8.599-14.851 3.869-2.49 9.373-3.734 16.512-3.734 1.72 0 4.084.084 7.093.252 3.27.22 5.606.33 7.008.33l-2.768 15.685h-12.447l.469-2.655a30.989 30.989 0 00-3.42-.253c-4.051 0-6.361 1.605-6.931 4.813-.374 2.102 1.392 3.706 5.298 4.813 5.607 1.546 9.163 2.875 10.667 3.986 3.612 2.662 4.897 6.952 3.855 12.869zM374.733 123.157h-15.201l-.946-12.028h-13.611l-.862 1.66h2.656l-1.829 10.368h-17.605l1.619-9.212 23.233-48.87h16.021l6.525 58.082zm-17.009-24.064c-.215-4.091-.461-10.23-.736-18.417-.524 2.045-2.822 8.184-6.897 18.417h7.633zM423 123.157h-15.187l-.953-12.028h-13.611l-.876 1.66h2.656l-1.857 10.368h-17.57l1.626-9.212 23.233-48.87h16.021L423 123.156zm-17.002-24.064c-.225-4.091-.458-10.23-.701-18.417-.524 2.045-2.825 8.184-6.904 18.417h7.605z" fill="#11175E"/></g><defs><radialGradient id="paint0_radial" cx="0" cy="0" r="1" gradientUnits="userSpaceOnUse" gradientTransform="matrix(103.332 0 0 103.289 122.15 80.942)"><stop stop-color="#fff"/><stop offset="1" stop-color="#FFC425"/></radialGradient><radialGradient id="paint1_radial" cx="0" cy="0" r="1" gradientUnits="userSpaceOnUse" gradientTransform="matrix(1679.37 0 0 1117.11 20755.5 7752.92)"><stop stop-color="#fff"/><stop offset="1" stop-color="#FFC425"/></radialGradient><clipPath id="clip0"><path fill="#fff" d="M0 0h423v180H0z"/></clipPath></defs></svg>